%TF.GenerationSoftware,KiCad,Pcbnew,4.0.7-e2-6376~58~ubuntu16.04.1*%
%TF.CreationDate,2018-01-20T15:39:55+01:00*%
%TF.ProjectId,OLEDModule,4F4C45444D6F64756C652E6B69636164,rev?*%
%TF.FileFunction,Legend,Bot*%
%FSLAX46Y46*%
G04 Gerber Fmt 4.6, Leading zero omitted, Abs format (unit mm)*
G04 Created by KiCad (PCBNEW 4.0.7-e2-6376~58~ubuntu16.04.1) date Sat Jan 20 15:39:55 2018*
%MOMM*%
%LPD*%
G01*
G04 APERTURE LIST*
%ADD10C,0.100000*%
%ADD11C,0.200000*%
%ADD12C,0.175000*%
%ADD13C,0.010000*%
%ADD14C,0.120000*%
%ADD15C,0.150000*%
G04 APERTURE END LIST*
D10*
D11*
X10414000Y-12954000D02*
X10541000Y-12954000D01*
D12*
X10638667Y-17360000D02*
X10605333Y-17260000D01*
X10605333Y-17093333D01*
X10638667Y-17026666D01*
X10672000Y-16993333D01*
X10738667Y-16960000D01*
X10805333Y-16960000D01*
X10872000Y-16993333D01*
X10905333Y-17026666D01*
X10938667Y-17093333D01*
X10972000Y-17226666D01*
X11005333Y-17293333D01*
X11038667Y-17326666D01*
X11105333Y-17360000D01*
X11172000Y-17360000D01*
X11238667Y-17326666D01*
X11272000Y-17293333D01*
X11305333Y-17226666D01*
X11305333Y-17060000D01*
X11272000Y-16960000D01*
X10605333Y-16659999D02*
X11305333Y-16659999D01*
X11305333Y-16493333D01*
X11272000Y-16393333D01*
X11205333Y-16326666D01*
X11138667Y-16293333D01*
X11005333Y-16259999D01*
X10905333Y-16259999D01*
X10772000Y-16293333D01*
X10705333Y-16326666D01*
X10638667Y-16393333D01*
X10605333Y-16493333D01*
X10605333Y-16659999D01*
X10805333Y-15993333D02*
X10805333Y-15659999D01*
X10605333Y-16059999D02*
X11305333Y-15826666D01*
X10605333Y-15593333D01*
X12797667Y-17343334D02*
X12764333Y-17243334D01*
X12764333Y-17076667D01*
X12797667Y-17010000D01*
X12831000Y-16976667D01*
X12897667Y-16943334D01*
X12964333Y-16943334D01*
X13031000Y-16976667D01*
X13064333Y-17010000D01*
X13097667Y-17076667D01*
X13131000Y-17210000D01*
X13164333Y-17276667D01*
X13197667Y-17310000D01*
X13264333Y-17343334D01*
X13331000Y-17343334D01*
X13397667Y-17310000D01*
X13431000Y-17276667D01*
X13464333Y-17210000D01*
X13464333Y-17043334D01*
X13431000Y-16943334D01*
X12831000Y-16243333D02*
X12797667Y-16276667D01*
X12764333Y-16376667D01*
X12764333Y-16443333D01*
X12797667Y-16543333D01*
X12864333Y-16610000D01*
X12931000Y-16643333D01*
X13064333Y-16676667D01*
X13164333Y-16676667D01*
X13297667Y-16643333D01*
X13364333Y-16610000D01*
X13431000Y-16543333D01*
X13464333Y-16443333D01*
X13464333Y-16376667D01*
X13431000Y-16276667D01*
X13397667Y-16243333D01*
X12764333Y-15610000D02*
X12764333Y-15943333D01*
X13464333Y-15943333D01*
X15369333Y-17189333D02*
X14669333Y-16956000D01*
X15369333Y-16722667D01*
X14736000Y-16089333D02*
X14702667Y-16122667D01*
X14669333Y-16222667D01*
X14669333Y-16289333D01*
X14702667Y-16389333D01*
X14769333Y-16456000D01*
X14836000Y-16489333D01*
X14969333Y-16522667D01*
X15069333Y-16522667D01*
X15202667Y-16489333D01*
X15269333Y-16456000D01*
X15336000Y-16389333D01*
X15369333Y-16289333D01*
X15369333Y-16222667D01*
X15336000Y-16122667D01*
X15302667Y-16089333D01*
X14736000Y-15389333D02*
X14702667Y-15422667D01*
X14669333Y-15522667D01*
X14669333Y-15589333D01*
X14702667Y-15689333D01*
X14769333Y-15756000D01*
X14836000Y-15789333D01*
X14969333Y-15822667D01*
X15069333Y-15822667D01*
X15202667Y-15789333D01*
X15269333Y-15756000D01*
X15336000Y-15689333D01*
X15369333Y-15589333D01*
X15369333Y-15522667D01*
X15336000Y-15422667D01*
X15302667Y-15389333D01*
X17368000Y-16789333D02*
X17401333Y-16855999D01*
X17401333Y-16955999D01*
X17368000Y-17055999D01*
X17301333Y-17122666D01*
X17234667Y-17155999D01*
X17101333Y-17189333D01*
X17001333Y-17189333D01*
X16868000Y-17155999D01*
X16801333Y-17122666D01*
X16734667Y-17055999D01*
X16701333Y-16955999D01*
X16701333Y-16889333D01*
X16734667Y-16789333D01*
X16768000Y-16755999D01*
X17001333Y-16755999D01*
X17001333Y-16889333D01*
X16701333Y-16455999D02*
X17401333Y-16455999D01*
X16701333Y-16055999D01*
X17401333Y-16055999D01*
X16701333Y-15722666D02*
X17401333Y-15722666D01*
X17401333Y-15556000D01*
X17368000Y-15456000D01*
X17301333Y-15389333D01*
X17234667Y-15356000D01*
X17101333Y-15322666D01*
X17001333Y-15322666D01*
X16868000Y-15356000D01*
X16801333Y-15389333D01*
X16734667Y-15456000D01*
X16701333Y-15556000D01*
X16701333Y-15722666D01*
D13*
G36*
X27117676Y-20272210D02*
X27087995Y-20262428D01*
X27070050Y-20257363D01*
X27050716Y-20247258D01*
X27038300Y-20237450D01*
X27019892Y-20223271D01*
X27012900Y-20220198D01*
X26994553Y-20215023D01*
X26957528Y-20200651D01*
X26906099Y-20178764D01*
X26892250Y-20172653D01*
X26859922Y-20158563D01*
X26838599Y-20149766D01*
X26835100Y-20148550D01*
X26820600Y-20142890D01*
X26791623Y-20130475D01*
X26777950Y-20124448D01*
X26716828Y-20097508D01*
X26676192Y-20080058D01*
X26657336Y-20072653D01*
X26657300Y-20072643D01*
X26642794Y-20066802D01*
X26613807Y-20054278D01*
X26600150Y-20048248D01*
X26537048Y-20020443D01*
X26496795Y-20003221D01*
X26479500Y-19996575D01*
X26465198Y-19990743D01*
X26435830Y-19977780D01*
X26416000Y-19968808D01*
X26361360Y-19944801D01*
X26326863Y-19931944D01*
X26310256Y-19929412D01*
X26309251Y-19929823D01*
X26297485Y-19924398D01*
X26277634Y-19908457D01*
X26258753Y-19894392D01*
X26250900Y-19894550D01*
X26243222Y-19895363D01*
X26228675Y-19884724D01*
X26207644Y-19868459D01*
X26197059Y-19863358D01*
X26168326Y-19855174D01*
X26119574Y-19835377D01*
X26085800Y-19820293D01*
X26051053Y-19805048D01*
X26026403Y-19795339D01*
X26020184Y-19793590D01*
X26004013Y-19787535D01*
X26007530Y-19775723D01*
X26026702Y-19761484D01*
X26057499Y-19748150D01*
X26083617Y-19741177D01*
X26109862Y-19733132D01*
X26121717Y-19728351D01*
X26142969Y-19719252D01*
X26149300Y-19716783D01*
X26166103Y-19710371D01*
X26195850Y-19698584D01*
X26227971Y-19685644D01*
X26250900Y-19676196D01*
X26271257Y-19667858D01*
X26276300Y-19665950D01*
X26292026Y-19659514D01*
X26303884Y-19654350D01*
X26331599Y-19644688D01*
X26341984Y-19642390D01*
X26367354Y-19633601D01*
X26377900Y-19627861D01*
X26407197Y-19615418D01*
X26421354Y-19612090D01*
X26449071Y-19603524D01*
X26459454Y-19597503D01*
X26479642Y-19587045D01*
X26513090Y-19574265D01*
X26523950Y-19570700D01*
X26558878Y-19558347D01*
X26583614Y-19547195D01*
X26587450Y-19544725D01*
X26603713Y-19535139D01*
X26606500Y-19534500D01*
X26613254Y-19533345D01*
X26626685Y-19529181D01*
X26651530Y-19520351D01*
X26692529Y-19505195D01*
X26727150Y-19492264D01*
X26767440Y-19477308D01*
X26797363Y-19466418D01*
X26809700Y-19462188D01*
X26825128Y-19456683D01*
X26854565Y-19445251D01*
X26888526Y-19431625D01*
X26911300Y-19422196D01*
X26931632Y-19414246D01*
X26936700Y-19412651D01*
X26950704Y-19407631D01*
X26982263Y-19395625D01*
X27025299Y-19378953D01*
X27038300Y-19373873D01*
X27083853Y-19356796D01*
X27120168Y-19344584D01*
X27140948Y-19339310D01*
X27143075Y-19339345D01*
X27146818Y-19328612D01*
X27149870Y-19297370D01*
X27151905Y-19250506D01*
X27152600Y-19196051D01*
X27151632Y-19137055D01*
X27148978Y-19089959D01*
X27145021Y-19059438D01*
X27140727Y-19050000D01*
X27120520Y-19054173D01*
X27099452Y-19061179D01*
X27073117Y-19070303D01*
X27060392Y-19073622D01*
X27043401Y-19079849D01*
X27015203Y-19093267D01*
X27012900Y-19094450D01*
X26984303Y-19108217D01*
X26966060Y-19115167D01*
X26965409Y-19115279D01*
X26947201Y-19120210D01*
X26924000Y-19128099D01*
X26889036Y-19140668D01*
X26869923Y-19146945D01*
X26858710Y-19149501D01*
X26857192Y-19149726D01*
X26840207Y-19156020D01*
X26811981Y-19169478D01*
X26809567Y-19170719D01*
X26784271Y-19181588D01*
X26771858Y-19182582D01*
X26771600Y-19181708D01*
X26763742Y-19182583D01*
X26746200Y-19196050D01*
X26727873Y-19209962D01*
X26720800Y-19210393D01*
X26711085Y-19209657D01*
X26687256Y-19219153D01*
X26682834Y-19221382D01*
X26656323Y-19234336D01*
X26642017Y-19239888D01*
X26641559Y-19239865D01*
X26628598Y-19243072D01*
X26601054Y-19252409D01*
X26567967Y-19264679D01*
X26543000Y-19274705D01*
X26522677Y-19282544D01*
X26517600Y-19284048D01*
X26502094Y-19290936D01*
X26498550Y-19292979D01*
X26480163Y-19300831D01*
X26446021Y-19313089D01*
X26416000Y-19323050D01*
X26375728Y-19336567D01*
X26344988Y-19347945D01*
X26333450Y-19353122D01*
X26316507Y-19361424D01*
X26314400Y-19362020D01*
X26299329Y-19367147D01*
X26271534Y-19377836D01*
X26269950Y-19378466D01*
X26232945Y-19392915D01*
X26212495Y-19399770D01*
X26201705Y-19401200D01*
X26198877Y-19400809D01*
X26183751Y-19406356D01*
X26173477Y-19413445D01*
X26151955Y-19425028D01*
X26115394Y-19439836D01*
X26085800Y-19450050D01*
X26045496Y-19463850D01*
X26014749Y-19475954D01*
X26003250Y-19481826D01*
X25983778Y-19491348D01*
X25950810Y-19503603D01*
X25939750Y-19507213D01*
X25904873Y-19519000D01*
X25880137Y-19528764D01*
X25876250Y-19530736D01*
X25853493Y-19540017D01*
X25850850Y-19540602D01*
X25831831Y-19546791D01*
X25800255Y-19559251D01*
X25790586Y-19563330D01*
X25759232Y-19576035D01*
X25739058Y-19582884D01*
X25736478Y-19583288D01*
X25721840Y-19588280D01*
X25694968Y-19600979D01*
X25692100Y-19602450D01*
X25663503Y-19616217D01*
X25645260Y-19623167D01*
X25644609Y-19623279D01*
X25625074Y-19628698D01*
X25592372Y-19640052D01*
X25556863Y-19653714D01*
X25552400Y-19655546D01*
X25527741Y-19664602D01*
X25520650Y-19666703D01*
X25501921Y-19673569D01*
X25470130Y-19686883D01*
X25457150Y-19692588D01*
X25424837Y-19706635D01*
X25403512Y-19715270D01*
X25400000Y-19716401D01*
X25386749Y-19723604D01*
X25359581Y-19740803D01*
X25337776Y-19755272D01*
X25301972Y-19779301D01*
X25272517Y-19798871D01*
X25262142Y-19805650D01*
X25232277Y-19828039D01*
X25198733Y-19857805D01*
X25167245Y-19889205D01*
X25143543Y-19916497D01*
X25133360Y-19933940D01*
X25133300Y-19934717D01*
X25126839Y-19950261D01*
X25122501Y-19951700D01*
X25112272Y-19962147D01*
X25095093Y-19989028D01*
X25074524Y-20025651D01*
X25054124Y-20065328D01*
X25037453Y-20101367D01*
X25028070Y-20127078D01*
X25027360Y-20130524D01*
X25019872Y-20155921D01*
X25017215Y-20161250D01*
X25013174Y-20179582D01*
X25009630Y-20215624D01*
X25007331Y-20261687D01*
X25007288Y-20263180D01*
X25004781Y-20352410D01*
X25125281Y-20351932D01*
X25177957Y-20351113D01*
X25220322Y-20349305D01*
X25246481Y-20346820D01*
X25251849Y-20345252D01*
X25256650Y-20330187D01*
X25262606Y-20297932D01*
X25266651Y-20269200D01*
X25273784Y-20227404D01*
X25282729Y-20195034D01*
X25288447Y-20183475D01*
X25295051Y-20169928D01*
X25292050Y-20167600D01*
X25291139Y-20159712D01*
X25299525Y-20147196D01*
X25319423Y-20118518D01*
X25329759Y-20100113D01*
X25348007Y-20076904D01*
X25378636Y-20049283D01*
X25393755Y-20037972D01*
X25433938Y-20011771D01*
X25480938Y-19983988D01*
X25529504Y-19957353D01*
X25574380Y-19934596D01*
X25610314Y-19918448D01*
X25632051Y-19911637D01*
X25635705Y-19912239D01*
X25651772Y-19920553D01*
X25651884Y-19920562D01*
X25666913Y-19925901D01*
X25697990Y-19939275D01*
X25736550Y-19956935D01*
X25777767Y-19975626D01*
X25810708Y-19989381D01*
X25827344Y-19994980D01*
X25849378Y-20004584D01*
X25859094Y-20011502D01*
X25878832Y-20024633D01*
X25885642Y-20027168D01*
X25915764Y-20036022D01*
X25966310Y-20056715D01*
X25996900Y-20070408D01*
X26031152Y-20085646D01*
X26054791Y-20095451D01*
X26060400Y-20097306D01*
X26075265Y-20104016D01*
X26085800Y-20110288D01*
X26109142Y-20121968D01*
X26117550Y-20124393D01*
X26135819Y-20130474D01*
X26167972Y-20143731D01*
X26187400Y-20152362D01*
X26271670Y-20190517D01*
X26344458Y-20223075D01*
X26402949Y-20248799D01*
X26444330Y-20266454D01*
X26465785Y-20274802D01*
X26466800Y-20275098D01*
X26480705Y-20280960D01*
X26510923Y-20294671D01*
X26549350Y-20312535D01*
X26590204Y-20331157D01*
X26622406Y-20344829D01*
X26638250Y-20350381D01*
X26659344Y-20358553D01*
X26670000Y-20364613D01*
X26689544Y-20375554D01*
X26695400Y-20377728D01*
X26709890Y-20383031D01*
X26738845Y-20395233D01*
X26752550Y-20401253D01*
X26810837Y-20426961D01*
X26848768Y-20443243D01*
X26869076Y-20451259D01*
X26873200Y-20452481D01*
X26888090Y-20459571D01*
X26898600Y-20465888D01*
X26921951Y-20477638D01*
X26930350Y-20480120D01*
X26947696Y-20486275D01*
X26980599Y-20500319D01*
X27019250Y-20517966D01*
X27059281Y-20536281D01*
X27089846Y-20549388D01*
X27103917Y-20554339D01*
X27119936Y-20562647D01*
X27121909Y-20564475D01*
X27134501Y-20572794D01*
X27143262Y-20566557D01*
X27148796Y-20543102D01*
X27151706Y-20499768D01*
X27152598Y-20433892D01*
X27152601Y-20429193D01*
X27152601Y-20284385D01*
X27117676Y-20272210D01*
X27117676Y-20272210D01*
G37*
X27117676Y-20272210D02*
X27087995Y-20262428D01*
X27070050Y-20257363D01*
X27050716Y-20247258D01*
X27038300Y-20237450D01*
X27019892Y-20223271D01*
X27012900Y-20220198D01*
X26994553Y-20215023D01*
X26957528Y-20200651D01*
X26906099Y-20178764D01*
X26892250Y-20172653D01*
X26859922Y-20158563D01*
X26838599Y-20149766D01*
X26835100Y-20148550D01*
X26820600Y-20142890D01*
X26791623Y-20130475D01*
X26777950Y-20124448D01*
X26716828Y-20097508D01*
X26676192Y-20080058D01*
X26657336Y-20072653D01*
X26657300Y-20072643D01*
X26642794Y-20066802D01*
X26613807Y-20054278D01*
X26600150Y-20048248D01*
X26537048Y-20020443D01*
X26496795Y-20003221D01*
X26479500Y-19996575D01*
X26465198Y-19990743D01*
X26435830Y-19977780D01*
X26416000Y-19968808D01*
X26361360Y-19944801D01*
X26326863Y-19931944D01*
X26310256Y-19929412D01*
X26309251Y-19929823D01*
X26297485Y-19924398D01*
X26277634Y-19908457D01*
X26258753Y-19894392D01*
X26250900Y-19894550D01*
X26243222Y-19895363D01*
X26228675Y-19884724D01*
X26207644Y-19868459D01*
X26197059Y-19863358D01*
X26168326Y-19855174D01*
X26119574Y-19835377D01*
X26085800Y-19820293D01*
X26051053Y-19805048D01*
X26026403Y-19795339D01*
X26020184Y-19793590D01*
X26004013Y-19787535D01*
X26007530Y-19775723D01*
X26026702Y-19761484D01*
X26057499Y-19748150D01*
X26083617Y-19741177D01*
X26109862Y-19733132D01*
X26121717Y-19728351D01*
X26142969Y-19719252D01*
X26149300Y-19716783D01*
X26166103Y-19710371D01*
X26195850Y-19698584D01*
X26227971Y-19685644D01*
X26250900Y-19676196D01*
X26271257Y-19667858D01*
X26276300Y-19665950D01*
X26292026Y-19659514D01*
X26303884Y-19654350D01*
X26331599Y-19644688D01*
X26341984Y-19642390D01*
X26367354Y-19633601D01*
X26377900Y-19627861D01*
X26407197Y-19615418D01*
X26421354Y-19612090D01*
X26449071Y-19603524D01*
X26459454Y-19597503D01*
X26479642Y-19587045D01*
X26513090Y-19574265D01*
X26523950Y-19570700D01*
X26558878Y-19558347D01*
X26583614Y-19547195D01*
X26587450Y-19544725D01*
X26603713Y-19535139D01*
X26606500Y-19534500D01*
X26613254Y-19533345D01*
X26626685Y-19529181D01*
X26651530Y-19520351D01*
X26692529Y-19505195D01*
X26727150Y-19492264D01*
X26767440Y-19477308D01*
X26797363Y-19466418D01*
X26809700Y-19462188D01*
X26825128Y-19456683D01*
X26854565Y-19445251D01*
X26888526Y-19431625D01*
X26911300Y-19422196D01*
X26931632Y-19414246D01*
X26936700Y-19412651D01*
X26950704Y-19407631D01*
X26982263Y-19395625D01*
X27025299Y-19378953D01*
X27038300Y-19373873D01*
X27083853Y-19356796D01*
X27120168Y-19344584D01*
X27140948Y-19339310D01*
X27143075Y-19339345D01*
X27146818Y-19328612D01*
X27149870Y-19297370D01*
X27151905Y-19250506D01*
X27152600Y-19196051D01*
X27151632Y-19137055D01*
X27148978Y-19089959D01*
X27145021Y-19059438D01*
X27140727Y-19050000D01*
X27120520Y-19054173D01*
X27099452Y-19061179D01*
X27073117Y-19070303D01*
X27060392Y-19073622D01*
X27043401Y-19079849D01*
X27015203Y-19093267D01*
X27012900Y-19094450D01*
X26984303Y-19108217D01*
X26966060Y-19115167D01*
X26965409Y-19115279D01*
X26947201Y-19120210D01*
X26924000Y-19128099D01*
X26889036Y-19140668D01*
X26869923Y-19146945D01*
X26858710Y-19149501D01*
X26857192Y-19149726D01*
X26840207Y-19156020D01*
X26811981Y-19169478D01*
X26809567Y-19170719D01*
X26784271Y-19181588D01*
X26771858Y-19182582D01*
X26771600Y-19181708D01*
X26763742Y-19182583D01*
X26746200Y-19196050D01*
X26727873Y-19209962D01*
X26720800Y-19210393D01*
X26711085Y-19209657D01*
X26687256Y-19219153D01*
X26682834Y-19221382D01*
X26656323Y-19234336D01*
X26642017Y-19239888D01*
X26641559Y-19239865D01*
X26628598Y-19243072D01*
X26601054Y-19252409D01*
X26567967Y-19264679D01*
X26543000Y-19274705D01*
X26522677Y-19282544D01*
X26517600Y-19284048D01*
X26502094Y-19290936D01*
X26498550Y-19292979D01*
X26480163Y-19300831D01*
X26446021Y-19313089D01*
X26416000Y-19323050D01*
X26375728Y-19336567D01*
X26344988Y-19347945D01*
X26333450Y-19353122D01*
X26316507Y-19361424D01*
X26314400Y-19362020D01*
X26299329Y-19367147D01*
X26271534Y-19377836D01*
X26269950Y-19378466D01*
X26232945Y-19392915D01*
X26212495Y-19399770D01*
X26201705Y-19401200D01*
X26198877Y-19400809D01*
X26183751Y-19406356D01*
X26173477Y-19413445D01*
X26151955Y-19425028D01*
X26115394Y-19439836D01*
X26085800Y-19450050D01*
X26045496Y-19463850D01*
X26014749Y-19475954D01*
X26003250Y-19481826D01*
X25983778Y-19491348D01*
X25950810Y-19503603D01*
X25939750Y-19507213D01*
X25904873Y-19519000D01*
X25880137Y-19528764D01*
X25876250Y-19530736D01*
X25853493Y-19540017D01*
X25850850Y-19540602D01*
X25831831Y-19546791D01*
X25800255Y-19559251D01*
X25790586Y-19563330D01*
X25759232Y-19576035D01*
X25739058Y-19582884D01*
X25736478Y-19583288D01*
X25721840Y-19588280D01*
X25694968Y-19600979D01*
X25692100Y-19602450D01*
X25663503Y-19616217D01*
X25645260Y-19623167D01*
X25644609Y-19623279D01*
X25625074Y-19628698D01*
X25592372Y-19640052D01*
X25556863Y-19653714D01*
X25552400Y-19655546D01*
X25527741Y-19664602D01*
X25520650Y-19666703D01*
X25501921Y-19673569D01*
X25470130Y-19686883D01*
X25457150Y-19692588D01*
X25424837Y-19706635D01*
X25403512Y-19715270D01*
X25400000Y-19716401D01*
X25386749Y-19723604D01*
X25359581Y-19740803D01*
X25337776Y-19755272D01*
X25301972Y-19779301D01*
X25272517Y-19798871D01*
X25262142Y-19805650D01*
X25232277Y-19828039D01*
X25198733Y-19857805D01*
X25167245Y-19889205D01*
X25143543Y-19916497D01*
X25133360Y-19933940D01*
X25133300Y-19934717D01*
X25126839Y-19950261D01*
X25122501Y-19951700D01*
X25112272Y-19962147D01*
X25095093Y-19989028D01*
X25074524Y-20025651D01*
X25054124Y-20065328D01*
X25037453Y-20101367D01*
X25028070Y-20127078D01*
X25027360Y-20130524D01*
X25019872Y-20155921D01*
X25017215Y-20161250D01*
X25013174Y-20179582D01*
X25009630Y-20215624D01*
X25007331Y-20261687D01*
X25007288Y-20263180D01*
X25004781Y-20352410D01*
X25125281Y-20351932D01*
X25177957Y-20351113D01*
X25220322Y-20349305D01*
X25246481Y-20346820D01*
X25251849Y-20345252D01*
X25256650Y-20330187D01*
X25262606Y-20297932D01*
X25266651Y-20269200D01*
X25273784Y-20227404D01*
X25282729Y-20195034D01*
X25288447Y-20183475D01*
X25295051Y-20169928D01*
X25292050Y-20167600D01*
X25291139Y-20159712D01*
X25299525Y-20147196D01*
X25319423Y-20118518D01*
X25329759Y-20100113D01*
X25348007Y-20076904D01*
X25378636Y-20049283D01*
X25393755Y-20037972D01*
X25433938Y-20011771D01*
X25480938Y-19983988D01*
X25529504Y-19957353D01*
X25574380Y-19934596D01*
X25610314Y-19918448D01*
X25632051Y-19911637D01*
X25635705Y-19912239D01*
X25651772Y-19920553D01*
X25651884Y-19920562D01*
X25666913Y-19925901D01*
X25697990Y-19939275D01*
X25736550Y-19956935D01*
X25777767Y-19975626D01*
X25810708Y-19989381D01*
X25827344Y-19994980D01*
X25849378Y-20004584D01*
X25859094Y-20011502D01*
X25878832Y-20024633D01*
X25885642Y-20027168D01*
X25915764Y-20036022D01*
X25966310Y-20056715D01*
X25996900Y-20070408D01*
X26031152Y-20085646D01*
X26054791Y-20095451D01*
X26060400Y-20097306D01*
X26075265Y-20104016D01*
X26085800Y-20110288D01*
X26109142Y-20121968D01*
X26117550Y-20124393D01*
X26135819Y-20130474D01*
X26167972Y-20143731D01*
X26187400Y-20152362D01*
X26271670Y-20190517D01*
X26344458Y-20223075D01*
X26402949Y-20248799D01*
X26444330Y-20266454D01*
X26465785Y-20274802D01*
X26466800Y-20275098D01*
X26480705Y-20280960D01*
X26510923Y-20294671D01*
X26549350Y-20312535D01*
X26590204Y-20331157D01*
X26622406Y-20344829D01*
X26638250Y-20350381D01*
X26659344Y-20358553D01*
X26670000Y-20364613D01*
X26689544Y-20375554D01*
X26695400Y-20377728D01*
X26709890Y-20383031D01*
X26738845Y-20395233D01*
X26752550Y-20401253D01*
X26810837Y-20426961D01*
X26848768Y-20443243D01*
X26869076Y-20451259D01*
X26873200Y-20452481D01*
X26888090Y-20459571D01*
X26898600Y-20465888D01*
X26921951Y-20477638D01*
X26930350Y-20480120D01*
X26947696Y-20486275D01*
X26980599Y-20500319D01*
X27019250Y-20517966D01*
X27059281Y-20536281D01*
X27089846Y-20549388D01*
X27103917Y-20554339D01*
X27119936Y-20562647D01*
X27121909Y-20564475D01*
X27134501Y-20572794D01*
X27143262Y-20566557D01*
X27148796Y-20543102D01*
X27151706Y-20499768D01*
X27152598Y-20433892D01*
X27152601Y-20429193D01*
X27152601Y-20284385D01*
X27117676Y-20272210D01*
G36*
X25342850Y-20091400D02*
X25336500Y-20097750D01*
X25342850Y-20104100D01*
X25349200Y-20097750D01*
X25342850Y-20091400D01*
X25342850Y-20091400D01*
G37*
X25342850Y-20091400D02*
X25336500Y-20097750D01*
X25342850Y-20104100D01*
X25349200Y-20097750D01*
X25342850Y-20091400D01*
G36*
X25963906Y-18868701D02*
X25957940Y-18839039D01*
X25943050Y-18814363D01*
X25915144Y-18784472D01*
X25912021Y-18781344D01*
X25878632Y-18750505D01*
X25850714Y-18734103D01*
X25817431Y-18727100D01*
X25791610Y-18725370D01*
X25729455Y-18728537D01*
X25679623Y-18747157D01*
X25632495Y-18785147D01*
X25624332Y-18793528D01*
X25596777Y-18838121D01*
X25581854Y-18894735D01*
X25580996Y-18953015D01*
X25595415Y-19002194D01*
X25616352Y-19038270D01*
X25635541Y-19066992D01*
X25649301Y-19083284D01*
X25654000Y-19083021D01*
X25661833Y-19081066D01*
X25674289Y-19089128D01*
X25712273Y-19108288D01*
X25761582Y-19117363D01*
X25812426Y-19116093D01*
X25855014Y-19104219D01*
X25870031Y-19094333D01*
X25888219Y-19081337D01*
X25895300Y-19082730D01*
X25901585Y-19080058D01*
X25917653Y-19060870D01*
X25930225Y-19043424D01*
X25951006Y-19008328D01*
X25961571Y-18973397D01*
X25964956Y-18927303D01*
X25965038Y-18913550D01*
X25963906Y-18868701D01*
X25963906Y-18868701D01*
G37*
X25963906Y-18868701D02*
X25957940Y-18839039D01*
X25943050Y-18814363D01*
X25915144Y-18784472D01*
X25912021Y-18781344D01*
X25878632Y-18750505D01*
X25850714Y-18734103D01*
X25817431Y-18727100D01*
X25791610Y-18725370D01*
X25729455Y-18728537D01*
X25679623Y-18747157D01*
X25632495Y-18785147D01*
X25624332Y-18793528D01*
X25596777Y-18838121D01*
X25581854Y-18894735D01*
X25580996Y-18953015D01*
X25595415Y-19002194D01*
X25616352Y-19038270D01*
X25635541Y-19066992D01*
X25649301Y-19083284D01*
X25654000Y-19083021D01*
X25661833Y-19081066D01*
X25674289Y-19089128D01*
X25712273Y-19108288D01*
X25761582Y-19117363D01*
X25812426Y-19116093D01*
X25855014Y-19104219D01*
X25870031Y-19094333D01*
X25888219Y-19081337D01*
X25895300Y-19082730D01*
X25901585Y-19080058D01*
X25917653Y-19060870D01*
X25930225Y-19043424D01*
X25951006Y-19008328D01*
X25961571Y-18973397D01*
X25964956Y-18927303D01*
X25965038Y-18913550D01*
X25963906Y-18868701D01*
G36*
X27184162Y-17676049D02*
X27177280Y-17595286D01*
X27161616Y-17523282D01*
X27135238Y-17451955D01*
X27096214Y-17373226D01*
X27082448Y-17348200D01*
X27066919Y-17326933D01*
X27039440Y-17295065D01*
X27004425Y-17257117D01*
X26966286Y-17217610D01*
X26929437Y-17181064D01*
X26898290Y-17151999D01*
X26877258Y-17134934D01*
X26871668Y-17132300D01*
X26855833Y-17125726D01*
X26827938Y-17109203D01*
X26815661Y-17101106D01*
X26772548Y-17076615D01*
X26716319Y-17050823D01*
X26657989Y-17028311D01*
X26608573Y-17013659D01*
X26602161Y-17012337D01*
X26580524Y-17007418D01*
X26574750Y-17004984D01*
X26563062Y-17000561D01*
X26532031Y-16996862D01*
X26487706Y-16994026D01*
X26436138Y-16992193D01*
X26383378Y-16991504D01*
X26335475Y-16992099D01*
X26298478Y-16994116D01*
X26278440Y-16997698D01*
X26277656Y-16998113D01*
X26274143Y-17009347D01*
X26271176Y-17039033D01*
X26268732Y-17088180D01*
X26266791Y-17157796D01*
X26265329Y-17248890D01*
X26264325Y-17362472D01*
X26263757Y-17499549D01*
X26263600Y-17641231D01*
X26263600Y-18275663D01*
X26222845Y-18268483D01*
X26189127Y-18259372D01*
X26165695Y-18247696D01*
X26151783Y-18239530D01*
X26149300Y-18241242D01*
X26140317Y-18243156D01*
X26116790Y-18232402D01*
X26083852Y-18212375D01*
X26046636Y-18186470D01*
X26010276Y-18158081D01*
X25979904Y-18130602D01*
X25976198Y-18126785D01*
X25952326Y-18096318D01*
X25924342Y-18053034D01*
X25896903Y-18005106D01*
X25874664Y-17960707D01*
X25862282Y-17928012D01*
X25861837Y-17926050D01*
X25857516Y-17903622D01*
X25854656Y-17887950D01*
X25846967Y-17860322D01*
X25841875Y-17849372D01*
X25838174Y-17830908D01*
X25835801Y-17794365D01*
X25834733Y-17747028D01*
X25834945Y-17696181D01*
X25836412Y-17649110D01*
X25839109Y-17613099D01*
X25842739Y-17595850D01*
X25850938Y-17573055D01*
X25853849Y-17559149D01*
X25865781Y-17518980D01*
X25887630Y-17470751D01*
X25913504Y-17426287D01*
X25931825Y-17402707D01*
X25950866Y-17380627D01*
X25958800Y-17366884D01*
X25958800Y-17366874D01*
X25966725Y-17352638D01*
X25977850Y-17340036D01*
X25992834Y-17327809D01*
X25996900Y-17328159D01*
X26005080Y-17325939D01*
X26024991Y-17310890D01*
X26027175Y-17309009D01*
X26047085Y-17288712D01*
X26049567Y-17270521D01*
X26039070Y-17245846D01*
X26023067Y-17218159D01*
X26009878Y-17202329D01*
X26009610Y-17202156D01*
X25998481Y-17187817D01*
X25980883Y-17157578D01*
X25964609Y-17125982D01*
X25944385Y-17087537D01*
X25927380Y-17069039D01*
X25907683Y-17069783D01*
X25879386Y-17089065D01*
X25852050Y-17112549D01*
X25825717Y-17133471D01*
X25806880Y-17144497D01*
X25804425Y-17145000D01*
X25795188Y-17155446D01*
X25793700Y-17166167D01*
X25790076Y-17180349D01*
X25785839Y-17179472D01*
X25772493Y-17180571D01*
X25755341Y-17194680D01*
X25743842Y-17213147D01*
X25742900Y-17218738D01*
X25734183Y-17236192D01*
X25724414Y-17246133D01*
X25709283Y-17265599D01*
X25688259Y-17300986D01*
X25664903Y-17345155D01*
X25642774Y-17390970D01*
X25625433Y-17431295D01*
X25616439Y-17458990D01*
X25615900Y-17463671D01*
X25610870Y-17486737D01*
X25607066Y-17492501D01*
X25600124Y-17502790D01*
X25594981Y-17520363D01*
X25591200Y-17549246D01*
X25588347Y-17593461D01*
X25585984Y-17657035D01*
X25584847Y-17697450D01*
X25584126Y-17763505D01*
X25585246Y-17826111D01*
X25587968Y-17877590D01*
X25591387Y-17907000D01*
X25602560Y-17965605D01*
X25611496Y-18005870D01*
X25620139Y-18034510D01*
X25630432Y-18058238D01*
X25640664Y-18077317D01*
X25654750Y-18106072D01*
X25659804Y-18124211D01*
X25659143Y-18126224D01*
X25662611Y-18137680D01*
X25672744Y-18148046D01*
X25688999Y-18168659D01*
X25692100Y-18179637D01*
X25700753Y-18199117D01*
X25717500Y-18218150D01*
X25736540Y-18240457D01*
X25742900Y-18256072D01*
X25751538Y-18271487D01*
X25774368Y-18298566D01*
X25806768Y-18331908D01*
X25812750Y-18337672D01*
X25845711Y-18367969D01*
X25870292Y-18388353D01*
X25882136Y-18395273D01*
X25882600Y-18394593D01*
X25890552Y-18396270D01*
X25910559Y-18411987D01*
X25920700Y-18421350D01*
X25943901Y-18441352D01*
X25957403Y-18448685D01*
X25958800Y-18447158D01*
X25966629Y-18445751D01*
X25981025Y-18455552D01*
X26011071Y-18475747D01*
X26039861Y-18486846D01*
X26047700Y-18487438D01*
X26062438Y-18492382D01*
X26083450Y-18502642D01*
X26114452Y-18516579D01*
X26134250Y-18522778D01*
X26159954Y-18528359D01*
X26197275Y-18536767D01*
X26207828Y-18539186D01*
X26245861Y-18544420D01*
X26300156Y-18547448D01*
X26364208Y-18548401D01*
X26431508Y-18547411D01*
X26492200Y-18544757D01*
X26492200Y-18276826D01*
X26492200Y-17767207D01*
X26492228Y-17640187D01*
X26492387Y-17536290D01*
X26492792Y-17453239D01*
X26493557Y-17388756D01*
X26494799Y-17340563D01*
X26496632Y-17306385D01*
X26499169Y-17283942D01*
X26502527Y-17270959D01*
X26506821Y-17265159D01*
X26512164Y-17264262D01*
X26517492Y-17265616D01*
X26549858Y-17274149D01*
X26577422Y-17279924D01*
X26609347Y-17289398D01*
X26628331Y-17299708D01*
X26642169Y-17307790D01*
X26644600Y-17306059D01*
X26653728Y-17305720D01*
X26677267Y-17317010D01*
X26709455Y-17336128D01*
X26744529Y-17359272D01*
X26776725Y-17382642D01*
X26800280Y-17402435D01*
X26809429Y-17414779D01*
X26817189Y-17430047D01*
X26835571Y-17453956D01*
X26836405Y-17454920D01*
X26853526Y-17477723D01*
X26858840Y-17491388D01*
X26858630Y-17491783D01*
X26862428Y-17504774D01*
X26874577Y-17521492D01*
X26889393Y-17544053D01*
X26903676Y-17573933D01*
X26914296Y-17603006D01*
X26918126Y-17623147D01*
X26915435Y-17627600D01*
X26915711Y-17635342D01*
X26921776Y-17643971D01*
X26927176Y-17663292D01*
X26930320Y-17700652D01*
X26931251Y-17748792D01*
X26930013Y-17800455D01*
X26926649Y-17848383D01*
X26921202Y-17885318D01*
X26920308Y-17889075D01*
X26899951Y-17960615D01*
X26880797Y-18009664D01*
X26861712Y-18039022D01*
X26858552Y-18042114D01*
X26840551Y-18062242D01*
X26835100Y-18073972D01*
X26825488Y-18094067D01*
X26800904Y-18122293D01*
X26767724Y-18153161D01*
X26732328Y-18181177D01*
X26701093Y-18200852D01*
X26680859Y-18206781D01*
X26666496Y-18213426D01*
X26645934Y-18229644D01*
X26627007Y-18244182D01*
X26619200Y-18245072D01*
X26609876Y-18243465D01*
X26592050Y-18250838D01*
X26558302Y-18263995D01*
X26528550Y-18271097D01*
X26492200Y-18276826D01*
X26492200Y-18544757D01*
X26495551Y-18544610D01*
X26549829Y-18540129D01*
X26587836Y-18534101D01*
X26596975Y-18531305D01*
X26621497Y-18523265D01*
X26631898Y-18523513D01*
X26631900Y-18523591D01*
X26641670Y-18522781D01*
X26665626Y-18512471D01*
X26670000Y-18510250D01*
X26695351Y-18499346D01*
X26707830Y-18498304D01*
X26708100Y-18499193D01*
X26715959Y-18498318D01*
X26733500Y-18484850D01*
X26751778Y-18471471D01*
X26758900Y-18472150D01*
X26766624Y-18472800D01*
X26782156Y-18461391D01*
X26801994Y-18447715D01*
X26811867Y-18446801D01*
X26823913Y-18443408D01*
X26841380Y-18427778D01*
X26862451Y-18408801D01*
X26876085Y-18402300D01*
X26893760Y-18393220D01*
X26922729Y-18369146D01*
X26958310Y-18334833D01*
X26995820Y-18295033D01*
X27030576Y-18254498D01*
X27057895Y-18217983D01*
X27058332Y-18217328D01*
X27095407Y-18156098D01*
X27127134Y-18093390D01*
X27149696Y-18037267D01*
X27157815Y-18007202D01*
X27162754Y-17984096D01*
X27165328Y-17976850D01*
X27171197Y-17964440D01*
X27176321Y-17928354D01*
X27180539Y-17870310D01*
X27183694Y-17792026D01*
X27184194Y-17773650D01*
X27184162Y-17676049D01*
X27184162Y-17676049D01*
G37*
X27184162Y-17676049D02*
X27177280Y-17595286D01*
X27161616Y-17523282D01*
X27135238Y-17451955D01*
X27096214Y-17373226D01*
X27082448Y-17348200D01*
X27066919Y-17326933D01*
X27039440Y-17295065D01*
X27004425Y-17257117D01*
X26966286Y-17217610D01*
X26929437Y-17181064D01*
X26898290Y-17151999D01*
X26877258Y-17134934D01*
X26871668Y-17132300D01*
X26855833Y-17125726D01*
X26827938Y-17109203D01*
X26815661Y-17101106D01*
X26772548Y-17076615D01*
X26716319Y-17050823D01*
X26657989Y-17028311D01*
X26608573Y-17013659D01*
X26602161Y-17012337D01*
X26580524Y-17007418D01*
X26574750Y-17004984D01*
X26563062Y-17000561D01*
X26532031Y-16996862D01*
X26487706Y-16994026D01*
X26436138Y-16992193D01*
X26383378Y-16991504D01*
X26335475Y-16992099D01*
X26298478Y-16994116D01*
X26278440Y-16997698D01*
X26277656Y-16998113D01*
X26274143Y-17009347D01*
X26271176Y-17039033D01*
X26268732Y-17088180D01*
X26266791Y-17157796D01*
X26265329Y-17248890D01*
X26264325Y-17362472D01*
X26263757Y-17499549D01*
X26263600Y-17641231D01*
X26263600Y-18275663D01*
X26222845Y-18268483D01*
X26189127Y-18259372D01*
X26165695Y-18247696D01*
X26151783Y-18239530D01*
X26149300Y-18241242D01*
X26140317Y-18243156D01*
X26116790Y-18232402D01*
X26083852Y-18212375D01*
X26046636Y-18186470D01*
X26010276Y-18158081D01*
X25979904Y-18130602D01*
X25976198Y-18126785D01*
X25952326Y-18096318D01*
X25924342Y-18053034D01*
X25896903Y-18005106D01*
X25874664Y-17960707D01*
X25862282Y-17928012D01*
X25861837Y-17926050D01*
X25857516Y-17903622D01*
X25854656Y-17887950D01*
X25846967Y-17860322D01*
X25841875Y-17849372D01*
X25838174Y-17830908D01*
X25835801Y-17794365D01*
X25834733Y-17747028D01*
X25834945Y-17696181D01*
X25836412Y-17649110D01*
X25839109Y-17613099D01*
X25842739Y-17595850D01*
X25850938Y-17573055D01*
X25853849Y-17559149D01*
X25865781Y-17518980D01*
X25887630Y-17470751D01*
X25913504Y-17426287D01*
X25931825Y-17402707D01*
X25950866Y-17380627D01*
X25958800Y-17366884D01*
X25958800Y-17366874D01*
X25966725Y-17352638D01*
X25977850Y-17340036D01*
X25992834Y-17327809D01*
X25996900Y-17328159D01*
X26005080Y-17325939D01*
X26024991Y-17310890D01*
X26027175Y-17309009D01*
X26047085Y-17288712D01*
X26049567Y-17270521D01*
X26039070Y-17245846D01*
X26023067Y-17218159D01*
X26009878Y-17202329D01*
X26009610Y-17202156D01*
X25998481Y-17187817D01*
X25980883Y-17157578D01*
X25964609Y-17125982D01*
X25944385Y-17087537D01*
X25927380Y-17069039D01*
X25907683Y-17069783D01*
X25879386Y-17089065D01*
X25852050Y-17112549D01*
X25825717Y-17133471D01*
X25806880Y-17144497D01*
X25804425Y-17145000D01*
X25795188Y-17155446D01*
X25793700Y-17166167D01*
X25790076Y-17180349D01*
X25785839Y-17179472D01*
X25772493Y-17180571D01*
X25755341Y-17194680D01*
X25743842Y-17213147D01*
X25742900Y-17218738D01*
X25734183Y-17236192D01*
X25724414Y-17246133D01*
X25709283Y-17265599D01*
X25688259Y-17300986D01*
X25664903Y-17345155D01*
X25642774Y-17390970D01*
X25625433Y-17431295D01*
X25616439Y-17458990D01*
X25615900Y-17463671D01*
X25610870Y-17486737D01*
X25607066Y-17492501D01*
X25600124Y-17502790D01*
X25594981Y-17520363D01*
X25591200Y-17549246D01*
X25588347Y-17593461D01*
X25585984Y-17657035D01*
X25584847Y-17697450D01*
X25584126Y-17763505D01*
X25585246Y-17826111D01*
X25587968Y-17877590D01*
X25591387Y-17907000D01*
X25602560Y-17965605D01*
X25611496Y-18005870D01*
X25620139Y-18034510D01*
X25630432Y-18058238D01*
X25640664Y-18077317D01*
X25654750Y-18106072D01*
X25659804Y-18124211D01*
X25659143Y-18126224D01*
X25662611Y-18137680D01*
X25672744Y-18148046D01*
X25688999Y-18168659D01*
X25692100Y-18179637D01*
X25700753Y-18199117D01*
X25717500Y-18218150D01*
X25736540Y-18240457D01*
X25742900Y-18256072D01*
X25751538Y-18271487D01*
X25774368Y-18298566D01*
X25806768Y-18331908D01*
X25812750Y-18337672D01*
X25845711Y-18367969D01*
X25870292Y-18388353D01*
X25882136Y-18395273D01*
X25882600Y-18394593D01*
X25890552Y-18396270D01*
X25910559Y-18411987D01*
X25920700Y-18421350D01*
X25943901Y-18441352D01*
X25957403Y-18448685D01*
X25958800Y-18447158D01*
X25966629Y-18445751D01*
X25981025Y-18455552D01*
X26011071Y-18475747D01*
X26039861Y-18486846D01*
X26047700Y-18487438D01*
X26062438Y-18492382D01*
X26083450Y-18502642D01*
X26114452Y-18516579D01*
X26134250Y-18522778D01*
X26159954Y-18528359D01*
X26197275Y-18536767D01*
X26207828Y-18539186D01*
X26245861Y-18544420D01*
X26300156Y-18547448D01*
X26364208Y-18548401D01*
X26431508Y-18547411D01*
X26492200Y-18544757D01*
X26492200Y-18276826D01*
X26492200Y-17767207D01*
X26492228Y-17640187D01*
X26492387Y-17536290D01*
X26492792Y-17453239D01*
X26493557Y-17388756D01*
X26494799Y-17340563D01*
X26496632Y-17306385D01*
X26499169Y-17283942D01*
X26502527Y-17270959D01*
X26506821Y-17265159D01*
X26512164Y-17264262D01*
X26517492Y-17265616D01*
X26549858Y-17274149D01*
X26577422Y-17279924D01*
X26609347Y-17289398D01*
X26628331Y-17299708D01*
X26642169Y-17307790D01*
X26644600Y-17306059D01*
X26653728Y-17305720D01*
X26677267Y-17317010D01*
X26709455Y-17336128D01*
X26744529Y-17359272D01*
X26776725Y-17382642D01*
X26800280Y-17402435D01*
X26809429Y-17414779D01*
X26817189Y-17430047D01*
X26835571Y-17453956D01*
X26836405Y-17454920D01*
X26853526Y-17477723D01*
X26858840Y-17491388D01*
X26858630Y-17491783D01*
X26862428Y-17504774D01*
X26874577Y-17521492D01*
X26889393Y-17544053D01*
X26903676Y-17573933D01*
X26914296Y-17603006D01*
X26918126Y-17623147D01*
X26915435Y-17627600D01*
X26915711Y-17635342D01*
X26921776Y-17643971D01*
X26927176Y-17663292D01*
X26930320Y-17700652D01*
X26931251Y-17748792D01*
X26930013Y-17800455D01*
X26926649Y-17848383D01*
X26921202Y-17885318D01*
X26920308Y-17889075D01*
X26899951Y-17960615D01*
X26880797Y-18009664D01*
X26861712Y-18039022D01*
X26858552Y-18042114D01*
X26840551Y-18062242D01*
X26835100Y-18073972D01*
X26825488Y-18094067D01*
X26800904Y-18122293D01*
X26767724Y-18153161D01*
X26732328Y-18181177D01*
X26701093Y-18200852D01*
X26680859Y-18206781D01*
X26666496Y-18213426D01*
X26645934Y-18229644D01*
X26627007Y-18244182D01*
X26619200Y-18245072D01*
X26609876Y-18243465D01*
X26592050Y-18250838D01*
X26558302Y-18263995D01*
X26528550Y-18271097D01*
X26492200Y-18276826D01*
X26492200Y-18544757D01*
X26495551Y-18544610D01*
X26549829Y-18540129D01*
X26587836Y-18534101D01*
X26596975Y-18531305D01*
X26621497Y-18523265D01*
X26631898Y-18523513D01*
X26631900Y-18523591D01*
X26641670Y-18522781D01*
X26665626Y-18512471D01*
X26670000Y-18510250D01*
X26695351Y-18499346D01*
X26707830Y-18498304D01*
X26708100Y-18499193D01*
X26715959Y-18498318D01*
X26733500Y-18484850D01*
X26751778Y-18471471D01*
X26758900Y-18472150D01*
X26766624Y-18472800D01*
X26782156Y-18461391D01*
X26801994Y-18447715D01*
X26811867Y-18446801D01*
X26823913Y-18443408D01*
X26841380Y-18427778D01*
X26862451Y-18408801D01*
X26876085Y-18402300D01*
X26893760Y-18393220D01*
X26922729Y-18369146D01*
X26958310Y-18334833D01*
X26995820Y-18295033D01*
X27030576Y-18254498D01*
X27057895Y-18217983D01*
X27058332Y-18217328D01*
X27095407Y-18156098D01*
X27127134Y-18093390D01*
X27149696Y-18037267D01*
X27157815Y-18007202D01*
X27162754Y-17984096D01*
X27165328Y-17976850D01*
X27171197Y-17964440D01*
X27176321Y-17928354D01*
X27180539Y-17870310D01*
X27183694Y-17792026D01*
X27184194Y-17773650D01*
X27184162Y-17676049D01*
G36*
X27179119Y-16141263D02*
X27153342Y-16022078D01*
X27106688Y-15916997D01*
X27038933Y-15825524D01*
X26949850Y-15747163D01*
X26942088Y-15741650D01*
X26898008Y-15714065D01*
X26870718Y-15704651D01*
X26860563Y-15713519D01*
X26860500Y-15715105D01*
X26851558Y-15736980D01*
X26841407Y-15748037D01*
X26826282Y-15767255D01*
X26805502Y-15801916D01*
X26785111Y-15841395D01*
X26763646Y-15894239D01*
X26758978Y-15929222D01*
X26771159Y-15947580D01*
X26789714Y-15951200D01*
X26811626Y-15961550D01*
X26839709Y-15988287D01*
X26869051Y-16024947D01*
X26894740Y-16065064D01*
X26911862Y-16102172D01*
X26915570Y-16116844D01*
X26922850Y-16142340D01*
X26925596Y-16148050D01*
X26932710Y-16175736D01*
X26935212Y-16219406D01*
X26933394Y-16270121D01*
X26927546Y-16318945D01*
X26918885Y-16354425D01*
X26908834Y-16386481D01*
X26905329Y-16405820D01*
X26906469Y-16408400D01*
X26902208Y-16416641D01*
X26884300Y-16438031D01*
X26862189Y-16462023D01*
X26831203Y-16492607D01*
X26806246Y-16508619D01*
X26776774Y-16514735D01*
X26741232Y-16515645D01*
X26695064Y-16513155D01*
X26663805Y-16503630D01*
X26637551Y-16484248D01*
X26611215Y-16455708D01*
X26593020Y-16428979D01*
X26592295Y-16427450D01*
X26577901Y-16399356D01*
X26558073Y-16364555D01*
X26555800Y-16360775D01*
X26541684Y-16334560D01*
X26537437Y-16320343D01*
X26538464Y-16319500D01*
X26538453Y-16311744D01*
X26532108Y-16302629D01*
X26518540Y-16276242D01*
X26513947Y-16258506D01*
X26506857Y-16232613D01*
X26500994Y-16222461D01*
X26493857Y-16203833D01*
X26492200Y-16186150D01*
X26488202Y-16159775D01*
X26482675Y-16149109D01*
X26473085Y-16132938D01*
X26472845Y-16131117D01*
X26468815Y-16108631D01*
X26459458Y-16071819D01*
X26447562Y-16030420D01*
X26435917Y-15994176D01*
X26427739Y-15973598D01*
X26417625Y-15945015D01*
X26416000Y-15932150D01*
X26406464Y-15899982D01*
X26380966Y-15858338D01*
X26344175Y-15812561D01*
X26300762Y-15767994D01*
X26255393Y-15729978D01*
X26219295Y-15707070D01*
X26138722Y-15678334D01*
X26047505Y-15667302D01*
X25953231Y-15673991D01*
X25863487Y-15698419D01*
X25845071Y-15706190D01*
X25815358Y-15723645D01*
X25779599Y-15750147D01*
X25743703Y-15780525D01*
X25713577Y-15809608D01*
X25695129Y-15832227D01*
X25692100Y-15840076D01*
X25684254Y-15856267D01*
X25667762Y-15876787D01*
X25646305Y-15907761D01*
X25635911Y-15932845D01*
X25625220Y-15967677D01*
X25613848Y-15998265D01*
X25601476Y-16030457D01*
X25594052Y-16052800D01*
X25591322Y-16074743D01*
X25588904Y-16115613D01*
X25586933Y-16168940D01*
X25585540Y-16228254D01*
X25584860Y-16287082D01*
X25585025Y-16338953D01*
X25586169Y-16377398D01*
X25587124Y-16389350D01*
X25592897Y-16423471D01*
X25599315Y-16446500D01*
X25608533Y-16474359D01*
X25610502Y-16482496D01*
X25619953Y-16509737D01*
X25637680Y-16548217D01*
X25659309Y-16589638D01*
X25680465Y-16625699D01*
X25696775Y-16648098D01*
X25698742Y-16649943D01*
X25714663Y-16670463D01*
X25717500Y-16680965D01*
X25726553Y-16698027D01*
X25749835Y-16723459D01*
X25781533Y-16752425D01*
X25815834Y-16780088D01*
X25846924Y-16801612D01*
X25868991Y-16812158D01*
X25874783Y-16811830D01*
X25886798Y-16816733D01*
X25904606Y-16830778D01*
X25923942Y-16845471D01*
X25938197Y-16841979D01*
X25952357Y-16827603D01*
X25965712Y-16809286D01*
X25964905Y-16802100D01*
X25964651Y-16794102D01*
X25978456Y-16774731D01*
X25979507Y-16773525D01*
X26002625Y-16741951D01*
X26025069Y-16702820D01*
X26043456Y-16663364D01*
X26054404Y-16630814D01*
X26054731Y-16612702D01*
X26036212Y-16599612D01*
X26030946Y-16598900D01*
X26012091Y-16590884D01*
X25985961Y-16571251D01*
X25982261Y-16567902D01*
X25958468Y-16549497D01*
X25942622Y-16543819D01*
X25941115Y-16544619D01*
X25934479Y-16541615D01*
X25933400Y-16532722D01*
X25924351Y-16508610D01*
X25914116Y-16497106D01*
X25894878Y-16473337D01*
X25874068Y-16437020D01*
X25857841Y-16399806D01*
X25852689Y-16380812D01*
X25845075Y-16355638D01*
X25842867Y-16351250D01*
X25838345Y-16331137D01*
X25835653Y-16294721D01*
X25834710Y-16249259D01*
X25835438Y-16202008D01*
X25837758Y-16160226D01*
X25841590Y-16131167D01*
X25845363Y-16122118D01*
X25855273Y-16104856D01*
X25858129Y-16086976D01*
X25869908Y-16043366D01*
X25898128Y-15999326D01*
X25936119Y-15964961D01*
X25940415Y-15962319D01*
X25973876Y-15949080D01*
X26014662Y-15941328D01*
X26054029Y-15939689D01*
X26083235Y-15944792D01*
X26092279Y-15951408D01*
X26107002Y-15959050D01*
X26111288Y-15957496D01*
X26123504Y-15963513D01*
X26143638Y-15986528D01*
X26168122Y-16020885D01*
X26193389Y-16060927D01*
X26215870Y-16100999D01*
X26231997Y-16135444D01*
X26238200Y-16158607D01*
X26238200Y-16158668D01*
X26242586Y-16174056D01*
X26253011Y-16201199D01*
X26263915Y-16228421D01*
X26269192Y-16243300D01*
X26275224Y-16267743D01*
X26285139Y-16304948D01*
X26296280Y-16345274D01*
X26305989Y-16379077D01*
X26311210Y-16395700D01*
X26319835Y-16423720D01*
X26321691Y-16431617D01*
X26329695Y-16457920D01*
X26334380Y-16469717D01*
X26344854Y-16499722D01*
X26347632Y-16510901D01*
X26366253Y-16560044D01*
X26400614Y-16614320D01*
X26445451Y-16668112D01*
X26495502Y-16715802D01*
X26545502Y-16751772D01*
X26590190Y-16770404D01*
X26590880Y-16770540D01*
X26609540Y-16775042D01*
X26612850Y-16776700D01*
X26624160Y-16781428D01*
X26652715Y-16786948D01*
X26690452Y-16791885D01*
X26714450Y-16794018D01*
X26796899Y-16789580D01*
X26882068Y-16766835D01*
X26893816Y-16762187D01*
X26922549Y-16751183D01*
X26940117Y-16746015D01*
X26955417Y-16736483D01*
X26982157Y-16713152D01*
X27015078Y-16681359D01*
X27048921Y-16646444D01*
X27078426Y-16613745D01*
X27098334Y-16588600D01*
X27102952Y-16580743D01*
X27118233Y-16550300D01*
X27127178Y-16535400D01*
X27142074Y-16507057D01*
X27158988Y-16466720D01*
X27172801Y-16426773D01*
X27174421Y-16421100D01*
X27177087Y-16400790D01*
X27180029Y-16361591D01*
X27182809Y-16310007D01*
X27184245Y-16275050D01*
X27179119Y-16141263D01*
X27179119Y-16141263D01*
G37*
X27179119Y-16141263D02*
X27153342Y-16022078D01*
X27106688Y-15916997D01*
X27038933Y-15825524D01*
X26949850Y-15747163D01*
X26942088Y-15741650D01*
X26898008Y-15714065D01*
X26870718Y-15704651D01*
X26860563Y-15713519D01*
X26860500Y-15715105D01*
X26851558Y-15736980D01*
X26841407Y-15748037D01*
X26826282Y-15767255D01*
X26805502Y-15801916D01*
X26785111Y-15841395D01*
X26763646Y-15894239D01*
X26758978Y-15929222D01*
X26771159Y-15947580D01*
X26789714Y-15951200D01*
X26811626Y-15961550D01*
X26839709Y-15988287D01*
X26869051Y-16024947D01*
X26894740Y-16065064D01*
X26911862Y-16102172D01*
X26915570Y-16116844D01*
X26922850Y-16142340D01*
X26925596Y-16148050D01*
X26932710Y-16175736D01*
X26935212Y-16219406D01*
X26933394Y-16270121D01*
X26927546Y-16318945D01*
X26918885Y-16354425D01*
X26908834Y-16386481D01*
X26905329Y-16405820D01*
X26906469Y-16408400D01*
X26902208Y-16416641D01*
X26884300Y-16438031D01*
X26862189Y-16462023D01*
X26831203Y-16492607D01*
X26806246Y-16508619D01*
X26776774Y-16514735D01*
X26741232Y-16515645D01*
X26695064Y-16513155D01*
X26663805Y-16503630D01*
X26637551Y-16484248D01*
X26611215Y-16455708D01*
X26593020Y-16428979D01*
X26592295Y-16427450D01*
X26577901Y-16399356D01*
X26558073Y-16364555D01*
X26555800Y-16360775D01*
X26541684Y-16334560D01*
X26537437Y-16320343D01*
X26538464Y-16319500D01*
X26538453Y-16311744D01*
X26532108Y-16302629D01*
X26518540Y-16276242D01*
X26513947Y-16258506D01*
X26506857Y-16232613D01*
X26500994Y-16222461D01*
X26493857Y-16203833D01*
X26492200Y-16186150D01*
X26488202Y-16159775D01*
X26482675Y-16149109D01*
X26473085Y-16132938D01*
X26472845Y-16131117D01*
X26468815Y-16108631D01*
X26459458Y-16071819D01*
X26447562Y-16030420D01*
X26435917Y-15994176D01*
X26427739Y-15973598D01*
X26417625Y-15945015D01*
X26416000Y-15932150D01*
X26406464Y-15899982D01*
X26380966Y-15858338D01*
X26344175Y-15812561D01*
X26300762Y-15767994D01*
X26255393Y-15729978D01*
X26219295Y-15707070D01*
X26138722Y-15678334D01*
X26047505Y-15667302D01*
X25953231Y-15673991D01*
X25863487Y-15698419D01*
X25845071Y-15706190D01*
X25815358Y-15723645D01*
X25779599Y-15750147D01*
X25743703Y-15780525D01*
X25713577Y-15809608D01*
X25695129Y-15832227D01*
X25692100Y-15840076D01*
X25684254Y-15856267D01*
X25667762Y-15876787D01*
X25646305Y-15907761D01*
X25635911Y-15932845D01*
X25625220Y-15967677D01*
X25613848Y-15998265D01*
X25601476Y-16030457D01*
X25594052Y-16052800D01*
X25591322Y-16074743D01*
X25588904Y-16115613D01*
X25586933Y-16168940D01*
X25585540Y-16228254D01*
X25584860Y-16287082D01*
X25585025Y-16338953D01*
X25586169Y-16377398D01*
X25587124Y-16389350D01*
X25592897Y-16423471D01*
X25599315Y-16446500D01*
X25608533Y-16474359D01*
X25610502Y-16482496D01*
X25619953Y-16509737D01*
X25637680Y-16548217D01*
X25659309Y-16589638D01*
X25680465Y-16625699D01*
X25696775Y-16648098D01*
X25698742Y-16649943D01*
X25714663Y-16670463D01*
X25717500Y-16680965D01*
X25726553Y-16698027D01*
X25749835Y-16723459D01*
X25781533Y-16752425D01*
X25815834Y-16780088D01*
X25846924Y-16801612D01*
X25868991Y-16812158D01*
X25874783Y-16811830D01*
X25886798Y-16816733D01*
X25904606Y-16830778D01*
X25923942Y-16845471D01*
X25938197Y-16841979D01*
X25952357Y-16827603D01*
X25965712Y-16809286D01*
X25964905Y-16802100D01*
X25964651Y-16794102D01*
X25978456Y-16774731D01*
X25979507Y-16773525D01*
X26002625Y-16741951D01*
X26025069Y-16702820D01*
X26043456Y-16663364D01*
X26054404Y-16630814D01*
X26054731Y-16612702D01*
X26036212Y-16599612D01*
X26030946Y-16598900D01*
X26012091Y-16590884D01*
X25985961Y-16571251D01*
X25982261Y-16567902D01*
X25958468Y-16549497D01*
X25942622Y-16543819D01*
X25941115Y-16544619D01*
X25934479Y-16541615D01*
X25933400Y-16532722D01*
X25924351Y-16508610D01*
X25914116Y-16497106D01*
X25894878Y-16473337D01*
X25874068Y-16437020D01*
X25857841Y-16399806D01*
X25852689Y-16380812D01*
X25845075Y-16355638D01*
X25842867Y-16351250D01*
X25838345Y-16331137D01*
X25835653Y-16294721D01*
X25834710Y-16249259D01*
X25835438Y-16202008D01*
X25837758Y-16160226D01*
X25841590Y-16131167D01*
X25845363Y-16122118D01*
X25855273Y-16104856D01*
X25858129Y-16086976D01*
X25869908Y-16043366D01*
X25898128Y-15999326D01*
X25936119Y-15964961D01*
X25940415Y-15962319D01*
X25973876Y-15949080D01*
X26014662Y-15941328D01*
X26054029Y-15939689D01*
X26083235Y-15944792D01*
X26092279Y-15951408D01*
X26107002Y-15959050D01*
X26111288Y-15957496D01*
X26123504Y-15963513D01*
X26143638Y-15986528D01*
X26168122Y-16020885D01*
X26193389Y-16060927D01*
X26215870Y-16100999D01*
X26231997Y-16135444D01*
X26238200Y-16158607D01*
X26238200Y-16158668D01*
X26242586Y-16174056D01*
X26253011Y-16201199D01*
X26263915Y-16228421D01*
X26269192Y-16243300D01*
X26275224Y-16267743D01*
X26285139Y-16304948D01*
X26296280Y-16345274D01*
X26305989Y-16379077D01*
X26311210Y-16395700D01*
X26319835Y-16423720D01*
X26321691Y-16431617D01*
X26329695Y-16457920D01*
X26334380Y-16469717D01*
X26344854Y-16499722D01*
X26347632Y-16510901D01*
X26366253Y-16560044D01*
X26400614Y-16614320D01*
X26445451Y-16668112D01*
X26495502Y-16715802D01*
X26545502Y-16751772D01*
X26590190Y-16770404D01*
X26590880Y-16770540D01*
X26609540Y-16775042D01*
X26612850Y-16776700D01*
X26624160Y-16781428D01*
X26652715Y-16786948D01*
X26690452Y-16791885D01*
X26714450Y-16794018D01*
X26796899Y-16789580D01*
X26882068Y-16766835D01*
X26893816Y-16762187D01*
X26922549Y-16751183D01*
X26940117Y-16746015D01*
X26955417Y-16736483D01*
X26982157Y-16713152D01*
X27015078Y-16681359D01*
X27048921Y-16646444D01*
X27078426Y-16613745D01*
X27098334Y-16588600D01*
X27102952Y-16580743D01*
X27118233Y-16550300D01*
X27127178Y-16535400D01*
X27142074Y-16507057D01*
X27158988Y-16466720D01*
X27172801Y-16426773D01*
X27174421Y-16421100D01*
X27177087Y-16400790D01*
X27180029Y-16361591D01*
X27182809Y-16310007D01*
X27184245Y-16275050D01*
X27179119Y-16141263D01*
G36*
X27546300Y-25132412D02*
X27544713Y-25209056D01*
X27543146Y-25259824D01*
X27540591Y-25291607D01*
X27536392Y-25310816D01*
X27533600Y-25317450D01*
X27527792Y-25334413D01*
X27527250Y-25336500D01*
X27521442Y-25354387D01*
X27520900Y-25355550D01*
X27516436Y-25372709D01*
X27516138Y-25374890D01*
X27506952Y-25390264D01*
X27484730Y-25416940D01*
X27460464Y-25442763D01*
X27404432Y-25488398D01*
X27340507Y-25516999D01*
X27262516Y-25530937D01*
X27225625Y-25532947D01*
X27152600Y-25534948D01*
X27152600Y-25133300D01*
X26899245Y-25133300D01*
X26895748Y-25333325D01*
X26892250Y-25533350D01*
X25615900Y-25533224D01*
X25615900Y-25806400D01*
X26898600Y-25806400D01*
X26898600Y-26047700D01*
X27152600Y-26047700D01*
X27152600Y-25809981D01*
X27257375Y-25802523D01*
X27327802Y-25796769D01*
X27380417Y-25790030D01*
X27422799Y-25780614D01*
X27462527Y-25766829D01*
X27507178Y-25746980D01*
X27508200Y-25746497D01*
X27545989Y-25724831D01*
X27588993Y-25694441D01*
X27632110Y-25659728D01*
X27670235Y-25625094D01*
X27698266Y-25594941D01*
X27711098Y-25573669D01*
X27711400Y-25571249D01*
X27719543Y-25551094D01*
X27727275Y-25541605D01*
X27741557Y-25523400D01*
X27744215Y-25516840D01*
X27749633Y-25500049D01*
X27761304Y-25471531D01*
X27762041Y-25469850D01*
X27775040Y-25437258D01*
X27782647Y-25412700D01*
X27792326Y-25353052D01*
X27800306Y-25283120D01*
X27804945Y-25218021D01*
X27805413Y-25203150D01*
X27806650Y-25139650D01*
X27546300Y-25132412D01*
X27546300Y-25132412D01*
G37*
X27546300Y-25132412D02*
X27544713Y-25209056D01*
X27543146Y-25259824D01*
X27540591Y-25291607D01*
X27536392Y-25310816D01*
X27533600Y-25317450D01*
X27527792Y-25334413D01*
X27527250Y-25336500D01*
X27521442Y-25354387D01*
X27520900Y-25355550D01*
X27516436Y-25372709D01*
X27516138Y-25374890D01*
X27506952Y-25390264D01*
X27484730Y-25416940D01*
X27460464Y-25442763D01*
X27404432Y-25488398D01*
X27340507Y-25516999D01*
X27262516Y-25530937D01*
X27225625Y-25532947D01*
X27152600Y-25534948D01*
X27152600Y-25133300D01*
X26899245Y-25133300D01*
X26895748Y-25333325D01*
X26892250Y-25533350D01*
X25615900Y-25533224D01*
X25615900Y-25806400D01*
X26898600Y-25806400D01*
X26898600Y-26047700D01*
X27152600Y-26047700D01*
X27152600Y-25809981D01*
X27257375Y-25802523D01*
X27327802Y-25796769D01*
X27380417Y-25790030D01*
X27422799Y-25780614D01*
X27462527Y-25766829D01*
X27507178Y-25746980D01*
X27508200Y-25746497D01*
X27545989Y-25724831D01*
X27588993Y-25694441D01*
X27632110Y-25659728D01*
X27670235Y-25625094D01*
X27698266Y-25594941D01*
X27711098Y-25573669D01*
X27711400Y-25571249D01*
X27719543Y-25551094D01*
X27727275Y-25541605D01*
X27741557Y-25523400D01*
X27744215Y-25516840D01*
X27749633Y-25500049D01*
X27761304Y-25471531D01*
X27762041Y-25469850D01*
X27775040Y-25437258D01*
X27782647Y-25412700D01*
X27792326Y-25353052D01*
X27800306Y-25283120D01*
X27804945Y-25218021D01*
X27805413Y-25203150D01*
X27806650Y-25139650D01*
X27546300Y-25132412D01*
G36*
X27046362Y-24186987D02*
X26990797Y-24187746D01*
X26945286Y-24189455D01*
X26915425Y-24191839D01*
X26906684Y-24193883D01*
X26901673Y-24209243D01*
X26896052Y-24241262D01*
X26893222Y-24263598D01*
X26887273Y-24312442D01*
X26881154Y-24346093D01*
X26872593Y-24374671D01*
X26862452Y-24400702D01*
X26852099Y-24427480D01*
X26847800Y-24441606D01*
X26841091Y-24453947D01*
X26823787Y-24480369D01*
X26807029Y-24504601D01*
X26778554Y-24538411D01*
X26743250Y-24571471D01*
X26707829Y-24598358D01*
X26679008Y-24613647D01*
X26670000Y-24615298D01*
X26654942Y-24620428D01*
X26640312Y-24627596D01*
X26609456Y-24639769D01*
X26583162Y-24646603D01*
X26550339Y-24653108D01*
X26530300Y-24657288D01*
X26513527Y-24658286D01*
X26474382Y-24659253D01*
X26415894Y-24660155D01*
X26341092Y-24660961D01*
X26253004Y-24661635D01*
X26154658Y-24662145D01*
X26063575Y-24662429D01*
X25615900Y-24663400D01*
X25615900Y-24930100D01*
X27152600Y-24930100D01*
X27152600Y-24663400D01*
X27031201Y-24663400D01*
X26969769Y-24662145D01*
X26931518Y-24658451D01*
X26917388Y-24652425D01*
X26917779Y-24650493D01*
X26931536Y-24642236D01*
X26935266Y-24643464D01*
X26949805Y-24639583D01*
X26973539Y-24622499D01*
X26978838Y-24617757D01*
X27000749Y-24599273D01*
X27012347Y-24593062D01*
X27012901Y-24593944D01*
X27018908Y-24593718D01*
X27037451Y-24574544D01*
X27069312Y-24535573D01*
X27083802Y-24517037D01*
X27120152Y-24456819D01*
X27150216Y-24381902D01*
X27170321Y-24302851D01*
X27176520Y-24250352D01*
X27179578Y-24186553D01*
X27046362Y-24186987D01*
X27046362Y-24186987D01*
G37*
X27046362Y-24186987D02*
X26990797Y-24187746D01*
X26945286Y-24189455D01*
X26915425Y-24191839D01*
X26906684Y-24193883D01*
X26901673Y-24209243D01*
X26896052Y-24241262D01*
X26893222Y-24263598D01*
X26887273Y-24312442D01*
X26881154Y-24346093D01*
X26872593Y-24374671D01*
X26862452Y-24400702D01*
X26852099Y-24427480D01*
X26847800Y-24441606D01*
X26841091Y-24453947D01*
X26823787Y-24480369D01*
X26807029Y-24504601D01*
X26778554Y-24538411D01*
X26743250Y-24571471D01*
X26707829Y-24598358D01*
X26679008Y-24613647D01*
X26670000Y-24615298D01*
X26654942Y-24620428D01*
X26640312Y-24627596D01*
X26609456Y-24639769D01*
X26583162Y-24646603D01*
X26550339Y-24653108D01*
X26530300Y-24657288D01*
X26513527Y-24658286D01*
X26474382Y-24659253D01*
X26415894Y-24660155D01*
X26341092Y-24660961D01*
X26253004Y-24661635D01*
X26154658Y-24662145D01*
X26063575Y-24662429D01*
X25615900Y-24663400D01*
X25615900Y-24930100D01*
X27152600Y-24930100D01*
X27152600Y-24663400D01*
X27031201Y-24663400D01*
X26969769Y-24662145D01*
X26931518Y-24658451D01*
X26917388Y-24652425D01*
X26917779Y-24650493D01*
X26931536Y-24642236D01*
X26935266Y-24643464D01*
X26949805Y-24639583D01*
X26973539Y-24622499D01*
X26978838Y-24617757D01*
X27000749Y-24599273D01*
X27012347Y-24593062D01*
X27012901Y-24593944D01*
X27018908Y-24593718D01*
X27037451Y-24574544D01*
X27069312Y-24535573D01*
X27083802Y-24517037D01*
X27120152Y-24456819D01*
X27150216Y-24381902D01*
X27170321Y-24302851D01*
X27176520Y-24250352D01*
X27179578Y-24186553D01*
X27046362Y-24186987D01*
G36*
X25615900Y-23660100D02*
X25615900Y-23933203D01*
X27152600Y-23933203D01*
X27152600Y-23660100D01*
X25615900Y-23660100D01*
X25615900Y-23660100D01*
G37*
X25615900Y-23660100D02*
X25615900Y-23933203D01*
X27152600Y-23933203D01*
X27152600Y-23660100D01*
X25615900Y-23660100D01*
G36*
X27063528Y-22148800D02*
X27002094Y-22151610D01*
X26956377Y-22161947D01*
X26917125Y-22182670D01*
X26892250Y-22201764D01*
X26868044Y-22220488D01*
X26828707Y-22249343D01*
X26780096Y-22284155D01*
X26728068Y-22320750D01*
X26678481Y-22354952D01*
X26656154Y-22370038D01*
X26622108Y-22394446D01*
X26594320Y-22417071D01*
X26589479Y-22421637D01*
X26573507Y-22434615D01*
X26568400Y-22434142D01*
X26560008Y-22436535D01*
X26538634Y-22452209D01*
X26523509Y-22464985D01*
X26495129Y-22488321D01*
X26474464Y-22502460D01*
X26469404Y-22504400D01*
X26454906Y-22512268D01*
X26430870Y-22531690D01*
X26425396Y-22536664D01*
X26403245Y-22555076D01*
X26391283Y-22560876D01*
X26390600Y-22559688D01*
X26382638Y-22561681D01*
X26362607Y-22577600D01*
X26352500Y-22586950D01*
X26329263Y-22607256D01*
X26315772Y-22615256D01*
X26314400Y-22614083D01*
X26306308Y-22616112D01*
X26285804Y-22631970D01*
X26273125Y-22643398D01*
X26244973Y-22666995D01*
X26222836Y-22680726D01*
X26217531Y-22682142D01*
X26198385Y-22691036D01*
X26186361Y-22702503D01*
X26168044Y-22719145D01*
X26135004Y-22744599D01*
X26093818Y-22773842D01*
X26086381Y-22778895D01*
X26036583Y-22813162D01*
X25986110Y-22848966D01*
X25946100Y-22878399D01*
X25913253Y-22902302D01*
X25888459Y-22918429D01*
X25879425Y-22922657D01*
X25877105Y-22910671D01*
X25874989Y-22876293D01*
X25873148Y-22822531D01*
X25871654Y-22752393D01*
X25870577Y-22668887D01*
X25869990Y-22575020D01*
X25869900Y-22519949D01*
X25869900Y-22116397D01*
X25746075Y-22116886D01*
X25622250Y-22117376D01*
X25618952Y-22708176D01*
X25615653Y-23298977D01*
X25707852Y-23298135D01*
X25770599Y-23294432D01*
X25819138Y-23282033D01*
X25863382Y-23256995D01*
X25911175Y-23217261D01*
X25933397Y-23199574D01*
X25945409Y-23194983D01*
X25946100Y-23196550D01*
X25954148Y-23196320D01*
X25974159Y-23181986D01*
X25981025Y-23175974D01*
X26015205Y-23147893D01*
X26055352Y-23118700D01*
X26063489Y-23113273D01*
X26092196Y-23092608D01*
X26109161Y-23076665D01*
X26111114Y-23072725D01*
X26121098Y-23063600D01*
X26125067Y-23063200D01*
X26141291Y-23057488D01*
X26169524Y-23039231D01*
X26212150Y-23006752D01*
X26257717Y-22969810D01*
X26283746Y-22950116D01*
X26299525Y-22941559D01*
X26301700Y-22942550D01*
X26310287Y-22940791D01*
X26332052Y-22926079D01*
X26345684Y-22915291D01*
X26401404Y-22870352D01*
X26440845Y-22840965D01*
X26466388Y-22825451D01*
X26478334Y-22821900D01*
X26491681Y-22815100D01*
X26492287Y-22812375D01*
X26502037Y-22800299D01*
X26526530Y-22780945D01*
X26539912Y-22771828D01*
X26579243Y-22744015D01*
X26616110Y-22714651D01*
X26622375Y-22709127D01*
X26644614Y-22691513D01*
X26656618Y-22686987D01*
X26657300Y-22688550D01*
X26665348Y-22688320D01*
X26685359Y-22673986D01*
X26692225Y-22667974D01*
X26726405Y-22639893D01*
X26766552Y-22610700D01*
X26774689Y-22605273D01*
X26803396Y-22584608D01*
X26820361Y-22568665D01*
X26822314Y-22564725D01*
X26832401Y-22555728D01*
X26837275Y-22555200D01*
X26857532Y-22547345D01*
X26875375Y-22534182D01*
X26882005Y-22529082D01*
X26887237Y-22528832D01*
X26891237Y-22535964D01*
X26894169Y-22553007D01*
X26896198Y-22582492D01*
X26897491Y-22626949D01*
X26898212Y-22688908D01*
X26898527Y-22770900D01*
X26898600Y-22875455D01*
X26898600Y-23266400D01*
X27152600Y-23266400D01*
X27152600Y-22148800D01*
X27063528Y-22148800D01*
X27063528Y-22148800D01*
G37*
X27063528Y-22148800D02*
X27002094Y-22151610D01*
X26956377Y-22161947D01*
X26917125Y-22182670D01*
X26892250Y-22201764D01*
X26868044Y-22220488D01*
X26828707Y-22249343D01*
X26780096Y-22284155D01*
X26728068Y-22320750D01*
X26678481Y-22354952D01*
X26656154Y-22370038D01*
X26622108Y-22394446D01*
X26594320Y-22417071D01*
X26589479Y-22421637D01*
X26573507Y-22434615D01*
X26568400Y-22434142D01*
X26560008Y-22436535D01*
X26538634Y-22452209D01*
X26523509Y-22464985D01*
X26495129Y-22488321D01*
X26474464Y-22502460D01*
X26469404Y-22504400D01*
X26454906Y-22512268D01*
X26430870Y-22531690D01*
X26425396Y-22536664D01*
X26403245Y-22555076D01*
X26391283Y-22560876D01*
X26390600Y-22559688D01*
X26382638Y-22561681D01*
X26362607Y-22577600D01*
X26352500Y-22586950D01*
X26329263Y-22607256D01*
X26315772Y-22615256D01*
X26314400Y-22614083D01*
X26306308Y-22616112D01*
X26285804Y-22631970D01*
X26273125Y-22643398D01*
X26244973Y-22666995D01*
X26222836Y-22680726D01*
X26217531Y-22682142D01*
X26198385Y-22691036D01*
X26186361Y-22702503D01*
X26168044Y-22719145D01*
X26135004Y-22744599D01*
X26093818Y-22773842D01*
X26086381Y-22778895D01*
X26036583Y-22813162D01*
X25986110Y-22848966D01*
X25946100Y-22878399D01*
X25913253Y-22902302D01*
X25888459Y-22918429D01*
X25879425Y-22922657D01*
X25877105Y-22910671D01*
X25874989Y-22876293D01*
X25873148Y-22822531D01*
X25871654Y-22752393D01*
X25870577Y-22668887D01*
X25869990Y-22575020D01*
X25869900Y-22519949D01*
X25869900Y-22116397D01*
X25746075Y-22116886D01*
X25622250Y-22117376D01*
X25618952Y-22708176D01*
X25615653Y-23298977D01*
X25707852Y-23298135D01*
X25770599Y-23294432D01*
X25819138Y-23282033D01*
X25863382Y-23256995D01*
X25911175Y-23217261D01*
X25933397Y-23199574D01*
X25945409Y-23194983D01*
X25946100Y-23196550D01*
X25954148Y-23196320D01*
X25974159Y-23181986D01*
X25981025Y-23175974D01*
X26015205Y-23147893D01*
X26055352Y-23118700D01*
X26063489Y-23113273D01*
X26092196Y-23092608D01*
X26109161Y-23076665D01*
X26111114Y-23072725D01*
X26121098Y-23063600D01*
X26125067Y-23063200D01*
X26141291Y-23057488D01*
X26169524Y-23039231D01*
X26212150Y-23006752D01*
X26257717Y-22969810D01*
X26283746Y-22950116D01*
X26299525Y-22941559D01*
X26301700Y-22942550D01*
X26310287Y-22940791D01*
X26332052Y-22926079D01*
X26345684Y-22915291D01*
X26401404Y-22870352D01*
X26440845Y-22840965D01*
X26466388Y-22825451D01*
X26478334Y-22821900D01*
X26491681Y-22815100D01*
X26492287Y-22812375D01*
X26502037Y-22800299D01*
X26526530Y-22780945D01*
X26539912Y-22771828D01*
X26579243Y-22744015D01*
X26616110Y-22714651D01*
X26622375Y-22709127D01*
X26644614Y-22691513D01*
X26656618Y-22686987D01*
X26657300Y-22688550D01*
X26665348Y-22688320D01*
X26685359Y-22673986D01*
X26692225Y-22667974D01*
X26726405Y-22639893D01*
X26766552Y-22610700D01*
X26774689Y-22605273D01*
X26803396Y-22584608D01*
X26820361Y-22568665D01*
X26822314Y-22564725D01*
X26832401Y-22555728D01*
X26837275Y-22555200D01*
X26857532Y-22547345D01*
X26875375Y-22534182D01*
X26882005Y-22529082D01*
X26887237Y-22528832D01*
X26891237Y-22535964D01*
X26894169Y-22553007D01*
X26896198Y-22582492D01*
X26897491Y-22626949D01*
X26898212Y-22688908D01*
X26898527Y-22770900D01*
X26898600Y-22875455D01*
X26898600Y-23266400D01*
X27152600Y-23266400D01*
X27152600Y-22148800D01*
X27063528Y-22148800D01*
G36*
X27061840Y-20739100D02*
X27011023Y-20740367D01*
X26974995Y-20746130D01*
X26943189Y-20759336D01*
X26905298Y-20782764D01*
X26867463Y-20809274D01*
X26836901Y-20833179D01*
X26823053Y-20846264D01*
X26802990Y-20862777D01*
X26792270Y-20866159D01*
X26774926Y-20874269D01*
X26748180Y-20894604D01*
X26736675Y-20904903D01*
X26712202Y-20926004D01*
X26697405Y-20935218D01*
X26695400Y-20934218D01*
X26687441Y-20936129D01*
X26667416Y-20951997D01*
X26657300Y-20961350D01*
X26634059Y-20981686D01*
X26620570Y-20989752D01*
X26619200Y-20988613D01*
X26611187Y-20990161D01*
X26591260Y-21005462D01*
X26584405Y-21011637D01*
X26559451Y-21032692D01*
X26542233Y-21043515D01*
X26540397Y-21043900D01*
X26526170Y-21051603D01*
X26500631Y-21071125D01*
X26486292Y-21083316D01*
X26460208Y-21104798D01*
X26444015Y-21115398D01*
X26441400Y-21115150D01*
X26433250Y-21116885D01*
X26413565Y-21131558D01*
X26412825Y-21132193D01*
X26394870Y-21147067D01*
X26372188Y-21164463D01*
X26341054Y-21187066D01*
X26297743Y-21217562D01*
X26238530Y-21258635D01*
X26211626Y-21277202D01*
X26169819Y-21307042D01*
X26135047Y-21333706D01*
X26113723Y-21352233D01*
X26111646Y-21354514D01*
X26091616Y-21370891D01*
X26081070Y-21374159D01*
X26063726Y-21382269D01*
X26036980Y-21402604D01*
X26025475Y-21412903D01*
X26001002Y-21434004D01*
X25986205Y-21443218D01*
X25984200Y-21442218D01*
X25976241Y-21444129D01*
X25956216Y-21459997D01*
X25946100Y-21469350D01*
X25922888Y-21489447D01*
X25909390Y-21496987D01*
X25908000Y-21495572D01*
X25900232Y-21493719D01*
X25889131Y-21500951D01*
X25883853Y-21502917D01*
X25879583Y-21497549D01*
X25876184Y-21482454D01*
X25873521Y-21455240D01*
X25871455Y-21413516D01*
X25869850Y-21354889D01*
X25868571Y-21276968D01*
X25867479Y-21177360D01*
X25866906Y-21112142D01*
X25863550Y-20707672D01*
X25739725Y-20707184D01*
X25615900Y-20706697D01*
X25615900Y-21897490D01*
X25715383Y-21892970D01*
X25767427Y-21889705D01*
X25802258Y-21883963D01*
X25828064Y-21873183D01*
X25853034Y-21854806D01*
X25861875Y-21847175D01*
X25890879Y-21823221D01*
X25912226Y-21808328D01*
X25918097Y-21805900D01*
X25932595Y-21798033D01*
X25956631Y-21778611D01*
X25962105Y-21773637D01*
X25984256Y-21755225D01*
X25996218Y-21749425D01*
X25996900Y-21750613D01*
X26004999Y-21749180D01*
X26025121Y-21734131D01*
X26031825Y-21728233D01*
X26063860Y-21702185D01*
X26104909Y-21672501D01*
X26123900Y-21659850D01*
X26164764Y-21631759D01*
X26202675Y-21602801D01*
X26215975Y-21591468D01*
X26238293Y-21573270D01*
X26250259Y-21567423D01*
X26250900Y-21568490D01*
X26259020Y-21567512D01*
X26278641Y-21553223D01*
X26279475Y-21552508D01*
X26310982Y-21526978D01*
X26354249Y-21494871D01*
X26412631Y-21453762D01*
X26480081Y-21407601D01*
X26521971Y-21378092D01*
X26556866Y-21351534D01*
X26578208Y-21332959D01*
X26580061Y-21330903D01*
X26600190Y-21314141D01*
X26611231Y-21310542D01*
X26628575Y-21302432D01*
X26655321Y-21282097D01*
X26666825Y-21271798D01*
X26691299Y-21250697D01*
X26706096Y-21241483D01*
X26708100Y-21242483D01*
X26716196Y-21241135D01*
X26736311Y-21226137D01*
X26743025Y-21220233D01*
X26772951Y-21195469D01*
X26809366Y-21168490D01*
X26845545Y-21143885D01*
X26874766Y-21126241D01*
X26889758Y-21120100D01*
X26892010Y-21132274D01*
X26894050Y-21166690D01*
X26895802Y-21220191D01*
X26897193Y-21289620D01*
X26898144Y-21371819D01*
X26898581Y-21463632D01*
X26898600Y-21488400D01*
X26898600Y-21856700D01*
X27152600Y-21856700D01*
X27152600Y-20739100D01*
X27061840Y-20739100D01*
X27061840Y-20739100D01*
G37*
X27061840Y-20739100D02*
X27011023Y-20740367D01*
X26974995Y-20746130D01*
X26943189Y-20759336D01*
X26905298Y-20782764D01*
X26867463Y-20809274D01*
X26836901Y-20833179D01*
X26823053Y-20846264D01*
X26802990Y-20862777D01*
X26792270Y-20866159D01*
X26774926Y-20874269D01*
X26748180Y-20894604D01*
X26736675Y-20904903D01*
X26712202Y-20926004D01*
X26697405Y-20935218D01*
X26695400Y-20934218D01*
X26687441Y-20936129D01*
X26667416Y-20951997D01*
X26657300Y-20961350D01*
X26634059Y-20981686D01*
X26620570Y-20989752D01*
X26619200Y-20988613D01*
X26611187Y-20990161D01*
X26591260Y-21005462D01*
X26584405Y-21011637D01*
X26559451Y-21032692D01*
X26542233Y-21043515D01*
X26540397Y-21043900D01*
X26526170Y-21051603D01*
X26500631Y-21071125D01*
X26486292Y-21083316D01*
X26460208Y-21104798D01*
X26444015Y-21115398D01*
X26441400Y-21115150D01*
X26433250Y-21116885D01*
X26413565Y-21131558D01*
X26412825Y-21132193D01*
X26394870Y-21147067D01*
X26372188Y-21164463D01*
X26341054Y-21187066D01*
X26297743Y-21217562D01*
X26238530Y-21258635D01*
X26211626Y-21277202D01*
X26169819Y-21307042D01*
X26135047Y-21333706D01*
X26113723Y-21352233D01*
X26111646Y-21354514D01*
X26091616Y-21370891D01*
X26081070Y-21374159D01*
X26063726Y-21382269D01*
X26036980Y-21402604D01*
X26025475Y-21412903D01*
X26001002Y-21434004D01*
X25986205Y-21443218D01*
X25984200Y-21442218D01*
X25976241Y-21444129D01*
X25956216Y-21459997D01*
X25946100Y-21469350D01*
X25922888Y-21489447D01*
X25909390Y-21496987D01*
X25908000Y-21495572D01*
X25900232Y-21493719D01*
X25889131Y-21500951D01*
X25883853Y-21502917D01*
X25879583Y-21497549D01*
X25876184Y-21482454D01*
X25873521Y-21455240D01*
X25871455Y-21413516D01*
X25869850Y-21354889D01*
X25868571Y-21276968D01*
X25867479Y-21177360D01*
X25866906Y-21112142D01*
X25863550Y-20707672D01*
X25739725Y-20707184D01*
X25615900Y-20706697D01*
X25615900Y-21897490D01*
X25715383Y-21892970D01*
X25767427Y-21889705D01*
X25802258Y-21883963D01*
X25828064Y-21873183D01*
X25853034Y-21854806D01*
X25861875Y-21847175D01*
X25890879Y-21823221D01*
X25912226Y-21808328D01*
X25918097Y-21805900D01*
X25932595Y-21798033D01*
X25956631Y-21778611D01*
X25962105Y-21773637D01*
X25984256Y-21755225D01*
X25996218Y-21749425D01*
X25996900Y-21750613D01*
X26004999Y-21749180D01*
X26025121Y-21734131D01*
X26031825Y-21728233D01*
X26063860Y-21702185D01*
X26104909Y-21672501D01*
X26123900Y-21659850D01*
X26164764Y-21631759D01*
X26202675Y-21602801D01*
X26215975Y-21591468D01*
X26238293Y-21573270D01*
X26250259Y-21567423D01*
X26250900Y-21568490D01*
X26259020Y-21567512D01*
X26278641Y-21553223D01*
X26279475Y-21552508D01*
X26310982Y-21526978D01*
X26354249Y-21494871D01*
X26412631Y-21453762D01*
X26480081Y-21407601D01*
X26521971Y-21378092D01*
X26556866Y-21351534D01*
X26578208Y-21332959D01*
X26580061Y-21330903D01*
X26600190Y-21314141D01*
X26611231Y-21310542D01*
X26628575Y-21302432D01*
X26655321Y-21282097D01*
X26666825Y-21271798D01*
X26691299Y-21250697D01*
X26706096Y-21241483D01*
X26708100Y-21242483D01*
X26716196Y-21241135D01*
X26736311Y-21226137D01*
X26743025Y-21220233D01*
X26772951Y-21195469D01*
X26809366Y-21168490D01*
X26845545Y-21143885D01*
X26874766Y-21126241D01*
X26889758Y-21120100D01*
X26892010Y-21132274D01*
X26894050Y-21166690D01*
X26895802Y-21220191D01*
X26897193Y-21289620D01*
X26898144Y-21371819D01*
X26898581Y-21463632D01*
X26898600Y-21488400D01*
X26898600Y-21856700D01*
X27152600Y-21856700D01*
X27152600Y-20739100D01*
X27061840Y-20739100D01*
G36*
X25698450Y-16662400D02*
X25692100Y-16668750D01*
X25698450Y-16675100D01*
X25704800Y-16668750D01*
X25698450Y-16662400D01*
X25698450Y-16662400D01*
G37*
X25698450Y-16662400D02*
X25692100Y-16668750D01*
X25698450Y-16675100D01*
X25704800Y-16668750D01*
X25698450Y-16662400D01*
G36*
X26003250Y-17170400D02*
X25996900Y-17176750D01*
X26003250Y-17183100D01*
X26009600Y-17176750D01*
X26003250Y-17170400D01*
X26003250Y-17170400D01*
G37*
X26003250Y-17170400D02*
X25996900Y-17176750D01*
X26003250Y-17183100D01*
X26009600Y-17176750D01*
X26003250Y-17170400D01*
G36*
X27120850Y-16560800D02*
X27114500Y-16567150D01*
X27120850Y-16573500D01*
X27127200Y-16567150D01*
X27120850Y-16560800D01*
X27120850Y-16560800D01*
G37*
X27120850Y-16560800D02*
X27114500Y-16567150D01*
X27120850Y-16573500D01*
X27127200Y-16567150D01*
X27120850Y-16560800D01*
G36*
X27782758Y-23751536D02*
X27774465Y-23723403D01*
X27754727Y-23696241D01*
X27733396Y-23673867D01*
X27699933Y-23642300D01*
X27673109Y-23625658D01*
X27643033Y-23619579D01*
X27609800Y-23619398D01*
X27559452Y-23623220D01*
X27524286Y-23633927D01*
X27494265Y-23655390D01*
X27479821Y-23669524D01*
X27454120Y-23700442D01*
X27441492Y-23731490D01*
X27437126Y-23774858D01*
X27437027Y-23777936D01*
X27437054Y-23819621D01*
X27439329Y-23852516D01*
X27441427Y-23863300D01*
X27462130Y-23897369D01*
X27497281Y-23932411D01*
X27537567Y-23960430D01*
X27568939Y-23972762D01*
X27605022Y-23974534D01*
X27645156Y-23969407D01*
X27681374Y-23959388D01*
X27705706Y-23946485D01*
X27711400Y-23936874D01*
X27716360Y-23928543D01*
X27719262Y-23930429D01*
X27733013Y-23929486D01*
X27741487Y-23922530D01*
X27768397Y-23882950D01*
X27781605Y-23834513D01*
X27784237Y-23791342D01*
X27782758Y-23751536D01*
X27782758Y-23751536D01*
G37*
X27782758Y-23751536D02*
X27774465Y-23723403D01*
X27754727Y-23696241D01*
X27733396Y-23673867D01*
X27699933Y-23642300D01*
X27673109Y-23625658D01*
X27643033Y-23619579D01*
X27609800Y-23619398D01*
X27559452Y-23623220D01*
X27524286Y-23633927D01*
X27494265Y-23655390D01*
X27479821Y-23669524D01*
X27454120Y-23700442D01*
X27441492Y-23731490D01*
X27437126Y-23774858D01*
X27437027Y-23777936D01*
X27437054Y-23819621D01*
X27439329Y-23852516D01*
X27441427Y-23863300D01*
X27462130Y-23897369D01*
X27497281Y-23932411D01*
X27537567Y-23960430D01*
X27568939Y-23972762D01*
X27605022Y-23974534D01*
X27645156Y-23969407D01*
X27681374Y-23959388D01*
X27705706Y-23946485D01*
X27711400Y-23936874D01*
X27716360Y-23928543D01*
X27719262Y-23930429D01*
X27733013Y-23929486D01*
X27741487Y-23922530D01*
X27768397Y-23882950D01*
X27781605Y-23834513D01*
X27784237Y-23791342D01*
X27782758Y-23751536D01*
D14*
X2454000Y-18426000D02*
X2454000Y-16626000D01*
X5674000Y-16626000D02*
X5674000Y-19076000D01*
D15*
X9805000Y-13309000D02*
X9805000Y-13184000D01*
X13055000Y-13309000D02*
X13055000Y-13084000D01*
X13055000Y-10059000D02*
X13055000Y-10284000D01*
X9805000Y-10059000D02*
X9805000Y-10284000D01*
X9805000Y-13309000D02*
X13055000Y-13309000D01*
X9805000Y-10059000D02*
X13055000Y-10059000D01*
X9805000Y-13184000D02*
X8730000Y-13184000D01*
D14*
X16418000Y-13112000D02*
X16418000Y-13812000D01*
X17618000Y-13812000D02*
X17618000Y-13112000D01*
X2702000Y-13239000D02*
X2702000Y-13939000D01*
X3902000Y-13939000D02*
X3902000Y-13239000D01*
X4988000Y-13239000D02*
X4988000Y-13939000D01*
X6188000Y-13939000D02*
X6188000Y-13239000D01*
X24349000Y-19781000D02*
X24349000Y-19081000D01*
X23149000Y-19081000D02*
X23149000Y-19781000D01*
X22698000Y-13812000D02*
X22698000Y-13112000D01*
X21498000Y-13112000D02*
X21498000Y-13812000D01*
X24349000Y-13812000D02*
X24349000Y-13112000D01*
X23149000Y-13112000D02*
X23149000Y-13812000D01*
X26000000Y-13812000D02*
X26000000Y-13112000D01*
X24800000Y-13112000D02*
X24800000Y-13812000D01*
X24480000Y-10322000D02*
X23780000Y-10322000D01*
X23780000Y-11522000D02*
X24480000Y-11522000D01*
X21432000Y-10322000D02*
X20732000Y-10322000D01*
X20732000Y-11522000D02*
X21432000Y-11522000D01*
X6508000Y-11522000D02*
X7208000Y-11522000D01*
X7208000Y-10322000D02*
X6508000Y-10322000D01*
D15*
X12581000Y-15280000D02*
X13581000Y-15280000D01*
X13581000Y-13930000D02*
X12581000Y-13930000D01*
X17994000Y-12962000D02*
X17994000Y-13962000D01*
X19344000Y-13962000D02*
X19344000Y-12962000D01*
X14692000Y-12962000D02*
X14692000Y-13962000D01*
X16042000Y-13962000D02*
X16042000Y-12962000D01*
X23074000Y-16010000D02*
X23074000Y-17010000D01*
X24424000Y-17010000D02*
X24424000Y-16010000D01*
X10787000Y-13930000D02*
X9787000Y-13930000D01*
X9787000Y-15280000D02*
X10787000Y-15280000D01*
X22646000Y-17010000D02*
X22646000Y-16010000D01*
X21296000Y-16010000D02*
X21296000Y-17010000D01*
X19772000Y-12962000D02*
X19772000Y-13962000D01*
X21122000Y-13962000D02*
X21122000Y-12962000D01*
X3437000Y-11597000D02*
X4437000Y-11597000D01*
X4437000Y-10247000D02*
X3437000Y-10247000D01*
M02*
