%TF.GenerationSoftware,KiCad,Pcbnew,4.0.7-e2-6376~58~ubuntu16.04.1*%
%TF.CreationDate,2018-01-20T15:39:55+01:00*%
%TF.ProjectId,OLEDModule,4F4C45444D6F64756C652E6B69636164,rev?*%
%TF.FileFunction,Copper,L1,Top,Signal*%
%FSLAX46Y46*%
G04 Gerber Fmt 4.6, Leading zero omitted, Abs format (unit mm)*
G04 Created by KiCad (PCBNEW 4.0.7-e2-6376~58~ubuntu16.04.1) date Sat Jan 20 15:39:55 2018*
%MOMM*%
%LPD*%
G01*
G04 APERTURE LIST*
%ADD10C,0.100000*%
%ADD11C,0.685800*%
%ADD12C,0.152400*%
%ADD13C,0.400000*%
G04 APERTURE END LIST*
D10*
D11*
X4191000Y-5080000D03*
X7493000Y-5080000D03*
X9525000Y-16002000D03*
X19939000Y-15748000D03*
X18669000Y-5080000D03*
X5969000Y-4572000D03*
X7239000Y-12319000D03*
X16129000Y-11811000D03*
X18288000Y-15494000D03*
X11303000Y-5080000D03*
X17653000Y-10414000D03*
X17780000Y-11430000D03*
X9652000Y-17399000D03*
D12*
X4191000Y-4953000D02*
X4191000Y-5080000D01*
X5334000Y-3810000D02*
X4191000Y-4953000D01*
X6223000Y-3810000D02*
X5334000Y-3810000D01*
X6350000Y-3937000D02*
X6223000Y-3810000D01*
X7493000Y-5080000D02*
X6350000Y-3937000D01*
D13*
X19939000Y-16764000D02*
X19939000Y-15748000D01*
X18288000Y-18415000D02*
X19939000Y-16764000D01*
X9271000Y-18415000D02*
X18288000Y-18415000D01*
X8509000Y-17653000D02*
X9271000Y-18415000D01*
X8509000Y-17018000D02*
X8509000Y-17653000D01*
X9525000Y-16002000D02*
X8509000Y-17018000D01*
X19939000Y-15748000D02*
X18669000Y-14478000D01*
X18669000Y-14478000D02*
X18669000Y-5080000D01*
D12*
X6096000Y-4699000D02*
X5969000Y-4572000D01*
X6096000Y-11557000D02*
X6096000Y-4699000D01*
X6858000Y-12319000D02*
X6096000Y-11557000D01*
X7239000Y-12319000D02*
X6858000Y-12319000D01*
X16256000Y-11938000D02*
X16129000Y-11811000D01*
X16256000Y-13462000D02*
X16256000Y-11938000D01*
X18288000Y-15494000D02*
X16256000Y-13462000D01*
X12700000Y-5080000D02*
X11303000Y-5080000D01*
X14224000Y-6604000D02*
X12700000Y-5080000D01*
X14224000Y-6985000D02*
X14224000Y-6604000D01*
X17653000Y-10414000D02*
X14224000Y-6985000D01*
X17780000Y-11430000D02*
X17399000Y-11049000D01*
X17399000Y-11049000D02*
X12827000Y-11049000D01*
X12827000Y-11049000D02*
X11684000Y-12192000D01*
X11684000Y-12192000D02*
X11684000Y-16129000D01*
X11684000Y-16129000D02*
X10414000Y-17399000D01*
X10414000Y-17399000D02*
X9652000Y-17399000D01*
D10*
G36*
X26284800Y-1375271D02*
X26378542Y-1375865D01*
X26485038Y-1378689D01*
X26602120Y-1385444D01*
X26727192Y-1397765D01*
X26857410Y-1417199D01*
X26989796Y-1445152D01*
X27121440Y-1482876D01*
X27249833Y-1531545D01*
X27374781Y-1592909D01*
X27496872Y-1667532D01*
X27614769Y-1754446D01*
X27726524Y-1852157D01*
X27830269Y-1958997D01*
X27924275Y-2073193D01*
X28006919Y-2192831D01*
X28076796Y-2315978D01*
X28133419Y-2442089D01*
X28177971Y-2571812D01*
X28212036Y-2704048D01*
X28236768Y-2836019D01*
X28253462Y-2964688D01*
X28263595Y-3087229D01*
X28268738Y-3200729D01*
X28270560Y-3302873D01*
X28270777Y-3391286D01*
X28270777Y-30491404D01*
X28270677Y-30564321D01*
X28269464Y-30648581D01*
X28265706Y-30742304D01*
X28258019Y-30843568D01*
X28245090Y-30950127D01*
X28225726Y-31059429D01*
X28198877Y-31168958D01*
X28163677Y-31276237D01*
X28118947Y-31380178D01*
X28063347Y-31481683D01*
X27996939Y-31580787D01*
X27920824Y-31675858D01*
X27836364Y-31765196D01*
X27745073Y-31847203D01*
X27648554Y-31920439D01*
X27548551Y-31983574D01*
X27446408Y-32035726D01*
X27341485Y-32077296D01*
X27233259Y-32109811D01*
X27123537Y-32134224D01*
X27014823Y-32151464D01*
X26909650Y-32162626D01*
X26810454Y-32168948D01*
X26719529Y-32171761D01*
X26638605Y-32172470D01*
X26570083Y-32172489D01*
X25982324Y-32172489D01*
X25913124Y-32172463D01*
X25831633Y-32171684D01*
X25740269Y-32168731D01*
X25640724Y-32162200D01*
X25535327Y-32150769D01*
X25426497Y-32133200D01*
X25316788Y-32108407D01*
X25208714Y-32075478D01*
X25103951Y-32033421D01*
X25001910Y-31980724D01*
X24902034Y-31917064D01*
X24805738Y-31843368D01*
X24714737Y-31760955D01*
X24630663Y-31671307D01*
X24554997Y-31576002D01*
X24489097Y-31476741D01*
X24434041Y-31375135D01*
X24389824Y-31271052D01*
X24355053Y-31163611D01*
X24328599Y-31054053D01*
X24309578Y-30944828D01*
X24296935Y-30838477D01*
X24289471Y-30737505D01*
X24285870Y-30644206D01*
X24285319Y-30603068D01*
X24384670Y-30603068D01*
X24673926Y-31303121D01*
X25209062Y-31839192D01*
X25908609Y-32129669D01*
X26666068Y-32130330D01*
X27366121Y-31841074D01*
X27902192Y-31305938D01*
X28192669Y-30606391D01*
X28193330Y-29848932D01*
X27904074Y-29148879D01*
X27368938Y-28612808D01*
X26669391Y-28322331D01*
X25911932Y-28321670D01*
X25211879Y-28610926D01*
X24675808Y-29146062D01*
X24385331Y-29845609D01*
X24384670Y-30603068D01*
X24285319Y-30603068D01*
X24284747Y-30560466D01*
X24284666Y-30488246D01*
X24284666Y-28296512D01*
X24284665Y-28296507D01*
X24284666Y-28296502D01*
X24284665Y-28265559D01*
X24284496Y-28264711D01*
X24284660Y-28263862D01*
X24284443Y-28225732D01*
X24283844Y-28222806D01*
X24284352Y-28219864D01*
X24283224Y-28175203D01*
X24282198Y-28170649D01*
X24282852Y-28166023D01*
X24280051Y-28115945D01*
X24278526Y-28110027D01*
X24279138Y-28103948D01*
X24273903Y-28049573D01*
X24271733Y-28042361D01*
X24272116Y-28034836D01*
X24263684Y-27977280D01*
X24260654Y-27968764D01*
X24260577Y-27959726D01*
X24248187Y-27900104D01*
X24244008Y-27890253D01*
X24243164Y-27879591D01*
X24226056Y-27819024D01*
X24220357Y-27807850D01*
X24218339Y-27795473D01*
X24195748Y-27735078D01*
X24188255Y-27722973D01*
X24184657Y-27709199D01*
X24155948Y-27650043D01*
X24147488Y-27638871D01*
X24142710Y-27625697D01*
X24108101Y-27568510D01*
X24099207Y-27558781D01*
X24093657Y-27546829D01*
X24053730Y-27492194D01*
X24044424Y-27483640D01*
X24038163Y-27472654D01*
X23993501Y-27421154D01*
X23983707Y-27413552D01*
X23976709Y-27403317D01*
X23927897Y-27355537D01*
X23917483Y-27348738D01*
X23909647Y-27339081D01*
X23857269Y-27295606D01*
X23846054Y-27289531D01*
X23837214Y-27280336D01*
X23781853Y-27241747D01*
X23769604Y-27236388D01*
X23759524Y-27227602D01*
X23701763Y-27194484D01*
X23688267Y-27189948D01*
X23676708Y-27181642D01*
X23617140Y-27154559D01*
X23603599Y-27151383D01*
X23591607Y-27144335D01*
X23531058Y-27123256D01*
X23519134Y-27121592D01*
X23508302Y-27116332D01*
X23447875Y-27100535D01*
X23437649Y-27099927D01*
X23428152Y-27096083D01*
X23368965Y-27084805D01*
X23360335Y-27084875D01*
X23352164Y-27082095D01*
X23295334Y-27074575D01*
X23288194Y-27075038D01*
X23281325Y-27073056D01*
X23227968Y-27068532D01*
X23222259Y-27069173D01*
X23216683Y-27067789D01*
X23167917Y-27065501D01*
X23163701Y-27066136D01*
X23159535Y-27065225D01*
X23116478Y-27064410D01*
X23114066Y-27064843D01*
X23111661Y-27064357D01*
X23075428Y-27064253D01*
X23074997Y-27064337D01*
X23074567Y-27064252D01*
X5745976Y-27064252D01*
X5745546Y-27064337D01*
X5745115Y-27064253D01*
X5708883Y-27064357D01*
X5706479Y-27064842D01*
X5704067Y-27064410D01*
X5661009Y-27065225D01*
X5656843Y-27066136D01*
X5652627Y-27065501D01*
X5603861Y-27067789D01*
X5598284Y-27069173D01*
X5592575Y-27068532D01*
X5539219Y-27073056D01*
X5532350Y-27075038D01*
X5525210Y-27074575D01*
X5468379Y-27082095D01*
X5460208Y-27084875D01*
X5451580Y-27084805D01*
X5392392Y-27096083D01*
X5382895Y-27099927D01*
X5372668Y-27100535D01*
X5312241Y-27116332D01*
X5301410Y-27121592D01*
X5289483Y-27123256D01*
X5228935Y-27144335D01*
X5216944Y-27151383D01*
X5203406Y-27154558D01*
X5143837Y-27181641D01*
X5132276Y-27189948D01*
X5118778Y-27194485D01*
X5061018Y-27227603D01*
X5050941Y-27236387D01*
X5038693Y-27241745D01*
X4983331Y-27280335D01*
X4974490Y-27289531D01*
X4963273Y-27295607D01*
X4910894Y-27339084D01*
X4903059Y-27348740D01*
X4892648Y-27355537D01*
X4843835Y-27403317D01*
X4836837Y-27413552D01*
X4827043Y-27421154D01*
X4782382Y-27472654D01*
X4776122Y-27483637D01*
X4766816Y-27492191D01*
X4726888Y-27546826D01*
X4721336Y-27558781D01*
X4712442Y-27568510D01*
X4677832Y-27625698D01*
X4673055Y-27638873D01*
X4664595Y-27650043D01*
X4635886Y-27709199D01*
X4632288Y-27722976D01*
X4624794Y-27735082D01*
X4602203Y-27795477D01*
X4600186Y-27807853D01*
X4594488Y-27819024D01*
X4577379Y-27879591D01*
X4576535Y-27890256D01*
X4572357Y-27900104D01*
X4559967Y-27959725D01*
X4559890Y-27968764D01*
X4556860Y-27977280D01*
X4548428Y-28034837D01*
X4548811Y-28042357D01*
X4546641Y-28049567D01*
X4541405Y-28103943D01*
X4542017Y-28110026D01*
X4540492Y-28115945D01*
X4537691Y-28166024D01*
X4538345Y-28170649D01*
X4537319Y-28175203D01*
X4536191Y-28219865D01*
X4536700Y-28222810D01*
X4536100Y-28225739D01*
X4535884Y-28263870D01*
X4536047Y-28264714D01*
X4535879Y-28265559D01*
X4535878Y-28296502D01*
X4535879Y-28296507D01*
X4535878Y-28296512D01*
X4535878Y-30488242D01*
X4535796Y-30560469D01*
X4534674Y-30644207D01*
X4531072Y-30737528D01*
X4523610Y-30838458D01*
X4510966Y-30944825D01*
X4491944Y-31054053D01*
X4465491Y-31163608D01*
X4430719Y-31271052D01*
X4386502Y-31375135D01*
X4331443Y-31476747D01*
X4265543Y-31576007D01*
X4189881Y-31671307D01*
X4105802Y-31760960D01*
X4014802Y-31843371D01*
X3918507Y-31917065D01*
X3818627Y-31980729D01*
X3716606Y-32033415D01*
X3611833Y-32075477D01*
X3503757Y-32108406D01*
X3394041Y-32133201D01*
X3285222Y-32150768D01*
X3179820Y-32162201D01*
X3080274Y-32168731D01*
X2988909Y-32171684D01*
X2907420Y-32172463D01*
X2838220Y-32172489D01*
X2250441Y-32172489D01*
X2181919Y-32172470D01*
X2100995Y-32171761D01*
X2010074Y-32168948D01*
X1910880Y-32162626D01*
X1805697Y-32151462D01*
X1696993Y-32134226D01*
X1587276Y-32109812D01*
X1479056Y-32077300D01*
X1374125Y-32035727D01*
X1271984Y-31983576D01*
X1171976Y-31920438D01*
X1075464Y-31847208D01*
X984169Y-31765195D01*
X899715Y-31675864D01*
X823605Y-31580800D01*
X757192Y-31481688D01*
X701592Y-31380182D01*
X656867Y-31276251D01*
X621662Y-31168957D01*
X594819Y-31059456D01*
X575455Y-30950152D01*
X562525Y-30843589D01*
X554838Y-30742322D01*
X551079Y-30648593D01*
X550425Y-30603068D01*
X635670Y-30603068D01*
X924926Y-31303121D01*
X1460062Y-31839192D01*
X2159609Y-32129669D01*
X2917068Y-32130330D01*
X3617121Y-31841074D01*
X4153192Y-31305938D01*
X4443669Y-30606391D01*
X4444330Y-29848932D01*
X4155074Y-29148879D01*
X3619938Y-28612808D01*
X2920391Y-28322331D01*
X2162932Y-28321670D01*
X1462879Y-28610926D01*
X926808Y-29146062D01*
X636331Y-29845609D01*
X635670Y-30603068D01*
X550425Y-30603068D01*
X549867Y-30564345D01*
X549767Y-30491424D01*
X549767Y-17018000D01*
X8005000Y-17018000D01*
X8005000Y-17653000D01*
X8043365Y-17845873D01*
X8152618Y-18009382D01*
X8914618Y-18771382D01*
X9078128Y-18880635D01*
X9271000Y-18919000D01*
X18288000Y-18919000D01*
X18480873Y-18880635D01*
X18644382Y-18771382D01*
X20295382Y-17120382D01*
X20404635Y-16956872D01*
X20443001Y-16764000D01*
X20443000Y-16763995D01*
X20443000Y-16158937D01*
X20487096Y-16114918D01*
X20585788Y-15877241D01*
X20586013Y-15619888D01*
X20487735Y-15382039D01*
X20305918Y-15199904D01*
X20068241Y-15101212D01*
X20004921Y-15101157D01*
X19173000Y-14269236D01*
X19173000Y-5490937D01*
X19217096Y-5446918D01*
X19315788Y-5209241D01*
X19316013Y-4951888D01*
X19217735Y-4714039D01*
X19035918Y-4531904D01*
X18798241Y-4433212D01*
X18540888Y-4432987D01*
X18303039Y-4531265D01*
X18120904Y-4713082D01*
X18022212Y-4950759D01*
X18021987Y-5208112D01*
X18120265Y-5445961D01*
X18165000Y-5490774D01*
X18165000Y-10011240D01*
X18019918Y-9865904D01*
X17782241Y-9767212D01*
X17543687Y-9767003D01*
X14604200Y-6827516D01*
X14604200Y-6604000D01*
X14575259Y-6458504D01*
X14492842Y-6335158D01*
X12968842Y-4811158D01*
X12845496Y-4728741D01*
X12700000Y-4699800D01*
X11837521Y-4699800D01*
X11669918Y-4531904D01*
X11432241Y-4433212D01*
X11174888Y-4432987D01*
X10937039Y-4531265D01*
X10754904Y-4713082D01*
X10656212Y-4950759D01*
X10655987Y-5208112D01*
X10754265Y-5445961D01*
X10936082Y-5628096D01*
X11173759Y-5726788D01*
X11431112Y-5727013D01*
X11668961Y-5628735D01*
X11837791Y-5460200D01*
X12542516Y-5460200D01*
X13843800Y-6761484D01*
X13843800Y-6985000D01*
X13872741Y-7130496D01*
X13955158Y-7253842D01*
X17006194Y-10304878D01*
X17005987Y-10542112D01*
X17058334Y-10668800D01*
X12827000Y-10668800D01*
X12681504Y-10697741D01*
X12558158Y-10780158D01*
X11415158Y-11923158D01*
X11332741Y-12046504D01*
X11303800Y-12192000D01*
X11303800Y-15971516D01*
X10256516Y-17018800D01*
X10186521Y-17018800D01*
X10018918Y-16850904D01*
X9781241Y-16752212D01*
X9523888Y-16751987D01*
X9462350Y-16777414D01*
X9590805Y-16648959D01*
X9653112Y-16649013D01*
X9890961Y-16550735D01*
X10073096Y-16368918D01*
X10171788Y-16131241D01*
X10172013Y-15873888D01*
X10073735Y-15636039D01*
X9891918Y-15453904D01*
X9654241Y-15355212D01*
X9396888Y-15354987D01*
X9159039Y-15453265D01*
X8976904Y-15635082D01*
X8878212Y-15872759D01*
X8878157Y-15936079D01*
X8152618Y-16661618D01*
X8043365Y-16825127D01*
X8043365Y-16825128D01*
X8005000Y-17018000D01*
X549767Y-17018000D01*
X549767Y-4700112D01*
X5321987Y-4700112D01*
X5420265Y-4937961D01*
X5602082Y-5120096D01*
X5715800Y-5167316D01*
X5715800Y-11557000D01*
X5744741Y-11702496D01*
X5827158Y-11825842D01*
X6589158Y-12587842D01*
X6673392Y-12644125D01*
X6690265Y-12684961D01*
X6872082Y-12867096D01*
X7109759Y-12965788D01*
X7367112Y-12966013D01*
X7604961Y-12867735D01*
X7787096Y-12685918D01*
X7885788Y-12448241D01*
X7886013Y-12190888D01*
X7787735Y-11953039D01*
X7605918Y-11770904D01*
X7368241Y-11672212D01*
X7110888Y-11671987D01*
X6873039Y-11770265D01*
X6859983Y-11783299D01*
X6476200Y-11399516D01*
X6476200Y-4979743D01*
X6517096Y-4938918D01*
X6615788Y-4701241D01*
X6616013Y-4443888D01*
X6517735Y-4206039D01*
X6335918Y-4023904D01*
X6098241Y-3925212D01*
X5840888Y-3924987D01*
X5603039Y-4023265D01*
X5420904Y-4205082D01*
X5322212Y-4442759D01*
X5321987Y-4700112D01*
X549767Y-4700112D01*
X549767Y-3391281D01*
X549983Y-3302876D01*
X551806Y-3200728D01*
X556949Y-3087228D01*
X567082Y-2964688D01*
X583775Y-2836025D01*
X608509Y-2704048D01*
X642573Y-2571812D01*
X687124Y-2442094D01*
X743749Y-2315974D01*
X813628Y-2192827D01*
X896270Y-2073191D01*
X990273Y-1958998D01*
X1094023Y-1852153D01*
X1205771Y-1754449D01*
X1323674Y-1667529D01*
X1445754Y-1592914D01*
X1570711Y-1531544D01*
X1699106Y-1482875D01*
X1830751Y-1445151D01*
X1963132Y-1417200D01*
X2093354Y-1397765D01*
X2218422Y-1385444D01*
X2335475Y-1378691D01*
X2442003Y-1375865D01*
X2535744Y-1375271D01*
X2616437Y-1375267D01*
X26206932Y-1375267D01*
X26284800Y-1375271D01*
X26284800Y-1375271D01*
G37*
X26284800Y-1375271D02*
X26378542Y-1375865D01*
X26485038Y-1378689D01*
X26602120Y-1385444D01*
X26727192Y-1397765D01*
X26857410Y-1417199D01*
X26989796Y-1445152D01*
X27121440Y-1482876D01*
X27249833Y-1531545D01*
X27374781Y-1592909D01*
X27496872Y-1667532D01*
X27614769Y-1754446D01*
X27726524Y-1852157D01*
X27830269Y-1958997D01*
X27924275Y-2073193D01*
X28006919Y-2192831D01*
X28076796Y-2315978D01*
X28133419Y-2442089D01*
X28177971Y-2571812D01*
X28212036Y-2704048D01*
X28236768Y-2836019D01*
X28253462Y-2964688D01*
X28263595Y-3087229D01*
X28268738Y-3200729D01*
X28270560Y-3302873D01*
X28270777Y-3391286D01*
X28270777Y-30491404D01*
X28270677Y-30564321D01*
X28269464Y-30648581D01*
X28265706Y-30742304D01*
X28258019Y-30843568D01*
X28245090Y-30950127D01*
X28225726Y-31059429D01*
X28198877Y-31168958D01*
X28163677Y-31276237D01*
X28118947Y-31380178D01*
X28063347Y-31481683D01*
X27996939Y-31580787D01*
X27920824Y-31675858D01*
X27836364Y-31765196D01*
X27745073Y-31847203D01*
X27648554Y-31920439D01*
X27548551Y-31983574D01*
X27446408Y-32035726D01*
X27341485Y-32077296D01*
X27233259Y-32109811D01*
X27123537Y-32134224D01*
X27014823Y-32151464D01*
X26909650Y-32162626D01*
X26810454Y-32168948D01*
X26719529Y-32171761D01*
X26638605Y-32172470D01*
X26570083Y-32172489D01*
X25982324Y-32172489D01*
X25913124Y-32172463D01*
X25831633Y-32171684D01*
X25740269Y-32168731D01*
X25640724Y-32162200D01*
X25535327Y-32150769D01*
X25426497Y-32133200D01*
X25316788Y-32108407D01*
X25208714Y-32075478D01*
X25103951Y-32033421D01*
X25001910Y-31980724D01*
X24902034Y-31917064D01*
X24805738Y-31843368D01*
X24714737Y-31760955D01*
X24630663Y-31671307D01*
X24554997Y-31576002D01*
X24489097Y-31476741D01*
X24434041Y-31375135D01*
X24389824Y-31271052D01*
X24355053Y-31163611D01*
X24328599Y-31054053D01*
X24309578Y-30944828D01*
X24296935Y-30838477D01*
X24289471Y-30737505D01*
X24285870Y-30644206D01*
X24285319Y-30603068D01*
X24384670Y-30603068D01*
X24673926Y-31303121D01*
X25209062Y-31839192D01*
X25908609Y-32129669D01*
X26666068Y-32130330D01*
X27366121Y-31841074D01*
X27902192Y-31305938D01*
X28192669Y-30606391D01*
X28193330Y-29848932D01*
X27904074Y-29148879D01*
X27368938Y-28612808D01*
X26669391Y-28322331D01*
X25911932Y-28321670D01*
X25211879Y-28610926D01*
X24675808Y-29146062D01*
X24385331Y-29845609D01*
X24384670Y-30603068D01*
X24285319Y-30603068D01*
X24284747Y-30560466D01*
X24284666Y-30488246D01*
X24284666Y-28296512D01*
X24284665Y-28296507D01*
X24284666Y-28296502D01*
X24284665Y-28265559D01*
X24284496Y-28264711D01*
X24284660Y-28263862D01*
X24284443Y-28225732D01*
X24283844Y-28222806D01*
X24284352Y-28219864D01*
X24283224Y-28175203D01*
X24282198Y-28170649D01*
X24282852Y-28166023D01*
X24280051Y-28115945D01*
X24278526Y-28110027D01*
X24279138Y-28103948D01*
X24273903Y-28049573D01*
X24271733Y-28042361D01*
X24272116Y-28034836D01*
X24263684Y-27977280D01*
X24260654Y-27968764D01*
X24260577Y-27959726D01*
X24248187Y-27900104D01*
X24244008Y-27890253D01*
X24243164Y-27879591D01*
X24226056Y-27819024D01*
X24220357Y-27807850D01*
X24218339Y-27795473D01*
X24195748Y-27735078D01*
X24188255Y-27722973D01*
X24184657Y-27709199D01*
X24155948Y-27650043D01*
X24147488Y-27638871D01*
X24142710Y-27625697D01*
X24108101Y-27568510D01*
X24099207Y-27558781D01*
X24093657Y-27546829D01*
X24053730Y-27492194D01*
X24044424Y-27483640D01*
X24038163Y-27472654D01*
X23993501Y-27421154D01*
X23983707Y-27413552D01*
X23976709Y-27403317D01*
X23927897Y-27355537D01*
X23917483Y-27348738D01*
X23909647Y-27339081D01*
X23857269Y-27295606D01*
X23846054Y-27289531D01*
X23837214Y-27280336D01*
X23781853Y-27241747D01*
X23769604Y-27236388D01*
X23759524Y-27227602D01*
X23701763Y-27194484D01*
X23688267Y-27189948D01*
X23676708Y-27181642D01*
X23617140Y-27154559D01*
X23603599Y-27151383D01*
X23591607Y-27144335D01*
X23531058Y-27123256D01*
X23519134Y-27121592D01*
X23508302Y-27116332D01*
X23447875Y-27100535D01*
X23437649Y-27099927D01*
X23428152Y-27096083D01*
X23368965Y-27084805D01*
X23360335Y-27084875D01*
X23352164Y-27082095D01*
X23295334Y-27074575D01*
X23288194Y-27075038D01*
X23281325Y-27073056D01*
X23227968Y-27068532D01*
X23222259Y-27069173D01*
X23216683Y-27067789D01*
X23167917Y-27065501D01*
X23163701Y-27066136D01*
X23159535Y-27065225D01*
X23116478Y-27064410D01*
X23114066Y-27064843D01*
X23111661Y-27064357D01*
X23075428Y-27064253D01*
X23074997Y-27064337D01*
X23074567Y-27064252D01*
X5745976Y-27064252D01*
X5745546Y-27064337D01*
X5745115Y-27064253D01*
X5708883Y-27064357D01*
X5706479Y-27064842D01*
X5704067Y-27064410D01*
X5661009Y-27065225D01*
X5656843Y-27066136D01*
X5652627Y-27065501D01*
X5603861Y-27067789D01*
X5598284Y-27069173D01*
X5592575Y-27068532D01*
X5539219Y-27073056D01*
X5532350Y-27075038D01*
X5525210Y-27074575D01*
X5468379Y-27082095D01*
X5460208Y-27084875D01*
X5451580Y-27084805D01*
X5392392Y-27096083D01*
X5382895Y-27099927D01*
X5372668Y-27100535D01*
X5312241Y-27116332D01*
X5301410Y-27121592D01*
X5289483Y-27123256D01*
X5228935Y-27144335D01*
X5216944Y-27151383D01*
X5203406Y-27154558D01*
X5143837Y-27181641D01*
X5132276Y-27189948D01*
X5118778Y-27194485D01*
X5061018Y-27227603D01*
X5050941Y-27236387D01*
X5038693Y-27241745D01*
X4983331Y-27280335D01*
X4974490Y-27289531D01*
X4963273Y-27295607D01*
X4910894Y-27339084D01*
X4903059Y-27348740D01*
X4892648Y-27355537D01*
X4843835Y-27403317D01*
X4836837Y-27413552D01*
X4827043Y-27421154D01*
X4782382Y-27472654D01*
X4776122Y-27483637D01*
X4766816Y-27492191D01*
X4726888Y-27546826D01*
X4721336Y-27558781D01*
X4712442Y-27568510D01*
X4677832Y-27625698D01*
X4673055Y-27638873D01*
X4664595Y-27650043D01*
X4635886Y-27709199D01*
X4632288Y-27722976D01*
X4624794Y-27735082D01*
X4602203Y-27795477D01*
X4600186Y-27807853D01*
X4594488Y-27819024D01*
X4577379Y-27879591D01*
X4576535Y-27890256D01*
X4572357Y-27900104D01*
X4559967Y-27959725D01*
X4559890Y-27968764D01*
X4556860Y-27977280D01*
X4548428Y-28034837D01*
X4548811Y-28042357D01*
X4546641Y-28049567D01*
X4541405Y-28103943D01*
X4542017Y-28110026D01*
X4540492Y-28115945D01*
X4537691Y-28166024D01*
X4538345Y-28170649D01*
X4537319Y-28175203D01*
X4536191Y-28219865D01*
X4536700Y-28222810D01*
X4536100Y-28225739D01*
X4535884Y-28263870D01*
X4536047Y-28264714D01*
X4535879Y-28265559D01*
X4535878Y-28296502D01*
X4535879Y-28296507D01*
X4535878Y-28296512D01*
X4535878Y-30488242D01*
X4535796Y-30560469D01*
X4534674Y-30644207D01*
X4531072Y-30737528D01*
X4523610Y-30838458D01*
X4510966Y-30944825D01*
X4491944Y-31054053D01*
X4465491Y-31163608D01*
X4430719Y-31271052D01*
X4386502Y-31375135D01*
X4331443Y-31476747D01*
X4265543Y-31576007D01*
X4189881Y-31671307D01*
X4105802Y-31760960D01*
X4014802Y-31843371D01*
X3918507Y-31917065D01*
X3818627Y-31980729D01*
X3716606Y-32033415D01*
X3611833Y-32075477D01*
X3503757Y-32108406D01*
X3394041Y-32133201D01*
X3285222Y-32150768D01*
X3179820Y-32162201D01*
X3080274Y-32168731D01*
X2988909Y-32171684D01*
X2907420Y-32172463D01*
X2838220Y-32172489D01*
X2250441Y-32172489D01*
X2181919Y-32172470D01*
X2100995Y-32171761D01*
X2010074Y-32168948D01*
X1910880Y-32162626D01*
X1805697Y-32151462D01*
X1696993Y-32134226D01*
X1587276Y-32109812D01*
X1479056Y-32077300D01*
X1374125Y-32035727D01*
X1271984Y-31983576D01*
X1171976Y-31920438D01*
X1075464Y-31847208D01*
X984169Y-31765195D01*
X899715Y-31675864D01*
X823605Y-31580800D01*
X757192Y-31481688D01*
X701592Y-31380182D01*
X656867Y-31276251D01*
X621662Y-31168957D01*
X594819Y-31059456D01*
X575455Y-30950152D01*
X562525Y-30843589D01*
X554838Y-30742322D01*
X551079Y-30648593D01*
X550425Y-30603068D01*
X635670Y-30603068D01*
X924926Y-31303121D01*
X1460062Y-31839192D01*
X2159609Y-32129669D01*
X2917068Y-32130330D01*
X3617121Y-31841074D01*
X4153192Y-31305938D01*
X4443669Y-30606391D01*
X4444330Y-29848932D01*
X4155074Y-29148879D01*
X3619938Y-28612808D01*
X2920391Y-28322331D01*
X2162932Y-28321670D01*
X1462879Y-28610926D01*
X926808Y-29146062D01*
X636331Y-29845609D01*
X635670Y-30603068D01*
X550425Y-30603068D01*
X549867Y-30564345D01*
X549767Y-30491424D01*
X549767Y-17018000D01*
X8005000Y-17018000D01*
X8005000Y-17653000D01*
X8043365Y-17845873D01*
X8152618Y-18009382D01*
X8914618Y-18771382D01*
X9078128Y-18880635D01*
X9271000Y-18919000D01*
X18288000Y-18919000D01*
X18480873Y-18880635D01*
X18644382Y-18771382D01*
X20295382Y-17120382D01*
X20404635Y-16956872D01*
X20443001Y-16764000D01*
X20443000Y-16763995D01*
X20443000Y-16158937D01*
X20487096Y-16114918D01*
X20585788Y-15877241D01*
X20586013Y-15619888D01*
X20487735Y-15382039D01*
X20305918Y-15199904D01*
X20068241Y-15101212D01*
X20004921Y-15101157D01*
X19173000Y-14269236D01*
X19173000Y-5490937D01*
X19217096Y-5446918D01*
X19315788Y-5209241D01*
X19316013Y-4951888D01*
X19217735Y-4714039D01*
X19035918Y-4531904D01*
X18798241Y-4433212D01*
X18540888Y-4432987D01*
X18303039Y-4531265D01*
X18120904Y-4713082D01*
X18022212Y-4950759D01*
X18021987Y-5208112D01*
X18120265Y-5445961D01*
X18165000Y-5490774D01*
X18165000Y-10011240D01*
X18019918Y-9865904D01*
X17782241Y-9767212D01*
X17543687Y-9767003D01*
X14604200Y-6827516D01*
X14604200Y-6604000D01*
X14575259Y-6458504D01*
X14492842Y-6335158D01*
X12968842Y-4811158D01*
X12845496Y-4728741D01*
X12700000Y-4699800D01*
X11837521Y-4699800D01*
X11669918Y-4531904D01*
X11432241Y-4433212D01*
X11174888Y-4432987D01*
X10937039Y-4531265D01*
X10754904Y-4713082D01*
X10656212Y-4950759D01*
X10655987Y-5208112D01*
X10754265Y-5445961D01*
X10936082Y-5628096D01*
X11173759Y-5726788D01*
X11431112Y-5727013D01*
X11668961Y-5628735D01*
X11837791Y-5460200D01*
X12542516Y-5460200D01*
X13843800Y-6761484D01*
X13843800Y-6985000D01*
X13872741Y-7130496D01*
X13955158Y-7253842D01*
X17006194Y-10304878D01*
X17005987Y-10542112D01*
X17058334Y-10668800D01*
X12827000Y-10668800D01*
X12681504Y-10697741D01*
X12558158Y-10780158D01*
X11415158Y-11923158D01*
X11332741Y-12046504D01*
X11303800Y-12192000D01*
X11303800Y-15971516D01*
X10256516Y-17018800D01*
X10186521Y-17018800D01*
X10018918Y-16850904D01*
X9781241Y-16752212D01*
X9523888Y-16751987D01*
X9462350Y-16777414D01*
X9590805Y-16648959D01*
X9653112Y-16649013D01*
X9890961Y-16550735D01*
X10073096Y-16368918D01*
X10171788Y-16131241D01*
X10172013Y-15873888D01*
X10073735Y-15636039D01*
X9891918Y-15453904D01*
X9654241Y-15355212D01*
X9396888Y-15354987D01*
X9159039Y-15453265D01*
X8976904Y-15635082D01*
X8878212Y-15872759D01*
X8878157Y-15936079D01*
X8152618Y-16661618D01*
X8043365Y-16825127D01*
X8043365Y-16825128D01*
X8005000Y-17018000D01*
X549767Y-17018000D01*
X549767Y-4700112D01*
X5321987Y-4700112D01*
X5420265Y-4937961D01*
X5602082Y-5120096D01*
X5715800Y-5167316D01*
X5715800Y-11557000D01*
X5744741Y-11702496D01*
X5827158Y-11825842D01*
X6589158Y-12587842D01*
X6673392Y-12644125D01*
X6690265Y-12684961D01*
X6872082Y-12867096D01*
X7109759Y-12965788D01*
X7367112Y-12966013D01*
X7604961Y-12867735D01*
X7787096Y-12685918D01*
X7885788Y-12448241D01*
X7886013Y-12190888D01*
X7787735Y-11953039D01*
X7605918Y-11770904D01*
X7368241Y-11672212D01*
X7110888Y-11671987D01*
X6873039Y-11770265D01*
X6859983Y-11783299D01*
X6476200Y-11399516D01*
X6476200Y-4979743D01*
X6517096Y-4938918D01*
X6615788Y-4701241D01*
X6616013Y-4443888D01*
X6517735Y-4206039D01*
X6335918Y-4023904D01*
X6098241Y-3925212D01*
X5840888Y-3924987D01*
X5603039Y-4023265D01*
X5420904Y-4205082D01*
X5322212Y-4442759D01*
X5321987Y-4700112D01*
X549767Y-4700112D01*
X549767Y-3391281D01*
X549983Y-3302876D01*
X551806Y-3200728D01*
X556949Y-3087228D01*
X567082Y-2964688D01*
X583775Y-2836025D01*
X608509Y-2704048D01*
X642573Y-2571812D01*
X687124Y-2442094D01*
X743749Y-2315974D01*
X813628Y-2192827D01*
X896270Y-2073191D01*
X990273Y-1958998D01*
X1094023Y-1852153D01*
X1205771Y-1754449D01*
X1323674Y-1667529D01*
X1445754Y-1592914D01*
X1570711Y-1531544D01*
X1699106Y-1482875D01*
X1830751Y-1445151D01*
X1963132Y-1417200D01*
X2093354Y-1397765D01*
X2218422Y-1385444D01*
X2335475Y-1378691D01*
X2442003Y-1375865D01*
X2535744Y-1375271D01*
X2616437Y-1375267D01*
X26206932Y-1375267D01*
X26284800Y-1375271D01*
M02*
