%TF.GenerationSoftware,KiCad,Pcbnew,4.0.7-e2-6376~58~ubuntu16.04.1*%
%TF.CreationDate,2018-01-20T15:39:55+01:00*%
%TF.ProjectId,OLEDModule,4F4C45444D6F64756C652E6B69636164,rev?*%
%TF.FileFunction,Soldermask,Bot*%
%FSLAX46Y46*%
G04 Gerber Fmt 4.6, Leading zero omitted, Abs format (unit mm)*
G04 Created by KiCad (PCBNEW 4.0.7-e2-6376~58~ubuntu16.04.1) date Sat Jan 20 15:39:55 2018*
%MOMM*%
%LPD*%
G01*
G04 APERTURE LIST*
%ADD10C,0.100000*%
%ADD11R,0.800000X3.400000*%
%ADD12R,1.400000X3.900000*%
%ADD13R,2.000000X3.800000*%
%ADD14C,3.600000*%
%ADD15R,1.050000X1.460000*%
%ADD16R,1.500000X0.800000*%
%ADD17R,1.150000X1.200000*%
%ADD18R,1.200000X1.150000*%
%ADD19R,0.900000X1.300000*%
%ADD20R,1.300000X0.900000*%
G04 APERTURE END LIST*
D10*
D11*
X24247000Y-7747000D03*
X23547000Y-7747000D03*
X22847000Y-7747000D03*
X22147000Y-7747000D03*
X21447000Y-7747000D03*
X20047000Y-7747000D03*
X19347000Y-7747000D03*
X18647000Y-7747000D03*
X17947000Y-7747000D03*
X17247000Y-7747000D03*
X16547000Y-7747000D03*
X15847000Y-7747000D03*
X15147000Y-7747000D03*
X14447000Y-7747000D03*
X13747000Y-7747000D03*
X13047000Y-7747000D03*
X12347000Y-7747000D03*
X11647000Y-7747000D03*
X10947000Y-7747000D03*
X10247000Y-7747000D03*
X9547000Y-7747000D03*
X8847000Y-7747000D03*
X8147000Y-7747000D03*
X7447000Y-7747000D03*
X6747000Y-7747000D03*
X6047000Y-7747000D03*
X5347000Y-7747000D03*
X4647000Y-7747000D03*
X3947000Y-7747000D03*
X20747000Y-7747000D03*
D12*
X16970000Y-19577000D03*
X14970000Y-19577000D03*
X12970000Y-19577000D03*
X10970000Y-19577000D03*
D13*
X19370000Y-25127000D03*
X8570000Y-25127000D03*
D14*
X2540000Y-30226000D03*
D15*
X5014000Y-18626000D03*
X4064000Y-18626000D03*
X3114000Y-18626000D03*
X3114000Y-16426000D03*
X5014000Y-16426000D03*
D16*
X9280000Y-12659000D03*
X9280000Y-12009000D03*
X9280000Y-11359000D03*
X9280000Y-10709000D03*
X13580000Y-10709000D03*
X13580000Y-11359000D03*
X13580000Y-12009000D03*
X13580000Y-12659000D03*
D17*
X17018000Y-12712000D03*
X17018000Y-14212000D03*
X3302000Y-12839000D03*
X3302000Y-14339000D03*
X5588000Y-12839000D03*
X5588000Y-14339000D03*
X23749000Y-20181000D03*
X23749000Y-18681000D03*
X22098000Y-14212000D03*
X22098000Y-12712000D03*
X23749000Y-14212000D03*
X23749000Y-12712000D03*
X25400000Y-14212000D03*
X25400000Y-12712000D03*
D18*
X24880000Y-10922000D03*
X23380000Y-10922000D03*
X21832000Y-10922000D03*
X20332000Y-10922000D03*
X6108000Y-10922000D03*
X7608000Y-10922000D03*
D19*
X13831000Y-14605000D03*
X12331000Y-14605000D03*
D20*
X18669000Y-14212000D03*
X18669000Y-12712000D03*
X15367000Y-14212000D03*
X15367000Y-12712000D03*
X23749000Y-17260000D03*
X23749000Y-15760000D03*
D19*
X9537000Y-14605000D03*
X11037000Y-14605000D03*
D20*
X21971000Y-15760000D03*
X21971000Y-17260000D03*
X20447000Y-14212000D03*
X20447000Y-12712000D03*
D19*
X4687000Y-10922000D03*
X3187000Y-10922000D03*
D14*
X26289000Y-30226000D03*
M02*
