%TF.GenerationSoftware,KiCad,Pcbnew,4.0.7*%
%TF.CreationDate,2018-05-06T16:09:47+02:00*%
%TF.ProjectId,OLEDModule,4F4C45444D6F64756C652E6B69636164,rev?*%
%TF.FileFunction,Soldermask,Bot*%
%FSLAX46Y46*%
G04 Gerber Fmt 4.6, Leading zero omitted, Abs format (unit mm)*
G04 Created by KiCad (PCBNEW 4.0.7) date 05/06/18 16:09:47*
%MOMM*%
%LPD*%
G01*
G04 APERTURE LIST*
%ADD10C,0.100000*%
%ADD11C,0.010000*%
%ADD12R,0.800000X3.400000*%
%ADD13R,1.400000X3.900000*%
%ADD14R,2.000000X3.800000*%
%ADD15C,3.600000*%
%ADD16R,1.050000X1.460000*%
%ADD17R,1.500000X0.800000*%
%ADD18R,1.150000X1.200000*%
%ADD19R,1.200000X1.150000*%
%ADD20R,0.900000X1.300000*%
%ADD21R,1.300000X0.900000*%
G04 APERTURE END LIST*
D10*
D11*
G36*
X-22682698Y-32473604D02*
X-22685690Y-32474307D01*
X-22744991Y-32494945D01*
X-22799035Y-32526274D01*
X-22846419Y-32566885D01*
X-22885743Y-32615367D01*
X-22915606Y-32670312D01*
X-22932989Y-32723072D01*
X-22942090Y-32787418D01*
X-22938748Y-32849653D01*
X-22923128Y-32909216D01*
X-22895391Y-32965548D01*
X-22855701Y-33018089D01*
X-22843396Y-33031108D01*
X-22799298Y-33069916D01*
X-22752986Y-33098121D01*
X-22700781Y-33117735D01*
X-22672118Y-33124780D01*
X-22631462Y-33131647D01*
X-22596091Y-33133034D01*
X-22559833Y-33128940D01*
X-22539325Y-33124812D01*
X-22476576Y-33104648D01*
X-22420424Y-33073977D01*
X-22371766Y-33033642D01*
X-22331502Y-32984487D01*
X-22300529Y-32927354D01*
X-22286025Y-32887084D01*
X-22276873Y-32837719D01*
X-22276084Y-32783280D01*
X-22283219Y-32727850D01*
X-22297836Y-32675508D01*
X-22312412Y-32642650D01*
X-22329129Y-32617130D01*
X-22352954Y-32588278D01*
X-22380846Y-32559145D01*
X-22409765Y-32532786D01*
X-22436669Y-32512253D01*
X-22450425Y-32504078D01*
X-22505923Y-32482126D01*
X-22565545Y-32469425D01*
X-22625675Y-32466432D01*
X-22682698Y-32473604D01*
X-22682698Y-32473604D01*
G37*
X-22682698Y-32473604D02*
X-22685690Y-32474307D01*
X-22744991Y-32494945D01*
X-22799035Y-32526274D01*
X-22846419Y-32566885D01*
X-22885743Y-32615367D01*
X-22915606Y-32670312D01*
X-22932989Y-32723072D01*
X-22942090Y-32787418D01*
X-22938748Y-32849653D01*
X-22923128Y-32909216D01*
X-22895391Y-32965548D01*
X-22855701Y-33018089D01*
X-22843396Y-33031108D01*
X-22799298Y-33069916D01*
X-22752986Y-33098121D01*
X-22700781Y-33117735D01*
X-22672118Y-33124780D01*
X-22631462Y-33131647D01*
X-22596091Y-33133034D01*
X-22559833Y-33128940D01*
X-22539325Y-33124812D01*
X-22476576Y-33104648D01*
X-22420424Y-33073977D01*
X-22371766Y-33033642D01*
X-22331502Y-32984487D01*
X-22300529Y-32927354D01*
X-22286025Y-32887084D01*
X-22276873Y-32837719D01*
X-22276084Y-32783280D01*
X-22283219Y-32727850D01*
X-22297836Y-32675508D01*
X-22312412Y-32642650D01*
X-22329129Y-32617130D01*
X-22352954Y-32588278D01*
X-22380846Y-32559145D01*
X-22409765Y-32532786D01*
X-22436669Y-32512253D01*
X-22450425Y-32504078D01*
X-22505923Y-32482126D01*
X-22565545Y-32469425D01*
X-22625675Y-32466432D01*
X-22682698Y-32473604D01*
G36*
X-24655346Y-30103792D02*
X-24678656Y-30107046D01*
X-24703321Y-30114642D01*
X-24709421Y-30117340D01*
X-24720558Y-30125034D01*
X-24739645Y-30141186D01*
X-24766802Y-30165909D01*
X-24802148Y-30199318D01*
X-24845803Y-30241527D01*
X-24897887Y-30292649D01*
X-24958520Y-30352800D01*
X-24999921Y-30394139D01*
X-25263418Y-30657801D01*
X-24987465Y-30933809D01*
X-24930521Y-30990721D01*
X-24881831Y-31039260D01*
X-24840701Y-31080069D01*
X-24806442Y-31113791D01*
X-24778360Y-31141069D01*
X-24755764Y-31162546D01*
X-24737964Y-31178864D01*
X-24724266Y-31190666D01*
X-24713980Y-31198596D01*
X-24706414Y-31203297D01*
X-24700876Y-31205410D01*
X-24696674Y-31205580D01*
X-24695393Y-31205299D01*
X-24661015Y-31200786D01*
X-24622860Y-31203934D01*
X-24586749Y-31214088D01*
X-24576729Y-31218632D01*
X-24540703Y-31243493D01*
X-24513276Y-31275957D01*
X-24495179Y-31313827D01*
X-24487139Y-31354902D01*
X-24489888Y-31396986D01*
X-24504033Y-31437642D01*
X-24522490Y-31464399D01*
X-24548247Y-31489712D01*
X-24577140Y-31510056D01*
X-24602903Y-31521352D01*
X-24647457Y-31527977D01*
X-24689816Y-31523374D01*
X-24728366Y-31508719D01*
X-24761491Y-31485188D01*
X-24787576Y-31453955D01*
X-24805006Y-31416196D01*
X-24812166Y-31373087D01*
X-24812251Y-31369000D01*
X-24811740Y-31345397D01*
X-24810035Y-31325458D01*
X-24807913Y-31314946D01*
X-24808069Y-31311130D01*
X-24811064Y-31305007D01*
X-24817505Y-31295930D01*
X-24828001Y-31283254D01*
X-24843159Y-31266330D01*
X-24863586Y-31244513D01*
X-24889889Y-31217157D01*
X-24922677Y-31183614D01*
X-24962557Y-31143238D01*
X-25010137Y-31095383D01*
X-25066023Y-31039401D01*
X-25079337Y-31026087D01*
X-25355473Y-30750006D01*
X-25428975Y-30822965D01*
X-25464254Y-30858701D01*
X-25491018Y-30887820D01*
X-25510358Y-30912007D01*
X-25523369Y-30932948D01*
X-25531143Y-30952329D01*
X-25534772Y-30971837D01*
X-25535433Y-30987188D01*
X-25532847Y-31016401D01*
X-25526006Y-31041282D01*
X-25524240Y-31045150D01*
X-25517912Y-31053324D01*
X-25503335Y-31069601D01*
X-25481312Y-31093175D01*
X-25452645Y-31123242D01*
X-25418137Y-31158994D01*
X-25378592Y-31199628D01*
X-25334813Y-31244338D01*
X-25287601Y-31292318D01*
X-25237761Y-31342764D01*
X-25186095Y-31394870D01*
X-25133406Y-31447830D01*
X-25080496Y-31500840D01*
X-25028170Y-31553093D01*
X-24977229Y-31603786D01*
X-24928477Y-31652111D01*
X-24882716Y-31697265D01*
X-24840750Y-31738442D01*
X-24803382Y-31774836D01*
X-24771413Y-31805642D01*
X-24745648Y-31830055D01*
X-24726889Y-31847269D01*
X-24715939Y-31856480D01*
X-24714200Y-31857614D01*
X-24682412Y-31869198D01*
X-24648361Y-31873703D01*
X-24621224Y-31871079D01*
X-24602006Y-31864197D01*
X-24581783Y-31853950D01*
X-24579949Y-31852828D01*
X-24571617Y-31845952D01*
X-24555214Y-31830909D01*
X-24531613Y-31808546D01*
X-24501686Y-31779714D01*
X-24466305Y-31745261D01*
X-24426345Y-31706037D01*
X-24382677Y-31662889D01*
X-24336173Y-31616667D01*
X-24298294Y-31578825D01*
X-24037963Y-31318180D01*
X-24590375Y-30766434D01*
X-24620406Y-30773482D01*
X-24661052Y-30776772D01*
X-24701327Y-30768467D01*
X-24739116Y-30749549D01*
X-24772303Y-30721003D01*
X-24793438Y-30693003D01*
X-24803627Y-30674973D01*
X-24809407Y-30658971D01*
X-24811962Y-30640073D01*
X-24812477Y-30613847D01*
X-24809258Y-30573282D01*
X-24798864Y-30540351D01*
X-24779775Y-30511318D01*
X-24763968Y-30494646D01*
X-24728243Y-30468465D01*
X-24688917Y-30453338D01*
X-24647982Y-30448917D01*
X-24607428Y-30454855D01*
X-24569248Y-30470802D01*
X-24535431Y-30496410D01*
X-24507969Y-30531331D01*
X-24502928Y-30540325D01*
X-24494354Y-30565216D01*
X-24489574Y-30596787D01*
X-24489043Y-30629463D01*
X-24493216Y-30657669D01*
X-24493321Y-30658043D01*
X-24493689Y-30661937D01*
X-24492344Y-30666917D01*
X-24488645Y-30673676D01*
X-24481947Y-30682906D01*
X-24471608Y-30695299D01*
X-24456984Y-30711546D01*
X-24437433Y-30732339D01*
X-24412311Y-30758370D01*
X-24380976Y-30790331D01*
X-24342785Y-30828914D01*
X-24297094Y-30874810D01*
X-24243261Y-30928712D01*
X-24221894Y-30950080D01*
X-23945921Y-31225998D01*
X-23869523Y-31149861D01*
X-23840980Y-31120545D01*
X-23815901Y-31093119D01*
X-23795989Y-31069545D01*
X-23782946Y-31051791D01*
X-23779854Y-31046394D01*
X-23768476Y-31009154D01*
X-23768076Y-30969683D01*
X-23778655Y-30932137D01*
X-23779847Y-30929605D01*
X-23785933Y-30920757D01*
X-23798825Y-30905446D01*
X-23818778Y-30883409D01*
X-23846043Y-30854385D01*
X-23880876Y-30818112D01*
X-23923529Y-30774328D01*
X-23974256Y-30722772D01*
X-24033311Y-30663182D01*
X-24100947Y-30595296D01*
X-24177418Y-30518851D01*
X-24185392Y-30510894D01*
X-24255213Y-30441230D01*
X-24316650Y-30379980D01*
X-24370326Y-30326603D01*
X-24416864Y-30280560D01*
X-24456887Y-30241312D01*
X-24491018Y-30208317D01*
X-24519881Y-30181038D01*
X-24544098Y-30158933D01*
X-24564292Y-30141463D01*
X-24581087Y-30128089D01*
X-24595105Y-30118270D01*
X-24606971Y-30111467D01*
X-24617306Y-30107140D01*
X-24626733Y-30104750D01*
X-24635877Y-30103756D01*
X-24645360Y-30103619D01*
X-24655346Y-30103792D01*
X-24655346Y-30103792D01*
G37*
X-24655346Y-30103792D02*
X-24678656Y-30107046D01*
X-24703321Y-30114642D01*
X-24709421Y-30117340D01*
X-24720558Y-30125034D01*
X-24739645Y-30141186D01*
X-24766802Y-30165909D01*
X-24802148Y-30199318D01*
X-24845803Y-30241527D01*
X-24897887Y-30292649D01*
X-24958520Y-30352800D01*
X-24999921Y-30394139D01*
X-25263418Y-30657801D01*
X-24987465Y-30933809D01*
X-24930521Y-30990721D01*
X-24881831Y-31039260D01*
X-24840701Y-31080069D01*
X-24806442Y-31113791D01*
X-24778360Y-31141069D01*
X-24755764Y-31162546D01*
X-24737964Y-31178864D01*
X-24724266Y-31190666D01*
X-24713980Y-31198596D01*
X-24706414Y-31203297D01*
X-24700876Y-31205410D01*
X-24696674Y-31205580D01*
X-24695393Y-31205299D01*
X-24661015Y-31200786D01*
X-24622860Y-31203934D01*
X-24586749Y-31214088D01*
X-24576729Y-31218632D01*
X-24540703Y-31243493D01*
X-24513276Y-31275957D01*
X-24495179Y-31313827D01*
X-24487139Y-31354902D01*
X-24489888Y-31396986D01*
X-24504033Y-31437642D01*
X-24522490Y-31464399D01*
X-24548247Y-31489712D01*
X-24577140Y-31510056D01*
X-24602903Y-31521352D01*
X-24647457Y-31527977D01*
X-24689816Y-31523374D01*
X-24728366Y-31508719D01*
X-24761491Y-31485188D01*
X-24787576Y-31453955D01*
X-24805006Y-31416196D01*
X-24812166Y-31373087D01*
X-24812251Y-31369000D01*
X-24811740Y-31345397D01*
X-24810035Y-31325458D01*
X-24807913Y-31314946D01*
X-24808069Y-31311130D01*
X-24811064Y-31305007D01*
X-24817505Y-31295930D01*
X-24828001Y-31283254D01*
X-24843159Y-31266330D01*
X-24863586Y-31244513D01*
X-24889889Y-31217157D01*
X-24922677Y-31183614D01*
X-24962557Y-31143238D01*
X-25010137Y-31095383D01*
X-25066023Y-31039401D01*
X-25079337Y-31026087D01*
X-25355473Y-30750006D01*
X-25428975Y-30822965D01*
X-25464254Y-30858701D01*
X-25491018Y-30887820D01*
X-25510358Y-30912007D01*
X-25523369Y-30932948D01*
X-25531143Y-30952329D01*
X-25534772Y-30971837D01*
X-25535433Y-30987188D01*
X-25532847Y-31016401D01*
X-25526006Y-31041282D01*
X-25524240Y-31045150D01*
X-25517912Y-31053324D01*
X-25503335Y-31069601D01*
X-25481312Y-31093175D01*
X-25452645Y-31123242D01*
X-25418137Y-31158994D01*
X-25378592Y-31199628D01*
X-25334813Y-31244338D01*
X-25287601Y-31292318D01*
X-25237761Y-31342764D01*
X-25186095Y-31394870D01*
X-25133406Y-31447830D01*
X-25080496Y-31500840D01*
X-25028170Y-31553093D01*
X-24977229Y-31603786D01*
X-24928477Y-31652111D01*
X-24882716Y-31697265D01*
X-24840750Y-31738442D01*
X-24803382Y-31774836D01*
X-24771413Y-31805642D01*
X-24745648Y-31830055D01*
X-24726889Y-31847269D01*
X-24715939Y-31856480D01*
X-24714200Y-31857614D01*
X-24682412Y-31869198D01*
X-24648361Y-31873703D01*
X-24621224Y-31871079D01*
X-24602006Y-31864197D01*
X-24581783Y-31853950D01*
X-24579949Y-31852828D01*
X-24571617Y-31845952D01*
X-24555214Y-31830909D01*
X-24531613Y-31808546D01*
X-24501686Y-31779714D01*
X-24466305Y-31745261D01*
X-24426345Y-31706037D01*
X-24382677Y-31662889D01*
X-24336173Y-31616667D01*
X-24298294Y-31578825D01*
X-24037963Y-31318180D01*
X-24590375Y-30766434D01*
X-24620406Y-30773482D01*
X-24661052Y-30776772D01*
X-24701327Y-30768467D01*
X-24739116Y-30749549D01*
X-24772303Y-30721003D01*
X-24793438Y-30693003D01*
X-24803627Y-30674973D01*
X-24809407Y-30658971D01*
X-24811962Y-30640073D01*
X-24812477Y-30613847D01*
X-24809258Y-30573282D01*
X-24798864Y-30540351D01*
X-24779775Y-30511318D01*
X-24763968Y-30494646D01*
X-24728243Y-30468465D01*
X-24688917Y-30453338D01*
X-24647982Y-30448917D01*
X-24607428Y-30454855D01*
X-24569248Y-30470802D01*
X-24535431Y-30496410D01*
X-24507969Y-30531331D01*
X-24502928Y-30540325D01*
X-24494354Y-30565216D01*
X-24489574Y-30596787D01*
X-24489043Y-30629463D01*
X-24493216Y-30657669D01*
X-24493321Y-30658043D01*
X-24493689Y-30661937D01*
X-24492344Y-30666917D01*
X-24488645Y-30673676D01*
X-24481947Y-30682906D01*
X-24471608Y-30695299D01*
X-24456984Y-30711546D01*
X-24437433Y-30732339D01*
X-24412311Y-30758370D01*
X-24380976Y-30790331D01*
X-24342785Y-30828914D01*
X-24297094Y-30874810D01*
X-24243261Y-30928712D01*
X-24221894Y-30950080D01*
X-23945921Y-31225998D01*
X-23869523Y-31149861D01*
X-23840980Y-31120545D01*
X-23815901Y-31093119D01*
X-23795989Y-31069545D01*
X-23782946Y-31051791D01*
X-23779854Y-31046394D01*
X-23768476Y-31009154D01*
X-23768076Y-30969683D01*
X-23778655Y-30932137D01*
X-23779847Y-30929605D01*
X-23785933Y-30920757D01*
X-23798825Y-30905446D01*
X-23818778Y-30883409D01*
X-23846043Y-30854385D01*
X-23880876Y-30818112D01*
X-23923529Y-30774328D01*
X-23974256Y-30722772D01*
X-24033311Y-30663182D01*
X-24100947Y-30595296D01*
X-24177418Y-30518851D01*
X-24185392Y-30510894D01*
X-24255213Y-30441230D01*
X-24316650Y-30379980D01*
X-24370326Y-30326603D01*
X-24416864Y-30280560D01*
X-24456887Y-30241312D01*
X-24491018Y-30208317D01*
X-24519881Y-30181038D01*
X-24544098Y-30158933D01*
X-24564292Y-30141463D01*
X-24581087Y-30128089D01*
X-24595105Y-30118270D01*
X-24606971Y-30111467D01*
X-24617306Y-30107140D01*
X-24626733Y-30104750D01*
X-24635877Y-30103756D01*
X-24645360Y-30103619D01*
X-24655346Y-30103792D01*
G36*
X-27173662Y-31258754D02*
X-27231116Y-31272276D01*
X-27285392Y-31297284D01*
X-27335111Y-31333541D01*
X-27353801Y-31351541D01*
X-27392754Y-31399427D01*
X-27419710Y-31450085D01*
X-27435320Y-31505133D01*
X-27440233Y-31566187D01*
X-27440232Y-31566456D01*
X-27433881Y-31625261D01*
X-27416113Y-31681593D01*
X-27388140Y-31733695D01*
X-27351173Y-31779810D01*
X-27306423Y-31818181D01*
X-27255102Y-31847050D01*
X-27243558Y-31851758D01*
X-27208212Y-31861438D01*
X-27165838Y-31867264D01*
X-27121376Y-31868998D01*
X-27079766Y-31866404D01*
X-27051664Y-31860998D01*
X-26993800Y-31838378D01*
X-26942407Y-31805278D01*
X-26898592Y-31762728D01*
X-26863460Y-31711761D01*
X-26842561Y-31666185D01*
X-26827786Y-31608804D01*
X-26824849Y-31550772D01*
X-26833094Y-31493702D01*
X-26851861Y-31439209D01*
X-26880495Y-31388907D01*
X-26918337Y-31344409D01*
X-26964730Y-31307331D01*
X-26996015Y-31289505D01*
X-27054733Y-31267130D01*
X-27114408Y-31256960D01*
X-27173662Y-31258754D01*
X-27173662Y-31258754D01*
G37*
X-27173662Y-31258754D02*
X-27231116Y-31272276D01*
X-27285392Y-31297284D01*
X-27335111Y-31333541D01*
X-27353801Y-31351541D01*
X-27392754Y-31399427D01*
X-27419710Y-31450085D01*
X-27435320Y-31505133D01*
X-27440233Y-31566187D01*
X-27440232Y-31566456D01*
X-27433881Y-31625261D01*
X-27416113Y-31681593D01*
X-27388140Y-31733695D01*
X-27351173Y-31779810D01*
X-27306423Y-31818181D01*
X-27255102Y-31847050D01*
X-27243558Y-31851758D01*
X-27208212Y-31861438D01*
X-27165838Y-31867264D01*
X-27121376Y-31868998D01*
X-27079766Y-31866404D01*
X-27051664Y-31860998D01*
X-26993800Y-31838378D01*
X-26942407Y-31805278D01*
X-26898592Y-31762728D01*
X-26863460Y-31711761D01*
X-26842561Y-31666185D01*
X-26827786Y-31608804D01*
X-26824849Y-31550772D01*
X-26833094Y-31493702D01*
X-26851861Y-31439209D01*
X-26880495Y-31388907D01*
X-26918337Y-31344409D01*
X-26964730Y-31307331D01*
X-26996015Y-31289505D01*
X-27054733Y-31267130D01*
X-27114408Y-31256960D01*
X-27173662Y-31258754D01*
G36*
X-24676085Y-31304538D02*
X-24698340Y-31318768D01*
X-24713623Y-31338936D01*
X-24717268Y-31349463D01*
X-24716890Y-31373883D01*
X-24707346Y-31398263D01*
X-24691001Y-31417517D01*
X-24683265Y-31422553D01*
X-24657018Y-31431487D01*
X-24632563Y-31428857D01*
X-24615017Y-31420374D01*
X-24595359Y-31402221D01*
X-24585586Y-31379879D01*
X-24584906Y-31356036D01*
X-24592527Y-31333380D01*
X-24607658Y-31314602D01*
X-24629508Y-31302388D01*
X-24650700Y-31299150D01*
X-24676085Y-31304538D01*
X-24676085Y-31304538D01*
G37*
X-24676085Y-31304538D02*
X-24698340Y-31318768D01*
X-24713623Y-31338936D01*
X-24717268Y-31349463D01*
X-24716890Y-31373883D01*
X-24707346Y-31398263D01*
X-24691001Y-31417517D01*
X-24683265Y-31422553D01*
X-24657018Y-31431487D01*
X-24632563Y-31428857D01*
X-24615017Y-31420374D01*
X-24595359Y-31402221D01*
X-24585586Y-31379879D01*
X-24584906Y-31356036D01*
X-24592527Y-31333380D01*
X-24607658Y-31314602D01*
X-24629508Y-31302388D01*
X-24650700Y-31299150D01*
X-24676085Y-31304538D01*
G36*
X-24666330Y-30546479D02*
X-24679846Y-30552018D01*
X-24700208Y-30567898D01*
X-24713872Y-30590683D01*
X-24718577Y-30615934D01*
X-24717426Y-30625815D01*
X-24706358Y-30648958D01*
X-24686499Y-30667023D01*
X-24661448Y-30677730D01*
X-24634801Y-30678793D01*
X-24634112Y-30678670D01*
X-24621219Y-30672616D01*
X-24606038Y-30660700D01*
X-24602506Y-30657206D01*
X-24587612Y-30633737D01*
X-24583676Y-30608347D01*
X-24589912Y-30583941D01*
X-24605531Y-30563424D01*
X-24629746Y-30549703D01*
X-24631844Y-30549041D01*
X-24651057Y-30544775D01*
X-24666330Y-30546479D01*
X-24666330Y-30546479D01*
G37*
X-24666330Y-30546479D02*
X-24679846Y-30552018D01*
X-24700208Y-30567898D01*
X-24713872Y-30590683D01*
X-24718577Y-30615934D01*
X-24717426Y-30625815D01*
X-24706358Y-30648958D01*
X-24686499Y-30667023D01*
X-24661448Y-30677730D01*
X-24634801Y-30678793D01*
X-24634112Y-30678670D01*
X-24621219Y-30672616D01*
X-24606038Y-30660700D01*
X-24602506Y-30657206D01*
X-24587612Y-30633737D01*
X-24583676Y-30608347D01*
X-24589912Y-30583941D01*
X-24605531Y-30563424D01*
X-24629746Y-30549703D01*
X-24631844Y-30549041D01*
X-24651057Y-30544775D01*
X-24666330Y-30546479D01*
G36*
X-23945399Y-28100235D02*
X-24002101Y-28111262D01*
X-24055387Y-28132461D01*
X-24103828Y-28162998D01*
X-24145997Y-28202040D01*
X-24180466Y-28248755D01*
X-24205807Y-28302308D01*
X-24216388Y-28338940D01*
X-24223528Y-28398555D01*
X-24219026Y-28457270D01*
X-24203743Y-28513519D01*
X-24178540Y-28565731D01*
X-24144278Y-28612341D01*
X-24101817Y-28651781D01*
X-24052019Y-28682482D01*
X-24020634Y-28695487D01*
X-23978109Y-28706222D01*
X-23930805Y-28711624D01*
X-23883999Y-28711405D01*
X-23842973Y-28705274D01*
X-23842806Y-28705232D01*
X-23791605Y-28687613D01*
X-23745989Y-28661412D01*
X-23702685Y-28624704D01*
X-23698123Y-28620145D01*
X-23660474Y-28576235D01*
X-23633974Y-28531045D01*
X-23617553Y-28481939D01*
X-23610138Y-28426277D01*
X-23609455Y-28401762D01*
X-23614225Y-28344307D01*
X-23629423Y-28292022D01*
X-23655804Y-28243061D01*
X-23693948Y-28195767D01*
X-23735305Y-28158011D01*
X-23779859Y-28130505D01*
X-23827456Y-28112025D01*
X-23886708Y-28100211D01*
X-23945399Y-28100235D01*
X-23945399Y-28100235D01*
G37*
X-23945399Y-28100235D02*
X-24002101Y-28111262D01*
X-24055387Y-28132461D01*
X-24103828Y-28162998D01*
X-24145997Y-28202040D01*
X-24180466Y-28248755D01*
X-24205807Y-28302308D01*
X-24216388Y-28338940D01*
X-24223528Y-28398555D01*
X-24219026Y-28457270D01*
X-24203743Y-28513519D01*
X-24178540Y-28565731D01*
X-24144278Y-28612341D01*
X-24101817Y-28651781D01*
X-24052019Y-28682482D01*
X-24020634Y-28695487D01*
X-23978109Y-28706222D01*
X-23930805Y-28711624D01*
X-23883999Y-28711405D01*
X-23842973Y-28705274D01*
X-23842806Y-28705232D01*
X-23791605Y-28687613D01*
X-23745989Y-28661412D01*
X-23702685Y-28624704D01*
X-23698123Y-28620145D01*
X-23660474Y-28576235D01*
X-23633974Y-28531045D01*
X-23617553Y-28481939D01*
X-23610138Y-28426277D01*
X-23609455Y-28401762D01*
X-23614225Y-28344307D01*
X-23629423Y-28292022D01*
X-23655804Y-28243061D01*
X-23693948Y-28195767D01*
X-23735305Y-28158011D01*
X-23779859Y-28130505D01*
X-23827456Y-28112025D01*
X-23886708Y-28100211D01*
X-23945399Y-28100235D01*
D12*
X-4201000Y-14859000D03*
X-4901000Y-14859000D03*
X-5601000Y-14859000D03*
X-6301000Y-14859000D03*
X-7001000Y-14859000D03*
X-8401000Y-14859000D03*
X-9101000Y-14859000D03*
X-9801000Y-14859000D03*
X-10501000Y-14859000D03*
X-11201000Y-14859000D03*
X-11901000Y-14859000D03*
X-12601000Y-14859000D03*
X-13301000Y-14859000D03*
X-14001000Y-14859000D03*
X-14701000Y-14859000D03*
X-15401000Y-14859000D03*
X-16101000Y-14859000D03*
X-16801000Y-14859000D03*
X-17501000Y-14859000D03*
X-18201000Y-14859000D03*
X-18901000Y-14859000D03*
X-19601000Y-14859000D03*
X-20301000Y-14859000D03*
X-21001000Y-14859000D03*
X-21701000Y-14859000D03*
X-22401000Y-14859000D03*
X-23101000Y-14859000D03*
X-23801000Y-14859000D03*
X-24501000Y-14859000D03*
X-7701000Y-14859000D03*
D13*
X-11478000Y-26689000D03*
X-13478000Y-26689000D03*
X-15478000Y-26689000D03*
X-17478000Y-26689000D03*
D14*
X-9078000Y-32239000D03*
X-19878000Y-32239000D03*
D15*
X-26289000Y-6096000D03*
D16*
X-23434000Y-25738000D03*
X-24384000Y-25738000D03*
X-25334000Y-25738000D03*
X-25334000Y-23538000D03*
X-23434000Y-23538000D03*
D17*
X-19168000Y-19771000D03*
X-19168000Y-19121000D03*
X-19168000Y-18471000D03*
X-19168000Y-17821000D03*
X-14868000Y-17821000D03*
X-14868000Y-18471000D03*
X-14868000Y-19121000D03*
X-14868000Y-19771000D03*
D18*
X-11430000Y-19824000D03*
X-11430000Y-21324000D03*
X-25146000Y-19951000D03*
X-25146000Y-21451000D03*
X-22860000Y-19951000D03*
X-22860000Y-21451000D03*
X-4699000Y-27293000D03*
X-4699000Y-25793000D03*
X-6350000Y-21324000D03*
X-6350000Y-19824000D03*
X-4699000Y-21324000D03*
X-4699000Y-19824000D03*
X-3048000Y-21324000D03*
X-3048000Y-19824000D03*
D19*
X-3568000Y-18034000D03*
X-5068000Y-18034000D03*
X-6616000Y-18034000D03*
X-8116000Y-18034000D03*
X-22340000Y-18034000D03*
X-20840000Y-18034000D03*
D20*
X-14617000Y-21717000D03*
X-16117000Y-21717000D03*
D21*
X-9779000Y-21324000D03*
X-9779000Y-19824000D03*
X-13081000Y-21324000D03*
X-13081000Y-19824000D03*
X-4699000Y-24372000D03*
X-4699000Y-22872000D03*
D20*
X-18911000Y-21717000D03*
X-17411000Y-21717000D03*
D21*
X-6477000Y-22872000D03*
X-6477000Y-24372000D03*
X-8001000Y-21324000D03*
X-8001000Y-19824000D03*
D20*
X-23761000Y-18034000D03*
X-25261000Y-18034000D03*
D15*
X-2540000Y-6096000D03*
M02*
