%TF.GenerationSoftware,KiCad,Pcbnew,4.0.7*%
%TF.CreationDate,2018-05-06T16:09:47+02:00*%
%TF.ProjectId,OLEDModule,4F4C45444D6F64756C652E6B69636164,rev?*%
%TF.FileFunction,Legend,Top*%
%FSLAX46Y46*%
G04 Gerber Fmt 4.6, Leading zero omitted, Abs format (unit mm)*
G04 Created by KiCad (PCBNEW 4.0.7) date 05/06/18 16:09:47*
%MOMM*%
%LPD*%
G01*
G04 APERTURE LIST*
%ADD10C,0.100000*%
%ADD11C,0.125000*%
G04 APERTURE END LIST*
D10*
D11*
X-12194666Y-33084333D02*
X-11794666Y-33084333D01*
X-11994666Y-33084333D02*
X-11994666Y-33784333D01*
X-11928000Y-33684333D01*
X-11861333Y-33617667D01*
X-11794666Y-33584333D01*
X-12461333Y-33717667D02*
X-12494667Y-33751000D01*
X-12561333Y-33784333D01*
X-12728000Y-33784333D01*
X-12794667Y-33751000D01*
X-12828000Y-33717667D01*
X-12861333Y-33651000D01*
X-12861333Y-33584333D01*
X-12828000Y-33484333D01*
X-12428000Y-33084333D01*
X-12861333Y-33084333D01*
X-13261334Y-33484333D02*
X-13194667Y-33517667D01*
X-13161334Y-33551000D01*
X-13128000Y-33617667D01*
X-13128000Y-33651000D01*
X-13161334Y-33717667D01*
X-13194667Y-33751000D01*
X-13261334Y-33784333D01*
X-13394667Y-33784333D01*
X-13461334Y-33751000D01*
X-13494667Y-33717667D01*
X-13528000Y-33651000D01*
X-13528000Y-33617667D01*
X-13494667Y-33551000D01*
X-13461334Y-33517667D01*
X-13394667Y-33484333D01*
X-13261334Y-33484333D01*
X-13194667Y-33451000D01*
X-13161334Y-33417667D01*
X-13128000Y-33351000D01*
X-13128000Y-33217667D01*
X-13161334Y-33151000D01*
X-13194667Y-33117667D01*
X-13261334Y-33084333D01*
X-13394667Y-33084333D01*
X-13461334Y-33117667D01*
X-13494667Y-33151000D01*
X-13528000Y-33217667D01*
X-13528000Y-33351000D01*
X-13494667Y-33417667D01*
X-13461334Y-33451000D01*
X-13394667Y-33484333D01*
X-13761334Y-33084333D02*
X-14128001Y-33551000D01*
X-13761334Y-33551000D02*
X-14128001Y-33084333D01*
X-14694668Y-33784333D02*
X-14561334Y-33784333D01*
X-14494668Y-33751000D01*
X-14461334Y-33717667D01*
X-14394668Y-33617667D01*
X-14361334Y-33484333D01*
X-14361334Y-33217667D01*
X-14394668Y-33151000D01*
X-14428001Y-33117667D01*
X-14494668Y-33084333D01*
X-14628001Y-33084333D01*
X-14694668Y-33117667D01*
X-14728001Y-33151000D01*
X-14761334Y-33217667D01*
X-14761334Y-33384333D01*
X-14728001Y-33451000D01*
X-14694668Y-33484333D01*
X-14628001Y-33517667D01*
X-14494668Y-33517667D01*
X-14428001Y-33484333D01*
X-14394668Y-33451000D01*
X-14361334Y-33384333D01*
X-15361335Y-33551000D02*
X-15361335Y-33084333D01*
X-15194668Y-33817667D02*
X-15028001Y-33317667D01*
X-15461335Y-33317667D01*
X-16261335Y-33551000D02*
X-16261335Y-32851000D01*
X-16261335Y-33517667D02*
X-16328001Y-33551000D01*
X-16461335Y-33551000D01*
X-16528001Y-33517667D01*
X-16561335Y-33484333D01*
X-16594668Y-33417667D01*
X-16594668Y-33217667D01*
X-16561335Y-33151000D01*
X-16528001Y-33117667D01*
X-16461335Y-33084333D01*
X-16328001Y-33084333D01*
X-16261335Y-33117667D01*
X-16828001Y-33084333D02*
X-17194668Y-33551000D01*
X-16828001Y-33551000D02*
X-17194668Y-33084333D01*
X-8178001Y-32514333D02*
X-8611334Y-32514333D01*
X-8378001Y-32247667D01*
X-8478001Y-32247667D01*
X-8544668Y-32214333D01*
X-8578001Y-32181000D01*
X-8611334Y-32114333D01*
X-8611334Y-31947667D01*
X-8578001Y-31881000D01*
X-8544668Y-31847667D01*
X-8478001Y-31814333D01*
X-8278001Y-31814333D01*
X-8211334Y-31847667D01*
X-8178001Y-31881000D01*
X-8911335Y-31881000D02*
X-8944668Y-31847667D01*
X-8911335Y-31814333D01*
X-8878001Y-31847667D01*
X-8911335Y-31881000D01*
X-8911335Y-31814333D01*
X-9178001Y-32514333D02*
X-9611334Y-32514333D01*
X-9378001Y-32247667D01*
X-9478001Y-32247667D01*
X-9544668Y-32214333D01*
X-9578001Y-32181000D01*
X-9611334Y-32114333D01*
X-9611334Y-31947667D01*
X-9578001Y-31881000D01*
X-9544668Y-31847667D01*
X-9478001Y-31814333D01*
X-9278001Y-31814333D01*
X-9211334Y-31847667D01*
X-9178001Y-31881000D01*
X-9811335Y-32514333D02*
X-10044668Y-31814333D01*
X-10278001Y-32514333D01*
X-10511335Y-32081000D02*
X-11044668Y-32081000D01*
X-11711335Y-32514333D02*
X-11378002Y-32514333D01*
X-11344668Y-32181000D01*
X-11378002Y-32214333D01*
X-11444668Y-32247667D01*
X-11611335Y-32247667D01*
X-11678002Y-32214333D01*
X-11711335Y-32181000D01*
X-11744668Y-32114333D01*
X-11744668Y-31947667D01*
X-11711335Y-31881000D01*
X-11678002Y-31847667D01*
X-11611335Y-31814333D01*
X-11444668Y-31814333D01*
X-11378002Y-31847667D01*
X-11344668Y-31881000D01*
X-12044669Y-31881000D02*
X-12078002Y-31847667D01*
X-12044669Y-31814333D01*
X-12011335Y-31847667D01*
X-12044669Y-31881000D01*
X-12044669Y-31814333D01*
X-12511335Y-32514333D02*
X-12578002Y-32514333D01*
X-12644668Y-32481000D01*
X-12678002Y-32447667D01*
X-12711335Y-32381000D01*
X-12744668Y-32247667D01*
X-12744668Y-32081000D01*
X-12711335Y-31947667D01*
X-12678002Y-31881000D01*
X-12644668Y-31847667D01*
X-12578002Y-31814333D01*
X-12511335Y-31814333D01*
X-12444668Y-31847667D01*
X-12411335Y-31881000D01*
X-12378002Y-31947667D01*
X-12344668Y-32081000D01*
X-12344668Y-32247667D01*
X-12378002Y-32381000D01*
X-12411335Y-32447667D01*
X-12444668Y-32481000D01*
X-12511335Y-32514333D01*
X-12944669Y-32514333D02*
X-13178002Y-31814333D01*
X-13411335Y-32514333D01*
X-15544668Y-31814333D02*
X-15544668Y-32181000D01*
X-15511334Y-32247667D01*
X-15444668Y-32281000D01*
X-15311334Y-32281000D01*
X-15244668Y-32247667D01*
X-15544668Y-31847667D02*
X-15478001Y-31814333D01*
X-15311334Y-31814333D01*
X-15244668Y-31847667D01*
X-15211334Y-31914333D01*
X-15211334Y-31981000D01*
X-15244668Y-32047667D01*
X-15311334Y-32081000D01*
X-15478001Y-32081000D01*
X-15544668Y-32114333D01*
X-16178001Y-31814333D02*
X-16178001Y-32514333D01*
X-16178001Y-31847667D02*
X-16111334Y-31814333D01*
X-15978001Y-31814333D01*
X-15911334Y-31847667D01*
X-15878001Y-31881000D01*
X-15844667Y-31947667D01*
X-15844667Y-32147667D01*
X-15878001Y-32214333D01*
X-15911334Y-32247667D01*
X-15978001Y-32281000D01*
X-16111334Y-32281000D01*
X-16178001Y-32247667D01*
X-16811334Y-31814333D02*
X-16811334Y-32514333D01*
X-16811334Y-31847667D02*
X-16744667Y-31814333D01*
X-16611334Y-31814333D01*
X-16544667Y-31847667D01*
X-16511334Y-31881000D01*
X-16478000Y-31947667D01*
X-16478000Y-32147667D01*
X-16511334Y-32214333D01*
X-16544667Y-32247667D01*
X-16611334Y-32281000D01*
X-16744667Y-32281000D01*
X-16811334Y-32247667D01*
X-17144667Y-31814333D02*
X-17144667Y-32281000D01*
X-17144667Y-32147667D02*
X-17178000Y-32214333D01*
X-17211333Y-32247667D01*
X-17278000Y-32281000D01*
X-17344667Y-32281000D01*
X-17578000Y-31881000D02*
X-17611333Y-31847667D01*
X-17578000Y-31814333D01*
X-17544666Y-31847667D01*
X-17578000Y-31881000D01*
X-17578000Y-31814333D01*
X-17578000Y-32247667D02*
X-17611333Y-32214333D01*
X-17578000Y-32181000D01*
X-17544666Y-32214333D01*
X-17578000Y-32247667D01*
X-17578000Y-32181000D01*
X-18577999Y-32514333D02*
X-18644666Y-32514333D01*
X-18711332Y-32481000D01*
X-18744666Y-32447667D01*
X-18777999Y-32381000D01*
X-18811332Y-32247667D01*
X-18811332Y-32081000D01*
X-18777999Y-31947667D01*
X-18744666Y-31881000D01*
X-18711332Y-31847667D01*
X-18644666Y-31814333D01*
X-18577999Y-31814333D01*
X-18511332Y-31847667D01*
X-18477999Y-31881000D01*
X-18444666Y-31947667D01*
X-18411332Y-32081000D01*
X-18411332Y-32247667D01*
X-18444666Y-32381000D01*
X-18477999Y-32447667D01*
X-18511332Y-32481000D01*
X-18577999Y-32514333D01*
X-19044666Y-31814333D02*
X-19411333Y-32281000D01*
X-19044666Y-32281000D02*
X-19411333Y-31814333D01*
X-19611333Y-32514333D02*
X-20044666Y-32514333D01*
X-19811333Y-32247667D01*
X-19911333Y-32247667D01*
X-19978000Y-32214333D01*
X-20011333Y-32181000D01*
X-20044666Y-32114333D01*
X-20044666Y-31947667D01*
X-20011333Y-31881000D01*
X-19978000Y-31847667D01*
X-19911333Y-31814333D01*
X-19711333Y-31814333D01*
X-19644666Y-31847667D01*
X-19611333Y-31881000D01*
X-20744667Y-31881000D02*
X-20711333Y-31847667D01*
X-20611333Y-31814333D01*
X-20544667Y-31814333D01*
X-20444667Y-31847667D01*
X-20378000Y-31914333D01*
X-20344667Y-31981000D01*
X-20311333Y-32114333D01*
X-20311333Y-32214333D01*
X-20344667Y-32347667D01*
X-20378000Y-32414333D01*
X-20444667Y-32481000D01*
X-20544667Y-32514333D01*
X-20611333Y-32514333D01*
X-20711333Y-32481000D01*
X-20744667Y-32447667D01*
X-7578001Y-31117333D02*
X-7711334Y-31117333D01*
X-7778001Y-31084000D01*
X-7844668Y-31017333D01*
X-7878001Y-30884000D01*
X-7878001Y-30650667D01*
X-7844668Y-30517333D01*
X-7778001Y-30450667D01*
X-7711334Y-30417333D01*
X-7578001Y-30417333D01*
X-7511334Y-30450667D01*
X-7444668Y-30517333D01*
X-7411334Y-30650667D01*
X-7411334Y-30884000D01*
X-7444668Y-31017333D01*
X-7511334Y-31084000D01*
X-7578001Y-31117333D01*
X-8278001Y-30417333D02*
X-8211334Y-30450667D01*
X-8178001Y-30517333D01*
X-8178001Y-31117333D01*
X-8811334Y-30450667D02*
X-8744668Y-30417333D01*
X-8611334Y-30417333D01*
X-8544668Y-30450667D01*
X-8511334Y-30517333D01*
X-8511334Y-30784000D01*
X-8544668Y-30850667D01*
X-8611334Y-30884000D01*
X-8744668Y-30884000D01*
X-8811334Y-30850667D01*
X-8844668Y-30784000D01*
X-8844668Y-30717333D01*
X-8511334Y-30650667D01*
X-9444668Y-30417333D02*
X-9444668Y-31117333D01*
X-9444668Y-30450667D02*
X-9378001Y-30417333D01*
X-9244668Y-30417333D01*
X-9178001Y-30450667D01*
X-9144668Y-30484000D01*
X-9111334Y-30550667D01*
X-9111334Y-30750667D01*
X-9144668Y-30817333D01*
X-9178001Y-30850667D01*
X-9244668Y-30884000D01*
X-9378001Y-30884000D01*
X-9444668Y-30850667D01*
X-10311334Y-30417333D02*
X-10311334Y-31117333D01*
X-10544667Y-30617333D01*
X-10778000Y-31117333D01*
X-10778000Y-30417333D01*
X-11211334Y-30417333D02*
X-11144667Y-30450667D01*
X-11111334Y-30484000D01*
X-11078000Y-30550667D01*
X-11078000Y-30750667D01*
X-11111334Y-30817333D01*
X-11144667Y-30850667D01*
X-11211334Y-30884000D01*
X-11311334Y-30884000D01*
X-11378000Y-30850667D01*
X-11411334Y-30817333D01*
X-11444667Y-30750667D01*
X-11444667Y-30550667D01*
X-11411334Y-30484000D01*
X-11378000Y-30450667D01*
X-11311334Y-30417333D01*
X-11211334Y-30417333D01*
X-12044667Y-30417333D02*
X-12044667Y-31117333D01*
X-12044667Y-30450667D02*
X-11978000Y-30417333D01*
X-11844667Y-30417333D01*
X-11778000Y-30450667D01*
X-11744667Y-30484000D01*
X-11711333Y-30550667D01*
X-11711333Y-30750667D01*
X-11744667Y-30817333D01*
X-11778000Y-30850667D01*
X-11844667Y-30884000D01*
X-11978000Y-30884000D01*
X-12044667Y-30850667D01*
X-12678000Y-30884000D02*
X-12678000Y-30417333D01*
X-12378000Y-30884000D02*
X-12378000Y-30517333D01*
X-12411333Y-30450667D01*
X-12478000Y-30417333D01*
X-12578000Y-30417333D01*
X-12644666Y-30450667D01*
X-12678000Y-30484000D01*
X-13111333Y-30417333D02*
X-13044666Y-30450667D01*
X-13011333Y-30517333D01*
X-13011333Y-31117333D01*
X-13644666Y-30450667D02*
X-13578000Y-30417333D01*
X-13444666Y-30417333D01*
X-13378000Y-30450667D01*
X-13344666Y-30517333D01*
X-13344666Y-30784000D01*
X-13378000Y-30850667D01*
X-13444666Y-30884000D01*
X-13578000Y-30884000D01*
X-13644666Y-30850667D01*
X-13678000Y-30784000D01*
X-13678000Y-30717333D01*
X-13344666Y-30650667D01*
X-14411333Y-31117333D02*
X-14644666Y-30417333D01*
X-14877999Y-31117333D01*
X-15477999Y-30417333D02*
X-15077999Y-30417333D01*
X-15277999Y-30417333D02*
X-15277999Y-31117333D01*
X-15211333Y-31017333D01*
X-15144666Y-30950667D01*
X-15077999Y-30917333D01*
X-15778000Y-30484000D02*
X-15811333Y-30450667D01*
X-15778000Y-30417333D01*
X-15744666Y-30450667D01*
X-15778000Y-30484000D01*
X-15778000Y-30417333D01*
X-16244666Y-31117333D02*
X-16311333Y-31117333D01*
X-16377999Y-31084000D01*
X-16411333Y-31050667D01*
X-16444666Y-30984000D01*
X-16477999Y-30850667D01*
X-16477999Y-30684000D01*
X-16444666Y-30550667D01*
X-16411333Y-30484000D01*
X-16377999Y-30450667D01*
X-16311333Y-30417333D01*
X-16244666Y-30417333D01*
X-16177999Y-30450667D01*
X-16144666Y-30484000D01*
X-16111333Y-30550667D01*
X-16077999Y-30684000D01*
X-16077999Y-30850667D01*
X-16111333Y-30984000D01*
X-16144666Y-31050667D01*
X-16177999Y-31084000D01*
X-16244666Y-31117333D01*
X-17544666Y-30784000D02*
X-17311333Y-30784000D01*
X-17311333Y-30417333D02*
X-17311333Y-31117333D01*
X-17644666Y-31117333D01*
X-17911333Y-30417333D02*
X-17911333Y-30884000D01*
X-17911333Y-30750667D02*
X-17944666Y-30817333D01*
X-17977999Y-30850667D01*
X-18044666Y-30884000D01*
X-18111333Y-30884000D01*
X-18344666Y-30417333D02*
X-18344666Y-30884000D01*
X-18344666Y-31117333D02*
X-18311332Y-31084000D01*
X-18344666Y-31050667D01*
X-18377999Y-31084000D01*
X-18344666Y-31117333D01*
X-18344666Y-31050667D01*
X-18611332Y-30884000D02*
X-18977999Y-30884000D01*
X-18611332Y-30417333D01*
X-18977999Y-30417333D01*
X-19177999Y-30884000D02*
X-19544666Y-30884000D01*
X-19177999Y-30417333D01*
X-19544666Y-30417333D01*
X-19744666Y-30884000D02*
X-19911333Y-30417333D01*
X-20077999Y-30884000D02*
X-19911333Y-30417333D01*
X-19844666Y-30250667D01*
X-19811333Y-30217333D01*
X-19744666Y-30184000D01*
X-20344666Y-30484000D02*
X-20377999Y-30450667D01*
X-20344666Y-30417333D01*
X-20311332Y-30450667D01*
X-20344666Y-30484000D01*
X-20344666Y-30417333D01*
X-20944665Y-30450667D02*
X-20877999Y-30417333D01*
X-20744665Y-30417333D01*
X-20677999Y-30450667D01*
X-20644665Y-30517333D01*
X-20644665Y-30784000D01*
X-20677999Y-30850667D01*
X-20744665Y-30884000D01*
X-20877999Y-30884000D01*
X-20944665Y-30850667D01*
X-20977999Y-30784000D01*
X-20977999Y-30717333D01*
X-20644665Y-30650667D01*
X-21244665Y-30450667D02*
X-21311332Y-30417333D01*
X-21444665Y-30417333D01*
X-21511332Y-30450667D01*
X-21544665Y-30517333D01*
X-21544665Y-30550667D01*
X-21511332Y-30617333D01*
X-21444665Y-30650667D01*
X-21344665Y-30650667D01*
X-21277999Y-30684000D01*
X-21244665Y-30750667D01*
X-21244665Y-30784000D01*
X-21277999Y-30850667D01*
X-21344665Y-30884000D01*
X-21444665Y-30884000D01*
X-21511332Y-30850667D01*
M02*
