%TF.GenerationSoftware,KiCad,Pcbnew,4.0.7*%
%TF.CreationDate,2018-05-06T16:09:47+02:00*%
%TF.ProjectId,OLEDModule,4F4C45444D6F64756C652E6B69636164,rev?*%
%TF.FileFunction,Legend,Bot*%
%FSLAX46Y46*%
G04 Gerber Fmt 4.6, Leading zero omitted, Abs format (unit mm)*
G04 Created by KiCad (PCBNEW 4.0.7) date 05/06/18 16:09:47*
%MOMM*%
%LPD*%
G01*
G04 APERTURE LIST*
%ADD10C,0.100000*%
%ADD11C,0.200000*%
%ADD12C,0.175000*%
%ADD13C,0.010000*%
%ADD14C,0.120000*%
%ADD15C,0.150000*%
G04 APERTURE END LIST*
D10*
D11*
X-18034000Y-20066000D02*
X-17907000Y-20066000D01*
D12*
X-17809333Y-24472000D02*
X-17842667Y-24372000D01*
X-17842667Y-24205333D01*
X-17809333Y-24138666D01*
X-17776000Y-24105333D01*
X-17709333Y-24072000D01*
X-17642667Y-24072000D01*
X-17576000Y-24105333D01*
X-17542667Y-24138666D01*
X-17509333Y-24205333D01*
X-17476000Y-24338666D01*
X-17442667Y-24405333D01*
X-17409333Y-24438666D01*
X-17342667Y-24472000D01*
X-17276000Y-24472000D01*
X-17209333Y-24438666D01*
X-17176000Y-24405333D01*
X-17142667Y-24338666D01*
X-17142667Y-24172000D01*
X-17176000Y-24072000D01*
X-17842667Y-23771999D02*
X-17142667Y-23771999D01*
X-17142667Y-23605333D01*
X-17176000Y-23505333D01*
X-17242667Y-23438666D01*
X-17309333Y-23405333D01*
X-17442667Y-23371999D01*
X-17542667Y-23371999D01*
X-17676000Y-23405333D01*
X-17742667Y-23438666D01*
X-17809333Y-23505333D01*
X-17842667Y-23605333D01*
X-17842667Y-23771999D01*
X-17642667Y-23105333D02*
X-17642667Y-22771999D01*
X-17842667Y-23171999D02*
X-17142667Y-22938666D01*
X-17842667Y-22705333D01*
X-15650333Y-24455334D02*
X-15683667Y-24355334D01*
X-15683667Y-24188667D01*
X-15650333Y-24122000D01*
X-15617000Y-24088667D01*
X-15550333Y-24055334D01*
X-15483667Y-24055334D01*
X-15417000Y-24088667D01*
X-15383667Y-24122000D01*
X-15350333Y-24188667D01*
X-15317000Y-24322000D01*
X-15283667Y-24388667D01*
X-15250333Y-24422000D01*
X-15183667Y-24455334D01*
X-15117000Y-24455334D01*
X-15050333Y-24422000D01*
X-15017000Y-24388667D01*
X-14983667Y-24322000D01*
X-14983667Y-24155334D01*
X-15017000Y-24055334D01*
X-15617000Y-23355333D02*
X-15650333Y-23388667D01*
X-15683667Y-23488667D01*
X-15683667Y-23555333D01*
X-15650333Y-23655333D01*
X-15583667Y-23722000D01*
X-15517000Y-23755333D01*
X-15383667Y-23788667D01*
X-15283667Y-23788667D01*
X-15150333Y-23755333D01*
X-15083667Y-23722000D01*
X-15017000Y-23655333D01*
X-14983667Y-23555333D01*
X-14983667Y-23488667D01*
X-15017000Y-23388667D01*
X-15050333Y-23355333D01*
X-15683667Y-22722000D02*
X-15683667Y-23055333D01*
X-14983667Y-23055333D01*
X-13078667Y-24301333D02*
X-13778667Y-24068000D01*
X-13078667Y-23834667D01*
X-13712000Y-23201333D02*
X-13745333Y-23234667D01*
X-13778667Y-23334667D01*
X-13778667Y-23401333D01*
X-13745333Y-23501333D01*
X-13678667Y-23568000D01*
X-13612000Y-23601333D01*
X-13478667Y-23634667D01*
X-13378667Y-23634667D01*
X-13245333Y-23601333D01*
X-13178667Y-23568000D01*
X-13112000Y-23501333D01*
X-13078667Y-23401333D01*
X-13078667Y-23334667D01*
X-13112000Y-23234667D01*
X-13145333Y-23201333D01*
X-13712000Y-22501333D02*
X-13745333Y-22534667D01*
X-13778667Y-22634667D01*
X-13778667Y-22701333D01*
X-13745333Y-22801333D01*
X-13678667Y-22868000D01*
X-13612000Y-22901333D01*
X-13478667Y-22934667D01*
X-13378667Y-22934667D01*
X-13245333Y-22901333D01*
X-13178667Y-22868000D01*
X-13112000Y-22801333D01*
X-13078667Y-22701333D01*
X-13078667Y-22634667D01*
X-13112000Y-22534667D01*
X-13145333Y-22501333D01*
X-11080000Y-23901333D02*
X-11046667Y-23967999D01*
X-11046667Y-24067999D01*
X-11080000Y-24167999D01*
X-11146667Y-24234666D01*
X-11213333Y-24267999D01*
X-11346667Y-24301333D01*
X-11446667Y-24301333D01*
X-11580000Y-24267999D01*
X-11646667Y-24234666D01*
X-11713333Y-24167999D01*
X-11746667Y-24067999D01*
X-11746667Y-24001333D01*
X-11713333Y-23901333D01*
X-11680000Y-23867999D01*
X-11446667Y-23867999D01*
X-11446667Y-24001333D01*
X-11746667Y-23567999D02*
X-11046667Y-23567999D01*
X-11746667Y-23167999D01*
X-11046667Y-23167999D01*
X-11746667Y-22834666D02*
X-11046667Y-22834666D01*
X-11046667Y-22668000D01*
X-11080000Y-22568000D01*
X-11146667Y-22501333D01*
X-11213333Y-22468000D01*
X-11346667Y-22434666D01*
X-11446667Y-22434666D01*
X-11580000Y-22468000D01*
X-11646667Y-22501333D01*
X-11713333Y-22568000D01*
X-11746667Y-22668000D01*
X-11746667Y-22834666D01*
D13*
G36*
X-1584324Y-27384210D02*
X-1614005Y-27374428D01*
X-1631950Y-27369363D01*
X-1651284Y-27359258D01*
X-1663700Y-27349450D01*
X-1682108Y-27335271D01*
X-1689100Y-27332198D01*
X-1707447Y-27327023D01*
X-1744472Y-27312651D01*
X-1795901Y-27290764D01*
X-1809750Y-27284653D01*
X-1842078Y-27270563D01*
X-1863401Y-27261766D01*
X-1866900Y-27260550D01*
X-1881400Y-27254890D01*
X-1910377Y-27242475D01*
X-1924050Y-27236448D01*
X-1985172Y-27209508D01*
X-2025808Y-27192058D01*
X-2044664Y-27184653D01*
X-2044700Y-27184643D01*
X-2059206Y-27178802D01*
X-2088193Y-27166278D01*
X-2101850Y-27160248D01*
X-2164952Y-27132443D01*
X-2205205Y-27115221D01*
X-2222500Y-27108575D01*
X-2236802Y-27102743D01*
X-2266170Y-27089780D01*
X-2286000Y-27080808D01*
X-2340640Y-27056801D01*
X-2375137Y-27043944D01*
X-2391744Y-27041412D01*
X-2392749Y-27041823D01*
X-2404515Y-27036398D01*
X-2424366Y-27020457D01*
X-2443247Y-27006392D01*
X-2451100Y-27006550D01*
X-2458778Y-27007363D01*
X-2473325Y-26996724D01*
X-2494356Y-26980459D01*
X-2504941Y-26975358D01*
X-2533674Y-26967174D01*
X-2582426Y-26947377D01*
X-2616200Y-26932293D01*
X-2650947Y-26917048D01*
X-2675597Y-26907339D01*
X-2681816Y-26905590D01*
X-2697987Y-26899535D01*
X-2694470Y-26887723D01*
X-2675298Y-26873484D01*
X-2644501Y-26860150D01*
X-2618383Y-26853177D01*
X-2592138Y-26845132D01*
X-2580283Y-26840351D01*
X-2559031Y-26831252D01*
X-2552700Y-26828783D01*
X-2535897Y-26822371D01*
X-2506150Y-26810584D01*
X-2474029Y-26797644D01*
X-2451100Y-26788196D01*
X-2430743Y-26779858D01*
X-2425700Y-26777950D01*
X-2409974Y-26771514D01*
X-2398116Y-26766350D01*
X-2370401Y-26756688D01*
X-2360016Y-26754390D01*
X-2334646Y-26745601D01*
X-2324100Y-26739861D01*
X-2294803Y-26727418D01*
X-2280646Y-26724090D01*
X-2252929Y-26715524D01*
X-2242546Y-26709503D01*
X-2222358Y-26699045D01*
X-2188910Y-26686265D01*
X-2178050Y-26682700D01*
X-2143122Y-26670347D01*
X-2118386Y-26659195D01*
X-2114550Y-26656725D01*
X-2098287Y-26647139D01*
X-2095500Y-26646500D01*
X-2088746Y-26645345D01*
X-2075315Y-26641181D01*
X-2050470Y-26632351D01*
X-2009471Y-26617195D01*
X-1974850Y-26604264D01*
X-1934560Y-26589308D01*
X-1904637Y-26578418D01*
X-1892300Y-26574188D01*
X-1876872Y-26568683D01*
X-1847435Y-26557251D01*
X-1813474Y-26543625D01*
X-1790700Y-26534196D01*
X-1770368Y-26526246D01*
X-1765300Y-26524651D01*
X-1751296Y-26519631D01*
X-1719737Y-26507625D01*
X-1676701Y-26490953D01*
X-1663700Y-26485873D01*
X-1618147Y-26468796D01*
X-1581832Y-26456584D01*
X-1561052Y-26451310D01*
X-1558925Y-26451345D01*
X-1555182Y-26440612D01*
X-1552130Y-26409370D01*
X-1550095Y-26362506D01*
X-1549400Y-26308051D01*
X-1550368Y-26249055D01*
X-1553022Y-26201959D01*
X-1556979Y-26171438D01*
X-1561273Y-26162000D01*
X-1581480Y-26166173D01*
X-1602548Y-26173179D01*
X-1628883Y-26182303D01*
X-1641608Y-26185622D01*
X-1658599Y-26191849D01*
X-1686797Y-26205267D01*
X-1689100Y-26206450D01*
X-1717697Y-26220217D01*
X-1735940Y-26227167D01*
X-1736591Y-26227279D01*
X-1754799Y-26232210D01*
X-1778000Y-26240099D01*
X-1812964Y-26252668D01*
X-1832077Y-26258945D01*
X-1843290Y-26261501D01*
X-1844808Y-26261726D01*
X-1861793Y-26268020D01*
X-1890019Y-26281478D01*
X-1892433Y-26282719D01*
X-1917729Y-26293588D01*
X-1930142Y-26294582D01*
X-1930400Y-26293708D01*
X-1938258Y-26294583D01*
X-1955800Y-26308050D01*
X-1974127Y-26321962D01*
X-1981200Y-26322393D01*
X-1990915Y-26321657D01*
X-2014744Y-26331153D01*
X-2019166Y-26333382D01*
X-2045677Y-26346336D01*
X-2059983Y-26351888D01*
X-2060441Y-26351865D01*
X-2073402Y-26355072D01*
X-2100946Y-26364409D01*
X-2134033Y-26376679D01*
X-2159000Y-26386705D01*
X-2179323Y-26394544D01*
X-2184400Y-26396048D01*
X-2199906Y-26402936D01*
X-2203450Y-26404979D01*
X-2221837Y-26412831D01*
X-2255979Y-26425089D01*
X-2286000Y-26435050D01*
X-2326272Y-26448567D01*
X-2357012Y-26459945D01*
X-2368550Y-26465122D01*
X-2385493Y-26473424D01*
X-2387600Y-26474020D01*
X-2402671Y-26479147D01*
X-2430466Y-26489836D01*
X-2432050Y-26490466D01*
X-2469055Y-26504915D01*
X-2489505Y-26511770D01*
X-2500295Y-26513200D01*
X-2503123Y-26512809D01*
X-2518249Y-26518356D01*
X-2528523Y-26525445D01*
X-2550045Y-26537028D01*
X-2586606Y-26551836D01*
X-2616200Y-26562050D01*
X-2656504Y-26575850D01*
X-2687251Y-26587954D01*
X-2698750Y-26593826D01*
X-2718222Y-26603348D01*
X-2751190Y-26615603D01*
X-2762250Y-26619213D01*
X-2797127Y-26631000D01*
X-2821863Y-26640764D01*
X-2825750Y-26642736D01*
X-2848507Y-26652017D01*
X-2851150Y-26652602D01*
X-2870169Y-26658791D01*
X-2901745Y-26671251D01*
X-2911414Y-26675330D01*
X-2942768Y-26688035D01*
X-2962942Y-26694884D01*
X-2965522Y-26695288D01*
X-2980160Y-26700280D01*
X-3007032Y-26712979D01*
X-3009900Y-26714450D01*
X-3038497Y-26728217D01*
X-3056740Y-26735167D01*
X-3057391Y-26735279D01*
X-3076926Y-26740698D01*
X-3109628Y-26752052D01*
X-3145137Y-26765714D01*
X-3149600Y-26767546D01*
X-3174259Y-26776602D01*
X-3181350Y-26778703D01*
X-3200079Y-26785569D01*
X-3231870Y-26798883D01*
X-3244850Y-26804588D01*
X-3277163Y-26818635D01*
X-3298488Y-26827270D01*
X-3302000Y-26828401D01*
X-3315251Y-26835604D01*
X-3342419Y-26852803D01*
X-3364224Y-26867272D01*
X-3400028Y-26891301D01*
X-3429483Y-26910871D01*
X-3439858Y-26917650D01*
X-3469723Y-26940039D01*
X-3503267Y-26969805D01*
X-3534755Y-27001205D01*
X-3558457Y-27028497D01*
X-3568640Y-27045940D01*
X-3568700Y-27046717D01*
X-3575161Y-27062261D01*
X-3579499Y-27063700D01*
X-3589728Y-27074147D01*
X-3606907Y-27101028D01*
X-3627476Y-27137651D01*
X-3647876Y-27177328D01*
X-3664547Y-27213367D01*
X-3673930Y-27239078D01*
X-3674640Y-27242524D01*
X-3682128Y-27267921D01*
X-3684785Y-27273250D01*
X-3688826Y-27291582D01*
X-3692370Y-27327624D01*
X-3694669Y-27373687D01*
X-3694712Y-27375180D01*
X-3697219Y-27464410D01*
X-3576719Y-27463932D01*
X-3524043Y-27463113D01*
X-3481678Y-27461305D01*
X-3455519Y-27458820D01*
X-3450151Y-27457252D01*
X-3445350Y-27442187D01*
X-3439394Y-27409932D01*
X-3435349Y-27381200D01*
X-3428216Y-27339404D01*
X-3419271Y-27307034D01*
X-3413553Y-27295475D01*
X-3406949Y-27281928D01*
X-3409950Y-27279600D01*
X-3410861Y-27271712D01*
X-3402475Y-27259196D01*
X-3382577Y-27230518D01*
X-3372241Y-27212113D01*
X-3353993Y-27188904D01*
X-3323364Y-27161283D01*
X-3308245Y-27149972D01*
X-3268062Y-27123771D01*
X-3221062Y-27095988D01*
X-3172496Y-27069353D01*
X-3127620Y-27046596D01*
X-3091686Y-27030448D01*
X-3069949Y-27023637D01*
X-3066295Y-27024239D01*
X-3050228Y-27032553D01*
X-3050116Y-27032562D01*
X-3035087Y-27037901D01*
X-3004010Y-27051275D01*
X-2965450Y-27068935D01*
X-2924233Y-27087626D01*
X-2891292Y-27101381D01*
X-2874656Y-27106980D01*
X-2852622Y-27116584D01*
X-2842906Y-27123502D01*
X-2823168Y-27136633D01*
X-2816358Y-27139168D01*
X-2786236Y-27148022D01*
X-2735690Y-27168715D01*
X-2705100Y-27182408D01*
X-2670848Y-27197646D01*
X-2647209Y-27207451D01*
X-2641600Y-27209306D01*
X-2626735Y-27216016D01*
X-2616200Y-27222288D01*
X-2592858Y-27233968D01*
X-2584450Y-27236393D01*
X-2566181Y-27242474D01*
X-2534028Y-27255731D01*
X-2514600Y-27264362D01*
X-2430330Y-27302517D01*
X-2357542Y-27335075D01*
X-2299051Y-27360799D01*
X-2257670Y-27378454D01*
X-2236215Y-27386802D01*
X-2235200Y-27387098D01*
X-2221295Y-27392960D01*
X-2191077Y-27406671D01*
X-2152650Y-27424535D01*
X-2111796Y-27443157D01*
X-2079594Y-27456829D01*
X-2063750Y-27462381D01*
X-2042656Y-27470553D01*
X-2032000Y-27476613D01*
X-2012456Y-27487554D01*
X-2006600Y-27489728D01*
X-1992110Y-27495031D01*
X-1963155Y-27507233D01*
X-1949450Y-27513253D01*
X-1891163Y-27538961D01*
X-1853232Y-27555243D01*
X-1832924Y-27563259D01*
X-1828800Y-27564481D01*
X-1813910Y-27571571D01*
X-1803400Y-27577888D01*
X-1780049Y-27589638D01*
X-1771650Y-27592120D01*
X-1754304Y-27598275D01*
X-1721401Y-27612319D01*
X-1682750Y-27629966D01*
X-1642719Y-27648281D01*
X-1612154Y-27661388D01*
X-1598083Y-27666339D01*
X-1582064Y-27674647D01*
X-1580091Y-27676475D01*
X-1567499Y-27684794D01*
X-1558738Y-27678557D01*
X-1553204Y-27655102D01*
X-1550294Y-27611768D01*
X-1549402Y-27545892D01*
X-1549399Y-27541193D01*
X-1549399Y-27396385D01*
X-1584324Y-27384210D01*
X-1584324Y-27384210D01*
G37*
X-1584324Y-27384210D02*
X-1614005Y-27374428D01*
X-1631950Y-27369363D01*
X-1651284Y-27359258D01*
X-1663700Y-27349450D01*
X-1682108Y-27335271D01*
X-1689100Y-27332198D01*
X-1707447Y-27327023D01*
X-1744472Y-27312651D01*
X-1795901Y-27290764D01*
X-1809750Y-27284653D01*
X-1842078Y-27270563D01*
X-1863401Y-27261766D01*
X-1866900Y-27260550D01*
X-1881400Y-27254890D01*
X-1910377Y-27242475D01*
X-1924050Y-27236448D01*
X-1985172Y-27209508D01*
X-2025808Y-27192058D01*
X-2044664Y-27184653D01*
X-2044700Y-27184643D01*
X-2059206Y-27178802D01*
X-2088193Y-27166278D01*
X-2101850Y-27160248D01*
X-2164952Y-27132443D01*
X-2205205Y-27115221D01*
X-2222500Y-27108575D01*
X-2236802Y-27102743D01*
X-2266170Y-27089780D01*
X-2286000Y-27080808D01*
X-2340640Y-27056801D01*
X-2375137Y-27043944D01*
X-2391744Y-27041412D01*
X-2392749Y-27041823D01*
X-2404515Y-27036398D01*
X-2424366Y-27020457D01*
X-2443247Y-27006392D01*
X-2451100Y-27006550D01*
X-2458778Y-27007363D01*
X-2473325Y-26996724D01*
X-2494356Y-26980459D01*
X-2504941Y-26975358D01*
X-2533674Y-26967174D01*
X-2582426Y-26947377D01*
X-2616200Y-26932293D01*
X-2650947Y-26917048D01*
X-2675597Y-26907339D01*
X-2681816Y-26905590D01*
X-2697987Y-26899535D01*
X-2694470Y-26887723D01*
X-2675298Y-26873484D01*
X-2644501Y-26860150D01*
X-2618383Y-26853177D01*
X-2592138Y-26845132D01*
X-2580283Y-26840351D01*
X-2559031Y-26831252D01*
X-2552700Y-26828783D01*
X-2535897Y-26822371D01*
X-2506150Y-26810584D01*
X-2474029Y-26797644D01*
X-2451100Y-26788196D01*
X-2430743Y-26779858D01*
X-2425700Y-26777950D01*
X-2409974Y-26771514D01*
X-2398116Y-26766350D01*
X-2370401Y-26756688D01*
X-2360016Y-26754390D01*
X-2334646Y-26745601D01*
X-2324100Y-26739861D01*
X-2294803Y-26727418D01*
X-2280646Y-26724090D01*
X-2252929Y-26715524D01*
X-2242546Y-26709503D01*
X-2222358Y-26699045D01*
X-2188910Y-26686265D01*
X-2178050Y-26682700D01*
X-2143122Y-26670347D01*
X-2118386Y-26659195D01*
X-2114550Y-26656725D01*
X-2098287Y-26647139D01*
X-2095500Y-26646500D01*
X-2088746Y-26645345D01*
X-2075315Y-26641181D01*
X-2050470Y-26632351D01*
X-2009471Y-26617195D01*
X-1974850Y-26604264D01*
X-1934560Y-26589308D01*
X-1904637Y-26578418D01*
X-1892300Y-26574188D01*
X-1876872Y-26568683D01*
X-1847435Y-26557251D01*
X-1813474Y-26543625D01*
X-1790700Y-26534196D01*
X-1770368Y-26526246D01*
X-1765300Y-26524651D01*
X-1751296Y-26519631D01*
X-1719737Y-26507625D01*
X-1676701Y-26490953D01*
X-1663700Y-26485873D01*
X-1618147Y-26468796D01*
X-1581832Y-26456584D01*
X-1561052Y-26451310D01*
X-1558925Y-26451345D01*
X-1555182Y-26440612D01*
X-1552130Y-26409370D01*
X-1550095Y-26362506D01*
X-1549400Y-26308051D01*
X-1550368Y-26249055D01*
X-1553022Y-26201959D01*
X-1556979Y-26171438D01*
X-1561273Y-26162000D01*
X-1581480Y-26166173D01*
X-1602548Y-26173179D01*
X-1628883Y-26182303D01*
X-1641608Y-26185622D01*
X-1658599Y-26191849D01*
X-1686797Y-26205267D01*
X-1689100Y-26206450D01*
X-1717697Y-26220217D01*
X-1735940Y-26227167D01*
X-1736591Y-26227279D01*
X-1754799Y-26232210D01*
X-1778000Y-26240099D01*
X-1812964Y-26252668D01*
X-1832077Y-26258945D01*
X-1843290Y-26261501D01*
X-1844808Y-26261726D01*
X-1861793Y-26268020D01*
X-1890019Y-26281478D01*
X-1892433Y-26282719D01*
X-1917729Y-26293588D01*
X-1930142Y-26294582D01*
X-1930400Y-26293708D01*
X-1938258Y-26294583D01*
X-1955800Y-26308050D01*
X-1974127Y-26321962D01*
X-1981200Y-26322393D01*
X-1990915Y-26321657D01*
X-2014744Y-26331153D01*
X-2019166Y-26333382D01*
X-2045677Y-26346336D01*
X-2059983Y-26351888D01*
X-2060441Y-26351865D01*
X-2073402Y-26355072D01*
X-2100946Y-26364409D01*
X-2134033Y-26376679D01*
X-2159000Y-26386705D01*
X-2179323Y-26394544D01*
X-2184400Y-26396048D01*
X-2199906Y-26402936D01*
X-2203450Y-26404979D01*
X-2221837Y-26412831D01*
X-2255979Y-26425089D01*
X-2286000Y-26435050D01*
X-2326272Y-26448567D01*
X-2357012Y-26459945D01*
X-2368550Y-26465122D01*
X-2385493Y-26473424D01*
X-2387600Y-26474020D01*
X-2402671Y-26479147D01*
X-2430466Y-26489836D01*
X-2432050Y-26490466D01*
X-2469055Y-26504915D01*
X-2489505Y-26511770D01*
X-2500295Y-26513200D01*
X-2503123Y-26512809D01*
X-2518249Y-26518356D01*
X-2528523Y-26525445D01*
X-2550045Y-26537028D01*
X-2586606Y-26551836D01*
X-2616200Y-26562050D01*
X-2656504Y-26575850D01*
X-2687251Y-26587954D01*
X-2698750Y-26593826D01*
X-2718222Y-26603348D01*
X-2751190Y-26615603D01*
X-2762250Y-26619213D01*
X-2797127Y-26631000D01*
X-2821863Y-26640764D01*
X-2825750Y-26642736D01*
X-2848507Y-26652017D01*
X-2851150Y-26652602D01*
X-2870169Y-26658791D01*
X-2901745Y-26671251D01*
X-2911414Y-26675330D01*
X-2942768Y-26688035D01*
X-2962942Y-26694884D01*
X-2965522Y-26695288D01*
X-2980160Y-26700280D01*
X-3007032Y-26712979D01*
X-3009900Y-26714450D01*
X-3038497Y-26728217D01*
X-3056740Y-26735167D01*
X-3057391Y-26735279D01*
X-3076926Y-26740698D01*
X-3109628Y-26752052D01*
X-3145137Y-26765714D01*
X-3149600Y-26767546D01*
X-3174259Y-26776602D01*
X-3181350Y-26778703D01*
X-3200079Y-26785569D01*
X-3231870Y-26798883D01*
X-3244850Y-26804588D01*
X-3277163Y-26818635D01*
X-3298488Y-26827270D01*
X-3302000Y-26828401D01*
X-3315251Y-26835604D01*
X-3342419Y-26852803D01*
X-3364224Y-26867272D01*
X-3400028Y-26891301D01*
X-3429483Y-26910871D01*
X-3439858Y-26917650D01*
X-3469723Y-26940039D01*
X-3503267Y-26969805D01*
X-3534755Y-27001205D01*
X-3558457Y-27028497D01*
X-3568640Y-27045940D01*
X-3568700Y-27046717D01*
X-3575161Y-27062261D01*
X-3579499Y-27063700D01*
X-3589728Y-27074147D01*
X-3606907Y-27101028D01*
X-3627476Y-27137651D01*
X-3647876Y-27177328D01*
X-3664547Y-27213367D01*
X-3673930Y-27239078D01*
X-3674640Y-27242524D01*
X-3682128Y-27267921D01*
X-3684785Y-27273250D01*
X-3688826Y-27291582D01*
X-3692370Y-27327624D01*
X-3694669Y-27373687D01*
X-3694712Y-27375180D01*
X-3697219Y-27464410D01*
X-3576719Y-27463932D01*
X-3524043Y-27463113D01*
X-3481678Y-27461305D01*
X-3455519Y-27458820D01*
X-3450151Y-27457252D01*
X-3445350Y-27442187D01*
X-3439394Y-27409932D01*
X-3435349Y-27381200D01*
X-3428216Y-27339404D01*
X-3419271Y-27307034D01*
X-3413553Y-27295475D01*
X-3406949Y-27281928D01*
X-3409950Y-27279600D01*
X-3410861Y-27271712D01*
X-3402475Y-27259196D01*
X-3382577Y-27230518D01*
X-3372241Y-27212113D01*
X-3353993Y-27188904D01*
X-3323364Y-27161283D01*
X-3308245Y-27149972D01*
X-3268062Y-27123771D01*
X-3221062Y-27095988D01*
X-3172496Y-27069353D01*
X-3127620Y-27046596D01*
X-3091686Y-27030448D01*
X-3069949Y-27023637D01*
X-3066295Y-27024239D01*
X-3050228Y-27032553D01*
X-3050116Y-27032562D01*
X-3035087Y-27037901D01*
X-3004010Y-27051275D01*
X-2965450Y-27068935D01*
X-2924233Y-27087626D01*
X-2891292Y-27101381D01*
X-2874656Y-27106980D01*
X-2852622Y-27116584D01*
X-2842906Y-27123502D01*
X-2823168Y-27136633D01*
X-2816358Y-27139168D01*
X-2786236Y-27148022D01*
X-2735690Y-27168715D01*
X-2705100Y-27182408D01*
X-2670848Y-27197646D01*
X-2647209Y-27207451D01*
X-2641600Y-27209306D01*
X-2626735Y-27216016D01*
X-2616200Y-27222288D01*
X-2592858Y-27233968D01*
X-2584450Y-27236393D01*
X-2566181Y-27242474D01*
X-2534028Y-27255731D01*
X-2514600Y-27264362D01*
X-2430330Y-27302517D01*
X-2357542Y-27335075D01*
X-2299051Y-27360799D01*
X-2257670Y-27378454D01*
X-2236215Y-27386802D01*
X-2235200Y-27387098D01*
X-2221295Y-27392960D01*
X-2191077Y-27406671D01*
X-2152650Y-27424535D01*
X-2111796Y-27443157D01*
X-2079594Y-27456829D01*
X-2063750Y-27462381D01*
X-2042656Y-27470553D01*
X-2032000Y-27476613D01*
X-2012456Y-27487554D01*
X-2006600Y-27489728D01*
X-1992110Y-27495031D01*
X-1963155Y-27507233D01*
X-1949450Y-27513253D01*
X-1891163Y-27538961D01*
X-1853232Y-27555243D01*
X-1832924Y-27563259D01*
X-1828800Y-27564481D01*
X-1813910Y-27571571D01*
X-1803400Y-27577888D01*
X-1780049Y-27589638D01*
X-1771650Y-27592120D01*
X-1754304Y-27598275D01*
X-1721401Y-27612319D01*
X-1682750Y-27629966D01*
X-1642719Y-27648281D01*
X-1612154Y-27661388D01*
X-1598083Y-27666339D01*
X-1582064Y-27674647D01*
X-1580091Y-27676475D01*
X-1567499Y-27684794D01*
X-1558738Y-27678557D01*
X-1553204Y-27655102D01*
X-1550294Y-27611768D01*
X-1549402Y-27545892D01*
X-1549399Y-27541193D01*
X-1549399Y-27396385D01*
X-1584324Y-27384210D01*
G36*
X-3359150Y-27203400D02*
X-3365500Y-27209750D01*
X-3359150Y-27216100D01*
X-3352800Y-27209750D01*
X-3359150Y-27203400D01*
X-3359150Y-27203400D01*
G37*
X-3359150Y-27203400D02*
X-3365500Y-27209750D01*
X-3359150Y-27216100D01*
X-3352800Y-27209750D01*
X-3359150Y-27203400D01*
G36*
X-2738094Y-25980701D02*
X-2744060Y-25951039D01*
X-2758950Y-25926363D01*
X-2786856Y-25896472D01*
X-2789979Y-25893344D01*
X-2823368Y-25862505D01*
X-2851286Y-25846103D01*
X-2884569Y-25839100D01*
X-2910390Y-25837370D01*
X-2972545Y-25840537D01*
X-3022377Y-25859157D01*
X-3069505Y-25897147D01*
X-3077668Y-25905528D01*
X-3105223Y-25950121D01*
X-3120146Y-26006735D01*
X-3121004Y-26065015D01*
X-3106585Y-26114194D01*
X-3085648Y-26150270D01*
X-3066459Y-26178992D01*
X-3052699Y-26195284D01*
X-3048000Y-26195021D01*
X-3040167Y-26193066D01*
X-3027711Y-26201128D01*
X-2989727Y-26220288D01*
X-2940418Y-26229363D01*
X-2889574Y-26228093D01*
X-2846986Y-26216219D01*
X-2831969Y-26206333D01*
X-2813781Y-26193337D01*
X-2806700Y-26194730D01*
X-2800415Y-26192058D01*
X-2784347Y-26172870D01*
X-2771775Y-26155424D01*
X-2750994Y-26120328D01*
X-2740429Y-26085397D01*
X-2737044Y-26039303D01*
X-2736962Y-26025550D01*
X-2738094Y-25980701D01*
X-2738094Y-25980701D01*
G37*
X-2738094Y-25980701D02*
X-2744060Y-25951039D01*
X-2758950Y-25926363D01*
X-2786856Y-25896472D01*
X-2789979Y-25893344D01*
X-2823368Y-25862505D01*
X-2851286Y-25846103D01*
X-2884569Y-25839100D01*
X-2910390Y-25837370D01*
X-2972545Y-25840537D01*
X-3022377Y-25859157D01*
X-3069505Y-25897147D01*
X-3077668Y-25905528D01*
X-3105223Y-25950121D01*
X-3120146Y-26006735D01*
X-3121004Y-26065015D01*
X-3106585Y-26114194D01*
X-3085648Y-26150270D01*
X-3066459Y-26178992D01*
X-3052699Y-26195284D01*
X-3048000Y-26195021D01*
X-3040167Y-26193066D01*
X-3027711Y-26201128D01*
X-2989727Y-26220288D01*
X-2940418Y-26229363D01*
X-2889574Y-26228093D01*
X-2846986Y-26216219D01*
X-2831969Y-26206333D01*
X-2813781Y-26193337D01*
X-2806700Y-26194730D01*
X-2800415Y-26192058D01*
X-2784347Y-26172870D01*
X-2771775Y-26155424D01*
X-2750994Y-26120328D01*
X-2740429Y-26085397D01*
X-2737044Y-26039303D01*
X-2736962Y-26025550D01*
X-2738094Y-25980701D01*
G36*
X-1517838Y-24788049D02*
X-1524720Y-24707286D01*
X-1540384Y-24635282D01*
X-1566762Y-24563955D01*
X-1605786Y-24485226D01*
X-1619552Y-24460200D01*
X-1635081Y-24438933D01*
X-1662560Y-24407065D01*
X-1697575Y-24369117D01*
X-1735714Y-24329610D01*
X-1772563Y-24293064D01*
X-1803710Y-24263999D01*
X-1824742Y-24246934D01*
X-1830332Y-24244300D01*
X-1846167Y-24237726D01*
X-1874062Y-24221203D01*
X-1886339Y-24213106D01*
X-1929452Y-24188615D01*
X-1985681Y-24162823D01*
X-2044011Y-24140311D01*
X-2093427Y-24125659D01*
X-2099839Y-24124337D01*
X-2121476Y-24119418D01*
X-2127250Y-24116984D01*
X-2138938Y-24112561D01*
X-2169969Y-24108862D01*
X-2214294Y-24106026D01*
X-2265862Y-24104193D01*
X-2318622Y-24103504D01*
X-2366525Y-24104099D01*
X-2403522Y-24106116D01*
X-2423560Y-24109698D01*
X-2424344Y-24110113D01*
X-2427857Y-24121347D01*
X-2430824Y-24151033D01*
X-2433268Y-24200180D01*
X-2435209Y-24269796D01*
X-2436671Y-24360890D01*
X-2437675Y-24474472D01*
X-2438243Y-24611549D01*
X-2438400Y-24753231D01*
X-2438400Y-25387663D01*
X-2479155Y-25380483D01*
X-2512873Y-25371372D01*
X-2536305Y-25359696D01*
X-2550217Y-25351530D01*
X-2552700Y-25353242D01*
X-2561683Y-25355156D01*
X-2585210Y-25344402D01*
X-2618148Y-25324375D01*
X-2655364Y-25298470D01*
X-2691724Y-25270081D01*
X-2722096Y-25242602D01*
X-2725802Y-25238785D01*
X-2749674Y-25208318D01*
X-2777658Y-25165034D01*
X-2805097Y-25117106D01*
X-2827336Y-25072707D01*
X-2839718Y-25040012D01*
X-2840163Y-25038050D01*
X-2844484Y-25015622D01*
X-2847344Y-24999950D01*
X-2855033Y-24972322D01*
X-2860125Y-24961372D01*
X-2863826Y-24942908D01*
X-2866199Y-24906365D01*
X-2867267Y-24859028D01*
X-2867055Y-24808181D01*
X-2865588Y-24761110D01*
X-2862891Y-24725099D01*
X-2859261Y-24707850D01*
X-2851062Y-24685055D01*
X-2848151Y-24671149D01*
X-2836219Y-24630980D01*
X-2814370Y-24582751D01*
X-2788496Y-24538287D01*
X-2770175Y-24514707D01*
X-2751134Y-24492627D01*
X-2743200Y-24478884D01*
X-2743200Y-24478874D01*
X-2735275Y-24464638D01*
X-2724150Y-24452036D01*
X-2709166Y-24439809D01*
X-2705100Y-24440159D01*
X-2696920Y-24437939D01*
X-2677009Y-24422890D01*
X-2674825Y-24421009D01*
X-2654915Y-24400712D01*
X-2652433Y-24382521D01*
X-2662930Y-24357846D01*
X-2678933Y-24330159D01*
X-2692122Y-24314329D01*
X-2692390Y-24314156D01*
X-2703519Y-24299817D01*
X-2721117Y-24269578D01*
X-2737391Y-24237982D01*
X-2757615Y-24199537D01*
X-2774620Y-24181039D01*
X-2794317Y-24181783D01*
X-2822614Y-24201065D01*
X-2849950Y-24224549D01*
X-2876283Y-24245471D01*
X-2895120Y-24256497D01*
X-2897575Y-24257000D01*
X-2906812Y-24267446D01*
X-2908300Y-24278167D01*
X-2911924Y-24292349D01*
X-2916161Y-24291472D01*
X-2929507Y-24292571D01*
X-2946659Y-24306680D01*
X-2958158Y-24325147D01*
X-2959100Y-24330738D01*
X-2967817Y-24348192D01*
X-2977586Y-24358133D01*
X-2992717Y-24377599D01*
X-3013741Y-24412986D01*
X-3037097Y-24457155D01*
X-3059226Y-24502970D01*
X-3076567Y-24543295D01*
X-3085561Y-24570990D01*
X-3086100Y-24575671D01*
X-3091130Y-24598737D01*
X-3094934Y-24604501D01*
X-3101876Y-24614790D01*
X-3107019Y-24632363D01*
X-3110800Y-24661246D01*
X-3113653Y-24705461D01*
X-3116016Y-24769035D01*
X-3117153Y-24809450D01*
X-3117874Y-24875505D01*
X-3116754Y-24938111D01*
X-3114032Y-24989590D01*
X-3110613Y-25019000D01*
X-3099440Y-25077605D01*
X-3090504Y-25117870D01*
X-3081861Y-25146510D01*
X-3071568Y-25170238D01*
X-3061336Y-25189317D01*
X-3047250Y-25218072D01*
X-3042196Y-25236211D01*
X-3042857Y-25238224D01*
X-3039389Y-25249680D01*
X-3029256Y-25260046D01*
X-3013001Y-25280659D01*
X-3009900Y-25291637D01*
X-3001247Y-25311117D01*
X-2984500Y-25330150D01*
X-2965460Y-25352457D01*
X-2959100Y-25368072D01*
X-2950462Y-25383487D01*
X-2927632Y-25410566D01*
X-2895232Y-25443908D01*
X-2889250Y-25449672D01*
X-2856289Y-25479969D01*
X-2831708Y-25500353D01*
X-2819864Y-25507273D01*
X-2819400Y-25506593D01*
X-2811448Y-25508270D01*
X-2791441Y-25523987D01*
X-2781300Y-25533350D01*
X-2758099Y-25553352D01*
X-2744597Y-25560685D01*
X-2743200Y-25559158D01*
X-2735371Y-25557751D01*
X-2720975Y-25567552D01*
X-2690929Y-25587747D01*
X-2662139Y-25598846D01*
X-2654300Y-25599438D01*
X-2639562Y-25604382D01*
X-2618550Y-25614642D01*
X-2587548Y-25628579D01*
X-2567750Y-25634778D01*
X-2542046Y-25640359D01*
X-2504725Y-25648767D01*
X-2494172Y-25651186D01*
X-2456139Y-25656420D01*
X-2401844Y-25659448D01*
X-2337792Y-25660401D01*
X-2270492Y-25659411D01*
X-2209800Y-25656757D01*
X-2209800Y-25388826D01*
X-2209800Y-24879207D01*
X-2209772Y-24752187D01*
X-2209613Y-24648290D01*
X-2209208Y-24565239D01*
X-2208443Y-24500756D01*
X-2207201Y-24452563D01*
X-2205368Y-24418385D01*
X-2202831Y-24395942D01*
X-2199473Y-24382959D01*
X-2195179Y-24377159D01*
X-2189836Y-24376262D01*
X-2184508Y-24377616D01*
X-2152142Y-24386149D01*
X-2124578Y-24391924D01*
X-2092653Y-24401398D01*
X-2073669Y-24411708D01*
X-2059831Y-24419790D01*
X-2057400Y-24418059D01*
X-2048272Y-24417720D01*
X-2024733Y-24429010D01*
X-1992545Y-24448128D01*
X-1957471Y-24471272D01*
X-1925275Y-24494642D01*
X-1901720Y-24514435D01*
X-1892571Y-24526779D01*
X-1884811Y-24542047D01*
X-1866429Y-24565956D01*
X-1865595Y-24566920D01*
X-1848474Y-24589723D01*
X-1843160Y-24603388D01*
X-1843370Y-24603783D01*
X-1839572Y-24616774D01*
X-1827423Y-24633492D01*
X-1812607Y-24656053D01*
X-1798324Y-24685933D01*
X-1787704Y-24715006D01*
X-1783874Y-24735147D01*
X-1786565Y-24739600D01*
X-1786289Y-24747342D01*
X-1780224Y-24755971D01*
X-1774824Y-24775292D01*
X-1771680Y-24812652D01*
X-1770749Y-24860792D01*
X-1771987Y-24912455D01*
X-1775351Y-24960383D01*
X-1780798Y-24997318D01*
X-1781692Y-25001075D01*
X-1802049Y-25072615D01*
X-1821203Y-25121664D01*
X-1840288Y-25151022D01*
X-1843448Y-25154114D01*
X-1861449Y-25174242D01*
X-1866900Y-25185972D01*
X-1876512Y-25206067D01*
X-1901096Y-25234293D01*
X-1934276Y-25265161D01*
X-1969672Y-25293177D01*
X-2000907Y-25312852D01*
X-2021141Y-25318781D01*
X-2035504Y-25325426D01*
X-2056066Y-25341644D01*
X-2074993Y-25356182D01*
X-2082800Y-25357072D01*
X-2092124Y-25355465D01*
X-2109950Y-25362838D01*
X-2143698Y-25375995D01*
X-2173450Y-25383097D01*
X-2209800Y-25388826D01*
X-2209800Y-25656757D01*
X-2206449Y-25656610D01*
X-2152171Y-25652129D01*
X-2114164Y-25646101D01*
X-2105025Y-25643305D01*
X-2080503Y-25635265D01*
X-2070102Y-25635513D01*
X-2070100Y-25635591D01*
X-2060330Y-25634781D01*
X-2036374Y-25624471D01*
X-2032000Y-25622250D01*
X-2006649Y-25611346D01*
X-1994170Y-25610304D01*
X-1993900Y-25611193D01*
X-1986041Y-25610318D01*
X-1968500Y-25596850D01*
X-1950222Y-25583471D01*
X-1943100Y-25584150D01*
X-1935376Y-25584800D01*
X-1919844Y-25573391D01*
X-1900006Y-25559715D01*
X-1890133Y-25558801D01*
X-1878087Y-25555408D01*
X-1860620Y-25539778D01*
X-1839549Y-25520801D01*
X-1825915Y-25514300D01*
X-1808240Y-25505220D01*
X-1779271Y-25481146D01*
X-1743690Y-25446833D01*
X-1706180Y-25407033D01*
X-1671424Y-25366498D01*
X-1644105Y-25329983D01*
X-1643668Y-25329328D01*
X-1606593Y-25268098D01*
X-1574866Y-25205390D01*
X-1552304Y-25149267D01*
X-1544185Y-25119202D01*
X-1539246Y-25096096D01*
X-1536672Y-25088850D01*
X-1530803Y-25076440D01*
X-1525679Y-25040354D01*
X-1521461Y-24982310D01*
X-1518306Y-24904026D01*
X-1517806Y-24885650D01*
X-1517838Y-24788049D01*
X-1517838Y-24788049D01*
G37*
X-1517838Y-24788049D02*
X-1524720Y-24707286D01*
X-1540384Y-24635282D01*
X-1566762Y-24563955D01*
X-1605786Y-24485226D01*
X-1619552Y-24460200D01*
X-1635081Y-24438933D01*
X-1662560Y-24407065D01*
X-1697575Y-24369117D01*
X-1735714Y-24329610D01*
X-1772563Y-24293064D01*
X-1803710Y-24263999D01*
X-1824742Y-24246934D01*
X-1830332Y-24244300D01*
X-1846167Y-24237726D01*
X-1874062Y-24221203D01*
X-1886339Y-24213106D01*
X-1929452Y-24188615D01*
X-1985681Y-24162823D01*
X-2044011Y-24140311D01*
X-2093427Y-24125659D01*
X-2099839Y-24124337D01*
X-2121476Y-24119418D01*
X-2127250Y-24116984D01*
X-2138938Y-24112561D01*
X-2169969Y-24108862D01*
X-2214294Y-24106026D01*
X-2265862Y-24104193D01*
X-2318622Y-24103504D01*
X-2366525Y-24104099D01*
X-2403522Y-24106116D01*
X-2423560Y-24109698D01*
X-2424344Y-24110113D01*
X-2427857Y-24121347D01*
X-2430824Y-24151033D01*
X-2433268Y-24200180D01*
X-2435209Y-24269796D01*
X-2436671Y-24360890D01*
X-2437675Y-24474472D01*
X-2438243Y-24611549D01*
X-2438400Y-24753231D01*
X-2438400Y-25387663D01*
X-2479155Y-25380483D01*
X-2512873Y-25371372D01*
X-2536305Y-25359696D01*
X-2550217Y-25351530D01*
X-2552700Y-25353242D01*
X-2561683Y-25355156D01*
X-2585210Y-25344402D01*
X-2618148Y-25324375D01*
X-2655364Y-25298470D01*
X-2691724Y-25270081D01*
X-2722096Y-25242602D01*
X-2725802Y-25238785D01*
X-2749674Y-25208318D01*
X-2777658Y-25165034D01*
X-2805097Y-25117106D01*
X-2827336Y-25072707D01*
X-2839718Y-25040012D01*
X-2840163Y-25038050D01*
X-2844484Y-25015622D01*
X-2847344Y-24999950D01*
X-2855033Y-24972322D01*
X-2860125Y-24961372D01*
X-2863826Y-24942908D01*
X-2866199Y-24906365D01*
X-2867267Y-24859028D01*
X-2867055Y-24808181D01*
X-2865588Y-24761110D01*
X-2862891Y-24725099D01*
X-2859261Y-24707850D01*
X-2851062Y-24685055D01*
X-2848151Y-24671149D01*
X-2836219Y-24630980D01*
X-2814370Y-24582751D01*
X-2788496Y-24538287D01*
X-2770175Y-24514707D01*
X-2751134Y-24492627D01*
X-2743200Y-24478884D01*
X-2743200Y-24478874D01*
X-2735275Y-24464638D01*
X-2724150Y-24452036D01*
X-2709166Y-24439809D01*
X-2705100Y-24440159D01*
X-2696920Y-24437939D01*
X-2677009Y-24422890D01*
X-2674825Y-24421009D01*
X-2654915Y-24400712D01*
X-2652433Y-24382521D01*
X-2662930Y-24357846D01*
X-2678933Y-24330159D01*
X-2692122Y-24314329D01*
X-2692390Y-24314156D01*
X-2703519Y-24299817D01*
X-2721117Y-24269578D01*
X-2737391Y-24237982D01*
X-2757615Y-24199537D01*
X-2774620Y-24181039D01*
X-2794317Y-24181783D01*
X-2822614Y-24201065D01*
X-2849950Y-24224549D01*
X-2876283Y-24245471D01*
X-2895120Y-24256497D01*
X-2897575Y-24257000D01*
X-2906812Y-24267446D01*
X-2908300Y-24278167D01*
X-2911924Y-24292349D01*
X-2916161Y-24291472D01*
X-2929507Y-24292571D01*
X-2946659Y-24306680D01*
X-2958158Y-24325147D01*
X-2959100Y-24330738D01*
X-2967817Y-24348192D01*
X-2977586Y-24358133D01*
X-2992717Y-24377599D01*
X-3013741Y-24412986D01*
X-3037097Y-24457155D01*
X-3059226Y-24502970D01*
X-3076567Y-24543295D01*
X-3085561Y-24570990D01*
X-3086100Y-24575671D01*
X-3091130Y-24598737D01*
X-3094934Y-24604501D01*
X-3101876Y-24614790D01*
X-3107019Y-24632363D01*
X-3110800Y-24661246D01*
X-3113653Y-24705461D01*
X-3116016Y-24769035D01*
X-3117153Y-24809450D01*
X-3117874Y-24875505D01*
X-3116754Y-24938111D01*
X-3114032Y-24989590D01*
X-3110613Y-25019000D01*
X-3099440Y-25077605D01*
X-3090504Y-25117870D01*
X-3081861Y-25146510D01*
X-3071568Y-25170238D01*
X-3061336Y-25189317D01*
X-3047250Y-25218072D01*
X-3042196Y-25236211D01*
X-3042857Y-25238224D01*
X-3039389Y-25249680D01*
X-3029256Y-25260046D01*
X-3013001Y-25280659D01*
X-3009900Y-25291637D01*
X-3001247Y-25311117D01*
X-2984500Y-25330150D01*
X-2965460Y-25352457D01*
X-2959100Y-25368072D01*
X-2950462Y-25383487D01*
X-2927632Y-25410566D01*
X-2895232Y-25443908D01*
X-2889250Y-25449672D01*
X-2856289Y-25479969D01*
X-2831708Y-25500353D01*
X-2819864Y-25507273D01*
X-2819400Y-25506593D01*
X-2811448Y-25508270D01*
X-2791441Y-25523987D01*
X-2781300Y-25533350D01*
X-2758099Y-25553352D01*
X-2744597Y-25560685D01*
X-2743200Y-25559158D01*
X-2735371Y-25557751D01*
X-2720975Y-25567552D01*
X-2690929Y-25587747D01*
X-2662139Y-25598846D01*
X-2654300Y-25599438D01*
X-2639562Y-25604382D01*
X-2618550Y-25614642D01*
X-2587548Y-25628579D01*
X-2567750Y-25634778D01*
X-2542046Y-25640359D01*
X-2504725Y-25648767D01*
X-2494172Y-25651186D01*
X-2456139Y-25656420D01*
X-2401844Y-25659448D01*
X-2337792Y-25660401D01*
X-2270492Y-25659411D01*
X-2209800Y-25656757D01*
X-2209800Y-25388826D01*
X-2209800Y-24879207D01*
X-2209772Y-24752187D01*
X-2209613Y-24648290D01*
X-2209208Y-24565239D01*
X-2208443Y-24500756D01*
X-2207201Y-24452563D01*
X-2205368Y-24418385D01*
X-2202831Y-24395942D01*
X-2199473Y-24382959D01*
X-2195179Y-24377159D01*
X-2189836Y-24376262D01*
X-2184508Y-24377616D01*
X-2152142Y-24386149D01*
X-2124578Y-24391924D01*
X-2092653Y-24401398D01*
X-2073669Y-24411708D01*
X-2059831Y-24419790D01*
X-2057400Y-24418059D01*
X-2048272Y-24417720D01*
X-2024733Y-24429010D01*
X-1992545Y-24448128D01*
X-1957471Y-24471272D01*
X-1925275Y-24494642D01*
X-1901720Y-24514435D01*
X-1892571Y-24526779D01*
X-1884811Y-24542047D01*
X-1866429Y-24565956D01*
X-1865595Y-24566920D01*
X-1848474Y-24589723D01*
X-1843160Y-24603388D01*
X-1843370Y-24603783D01*
X-1839572Y-24616774D01*
X-1827423Y-24633492D01*
X-1812607Y-24656053D01*
X-1798324Y-24685933D01*
X-1787704Y-24715006D01*
X-1783874Y-24735147D01*
X-1786565Y-24739600D01*
X-1786289Y-24747342D01*
X-1780224Y-24755971D01*
X-1774824Y-24775292D01*
X-1771680Y-24812652D01*
X-1770749Y-24860792D01*
X-1771987Y-24912455D01*
X-1775351Y-24960383D01*
X-1780798Y-24997318D01*
X-1781692Y-25001075D01*
X-1802049Y-25072615D01*
X-1821203Y-25121664D01*
X-1840288Y-25151022D01*
X-1843448Y-25154114D01*
X-1861449Y-25174242D01*
X-1866900Y-25185972D01*
X-1876512Y-25206067D01*
X-1901096Y-25234293D01*
X-1934276Y-25265161D01*
X-1969672Y-25293177D01*
X-2000907Y-25312852D01*
X-2021141Y-25318781D01*
X-2035504Y-25325426D01*
X-2056066Y-25341644D01*
X-2074993Y-25356182D01*
X-2082800Y-25357072D01*
X-2092124Y-25355465D01*
X-2109950Y-25362838D01*
X-2143698Y-25375995D01*
X-2173450Y-25383097D01*
X-2209800Y-25388826D01*
X-2209800Y-25656757D01*
X-2206449Y-25656610D01*
X-2152171Y-25652129D01*
X-2114164Y-25646101D01*
X-2105025Y-25643305D01*
X-2080503Y-25635265D01*
X-2070102Y-25635513D01*
X-2070100Y-25635591D01*
X-2060330Y-25634781D01*
X-2036374Y-25624471D01*
X-2032000Y-25622250D01*
X-2006649Y-25611346D01*
X-1994170Y-25610304D01*
X-1993900Y-25611193D01*
X-1986041Y-25610318D01*
X-1968500Y-25596850D01*
X-1950222Y-25583471D01*
X-1943100Y-25584150D01*
X-1935376Y-25584800D01*
X-1919844Y-25573391D01*
X-1900006Y-25559715D01*
X-1890133Y-25558801D01*
X-1878087Y-25555408D01*
X-1860620Y-25539778D01*
X-1839549Y-25520801D01*
X-1825915Y-25514300D01*
X-1808240Y-25505220D01*
X-1779271Y-25481146D01*
X-1743690Y-25446833D01*
X-1706180Y-25407033D01*
X-1671424Y-25366498D01*
X-1644105Y-25329983D01*
X-1643668Y-25329328D01*
X-1606593Y-25268098D01*
X-1574866Y-25205390D01*
X-1552304Y-25149267D01*
X-1544185Y-25119202D01*
X-1539246Y-25096096D01*
X-1536672Y-25088850D01*
X-1530803Y-25076440D01*
X-1525679Y-25040354D01*
X-1521461Y-24982310D01*
X-1518306Y-24904026D01*
X-1517806Y-24885650D01*
X-1517838Y-24788049D01*
G36*
X-1522881Y-23253263D02*
X-1548658Y-23134078D01*
X-1595312Y-23028997D01*
X-1663067Y-22937524D01*
X-1752150Y-22859163D01*
X-1759912Y-22853650D01*
X-1803992Y-22826065D01*
X-1831282Y-22816651D01*
X-1841437Y-22825519D01*
X-1841500Y-22827105D01*
X-1850442Y-22848980D01*
X-1860593Y-22860037D01*
X-1875718Y-22879255D01*
X-1896498Y-22913916D01*
X-1916889Y-22953395D01*
X-1938354Y-23006239D01*
X-1943022Y-23041222D01*
X-1930841Y-23059580D01*
X-1912286Y-23063200D01*
X-1890374Y-23073550D01*
X-1862291Y-23100287D01*
X-1832949Y-23136947D01*
X-1807260Y-23177064D01*
X-1790138Y-23214172D01*
X-1786430Y-23228844D01*
X-1779150Y-23254340D01*
X-1776404Y-23260050D01*
X-1769290Y-23287736D01*
X-1766788Y-23331406D01*
X-1768606Y-23382121D01*
X-1774454Y-23430945D01*
X-1783115Y-23466425D01*
X-1793166Y-23498481D01*
X-1796671Y-23517820D01*
X-1795531Y-23520400D01*
X-1799792Y-23528641D01*
X-1817700Y-23550031D01*
X-1839811Y-23574023D01*
X-1870797Y-23604607D01*
X-1895754Y-23620619D01*
X-1925226Y-23626735D01*
X-1960768Y-23627645D01*
X-2006936Y-23625155D01*
X-2038195Y-23615630D01*
X-2064449Y-23596248D01*
X-2090785Y-23567708D01*
X-2108980Y-23540979D01*
X-2109705Y-23539450D01*
X-2124099Y-23511356D01*
X-2143927Y-23476555D01*
X-2146200Y-23472775D01*
X-2160316Y-23446560D01*
X-2164563Y-23432343D01*
X-2163536Y-23431500D01*
X-2163547Y-23423744D01*
X-2169892Y-23414629D01*
X-2183460Y-23388242D01*
X-2188053Y-23370506D01*
X-2195143Y-23344613D01*
X-2201006Y-23334461D01*
X-2208143Y-23315833D01*
X-2209800Y-23298150D01*
X-2213798Y-23271775D01*
X-2219325Y-23261109D01*
X-2228915Y-23244938D01*
X-2229155Y-23243117D01*
X-2233185Y-23220631D01*
X-2242542Y-23183819D01*
X-2254438Y-23142420D01*
X-2266083Y-23106176D01*
X-2274261Y-23085598D01*
X-2284375Y-23057015D01*
X-2286000Y-23044150D01*
X-2295536Y-23011982D01*
X-2321034Y-22970338D01*
X-2357825Y-22924561D01*
X-2401238Y-22879994D01*
X-2446607Y-22841978D01*
X-2482705Y-22819070D01*
X-2563278Y-22790334D01*
X-2654495Y-22779302D01*
X-2748769Y-22785991D01*
X-2838513Y-22810419D01*
X-2856929Y-22818190D01*
X-2886642Y-22835645D01*
X-2922401Y-22862147D01*
X-2958297Y-22892525D01*
X-2988423Y-22921608D01*
X-3006871Y-22944227D01*
X-3009900Y-22952076D01*
X-3017746Y-22968267D01*
X-3034238Y-22988787D01*
X-3055695Y-23019761D01*
X-3066089Y-23044845D01*
X-3076780Y-23079677D01*
X-3088152Y-23110265D01*
X-3100524Y-23142457D01*
X-3107948Y-23164800D01*
X-3110678Y-23186743D01*
X-3113096Y-23227613D01*
X-3115067Y-23280940D01*
X-3116460Y-23340254D01*
X-3117140Y-23399082D01*
X-3116975Y-23450953D01*
X-3115831Y-23489398D01*
X-3114876Y-23501350D01*
X-3109103Y-23535471D01*
X-3102685Y-23558500D01*
X-3093467Y-23586359D01*
X-3091498Y-23594496D01*
X-3082047Y-23621737D01*
X-3064320Y-23660217D01*
X-3042691Y-23701638D01*
X-3021535Y-23737699D01*
X-3005225Y-23760098D01*
X-3003258Y-23761943D01*
X-2987337Y-23782463D01*
X-2984500Y-23792965D01*
X-2975447Y-23810027D01*
X-2952165Y-23835459D01*
X-2920467Y-23864425D01*
X-2886166Y-23892088D01*
X-2855076Y-23913612D01*
X-2833009Y-23924158D01*
X-2827217Y-23923830D01*
X-2815202Y-23928733D01*
X-2797394Y-23942778D01*
X-2778058Y-23957471D01*
X-2763803Y-23953979D01*
X-2749643Y-23939603D01*
X-2736288Y-23921286D01*
X-2737095Y-23914100D01*
X-2737349Y-23906102D01*
X-2723544Y-23886731D01*
X-2722493Y-23885525D01*
X-2699375Y-23853951D01*
X-2676931Y-23814820D01*
X-2658544Y-23775364D01*
X-2647596Y-23742814D01*
X-2647269Y-23724702D01*
X-2665788Y-23711612D01*
X-2671054Y-23710900D01*
X-2689909Y-23702884D01*
X-2716039Y-23683251D01*
X-2719739Y-23679902D01*
X-2743532Y-23661497D01*
X-2759378Y-23655819D01*
X-2760885Y-23656619D01*
X-2767521Y-23653615D01*
X-2768600Y-23644722D01*
X-2777649Y-23620610D01*
X-2787884Y-23609106D01*
X-2807122Y-23585337D01*
X-2827932Y-23549020D01*
X-2844159Y-23511806D01*
X-2849311Y-23492812D01*
X-2856925Y-23467638D01*
X-2859133Y-23463250D01*
X-2863655Y-23443137D01*
X-2866347Y-23406721D01*
X-2867290Y-23361259D01*
X-2866562Y-23314008D01*
X-2864242Y-23272226D01*
X-2860410Y-23243167D01*
X-2856637Y-23234118D01*
X-2846727Y-23216856D01*
X-2843871Y-23198976D01*
X-2832092Y-23155366D01*
X-2803872Y-23111326D01*
X-2765881Y-23076961D01*
X-2761585Y-23074319D01*
X-2728124Y-23061080D01*
X-2687338Y-23053328D01*
X-2647971Y-23051689D01*
X-2618765Y-23056792D01*
X-2609721Y-23063408D01*
X-2594998Y-23071050D01*
X-2590712Y-23069496D01*
X-2578496Y-23075513D01*
X-2558362Y-23098528D01*
X-2533878Y-23132885D01*
X-2508611Y-23172927D01*
X-2486130Y-23212999D01*
X-2470003Y-23247444D01*
X-2463800Y-23270607D01*
X-2463800Y-23270668D01*
X-2459414Y-23286056D01*
X-2448989Y-23313199D01*
X-2438085Y-23340421D01*
X-2432808Y-23355300D01*
X-2426776Y-23379743D01*
X-2416861Y-23416948D01*
X-2405720Y-23457274D01*
X-2396011Y-23491077D01*
X-2390790Y-23507700D01*
X-2382165Y-23535720D01*
X-2380309Y-23543617D01*
X-2372305Y-23569920D01*
X-2367620Y-23581717D01*
X-2357146Y-23611722D01*
X-2354368Y-23622901D01*
X-2335747Y-23672044D01*
X-2301386Y-23726320D01*
X-2256549Y-23780112D01*
X-2206498Y-23827802D01*
X-2156498Y-23863772D01*
X-2111810Y-23882404D01*
X-2111120Y-23882540D01*
X-2092460Y-23887042D01*
X-2089150Y-23888700D01*
X-2077840Y-23893428D01*
X-2049285Y-23898948D01*
X-2011548Y-23903885D01*
X-1987550Y-23906018D01*
X-1905101Y-23901580D01*
X-1819932Y-23878835D01*
X-1808184Y-23874187D01*
X-1779451Y-23863183D01*
X-1761883Y-23858015D01*
X-1746583Y-23848483D01*
X-1719843Y-23825152D01*
X-1686922Y-23793359D01*
X-1653079Y-23758444D01*
X-1623574Y-23725745D01*
X-1603666Y-23700600D01*
X-1599048Y-23692743D01*
X-1583767Y-23662300D01*
X-1574822Y-23647400D01*
X-1559926Y-23619057D01*
X-1543012Y-23578720D01*
X-1529199Y-23538773D01*
X-1527579Y-23533100D01*
X-1524913Y-23512790D01*
X-1521971Y-23473591D01*
X-1519191Y-23422007D01*
X-1517755Y-23387050D01*
X-1522881Y-23253263D01*
X-1522881Y-23253263D01*
G37*
X-1522881Y-23253263D02*
X-1548658Y-23134078D01*
X-1595312Y-23028997D01*
X-1663067Y-22937524D01*
X-1752150Y-22859163D01*
X-1759912Y-22853650D01*
X-1803992Y-22826065D01*
X-1831282Y-22816651D01*
X-1841437Y-22825519D01*
X-1841500Y-22827105D01*
X-1850442Y-22848980D01*
X-1860593Y-22860037D01*
X-1875718Y-22879255D01*
X-1896498Y-22913916D01*
X-1916889Y-22953395D01*
X-1938354Y-23006239D01*
X-1943022Y-23041222D01*
X-1930841Y-23059580D01*
X-1912286Y-23063200D01*
X-1890374Y-23073550D01*
X-1862291Y-23100287D01*
X-1832949Y-23136947D01*
X-1807260Y-23177064D01*
X-1790138Y-23214172D01*
X-1786430Y-23228844D01*
X-1779150Y-23254340D01*
X-1776404Y-23260050D01*
X-1769290Y-23287736D01*
X-1766788Y-23331406D01*
X-1768606Y-23382121D01*
X-1774454Y-23430945D01*
X-1783115Y-23466425D01*
X-1793166Y-23498481D01*
X-1796671Y-23517820D01*
X-1795531Y-23520400D01*
X-1799792Y-23528641D01*
X-1817700Y-23550031D01*
X-1839811Y-23574023D01*
X-1870797Y-23604607D01*
X-1895754Y-23620619D01*
X-1925226Y-23626735D01*
X-1960768Y-23627645D01*
X-2006936Y-23625155D01*
X-2038195Y-23615630D01*
X-2064449Y-23596248D01*
X-2090785Y-23567708D01*
X-2108980Y-23540979D01*
X-2109705Y-23539450D01*
X-2124099Y-23511356D01*
X-2143927Y-23476555D01*
X-2146200Y-23472775D01*
X-2160316Y-23446560D01*
X-2164563Y-23432343D01*
X-2163536Y-23431500D01*
X-2163547Y-23423744D01*
X-2169892Y-23414629D01*
X-2183460Y-23388242D01*
X-2188053Y-23370506D01*
X-2195143Y-23344613D01*
X-2201006Y-23334461D01*
X-2208143Y-23315833D01*
X-2209800Y-23298150D01*
X-2213798Y-23271775D01*
X-2219325Y-23261109D01*
X-2228915Y-23244938D01*
X-2229155Y-23243117D01*
X-2233185Y-23220631D01*
X-2242542Y-23183819D01*
X-2254438Y-23142420D01*
X-2266083Y-23106176D01*
X-2274261Y-23085598D01*
X-2284375Y-23057015D01*
X-2286000Y-23044150D01*
X-2295536Y-23011982D01*
X-2321034Y-22970338D01*
X-2357825Y-22924561D01*
X-2401238Y-22879994D01*
X-2446607Y-22841978D01*
X-2482705Y-22819070D01*
X-2563278Y-22790334D01*
X-2654495Y-22779302D01*
X-2748769Y-22785991D01*
X-2838513Y-22810419D01*
X-2856929Y-22818190D01*
X-2886642Y-22835645D01*
X-2922401Y-22862147D01*
X-2958297Y-22892525D01*
X-2988423Y-22921608D01*
X-3006871Y-22944227D01*
X-3009900Y-22952076D01*
X-3017746Y-22968267D01*
X-3034238Y-22988787D01*
X-3055695Y-23019761D01*
X-3066089Y-23044845D01*
X-3076780Y-23079677D01*
X-3088152Y-23110265D01*
X-3100524Y-23142457D01*
X-3107948Y-23164800D01*
X-3110678Y-23186743D01*
X-3113096Y-23227613D01*
X-3115067Y-23280940D01*
X-3116460Y-23340254D01*
X-3117140Y-23399082D01*
X-3116975Y-23450953D01*
X-3115831Y-23489398D01*
X-3114876Y-23501350D01*
X-3109103Y-23535471D01*
X-3102685Y-23558500D01*
X-3093467Y-23586359D01*
X-3091498Y-23594496D01*
X-3082047Y-23621737D01*
X-3064320Y-23660217D01*
X-3042691Y-23701638D01*
X-3021535Y-23737699D01*
X-3005225Y-23760098D01*
X-3003258Y-23761943D01*
X-2987337Y-23782463D01*
X-2984500Y-23792965D01*
X-2975447Y-23810027D01*
X-2952165Y-23835459D01*
X-2920467Y-23864425D01*
X-2886166Y-23892088D01*
X-2855076Y-23913612D01*
X-2833009Y-23924158D01*
X-2827217Y-23923830D01*
X-2815202Y-23928733D01*
X-2797394Y-23942778D01*
X-2778058Y-23957471D01*
X-2763803Y-23953979D01*
X-2749643Y-23939603D01*
X-2736288Y-23921286D01*
X-2737095Y-23914100D01*
X-2737349Y-23906102D01*
X-2723544Y-23886731D01*
X-2722493Y-23885525D01*
X-2699375Y-23853951D01*
X-2676931Y-23814820D01*
X-2658544Y-23775364D01*
X-2647596Y-23742814D01*
X-2647269Y-23724702D01*
X-2665788Y-23711612D01*
X-2671054Y-23710900D01*
X-2689909Y-23702884D01*
X-2716039Y-23683251D01*
X-2719739Y-23679902D01*
X-2743532Y-23661497D01*
X-2759378Y-23655819D01*
X-2760885Y-23656619D01*
X-2767521Y-23653615D01*
X-2768600Y-23644722D01*
X-2777649Y-23620610D01*
X-2787884Y-23609106D01*
X-2807122Y-23585337D01*
X-2827932Y-23549020D01*
X-2844159Y-23511806D01*
X-2849311Y-23492812D01*
X-2856925Y-23467638D01*
X-2859133Y-23463250D01*
X-2863655Y-23443137D01*
X-2866347Y-23406721D01*
X-2867290Y-23361259D01*
X-2866562Y-23314008D01*
X-2864242Y-23272226D01*
X-2860410Y-23243167D01*
X-2856637Y-23234118D01*
X-2846727Y-23216856D01*
X-2843871Y-23198976D01*
X-2832092Y-23155366D01*
X-2803872Y-23111326D01*
X-2765881Y-23076961D01*
X-2761585Y-23074319D01*
X-2728124Y-23061080D01*
X-2687338Y-23053328D01*
X-2647971Y-23051689D01*
X-2618765Y-23056792D01*
X-2609721Y-23063408D01*
X-2594998Y-23071050D01*
X-2590712Y-23069496D01*
X-2578496Y-23075513D01*
X-2558362Y-23098528D01*
X-2533878Y-23132885D01*
X-2508611Y-23172927D01*
X-2486130Y-23212999D01*
X-2470003Y-23247444D01*
X-2463800Y-23270607D01*
X-2463800Y-23270668D01*
X-2459414Y-23286056D01*
X-2448989Y-23313199D01*
X-2438085Y-23340421D01*
X-2432808Y-23355300D01*
X-2426776Y-23379743D01*
X-2416861Y-23416948D01*
X-2405720Y-23457274D01*
X-2396011Y-23491077D01*
X-2390790Y-23507700D01*
X-2382165Y-23535720D01*
X-2380309Y-23543617D01*
X-2372305Y-23569920D01*
X-2367620Y-23581717D01*
X-2357146Y-23611722D01*
X-2354368Y-23622901D01*
X-2335747Y-23672044D01*
X-2301386Y-23726320D01*
X-2256549Y-23780112D01*
X-2206498Y-23827802D01*
X-2156498Y-23863772D01*
X-2111810Y-23882404D01*
X-2111120Y-23882540D01*
X-2092460Y-23887042D01*
X-2089150Y-23888700D01*
X-2077840Y-23893428D01*
X-2049285Y-23898948D01*
X-2011548Y-23903885D01*
X-1987550Y-23906018D01*
X-1905101Y-23901580D01*
X-1819932Y-23878835D01*
X-1808184Y-23874187D01*
X-1779451Y-23863183D01*
X-1761883Y-23858015D01*
X-1746583Y-23848483D01*
X-1719843Y-23825152D01*
X-1686922Y-23793359D01*
X-1653079Y-23758444D01*
X-1623574Y-23725745D01*
X-1603666Y-23700600D01*
X-1599048Y-23692743D01*
X-1583767Y-23662300D01*
X-1574822Y-23647400D01*
X-1559926Y-23619057D01*
X-1543012Y-23578720D01*
X-1529199Y-23538773D01*
X-1527579Y-23533100D01*
X-1524913Y-23512790D01*
X-1521971Y-23473591D01*
X-1519191Y-23422007D01*
X-1517755Y-23387050D01*
X-1522881Y-23253263D01*
G36*
X-1155700Y-32244412D02*
X-1157287Y-32321056D01*
X-1158854Y-32371824D01*
X-1161409Y-32403607D01*
X-1165608Y-32422816D01*
X-1168400Y-32429450D01*
X-1174208Y-32446413D01*
X-1174750Y-32448500D01*
X-1180558Y-32466387D01*
X-1181100Y-32467550D01*
X-1185564Y-32484709D01*
X-1185862Y-32486890D01*
X-1195048Y-32502264D01*
X-1217270Y-32528940D01*
X-1241536Y-32554763D01*
X-1297568Y-32600398D01*
X-1361493Y-32628999D01*
X-1439484Y-32642937D01*
X-1476375Y-32644947D01*
X-1549400Y-32646948D01*
X-1549400Y-32245300D01*
X-1802755Y-32245300D01*
X-1806252Y-32445325D01*
X-1809750Y-32645350D01*
X-3086100Y-32645224D01*
X-3086100Y-32918400D01*
X-1803400Y-32918400D01*
X-1803400Y-33159700D01*
X-1549400Y-33159700D01*
X-1549400Y-32921981D01*
X-1444625Y-32914523D01*
X-1374198Y-32908769D01*
X-1321583Y-32902030D01*
X-1279201Y-32892614D01*
X-1239473Y-32878829D01*
X-1194822Y-32858980D01*
X-1193800Y-32858497D01*
X-1156011Y-32836831D01*
X-1113007Y-32806441D01*
X-1069890Y-32771728D01*
X-1031765Y-32737094D01*
X-1003734Y-32706941D01*
X-990902Y-32685669D01*
X-990600Y-32683249D01*
X-982457Y-32663094D01*
X-974725Y-32653605D01*
X-960443Y-32635400D01*
X-957785Y-32628840D01*
X-952367Y-32612049D01*
X-940696Y-32583531D01*
X-939959Y-32581850D01*
X-926960Y-32549258D01*
X-919353Y-32524700D01*
X-909674Y-32465052D01*
X-901694Y-32395120D01*
X-897055Y-32330021D01*
X-896587Y-32315150D01*
X-895350Y-32251650D01*
X-1155700Y-32244412D01*
X-1155700Y-32244412D01*
G37*
X-1155700Y-32244412D02*
X-1157287Y-32321056D01*
X-1158854Y-32371824D01*
X-1161409Y-32403607D01*
X-1165608Y-32422816D01*
X-1168400Y-32429450D01*
X-1174208Y-32446413D01*
X-1174750Y-32448500D01*
X-1180558Y-32466387D01*
X-1181100Y-32467550D01*
X-1185564Y-32484709D01*
X-1185862Y-32486890D01*
X-1195048Y-32502264D01*
X-1217270Y-32528940D01*
X-1241536Y-32554763D01*
X-1297568Y-32600398D01*
X-1361493Y-32628999D01*
X-1439484Y-32642937D01*
X-1476375Y-32644947D01*
X-1549400Y-32646948D01*
X-1549400Y-32245300D01*
X-1802755Y-32245300D01*
X-1806252Y-32445325D01*
X-1809750Y-32645350D01*
X-3086100Y-32645224D01*
X-3086100Y-32918400D01*
X-1803400Y-32918400D01*
X-1803400Y-33159700D01*
X-1549400Y-33159700D01*
X-1549400Y-32921981D01*
X-1444625Y-32914523D01*
X-1374198Y-32908769D01*
X-1321583Y-32902030D01*
X-1279201Y-32892614D01*
X-1239473Y-32878829D01*
X-1194822Y-32858980D01*
X-1193800Y-32858497D01*
X-1156011Y-32836831D01*
X-1113007Y-32806441D01*
X-1069890Y-32771728D01*
X-1031765Y-32737094D01*
X-1003734Y-32706941D01*
X-990902Y-32685669D01*
X-990600Y-32683249D01*
X-982457Y-32663094D01*
X-974725Y-32653605D01*
X-960443Y-32635400D01*
X-957785Y-32628840D01*
X-952367Y-32612049D01*
X-940696Y-32583531D01*
X-939959Y-32581850D01*
X-926960Y-32549258D01*
X-919353Y-32524700D01*
X-909674Y-32465052D01*
X-901694Y-32395120D01*
X-897055Y-32330021D01*
X-896587Y-32315150D01*
X-895350Y-32251650D01*
X-1155700Y-32244412D01*
G36*
X-1655638Y-31298987D02*
X-1711203Y-31299746D01*
X-1756714Y-31301455D01*
X-1786575Y-31303839D01*
X-1795316Y-31305883D01*
X-1800327Y-31321243D01*
X-1805948Y-31353262D01*
X-1808778Y-31375598D01*
X-1814727Y-31424442D01*
X-1820846Y-31458093D01*
X-1829407Y-31486671D01*
X-1839548Y-31512702D01*
X-1849901Y-31539480D01*
X-1854200Y-31553606D01*
X-1860909Y-31565947D01*
X-1878213Y-31592369D01*
X-1894971Y-31616601D01*
X-1923446Y-31650411D01*
X-1958750Y-31683471D01*
X-1994171Y-31710358D01*
X-2022992Y-31725647D01*
X-2032000Y-31727298D01*
X-2047058Y-31732428D01*
X-2061688Y-31739596D01*
X-2092544Y-31751769D01*
X-2118838Y-31758603D01*
X-2151661Y-31765108D01*
X-2171700Y-31769288D01*
X-2188473Y-31770286D01*
X-2227618Y-31771253D01*
X-2286106Y-31772155D01*
X-2360908Y-31772961D01*
X-2448996Y-31773635D01*
X-2547342Y-31774145D01*
X-2638425Y-31774429D01*
X-3086100Y-31775400D01*
X-3086100Y-32042100D01*
X-1549400Y-32042100D01*
X-1549400Y-31775400D01*
X-1670799Y-31775400D01*
X-1732231Y-31774145D01*
X-1770482Y-31770451D01*
X-1784612Y-31764425D01*
X-1784221Y-31762493D01*
X-1770464Y-31754236D01*
X-1766734Y-31755464D01*
X-1752195Y-31751583D01*
X-1728461Y-31734499D01*
X-1723162Y-31729757D01*
X-1701251Y-31711273D01*
X-1689653Y-31705062D01*
X-1689099Y-31705944D01*
X-1683092Y-31705718D01*
X-1664549Y-31686544D01*
X-1632688Y-31647573D01*
X-1618198Y-31629037D01*
X-1581848Y-31568819D01*
X-1551784Y-31493902D01*
X-1531679Y-31414851D01*
X-1525480Y-31362352D01*
X-1522422Y-31298553D01*
X-1655638Y-31298987D01*
X-1655638Y-31298987D01*
G37*
X-1655638Y-31298987D02*
X-1711203Y-31299746D01*
X-1756714Y-31301455D01*
X-1786575Y-31303839D01*
X-1795316Y-31305883D01*
X-1800327Y-31321243D01*
X-1805948Y-31353262D01*
X-1808778Y-31375598D01*
X-1814727Y-31424442D01*
X-1820846Y-31458093D01*
X-1829407Y-31486671D01*
X-1839548Y-31512702D01*
X-1849901Y-31539480D01*
X-1854200Y-31553606D01*
X-1860909Y-31565947D01*
X-1878213Y-31592369D01*
X-1894971Y-31616601D01*
X-1923446Y-31650411D01*
X-1958750Y-31683471D01*
X-1994171Y-31710358D01*
X-2022992Y-31725647D01*
X-2032000Y-31727298D01*
X-2047058Y-31732428D01*
X-2061688Y-31739596D01*
X-2092544Y-31751769D01*
X-2118838Y-31758603D01*
X-2151661Y-31765108D01*
X-2171700Y-31769288D01*
X-2188473Y-31770286D01*
X-2227618Y-31771253D01*
X-2286106Y-31772155D01*
X-2360908Y-31772961D01*
X-2448996Y-31773635D01*
X-2547342Y-31774145D01*
X-2638425Y-31774429D01*
X-3086100Y-31775400D01*
X-3086100Y-32042100D01*
X-1549400Y-32042100D01*
X-1549400Y-31775400D01*
X-1670799Y-31775400D01*
X-1732231Y-31774145D01*
X-1770482Y-31770451D01*
X-1784612Y-31764425D01*
X-1784221Y-31762493D01*
X-1770464Y-31754236D01*
X-1766734Y-31755464D01*
X-1752195Y-31751583D01*
X-1728461Y-31734499D01*
X-1723162Y-31729757D01*
X-1701251Y-31711273D01*
X-1689653Y-31705062D01*
X-1689099Y-31705944D01*
X-1683092Y-31705718D01*
X-1664549Y-31686544D01*
X-1632688Y-31647573D01*
X-1618198Y-31629037D01*
X-1581848Y-31568819D01*
X-1551784Y-31493902D01*
X-1531679Y-31414851D01*
X-1525480Y-31362352D01*
X-1522422Y-31298553D01*
X-1655638Y-31298987D01*
G36*
X-3086100Y-30772100D02*
X-3086100Y-31045203D01*
X-1549400Y-31045203D01*
X-1549400Y-30772100D01*
X-3086100Y-30772100D01*
X-3086100Y-30772100D01*
G37*
X-3086100Y-30772100D02*
X-3086100Y-31045203D01*
X-1549400Y-31045203D01*
X-1549400Y-30772100D01*
X-3086100Y-30772100D01*
G36*
X-1638472Y-29260800D02*
X-1699906Y-29263610D01*
X-1745623Y-29273947D01*
X-1784875Y-29294670D01*
X-1809750Y-29313764D01*
X-1833956Y-29332488D01*
X-1873293Y-29361343D01*
X-1921904Y-29396155D01*
X-1973932Y-29432750D01*
X-2023519Y-29466952D01*
X-2045846Y-29482038D01*
X-2079892Y-29506446D01*
X-2107680Y-29529071D01*
X-2112521Y-29533637D01*
X-2128493Y-29546615D01*
X-2133600Y-29546142D01*
X-2141992Y-29548535D01*
X-2163366Y-29564209D01*
X-2178491Y-29576985D01*
X-2206871Y-29600321D01*
X-2227536Y-29614460D01*
X-2232596Y-29616400D01*
X-2247094Y-29624268D01*
X-2271130Y-29643690D01*
X-2276604Y-29648664D01*
X-2298755Y-29667076D01*
X-2310717Y-29672876D01*
X-2311400Y-29671688D01*
X-2319362Y-29673681D01*
X-2339393Y-29689600D01*
X-2349500Y-29698950D01*
X-2372737Y-29719256D01*
X-2386228Y-29727256D01*
X-2387600Y-29726083D01*
X-2395692Y-29728112D01*
X-2416196Y-29743970D01*
X-2428875Y-29755398D01*
X-2457027Y-29778995D01*
X-2479164Y-29792726D01*
X-2484469Y-29794142D01*
X-2503615Y-29803036D01*
X-2515639Y-29814503D01*
X-2533956Y-29831145D01*
X-2566996Y-29856599D01*
X-2608182Y-29885842D01*
X-2615619Y-29890895D01*
X-2665417Y-29925162D01*
X-2715890Y-29960966D01*
X-2755900Y-29990399D01*
X-2788747Y-30014302D01*
X-2813541Y-30030429D01*
X-2822575Y-30034657D01*
X-2824895Y-30022671D01*
X-2827011Y-29988293D01*
X-2828852Y-29934531D01*
X-2830346Y-29864393D01*
X-2831423Y-29780887D01*
X-2832010Y-29687020D01*
X-2832100Y-29631949D01*
X-2832100Y-29228397D01*
X-2955925Y-29228886D01*
X-3079750Y-29229376D01*
X-3083048Y-29820176D01*
X-3086347Y-30410977D01*
X-2994148Y-30410135D01*
X-2931401Y-30406432D01*
X-2882862Y-30394033D01*
X-2838618Y-30368995D01*
X-2790825Y-30329261D01*
X-2768603Y-30311574D01*
X-2756591Y-30306983D01*
X-2755900Y-30308550D01*
X-2747852Y-30308320D01*
X-2727841Y-30293986D01*
X-2720975Y-30287974D01*
X-2686795Y-30259893D01*
X-2646648Y-30230700D01*
X-2638511Y-30225273D01*
X-2609804Y-30204608D01*
X-2592839Y-30188665D01*
X-2590886Y-30184725D01*
X-2580902Y-30175600D01*
X-2576933Y-30175200D01*
X-2560709Y-30169488D01*
X-2532476Y-30151231D01*
X-2489850Y-30118752D01*
X-2444283Y-30081810D01*
X-2418254Y-30062116D01*
X-2402475Y-30053559D01*
X-2400300Y-30054550D01*
X-2391713Y-30052791D01*
X-2369948Y-30038079D01*
X-2356316Y-30027291D01*
X-2300596Y-29982352D01*
X-2261155Y-29952965D01*
X-2235612Y-29937451D01*
X-2223666Y-29933900D01*
X-2210319Y-29927100D01*
X-2209713Y-29924375D01*
X-2199963Y-29912299D01*
X-2175470Y-29892945D01*
X-2162088Y-29883828D01*
X-2122757Y-29856015D01*
X-2085890Y-29826651D01*
X-2079625Y-29821127D01*
X-2057386Y-29803513D01*
X-2045382Y-29798987D01*
X-2044700Y-29800550D01*
X-2036652Y-29800320D01*
X-2016641Y-29785986D01*
X-2009775Y-29779974D01*
X-1975595Y-29751893D01*
X-1935448Y-29722700D01*
X-1927311Y-29717273D01*
X-1898604Y-29696608D01*
X-1881639Y-29680665D01*
X-1879686Y-29676725D01*
X-1869599Y-29667728D01*
X-1864725Y-29667200D01*
X-1844468Y-29659345D01*
X-1826625Y-29646182D01*
X-1819995Y-29641082D01*
X-1814763Y-29640832D01*
X-1810763Y-29647964D01*
X-1807831Y-29665007D01*
X-1805802Y-29694492D01*
X-1804509Y-29738949D01*
X-1803788Y-29800908D01*
X-1803473Y-29882900D01*
X-1803400Y-29987455D01*
X-1803400Y-30378400D01*
X-1549400Y-30378400D01*
X-1549400Y-29260800D01*
X-1638472Y-29260800D01*
X-1638472Y-29260800D01*
G37*
X-1638472Y-29260800D02*
X-1699906Y-29263610D01*
X-1745623Y-29273947D01*
X-1784875Y-29294670D01*
X-1809750Y-29313764D01*
X-1833956Y-29332488D01*
X-1873293Y-29361343D01*
X-1921904Y-29396155D01*
X-1973932Y-29432750D01*
X-2023519Y-29466952D01*
X-2045846Y-29482038D01*
X-2079892Y-29506446D01*
X-2107680Y-29529071D01*
X-2112521Y-29533637D01*
X-2128493Y-29546615D01*
X-2133600Y-29546142D01*
X-2141992Y-29548535D01*
X-2163366Y-29564209D01*
X-2178491Y-29576985D01*
X-2206871Y-29600321D01*
X-2227536Y-29614460D01*
X-2232596Y-29616400D01*
X-2247094Y-29624268D01*
X-2271130Y-29643690D01*
X-2276604Y-29648664D01*
X-2298755Y-29667076D01*
X-2310717Y-29672876D01*
X-2311400Y-29671688D01*
X-2319362Y-29673681D01*
X-2339393Y-29689600D01*
X-2349500Y-29698950D01*
X-2372737Y-29719256D01*
X-2386228Y-29727256D01*
X-2387600Y-29726083D01*
X-2395692Y-29728112D01*
X-2416196Y-29743970D01*
X-2428875Y-29755398D01*
X-2457027Y-29778995D01*
X-2479164Y-29792726D01*
X-2484469Y-29794142D01*
X-2503615Y-29803036D01*
X-2515639Y-29814503D01*
X-2533956Y-29831145D01*
X-2566996Y-29856599D01*
X-2608182Y-29885842D01*
X-2615619Y-29890895D01*
X-2665417Y-29925162D01*
X-2715890Y-29960966D01*
X-2755900Y-29990399D01*
X-2788747Y-30014302D01*
X-2813541Y-30030429D01*
X-2822575Y-30034657D01*
X-2824895Y-30022671D01*
X-2827011Y-29988293D01*
X-2828852Y-29934531D01*
X-2830346Y-29864393D01*
X-2831423Y-29780887D01*
X-2832010Y-29687020D01*
X-2832100Y-29631949D01*
X-2832100Y-29228397D01*
X-2955925Y-29228886D01*
X-3079750Y-29229376D01*
X-3083048Y-29820176D01*
X-3086347Y-30410977D01*
X-2994148Y-30410135D01*
X-2931401Y-30406432D01*
X-2882862Y-30394033D01*
X-2838618Y-30368995D01*
X-2790825Y-30329261D01*
X-2768603Y-30311574D01*
X-2756591Y-30306983D01*
X-2755900Y-30308550D01*
X-2747852Y-30308320D01*
X-2727841Y-30293986D01*
X-2720975Y-30287974D01*
X-2686795Y-30259893D01*
X-2646648Y-30230700D01*
X-2638511Y-30225273D01*
X-2609804Y-30204608D01*
X-2592839Y-30188665D01*
X-2590886Y-30184725D01*
X-2580902Y-30175600D01*
X-2576933Y-30175200D01*
X-2560709Y-30169488D01*
X-2532476Y-30151231D01*
X-2489850Y-30118752D01*
X-2444283Y-30081810D01*
X-2418254Y-30062116D01*
X-2402475Y-30053559D01*
X-2400300Y-30054550D01*
X-2391713Y-30052791D01*
X-2369948Y-30038079D01*
X-2356316Y-30027291D01*
X-2300596Y-29982352D01*
X-2261155Y-29952965D01*
X-2235612Y-29937451D01*
X-2223666Y-29933900D01*
X-2210319Y-29927100D01*
X-2209713Y-29924375D01*
X-2199963Y-29912299D01*
X-2175470Y-29892945D01*
X-2162088Y-29883828D01*
X-2122757Y-29856015D01*
X-2085890Y-29826651D01*
X-2079625Y-29821127D01*
X-2057386Y-29803513D01*
X-2045382Y-29798987D01*
X-2044700Y-29800550D01*
X-2036652Y-29800320D01*
X-2016641Y-29785986D01*
X-2009775Y-29779974D01*
X-1975595Y-29751893D01*
X-1935448Y-29722700D01*
X-1927311Y-29717273D01*
X-1898604Y-29696608D01*
X-1881639Y-29680665D01*
X-1879686Y-29676725D01*
X-1869599Y-29667728D01*
X-1864725Y-29667200D01*
X-1844468Y-29659345D01*
X-1826625Y-29646182D01*
X-1819995Y-29641082D01*
X-1814763Y-29640832D01*
X-1810763Y-29647964D01*
X-1807831Y-29665007D01*
X-1805802Y-29694492D01*
X-1804509Y-29738949D01*
X-1803788Y-29800908D01*
X-1803473Y-29882900D01*
X-1803400Y-29987455D01*
X-1803400Y-30378400D01*
X-1549400Y-30378400D01*
X-1549400Y-29260800D01*
X-1638472Y-29260800D01*
G36*
X-1640160Y-27851100D02*
X-1690977Y-27852367D01*
X-1727005Y-27858130D01*
X-1758811Y-27871336D01*
X-1796702Y-27894764D01*
X-1834537Y-27921274D01*
X-1865099Y-27945179D01*
X-1878947Y-27958264D01*
X-1899010Y-27974777D01*
X-1909730Y-27978159D01*
X-1927074Y-27986269D01*
X-1953820Y-28006604D01*
X-1965325Y-28016903D01*
X-1989798Y-28038004D01*
X-2004595Y-28047218D01*
X-2006600Y-28046218D01*
X-2014559Y-28048129D01*
X-2034584Y-28063997D01*
X-2044700Y-28073350D01*
X-2067941Y-28093686D01*
X-2081430Y-28101752D01*
X-2082800Y-28100613D01*
X-2090813Y-28102161D01*
X-2110740Y-28117462D01*
X-2117595Y-28123637D01*
X-2142549Y-28144692D01*
X-2159767Y-28155515D01*
X-2161603Y-28155900D01*
X-2175830Y-28163603D01*
X-2201369Y-28183125D01*
X-2215708Y-28195316D01*
X-2241792Y-28216798D01*
X-2257985Y-28227398D01*
X-2260600Y-28227150D01*
X-2268750Y-28228885D01*
X-2288435Y-28243558D01*
X-2289175Y-28244193D01*
X-2307130Y-28259067D01*
X-2329812Y-28276463D01*
X-2360946Y-28299066D01*
X-2404257Y-28329562D01*
X-2463470Y-28370635D01*
X-2490374Y-28389202D01*
X-2532181Y-28419042D01*
X-2566953Y-28445706D01*
X-2588277Y-28464233D01*
X-2590354Y-28466514D01*
X-2610384Y-28482891D01*
X-2620930Y-28486159D01*
X-2638274Y-28494269D01*
X-2665020Y-28514604D01*
X-2676525Y-28524903D01*
X-2700998Y-28546004D01*
X-2715795Y-28555218D01*
X-2717800Y-28554218D01*
X-2725759Y-28556129D01*
X-2745784Y-28571997D01*
X-2755900Y-28581350D01*
X-2779112Y-28601447D01*
X-2792610Y-28608987D01*
X-2794000Y-28607572D01*
X-2801768Y-28605719D01*
X-2812869Y-28612951D01*
X-2818147Y-28614917D01*
X-2822417Y-28609549D01*
X-2825816Y-28594454D01*
X-2828479Y-28567240D01*
X-2830545Y-28525516D01*
X-2832150Y-28466889D01*
X-2833429Y-28388968D01*
X-2834521Y-28289360D01*
X-2835094Y-28224142D01*
X-2838450Y-27819672D01*
X-2962275Y-27819184D01*
X-3086100Y-27818697D01*
X-3086100Y-29009490D01*
X-2986617Y-29004970D01*
X-2934573Y-29001705D01*
X-2899742Y-28995963D01*
X-2873936Y-28985183D01*
X-2848966Y-28966806D01*
X-2840125Y-28959175D01*
X-2811121Y-28935221D01*
X-2789774Y-28920328D01*
X-2783903Y-28917900D01*
X-2769405Y-28910033D01*
X-2745369Y-28890611D01*
X-2739895Y-28885637D01*
X-2717744Y-28867225D01*
X-2705782Y-28861425D01*
X-2705100Y-28862613D01*
X-2697001Y-28861180D01*
X-2676879Y-28846131D01*
X-2670175Y-28840233D01*
X-2638140Y-28814185D01*
X-2597091Y-28784501D01*
X-2578100Y-28771850D01*
X-2537236Y-28743759D01*
X-2499325Y-28714801D01*
X-2486025Y-28703468D01*
X-2463707Y-28685270D01*
X-2451741Y-28679423D01*
X-2451100Y-28680490D01*
X-2442980Y-28679512D01*
X-2423359Y-28665223D01*
X-2422525Y-28664508D01*
X-2391018Y-28638978D01*
X-2347751Y-28606871D01*
X-2289369Y-28565762D01*
X-2221919Y-28519601D01*
X-2180029Y-28490092D01*
X-2145134Y-28463534D01*
X-2123792Y-28444959D01*
X-2121939Y-28442903D01*
X-2101810Y-28426141D01*
X-2090769Y-28422542D01*
X-2073425Y-28414432D01*
X-2046679Y-28394097D01*
X-2035175Y-28383798D01*
X-2010701Y-28362697D01*
X-1995904Y-28353483D01*
X-1993900Y-28354483D01*
X-1985804Y-28353135D01*
X-1965689Y-28338137D01*
X-1958975Y-28332233D01*
X-1929049Y-28307469D01*
X-1892634Y-28280490D01*
X-1856455Y-28255885D01*
X-1827234Y-28238241D01*
X-1812242Y-28232100D01*
X-1809990Y-28244274D01*
X-1807950Y-28278690D01*
X-1806198Y-28332191D01*
X-1804807Y-28401620D01*
X-1803856Y-28483819D01*
X-1803419Y-28575632D01*
X-1803400Y-28600400D01*
X-1803400Y-28968700D01*
X-1549400Y-28968700D01*
X-1549400Y-27851100D01*
X-1640160Y-27851100D01*
X-1640160Y-27851100D01*
G37*
X-1640160Y-27851100D02*
X-1690977Y-27852367D01*
X-1727005Y-27858130D01*
X-1758811Y-27871336D01*
X-1796702Y-27894764D01*
X-1834537Y-27921274D01*
X-1865099Y-27945179D01*
X-1878947Y-27958264D01*
X-1899010Y-27974777D01*
X-1909730Y-27978159D01*
X-1927074Y-27986269D01*
X-1953820Y-28006604D01*
X-1965325Y-28016903D01*
X-1989798Y-28038004D01*
X-2004595Y-28047218D01*
X-2006600Y-28046218D01*
X-2014559Y-28048129D01*
X-2034584Y-28063997D01*
X-2044700Y-28073350D01*
X-2067941Y-28093686D01*
X-2081430Y-28101752D01*
X-2082800Y-28100613D01*
X-2090813Y-28102161D01*
X-2110740Y-28117462D01*
X-2117595Y-28123637D01*
X-2142549Y-28144692D01*
X-2159767Y-28155515D01*
X-2161603Y-28155900D01*
X-2175830Y-28163603D01*
X-2201369Y-28183125D01*
X-2215708Y-28195316D01*
X-2241792Y-28216798D01*
X-2257985Y-28227398D01*
X-2260600Y-28227150D01*
X-2268750Y-28228885D01*
X-2288435Y-28243558D01*
X-2289175Y-28244193D01*
X-2307130Y-28259067D01*
X-2329812Y-28276463D01*
X-2360946Y-28299066D01*
X-2404257Y-28329562D01*
X-2463470Y-28370635D01*
X-2490374Y-28389202D01*
X-2532181Y-28419042D01*
X-2566953Y-28445706D01*
X-2588277Y-28464233D01*
X-2590354Y-28466514D01*
X-2610384Y-28482891D01*
X-2620930Y-28486159D01*
X-2638274Y-28494269D01*
X-2665020Y-28514604D01*
X-2676525Y-28524903D01*
X-2700998Y-28546004D01*
X-2715795Y-28555218D01*
X-2717800Y-28554218D01*
X-2725759Y-28556129D01*
X-2745784Y-28571997D01*
X-2755900Y-28581350D01*
X-2779112Y-28601447D01*
X-2792610Y-28608987D01*
X-2794000Y-28607572D01*
X-2801768Y-28605719D01*
X-2812869Y-28612951D01*
X-2818147Y-28614917D01*
X-2822417Y-28609549D01*
X-2825816Y-28594454D01*
X-2828479Y-28567240D01*
X-2830545Y-28525516D01*
X-2832150Y-28466889D01*
X-2833429Y-28388968D01*
X-2834521Y-28289360D01*
X-2835094Y-28224142D01*
X-2838450Y-27819672D01*
X-2962275Y-27819184D01*
X-3086100Y-27818697D01*
X-3086100Y-29009490D01*
X-2986617Y-29004970D01*
X-2934573Y-29001705D01*
X-2899742Y-28995963D01*
X-2873936Y-28985183D01*
X-2848966Y-28966806D01*
X-2840125Y-28959175D01*
X-2811121Y-28935221D01*
X-2789774Y-28920328D01*
X-2783903Y-28917900D01*
X-2769405Y-28910033D01*
X-2745369Y-28890611D01*
X-2739895Y-28885637D01*
X-2717744Y-28867225D01*
X-2705782Y-28861425D01*
X-2705100Y-28862613D01*
X-2697001Y-28861180D01*
X-2676879Y-28846131D01*
X-2670175Y-28840233D01*
X-2638140Y-28814185D01*
X-2597091Y-28784501D01*
X-2578100Y-28771850D01*
X-2537236Y-28743759D01*
X-2499325Y-28714801D01*
X-2486025Y-28703468D01*
X-2463707Y-28685270D01*
X-2451741Y-28679423D01*
X-2451100Y-28680490D01*
X-2442980Y-28679512D01*
X-2423359Y-28665223D01*
X-2422525Y-28664508D01*
X-2391018Y-28638978D01*
X-2347751Y-28606871D01*
X-2289369Y-28565762D01*
X-2221919Y-28519601D01*
X-2180029Y-28490092D01*
X-2145134Y-28463534D01*
X-2123792Y-28444959D01*
X-2121939Y-28442903D01*
X-2101810Y-28426141D01*
X-2090769Y-28422542D01*
X-2073425Y-28414432D01*
X-2046679Y-28394097D01*
X-2035175Y-28383798D01*
X-2010701Y-28362697D01*
X-1995904Y-28353483D01*
X-1993900Y-28354483D01*
X-1985804Y-28353135D01*
X-1965689Y-28338137D01*
X-1958975Y-28332233D01*
X-1929049Y-28307469D01*
X-1892634Y-28280490D01*
X-1856455Y-28255885D01*
X-1827234Y-28238241D01*
X-1812242Y-28232100D01*
X-1809990Y-28244274D01*
X-1807950Y-28278690D01*
X-1806198Y-28332191D01*
X-1804807Y-28401620D01*
X-1803856Y-28483819D01*
X-1803419Y-28575632D01*
X-1803400Y-28600400D01*
X-1803400Y-28968700D01*
X-1549400Y-28968700D01*
X-1549400Y-27851100D01*
X-1640160Y-27851100D01*
G36*
X-3003550Y-23774400D02*
X-3009900Y-23780750D01*
X-3003550Y-23787100D01*
X-2997200Y-23780750D01*
X-3003550Y-23774400D01*
X-3003550Y-23774400D01*
G37*
X-3003550Y-23774400D02*
X-3009900Y-23780750D01*
X-3003550Y-23787100D01*
X-2997200Y-23780750D01*
X-3003550Y-23774400D01*
G36*
X-2698750Y-24282400D02*
X-2705100Y-24288750D01*
X-2698750Y-24295100D01*
X-2692400Y-24288750D01*
X-2698750Y-24282400D01*
X-2698750Y-24282400D01*
G37*
X-2698750Y-24282400D02*
X-2705100Y-24288750D01*
X-2698750Y-24295100D01*
X-2692400Y-24288750D01*
X-2698750Y-24282400D01*
G36*
X-1581150Y-23672800D02*
X-1587500Y-23679150D01*
X-1581150Y-23685500D01*
X-1574800Y-23679150D01*
X-1581150Y-23672800D01*
X-1581150Y-23672800D01*
G37*
X-1581150Y-23672800D02*
X-1587500Y-23679150D01*
X-1581150Y-23685500D01*
X-1574800Y-23679150D01*
X-1581150Y-23672800D01*
G36*
X-919242Y-30863536D02*
X-927535Y-30835403D01*
X-947273Y-30808241D01*
X-968604Y-30785867D01*
X-1002067Y-30754300D01*
X-1028891Y-30737658D01*
X-1058967Y-30731579D01*
X-1092200Y-30731398D01*
X-1142548Y-30735220D01*
X-1177714Y-30745927D01*
X-1207735Y-30767390D01*
X-1222179Y-30781524D01*
X-1247880Y-30812442D01*
X-1260508Y-30843490D01*
X-1264874Y-30886858D01*
X-1264973Y-30889936D01*
X-1264946Y-30931621D01*
X-1262671Y-30964516D01*
X-1260573Y-30975300D01*
X-1239870Y-31009369D01*
X-1204719Y-31044411D01*
X-1164433Y-31072430D01*
X-1133061Y-31084762D01*
X-1096978Y-31086534D01*
X-1056844Y-31081407D01*
X-1020626Y-31071388D01*
X-996294Y-31058485D01*
X-990600Y-31048874D01*
X-985640Y-31040543D01*
X-982738Y-31042429D01*
X-968987Y-31041486D01*
X-960513Y-31034530D01*
X-933603Y-30994950D01*
X-920395Y-30946513D01*
X-917763Y-30903342D01*
X-919242Y-30863536D01*
X-919242Y-30863536D01*
G37*
X-919242Y-30863536D02*
X-927535Y-30835403D01*
X-947273Y-30808241D01*
X-968604Y-30785867D01*
X-1002067Y-30754300D01*
X-1028891Y-30737658D01*
X-1058967Y-30731579D01*
X-1092200Y-30731398D01*
X-1142548Y-30735220D01*
X-1177714Y-30745927D01*
X-1207735Y-30767390D01*
X-1222179Y-30781524D01*
X-1247880Y-30812442D01*
X-1260508Y-30843490D01*
X-1264874Y-30886858D01*
X-1264973Y-30889936D01*
X-1264946Y-30931621D01*
X-1262671Y-30964516D01*
X-1260573Y-30975300D01*
X-1239870Y-31009369D01*
X-1204719Y-31044411D01*
X-1164433Y-31072430D01*
X-1133061Y-31084762D01*
X-1096978Y-31086534D01*
X-1056844Y-31081407D01*
X-1020626Y-31071388D01*
X-996294Y-31058485D01*
X-990600Y-31048874D01*
X-985640Y-31040543D01*
X-982738Y-31042429D01*
X-968987Y-31041486D01*
X-960513Y-31034530D01*
X-933603Y-30994950D01*
X-920395Y-30946513D01*
X-917763Y-30903342D01*
X-919242Y-30863536D01*
D14*
X-25994000Y-25538000D02*
X-25994000Y-23738000D01*
X-22774000Y-23738000D02*
X-22774000Y-26188000D01*
D15*
X-18643000Y-20421000D02*
X-18643000Y-20296000D01*
X-15393000Y-20421000D02*
X-15393000Y-20196000D01*
X-15393000Y-17171000D02*
X-15393000Y-17396000D01*
X-18643000Y-17171000D02*
X-18643000Y-17396000D01*
X-18643000Y-20421000D02*
X-15393000Y-20421000D01*
X-18643000Y-17171000D02*
X-15393000Y-17171000D01*
X-18643000Y-20296000D02*
X-19718000Y-20296000D01*
D14*
X-12030000Y-20224000D02*
X-12030000Y-20924000D01*
X-10830000Y-20924000D02*
X-10830000Y-20224000D01*
X-25746000Y-20351000D02*
X-25746000Y-21051000D01*
X-24546000Y-21051000D02*
X-24546000Y-20351000D01*
X-23460000Y-20351000D02*
X-23460000Y-21051000D01*
X-22260000Y-21051000D02*
X-22260000Y-20351000D01*
X-4099000Y-26893000D02*
X-4099000Y-26193000D01*
X-5299000Y-26193000D02*
X-5299000Y-26893000D01*
X-5750000Y-20924000D02*
X-5750000Y-20224000D01*
X-6950000Y-20224000D02*
X-6950000Y-20924000D01*
X-4099000Y-20924000D02*
X-4099000Y-20224000D01*
X-5299000Y-20224000D02*
X-5299000Y-20924000D01*
X-2448000Y-20924000D02*
X-2448000Y-20224000D01*
X-3648000Y-20224000D02*
X-3648000Y-20924000D01*
X-3968000Y-17434000D02*
X-4668000Y-17434000D01*
X-4668000Y-18634000D02*
X-3968000Y-18634000D01*
X-7016000Y-17434000D02*
X-7716000Y-17434000D01*
X-7716000Y-18634000D02*
X-7016000Y-18634000D01*
X-21940000Y-18634000D02*
X-21240000Y-18634000D01*
X-21240000Y-17434000D02*
X-21940000Y-17434000D01*
D15*
X-15867000Y-22392000D02*
X-14867000Y-22392000D01*
X-14867000Y-21042000D02*
X-15867000Y-21042000D01*
X-10454000Y-20074000D02*
X-10454000Y-21074000D01*
X-9104000Y-21074000D02*
X-9104000Y-20074000D01*
X-13756000Y-20074000D02*
X-13756000Y-21074000D01*
X-12406000Y-21074000D02*
X-12406000Y-20074000D01*
X-5374000Y-23122000D02*
X-5374000Y-24122000D01*
X-4024000Y-24122000D02*
X-4024000Y-23122000D01*
X-17661000Y-21042000D02*
X-18661000Y-21042000D01*
X-18661000Y-22392000D02*
X-17661000Y-22392000D01*
X-5802000Y-24122000D02*
X-5802000Y-23122000D01*
X-7152000Y-23122000D02*
X-7152000Y-24122000D01*
X-8676000Y-20074000D02*
X-8676000Y-21074000D01*
X-7326000Y-21074000D02*
X-7326000Y-20074000D01*
X-25011000Y-18709000D02*
X-24011000Y-18709000D01*
X-24011000Y-17359000D02*
X-25011000Y-17359000D01*
D13*
G36*
X-24674576Y-27810688D02*
X-24704713Y-27811477D01*
X-24728319Y-27813186D01*
X-24748477Y-27816155D01*
X-24768271Y-27820725D01*
X-24790784Y-27827236D01*
X-24793183Y-27827970D01*
X-24876960Y-27860226D01*
X-24958681Y-27904848D01*
X-25038215Y-27961652D01*
X-25115431Y-28030452D01*
X-25190199Y-28111061D01*
X-25262388Y-28203294D01*
X-25331868Y-28306966D01*
X-25398507Y-28421889D01*
X-25462176Y-28547879D01*
X-25522743Y-28684749D01*
X-25580078Y-28832313D01*
X-25634050Y-28990386D01*
X-25653065Y-29051250D01*
X-25663767Y-29085363D01*
X-25673546Y-29114719D01*
X-25681707Y-29137375D01*
X-25687557Y-29151388D01*
X-25690148Y-29155065D01*
X-25697709Y-29153390D01*
X-25715577Y-29149327D01*
X-25741688Y-29143347D01*
X-25773975Y-29135923D01*
X-25807432Y-29128208D01*
X-25991866Y-29089631D01*
X-26171290Y-29060143D01*
X-26246131Y-29050383D01*
X-26296436Y-29045377D01*
X-26354115Y-29041351D01*
X-26416690Y-29038337D01*
X-26481685Y-29036368D01*
X-26546622Y-29035476D01*
X-26609025Y-29035693D01*
X-26666415Y-29037052D01*
X-26716315Y-29039585D01*
X-26756249Y-29043325D01*
X-26758900Y-29043672D01*
X-26871463Y-29062498D01*
X-26973284Y-29087387D01*
X-27064894Y-29118560D01*
X-27146828Y-29156241D01*
X-27219620Y-29200649D01*
X-27283802Y-29252009D01*
X-27302525Y-29269864D01*
X-27357608Y-29333139D01*
X-27401518Y-29402045D01*
X-27434333Y-29476322D01*
X-27456132Y-29555711D01*
X-27466991Y-29639952D01*
X-27466990Y-29728786D01*
X-27456207Y-29821953D01*
X-27434720Y-29919193D01*
X-27402606Y-30020247D01*
X-27359945Y-30124856D01*
X-27306815Y-30232760D01*
X-27243293Y-30343700D01*
X-27169458Y-30457415D01*
X-27085389Y-30573647D01*
X-26991162Y-30692136D01*
X-26886857Y-30812622D01*
X-26813883Y-30891683D01*
X-26789489Y-30917743D01*
X-26768480Y-30940677D01*
X-26752288Y-30958883D01*
X-26742345Y-30970756D01*
X-26739850Y-30974574D01*
X-26744071Y-30981248D01*
X-26754838Y-30993185D01*
X-26762769Y-31001041D01*
X-26775496Y-31013757D01*
X-26794482Y-31033434D01*
X-26817425Y-31057655D01*
X-26842021Y-31084000D01*
X-26848970Y-31091516D01*
X-26912252Y-31160107D01*
X-26875263Y-31184316D01*
X-26852964Y-31200080D01*
X-26832203Y-31216708D01*
X-26819491Y-31228576D01*
X-26800708Y-31248627D01*
X-26717283Y-31161202D01*
X-26633857Y-31073778D01*
X-26561441Y-31140895D01*
X-26401494Y-31283337D01*
X-26229675Y-31425153D01*
X-26045582Y-31566676D01*
X-26034852Y-31574636D01*
X-25990471Y-31607478D01*
X-25955210Y-31633621D01*
X-25928025Y-31653979D01*
X-25907873Y-31669468D01*
X-25893711Y-31681003D01*
X-25884494Y-31689501D01*
X-25879179Y-31695875D01*
X-25876722Y-31701042D01*
X-25876081Y-31705917D01*
X-25876211Y-31711415D01*
X-25876246Y-31713758D01*
X-25875241Y-31736846D01*
X-25872384Y-31770764D01*
X-25867905Y-31813813D01*
X-25862029Y-31864293D01*
X-25854987Y-31920506D01*
X-25847005Y-31980753D01*
X-25838311Y-32043334D01*
X-25829134Y-32106551D01*
X-25819701Y-32168705D01*
X-25810241Y-32228097D01*
X-25800980Y-32283028D01*
X-25796404Y-32308800D01*
X-25789014Y-32348450D01*
X-25780468Y-32392434D01*
X-25771217Y-32438606D01*
X-25761713Y-32484823D01*
X-25752407Y-32528937D01*
X-25743751Y-32568805D01*
X-25736197Y-32602280D01*
X-25730196Y-32627218D01*
X-25726700Y-32639953D01*
X-25727144Y-32644724D01*
X-25732849Y-32649279D01*
X-25745546Y-32654275D01*
X-25766968Y-32660372D01*
X-25798848Y-32668230D01*
X-25804585Y-32669589D01*
X-25938608Y-32699402D01*
X-26063641Y-32723310D01*
X-26181803Y-32741569D01*
X-26295209Y-32754434D01*
X-26405976Y-32762161D01*
X-26516222Y-32765007D01*
X-26588678Y-32764358D01*
X-26662532Y-32761923D01*
X-26726512Y-32757886D01*
X-26783381Y-32751886D01*
X-26835905Y-32743565D01*
X-26886847Y-32732562D01*
X-26937153Y-32719049D01*
X-27020102Y-32689885D01*
X-27094035Y-32653470D01*
X-27158483Y-32610221D01*
X-27212975Y-32560552D01*
X-27257041Y-32504878D01*
X-27290212Y-32443614D01*
X-27308454Y-32391350D01*
X-27319498Y-32331631D01*
X-27322832Y-32264056D01*
X-27318541Y-32190790D01*
X-27306714Y-32113999D01*
X-27295179Y-32063804D01*
X-27288518Y-32037704D01*
X-27283283Y-32016315D01*
X-27280176Y-32002548D01*
X-27279623Y-31999158D01*
X-27284974Y-31994222D01*
X-27298547Y-31986958D01*
X-27307657Y-31982957D01*
X-27329086Y-31973023D01*
X-27354374Y-31959737D01*
X-27370361Y-31950548D01*
X-27405054Y-31929657D01*
X-27424743Y-31993816D01*
X-27440929Y-32049631D01*
X-27452530Y-32098010D01*
X-27460189Y-32143089D01*
X-27464551Y-32189006D01*
X-27466259Y-32239898D01*
X-27466347Y-32261175D01*
X-27465444Y-32312151D01*
X-27462496Y-32354432D01*
X-27456811Y-32391948D01*
X-27447698Y-32428630D01*
X-27434465Y-32468410D01*
X-27425858Y-32491281D01*
X-27391798Y-32561953D01*
X-27346638Y-32627260D01*
X-27290984Y-32686765D01*
X-27225442Y-32740033D01*
X-27150615Y-32786628D01*
X-27067110Y-32826114D01*
X-26975531Y-32858056D01*
X-26885900Y-32880156D01*
X-26842463Y-32888597D01*
X-26803605Y-32895238D01*
X-26766822Y-32900282D01*
X-26729610Y-32903930D01*
X-26689465Y-32906386D01*
X-26643882Y-32907851D01*
X-26590359Y-32908528D01*
X-26533475Y-32908631D01*
X-26431495Y-32907003D01*
X-26333754Y-32902188D01*
X-26237556Y-32893854D01*
X-26140206Y-32881669D01*
X-26039010Y-32865303D01*
X-25931272Y-32844424D01*
X-25828625Y-32821989D01*
X-25791428Y-32813509D01*
X-25757846Y-32805875D01*
X-25730107Y-32799592D01*
X-25710444Y-32795166D01*
X-25701362Y-32793160D01*
X-25694668Y-32793199D01*
X-25689197Y-32798038D01*
X-25683725Y-32809878D01*
X-25677029Y-32830921D01*
X-25673481Y-32843300D01*
X-25632328Y-32979293D01*
X-25586523Y-33112622D01*
X-25536718Y-33241856D01*
X-25483561Y-33365562D01*
X-25427702Y-33482308D01*
X-25369791Y-33590663D01*
X-25310476Y-33689194D01*
X-25250408Y-33776469D01*
X-25249894Y-33777161D01*
X-25176364Y-33868400D01*
X-25100429Y-33947466D01*
X-25022190Y-34014279D01*
X-24941748Y-34068763D01*
X-24859203Y-34110839D01*
X-24784050Y-34137789D01*
X-24749574Y-34145265D01*
X-24707119Y-34150689D01*
X-24660549Y-34153916D01*
X-24613725Y-34154802D01*
X-24570512Y-34153204D01*
X-24534774Y-34148978D01*
X-24526875Y-34147360D01*
X-24442380Y-34121932D01*
X-24360735Y-34085197D01*
X-24281676Y-34036943D01*
X-24204936Y-33976955D01*
X-24130252Y-33905021D01*
X-24057358Y-33820928D01*
X-23985990Y-33724461D01*
X-23966945Y-33696262D01*
X-23909248Y-33602852D01*
X-23852467Y-33498450D01*
X-23797346Y-33384764D01*
X-23744626Y-33263499D01*
X-23695052Y-33136363D01*
X-23649365Y-33005063D01*
X-23609068Y-32873950D01*
X-23600516Y-32845035D01*
X-23592815Y-32820571D01*
X-23586819Y-32803171D01*
X-23583419Y-32795488D01*
X-23575932Y-32795005D01*
X-23558385Y-32797264D01*
X-23533022Y-32801878D01*
X-23502092Y-32808459D01*
X-23484483Y-32812548D01*
X-23393438Y-32833193D01*
X-23301548Y-32852006D01*
X-23213580Y-32868045D01*
X-23158450Y-32876885D01*
X-23128914Y-32881333D01*
X-23102491Y-32885357D01*
X-23082709Y-32888415D01*
X-23074871Y-32889665D01*
X-23057968Y-32892458D01*
X-23058996Y-32819734D01*
X-23059946Y-32752557D01*
X-23723600Y-32752557D01*
X-23725504Y-32761842D01*
X-23730801Y-32781204D01*
X-23738871Y-32808671D01*
X-23749090Y-32842272D01*
X-23760838Y-32880034D01*
X-23773493Y-32919987D01*
X-23786432Y-32960158D01*
X-23799034Y-32998577D01*
X-23810678Y-33033270D01*
X-23820741Y-33062267D01*
X-23824893Y-33073763D01*
X-23879839Y-33214352D01*
X-23937257Y-33344344D01*
X-23996986Y-33463523D01*
X-24058866Y-33571672D01*
X-24122737Y-33668573D01*
X-24188437Y-33754010D01*
X-24255805Y-33827765D01*
X-24324681Y-33889623D01*
X-24394905Y-33939365D01*
X-24466315Y-33976775D01*
X-24505018Y-33991674D01*
X-24572736Y-34008590D01*
X-24640524Y-34013384D01*
X-24710155Y-34006123D01*
X-24736425Y-34000471D01*
X-24803666Y-33977909D01*
X-24871211Y-33942998D01*
X-24938671Y-33896073D01*
X-25005662Y-33837468D01*
X-25071797Y-33767516D01*
X-25136688Y-33686550D01*
X-25191855Y-33607375D01*
X-25218336Y-33564537D01*
X-25247978Y-33512460D01*
X-25279454Y-33453782D01*
X-25311435Y-33391144D01*
X-25342593Y-33327186D01*
X-25371599Y-33264546D01*
X-25397126Y-33205866D01*
X-25410714Y-33172400D01*
X-25426118Y-33132066D01*
X-25442377Y-33087596D01*
X-25459000Y-33040520D01*
X-25475497Y-32992370D01*
X-25491376Y-32944676D01*
X-25506147Y-32898969D01*
X-25519319Y-32856780D01*
X-25530402Y-32819640D01*
X-25538904Y-32789079D01*
X-25544335Y-32766630D01*
X-25546204Y-32753822D01*
X-25545633Y-32751500D01*
X-25539154Y-32749094D01*
X-25522050Y-32743205D01*
X-25495762Y-32734317D01*
X-25461730Y-32722913D01*
X-25421394Y-32709477D01*
X-25376195Y-32694492D01*
X-25346025Y-32684525D01*
X-25220477Y-32641566D01*
X-25092172Y-32594770D01*
X-24965002Y-32545640D01*
X-24842861Y-32495676D01*
X-24737491Y-32449909D01*
X-24636958Y-32404813D01*
X-24543816Y-32446292D01*
X-24472866Y-32477220D01*
X-24396845Y-32509148D01*
X-24317400Y-32541462D01*
X-24236180Y-32573549D01*
X-24154835Y-32604793D01*
X-24075012Y-32634581D01*
X-23998359Y-32662299D01*
X-23926527Y-32687331D01*
X-23861162Y-32709065D01*
X-23803914Y-32726885D01*
X-23756432Y-32740178D01*
X-23752144Y-32741270D01*
X-23735273Y-32746316D01*
X-23725028Y-32750920D01*
X-23723600Y-32752557D01*
X-23059946Y-32752557D01*
X-23060025Y-32747009D01*
X-23079075Y-32743789D01*
X-23095178Y-32741208D01*
X-23118600Y-32737618D01*
X-23142575Y-32734045D01*
X-23194176Y-32725746D01*
X-23254024Y-32714919D01*
X-23318105Y-32702359D01*
X-23382408Y-32688854D01*
X-23442919Y-32675198D01*
X-23452793Y-32672857D01*
X-23547112Y-32650323D01*
X-23543586Y-32633549D01*
X-23541158Y-32622192D01*
X-23536525Y-32600696D01*
X-23530179Y-32571335D01*
X-23522611Y-32536379D01*
X-23514312Y-32498102D01*
X-23514274Y-32497924D01*
X-23492785Y-32393399D01*
X-23471843Y-32280978D01*
X-23452309Y-32165462D01*
X-23438218Y-32073670D01*
X-23434730Y-32048588D01*
X-23430418Y-32015692D01*
X-23425517Y-31976974D01*
X-23420265Y-31934428D01*
X-23414895Y-31890044D01*
X-23409646Y-31845818D01*
X-23404751Y-31803740D01*
X-23403691Y-31794388D01*
X-23547935Y-31794388D01*
X-23556345Y-31865856D01*
X-23573626Y-32000854D01*
X-23593695Y-32136773D01*
X-23615975Y-32270155D01*
X-23639893Y-32397543D01*
X-23663254Y-32508290D01*
X-23670778Y-32542025D01*
X-23677214Y-32571163D01*
X-23682094Y-32593561D01*
X-23684950Y-32607080D01*
X-23685500Y-32610082D01*
X-23691320Y-32609658D01*
X-23708064Y-32605409D01*
X-23734652Y-32597665D01*
X-23770005Y-32586755D01*
X-23813046Y-32573010D01*
X-23862695Y-32556759D01*
X-23894721Y-32546105D01*
X-24044843Y-32493556D01*
X-24197774Y-32435604D01*
X-24343384Y-32376226D01*
X-24458916Y-32327317D01*
X-24815423Y-32327317D01*
X-24816196Y-32327945D01*
X-24827097Y-32333136D01*
X-24847907Y-32342239D01*
X-24876733Y-32354479D01*
X-24911684Y-32369079D01*
X-24950865Y-32385260D01*
X-24992384Y-32402246D01*
X-25034348Y-32419261D01*
X-25074865Y-32435526D01*
X-25112042Y-32450265D01*
X-25143985Y-32462700D01*
X-25150418Y-32465162D01*
X-25184504Y-32477867D01*
X-25224417Y-32492267D01*
X-25268486Y-32507806D01*
X-25315038Y-32523924D01*
X-25362403Y-32540064D01*
X-25408907Y-32555667D01*
X-25452879Y-32570176D01*
X-25492647Y-32583032D01*
X-25526538Y-32593678D01*
X-25552881Y-32601554D01*
X-25570004Y-32606104D01*
X-25575371Y-32607012D01*
X-25584210Y-32604823D01*
X-25590155Y-32595903D01*
X-25595161Y-32577302D01*
X-25595207Y-32577087D01*
X-25615552Y-32479963D01*
X-25633224Y-32393049D01*
X-25648595Y-32314228D01*
X-25662038Y-32241380D01*
X-25673926Y-32172388D01*
X-25684631Y-32105132D01*
X-25694528Y-32037495D01*
X-25703989Y-31967359D01*
X-25707818Y-31937473D01*
X-25712706Y-31898416D01*
X-25716994Y-31863441D01*
X-25720437Y-31834588D01*
X-25722795Y-31813893D01*
X-25723824Y-31803395D01*
X-25723850Y-31802749D01*
X-25718879Y-31803273D01*
X-25705167Y-31809883D01*
X-25684516Y-31821585D01*
X-25658724Y-31837383D01*
X-25642887Y-31847530D01*
X-25515482Y-31928464D01*
X-25381910Y-32009731D01*
X-25245458Y-32089437D01*
X-25109413Y-32165691D01*
X-24977063Y-32236599D01*
X-24886025Y-32283221D01*
X-24852294Y-32300628D01*
X-24829683Y-32313524D01*
X-24817592Y-32322293D01*
X-24815423Y-32327317D01*
X-24458916Y-32327317D01*
X-24465327Y-32324603D01*
X-24337351Y-32257964D01*
X-24132943Y-32148413D01*
X-23936719Y-32036704D01*
X-23744174Y-31920197D01*
X-23564330Y-31805141D01*
X-23547935Y-31794388D01*
X-23403691Y-31794388D01*
X-23400449Y-31765804D01*
X-23396973Y-31734002D01*
X-23394562Y-31710327D01*
X-23393449Y-31696772D01*
X-23393402Y-31695224D01*
X-23388485Y-31689359D01*
X-23374848Y-31677519D01*
X-23354156Y-31661036D01*
X-23328074Y-31641244D01*
X-23302912Y-31622815D01*
X-23185518Y-31535962D01*
X-23067651Y-31444568D01*
X-22952596Y-31351277D01*
X-22843639Y-31258735D01*
X-22775374Y-31198186D01*
X-22746109Y-31171777D01*
X-22717792Y-31146330D01*
X-22692748Y-31123924D01*
X-22673299Y-31106641D01*
X-22664864Y-31099230D01*
X-22635804Y-31073936D01*
X-22579305Y-31134155D01*
X-22465086Y-31260286D01*
X-22361964Y-31383337D01*
X-22270045Y-31503138D01*
X-22189434Y-31619520D01*
X-22120237Y-31732314D01*
X-22062560Y-31841349D01*
X-22016508Y-31946457D01*
X-21982187Y-32047469D01*
X-21964189Y-32120536D01*
X-21954131Y-32187727D01*
X-21950769Y-32255409D01*
X-21953906Y-32321004D01*
X-21963342Y-32381935D01*
X-21978879Y-32435624D01*
X-21990527Y-32462273D01*
X-22027985Y-32522863D01*
X-22074806Y-32576624D01*
X-22128965Y-32621267D01*
X-22134223Y-32624821D01*
X-22151638Y-32637132D01*
X-22163789Y-32647151D01*
X-22167850Y-32652289D01*
X-22166354Y-32660788D01*
X-22162479Y-32677531D01*
X-22158325Y-32693999D01*
X-22152805Y-32721449D01*
X-22149367Y-32750590D01*
X-22148800Y-32764159D01*
X-22147970Y-32782868D01*
X-22145837Y-32795062D01*
X-22143936Y-32797750D01*
X-22134284Y-32794291D01*
X-22116897Y-32784991D01*
X-22094326Y-32771459D01*
X-22069118Y-32755307D01*
X-22043823Y-32738145D01*
X-22020990Y-32721586D01*
X-22010583Y-32713462D01*
X-21959508Y-32665294D01*
X-21912863Y-32607953D01*
X-21872956Y-32544788D01*
X-21842098Y-32479149D01*
X-21834463Y-32458025D01*
X-21818998Y-32398007D01*
X-21809383Y-32330194D01*
X-21805815Y-32258159D01*
X-21808489Y-32185479D01*
X-21816102Y-32124181D01*
X-21839900Y-32018326D01*
X-21875809Y-31908979D01*
X-21923836Y-31796127D01*
X-21983992Y-31679754D01*
X-22056283Y-31559847D01*
X-22140718Y-31436391D01*
X-22237307Y-31309373D01*
X-22346057Y-31178778D01*
X-22457238Y-31055046D01*
X-22533007Y-30973484D01*
X-22740007Y-30973484D01*
X-22820641Y-31046677D01*
X-22878624Y-31098866D01*
X-22932106Y-31145957D01*
X-22984687Y-31191033D01*
X-23039969Y-31237178D01*
X-23101553Y-31287475D01*
X-23107650Y-31292409D01*
X-23144376Y-31321854D01*
X-23182555Y-31352002D01*
X-23220817Y-31381816D01*
X-23257791Y-31410258D01*
X-23292107Y-31436293D01*
X-23322396Y-31458882D01*
X-23347288Y-31476989D01*
X-23365411Y-31489577D01*
X-23375397Y-31495610D01*
X-23376625Y-31495986D01*
X-23379564Y-31490836D01*
X-23378624Y-31481712D01*
X-23377537Y-31472000D01*
X-23376093Y-31451256D01*
X-23374378Y-31421141D01*
X-23372479Y-31383317D01*
X-23370481Y-31339444D01*
X-23368469Y-31291183D01*
X-23367542Y-31267400D01*
X-23365314Y-31193481D01*
X-23363890Y-31111784D01*
X-23363248Y-31024893D01*
X-23363280Y-30999737D01*
X-23510716Y-30999737D01*
X-23510857Y-31084134D01*
X-23511474Y-31166637D01*
X-23512566Y-31245963D01*
X-23514133Y-31320828D01*
X-23516175Y-31389947D01*
X-23518693Y-31452038D01*
X-23521686Y-31505815D01*
X-23525154Y-31549996D01*
X-23529097Y-31583296D01*
X-23530851Y-31593509D01*
X-23533346Y-31600066D01*
X-23539141Y-31607692D01*
X-23549419Y-31617298D01*
X-23565364Y-31629798D01*
X-23588159Y-31646104D01*
X-23618990Y-31667129D01*
X-23659038Y-31693787D01*
X-23671864Y-31702252D01*
X-23798611Y-31783862D01*
X-23932581Y-31866526D01*
X-24068943Y-31947310D01*
X-24174450Y-32007460D01*
X-24200795Y-32021968D01*
X-24233882Y-32039814D01*
X-24272275Y-32060256D01*
X-24314539Y-32082555D01*
X-24359241Y-32105969D01*
X-24404945Y-32129757D01*
X-24450217Y-32153178D01*
X-24493622Y-32175492D01*
X-24533726Y-32195956D01*
X-24569093Y-32213831D01*
X-24598291Y-32228374D01*
X-24619882Y-32238846D01*
X-24632435Y-32244505D01*
X-24634919Y-32245300D01*
X-24641280Y-32242552D01*
X-24657549Y-32234778D01*
X-24682301Y-32222679D01*
X-24714108Y-32206960D01*
X-24751544Y-32188322D01*
X-24793184Y-32167468D01*
X-24808113Y-32159964D01*
X-24975116Y-32073816D01*
X-25133430Y-31987601D01*
X-25286886Y-31899109D01*
X-25439313Y-31806131D01*
X-25594539Y-31706457D01*
X-25597633Y-31704423D01*
X-25741291Y-31609944D01*
X-25745238Y-31560909D01*
X-25750965Y-31482213D01*
X-25751401Y-31474550D01*
X-25896326Y-31474550D01*
X-25896408Y-31489916D01*
X-25897930Y-31495995D01*
X-25897994Y-31496000D01*
X-25904258Y-31492371D01*
X-25918772Y-31482369D01*
X-25939683Y-31467316D01*
X-25965140Y-31448535D01*
X-25979696Y-31437632D01*
X-26056710Y-31378632D01*
X-26135922Y-31316054D01*
X-26215121Y-31251735D01*
X-26292097Y-31187516D01*
X-26364639Y-31125233D01*
X-26430538Y-31066726D01*
X-26475687Y-31025099D01*
X-26532200Y-30971923D01*
X-26440762Y-30889170D01*
X-26357665Y-30814894D01*
X-26279589Y-30747201D01*
X-26203070Y-30683222D01*
X-26124645Y-30620090D01*
X-26040850Y-30554937D01*
X-25994379Y-30519590D01*
X-25964517Y-30497266D01*
X-25938232Y-30478080D01*
X-25917142Y-30463175D01*
X-25902862Y-30453693D01*
X-25897010Y-30450776D01*
X-25896990Y-30450792D01*
X-25896537Y-30457622D01*
X-25896699Y-30475399D01*
X-25897421Y-30502389D01*
X-25898650Y-30536856D01*
X-25900333Y-30577064D01*
X-25901982Y-30612434D01*
X-25903350Y-30648707D01*
X-25904451Y-30694589D01*
X-25905291Y-30748505D01*
X-25905880Y-30808883D01*
X-25906225Y-30874149D01*
X-25906333Y-30942730D01*
X-25906214Y-31013052D01*
X-25905875Y-31083541D01*
X-25905324Y-31152624D01*
X-25904569Y-31218729D01*
X-25903618Y-31280280D01*
X-25902479Y-31335706D01*
X-25901160Y-31383432D01*
X-25899670Y-31421885D01*
X-25898015Y-31449491D01*
X-25897705Y-31453137D01*
X-25896326Y-31474550D01*
X-25751401Y-31474550D01*
X-25755547Y-31401800D01*
X-25759051Y-31317621D01*
X-25761541Y-31227628D01*
X-25763084Y-31129772D01*
X-25763745Y-31022005D01*
X-25763780Y-30981650D01*
X-25763591Y-30896721D01*
X-25763026Y-30821647D01*
X-25761996Y-30753588D01*
X-25760409Y-30689702D01*
X-25758176Y-30627147D01*
X-25755206Y-30563083D01*
X-25751409Y-30494668D01*
X-25746696Y-30419060D01*
X-25745201Y-30396239D01*
X-25741136Y-30334703D01*
X-25616605Y-30252819D01*
X-25424774Y-30130133D01*
X-25234458Y-30015577D01*
X-25041426Y-29906712D01*
X-24841448Y-29801102D01*
X-24767070Y-29763475D01*
X-24638966Y-29699373D01*
X-24563870Y-29735026D01*
X-24453816Y-29789057D01*
X-24336282Y-29850064D01*
X-24213462Y-29916794D01*
X-24087551Y-29987993D01*
X-23960742Y-30062408D01*
X-23835229Y-30138788D01*
X-23713208Y-30215879D01*
X-23652955Y-30255113D01*
X-23534686Y-30332961D01*
X-23530833Y-30366793D01*
X-23526696Y-30410458D01*
X-23523035Y-30463784D01*
X-23519849Y-30525487D01*
X-23517138Y-30594284D01*
X-23514903Y-30668891D01*
X-23513143Y-30748023D01*
X-23511859Y-30830398D01*
X-23511049Y-30914730D01*
X-23510716Y-30999737D01*
X-23363280Y-30999737D01*
X-23363364Y-30935391D01*
X-23364213Y-30845861D01*
X-23365773Y-30758887D01*
X-23368019Y-30677053D01*
X-23370928Y-30602940D01*
X-23374173Y-30543741D01*
X-23376106Y-30510993D01*
X-23377398Y-30483016D01*
X-23377970Y-30462126D01*
X-23377744Y-30450639D01*
X-23377402Y-30449185D01*
X-23371172Y-30451569D01*
X-23356232Y-30461176D01*
X-23333681Y-30477158D01*
X-23304615Y-30498670D01*
X-23270133Y-30524864D01*
X-23231331Y-30554894D01*
X-23189308Y-30587914D01*
X-23145162Y-30623077D01*
X-23099989Y-30659535D01*
X-23054887Y-30696443D01*
X-23028275Y-30718487D01*
X-22979638Y-30759161D01*
X-22938109Y-30794383D01*
X-22900869Y-30826620D01*
X-22865098Y-30858344D01*
X-22827979Y-30892023D01*
X-22786693Y-30930127D01*
X-22785716Y-30931035D01*
X-22740007Y-30973484D01*
X-22533007Y-30973484D01*
X-22534295Y-30972098D01*
X-22471057Y-30905436D01*
X-22352721Y-30775763D01*
X-22245426Y-30647922D01*
X-22149322Y-30522152D01*
X-22064559Y-30398694D01*
X-21991287Y-30277786D01*
X-21929656Y-30159670D01*
X-21879817Y-30044585D01*
X-21841920Y-29932771D01*
X-21827160Y-29876750D01*
X-21817995Y-29828527D01*
X-21811343Y-29773898D01*
X-21807405Y-29716801D01*
X-21806465Y-29665668D01*
X-21951135Y-29665668D01*
X-21952053Y-29722020D01*
X-21956880Y-29778227D01*
X-21964219Y-29823839D01*
X-21988752Y-29918519D01*
X-22024546Y-30017768D01*
X-22071263Y-30120984D01*
X-22128563Y-30227568D01*
X-22196107Y-30336919D01*
X-22273556Y-30448438D01*
X-22360571Y-30561523D01*
X-22424808Y-30638750D01*
X-22454909Y-30673459D01*
X-22486240Y-30708853D01*
X-22517594Y-30743640D01*
X-22547765Y-30776530D01*
X-22575544Y-30806231D01*
X-22599727Y-30831453D01*
X-22619106Y-30850905D01*
X-22632474Y-30863295D01*
X-22638483Y-30867350D01*
X-22645261Y-30863230D01*
X-22659086Y-30852046D01*
X-22677872Y-30835559D01*
X-22697228Y-30817710D01*
X-22778290Y-30743475D01*
X-22868128Y-30665022D01*
X-22964401Y-30584266D01*
X-23064764Y-30503124D01*
X-23166874Y-30423513D01*
X-23268389Y-30347349D01*
X-23304035Y-30321362D01*
X-23337002Y-30297278D01*
X-23360961Y-30279030D01*
X-23377377Y-30265273D01*
X-23387716Y-30254660D01*
X-23393442Y-30245846D01*
X-23396023Y-30237484D01*
X-23396141Y-30236767D01*
X-23397934Y-30223321D01*
X-23400704Y-30200083D01*
X-23404126Y-30169894D01*
X-23407609Y-30138012D01*
X-23552150Y-30138012D01*
X-23554652Y-30140695D01*
X-23562884Y-30138465D01*
X-23577931Y-30130746D01*
X-23600877Y-30116966D01*
X-23632809Y-30096548D01*
X-23642637Y-30090134D01*
X-23677006Y-30067949D01*
X-23718829Y-30041447D01*
X-23764638Y-30012795D01*
X-23810968Y-29984161D01*
X-23854352Y-29957711D01*
X-23856922Y-29956158D01*
X-23943251Y-29904861D01*
X-24033464Y-29852764D01*
X-24124507Y-29801569D01*
X-24213329Y-29752975D01*
X-24296876Y-29708684D01*
X-24350639Y-29681124D01*
X-24384533Y-29663845D01*
X-24414164Y-29648366D01*
X-24437797Y-29635626D01*
X-24453695Y-29626560D01*
X-24460122Y-29622109D01*
X-24460176Y-29621957D01*
X-24459040Y-29621183D01*
X-24808404Y-29621183D01*
X-24927989Y-29683217D01*
X-25068591Y-29757812D01*
X-25208858Y-29835437D01*
X-25345998Y-29914477D01*
X-25477218Y-29993313D01*
X-25599726Y-30070330D01*
X-25625306Y-30086918D01*
X-25655865Y-30106740D01*
X-25682494Y-30123799D01*
X-25703486Y-30137017D01*
X-25717132Y-30145317D01*
X-25721727Y-30147688D01*
X-25721363Y-30141299D01*
X-25719592Y-30124242D01*
X-25716634Y-30098449D01*
X-25712714Y-30065847D01*
X-25708052Y-30028365D01*
X-25707333Y-30022686D01*
X-25689556Y-29891716D01*
X-25670125Y-29767311D01*
X-25648058Y-29643354D01*
X-25637544Y-29588821D01*
X-25628443Y-29543482D01*
X-25619121Y-29498606D01*
X-25609978Y-29455964D01*
X-25601409Y-29417324D01*
X-25593815Y-29384458D01*
X-25587593Y-29359135D01*
X-25583142Y-29343124D01*
X-25581161Y-29338244D01*
X-25574317Y-29339033D01*
X-25557329Y-29343293D01*
X-25532089Y-29350440D01*
X-25500488Y-29359890D01*
X-25464417Y-29371057D01*
X-25425768Y-29383358D01*
X-25386432Y-29396209D01*
X-25348300Y-29409024D01*
X-25317450Y-29419735D01*
X-25233883Y-29449863D01*
X-25149030Y-29481527D01*
X-25065464Y-29513715D01*
X-24985761Y-29545417D01*
X-24912495Y-29575621D01*
X-24848242Y-29603316D01*
X-24835914Y-29608818D01*
X-24808404Y-29621183D01*
X-24459040Y-29621183D01*
X-24454517Y-29618104D01*
X-24438524Y-29610283D01*
X-24413705Y-29599117D01*
X-24381567Y-29585230D01*
X-24343617Y-29569246D01*
X-24301362Y-29551790D01*
X-24256309Y-29533485D01*
X-24209966Y-29514955D01*
X-24163839Y-29496824D01*
X-24119435Y-29479717D01*
X-24088304Y-29467983D01*
X-24037041Y-29449185D01*
X-23984648Y-29430528D01*
X-23932529Y-29412464D01*
X-23882091Y-29395443D01*
X-23834737Y-29379916D01*
X-23791873Y-29366334D01*
X-23754904Y-29355149D01*
X-23725235Y-29346811D01*
X-23704271Y-29341771D01*
X-23693417Y-29340480D01*
X-23692342Y-29340892D01*
X-23689588Y-29348528D01*
X-23684725Y-29366692D01*
X-23678184Y-29393468D01*
X-23670393Y-29426941D01*
X-23661781Y-29465195D01*
X-23652778Y-29506314D01*
X-23643813Y-29548382D01*
X-23635316Y-29589484D01*
X-23627716Y-29627703D01*
X-23625617Y-29638625D01*
X-23618531Y-29677415D01*
X-23610746Y-29722712D01*
X-23602525Y-29772730D01*
X-23594131Y-29825684D01*
X-23585827Y-29879788D01*
X-23577876Y-29933257D01*
X-23570539Y-29984305D01*
X-23564080Y-30031149D01*
X-23558761Y-30072002D01*
X-23554845Y-30105078D01*
X-23552595Y-30128594D01*
X-23552150Y-30138012D01*
X-23407609Y-30138012D01*
X-23407874Y-30135595D01*
X-23409406Y-30121225D01*
X-23426426Y-29978378D01*
X-23447680Y-29829852D01*
X-23472374Y-29680534D01*
X-23499712Y-29535309D01*
X-23521423Y-29432250D01*
X-23529638Y-29394875D01*
X-23536870Y-29361444D01*
X-23542672Y-29334060D01*
X-23546598Y-29314827D01*
X-23548203Y-29305850D01*
X-23548208Y-29305802D01*
X-23544524Y-29300718D01*
X-23532249Y-29294668D01*
X-23510736Y-29287478D01*
X-23479341Y-29278977D01*
X-23437420Y-29268990D01*
X-23384328Y-29257345D01*
X-23319419Y-29243870D01*
X-23310850Y-29242130D01*
X-23157086Y-29214299D01*
X-23009797Y-29194339D01*
X-22869511Y-29182259D01*
X-22736755Y-29178068D01*
X-22612057Y-29181774D01*
X-22495946Y-29193385D01*
X-22388949Y-29212910D01*
X-22336125Y-29226468D01*
X-22254058Y-29254956D01*
X-22180640Y-29290924D01*
X-22116402Y-29333889D01*
X-22061875Y-29383365D01*
X-22017590Y-29438867D01*
X-21984077Y-29499911D01*
X-21961867Y-29566012D01*
X-21961217Y-29568775D01*
X-21954174Y-29613233D01*
X-21951135Y-29665668D01*
X-21806465Y-29665668D01*
X-21806382Y-29661175D01*
X-21808473Y-29610958D01*
X-21812074Y-29580020D01*
X-21824751Y-29523300D01*
X-21844133Y-29464022D01*
X-21868135Y-29408043D01*
X-21883734Y-29378737D01*
X-21916774Y-29330942D01*
X-21959663Y-29282631D01*
X-22009863Y-29236073D01*
X-22064833Y-29193535D01*
X-22122031Y-29157287D01*
X-22145959Y-29144559D01*
X-22193411Y-29123733D01*
X-22250721Y-29103384D01*
X-22315052Y-29084295D01*
X-22383566Y-29067248D01*
X-22453427Y-29053026D01*
X-22510750Y-29043881D01*
X-22540144Y-29040981D01*
X-22579795Y-29038728D01*
X-22627275Y-29037124D01*
X-22680159Y-29036168D01*
X-22736020Y-29035859D01*
X-22792430Y-29036197D01*
X-22846963Y-29037183D01*
X-22897193Y-29038815D01*
X-22940692Y-29041094D01*
X-22974300Y-29043937D01*
X-23038475Y-29051783D01*
X-23110216Y-29061834D01*
X-23184878Y-29073360D01*
X-23257820Y-29085634D01*
X-23324399Y-29097927D01*
X-23345734Y-29102180D01*
X-23386162Y-29110618D01*
X-23427841Y-29119643D01*
X-23468548Y-29128741D01*
X-23506061Y-29137398D01*
X-23538156Y-29145100D01*
X-23562610Y-29151331D01*
X-23577200Y-29155577D01*
X-23578445Y-29156029D01*
X-23584251Y-29155311D01*
X-23590005Y-29147203D01*
X-23596685Y-29129860D01*
X-23602717Y-29110278D01*
X-23611298Y-29081741D01*
X-23621885Y-29047725D01*
X-23633807Y-29010267D01*
X-23646387Y-28971409D01*
X-23658954Y-28933190D01*
X-23670832Y-28897648D01*
X-23681348Y-28866824D01*
X-23689828Y-28842757D01*
X-23695599Y-28827486D01*
X-23697535Y-28823306D01*
X-23702524Y-28819329D01*
X-23711623Y-28819547D01*
X-23727534Y-28824408D01*
X-23744986Y-28831137D01*
X-23770359Y-28840406D01*
X-23795071Y-28847984D01*
X-23811887Y-28851863D01*
X-23837076Y-28855891D01*
X-23809794Y-28932933D01*
X-23798866Y-28964634D01*
X-23787076Y-29000259D01*
X-23775021Y-29037835D01*
X-23763302Y-29075383D01*
X-23752517Y-29110930D01*
X-23743264Y-29142500D01*
X-23736141Y-29168116D01*
X-23731748Y-29185803D01*
X-23730683Y-29193586D01*
X-23730772Y-29193735D01*
X-23737142Y-29196197D01*
X-23754143Y-29202178D01*
X-23780351Y-29211191D01*
X-23814345Y-29222753D01*
X-23854702Y-29236378D01*
X-23899999Y-29251583D01*
X-23933150Y-29262662D01*
X-24098006Y-29320045D01*
X-24262436Y-29381902D01*
X-24421958Y-29446501D01*
X-24534129Y-29495014D01*
X-24636634Y-29540675D01*
X-24730979Y-29498404D01*
X-24845007Y-29448870D01*
X-24965940Y-29399191D01*
X-25090113Y-29350766D01*
X-25213864Y-29304992D01*
X-25225140Y-29301060D01*
X-25723850Y-29301060D01*
X-25725189Y-29309231D01*
X-25728909Y-29327664D01*
X-25734558Y-29354239D01*
X-25741688Y-29386836D01*
X-25748945Y-29419329D01*
X-25774408Y-29539635D01*
X-25798708Y-29668686D01*
X-25821205Y-29802536D01*
X-25841261Y-29937241D01*
X-25858237Y-30068856D01*
X-25867256Y-30150282D01*
X-25878082Y-30255539D01*
X-25983528Y-30332749D01*
X-26115651Y-30431483D01*
X-26238760Y-30527750D01*
X-26355629Y-30623801D01*
X-26469035Y-30721891D01*
X-26527125Y-30774056D01*
X-26564318Y-30807537D01*
X-26593252Y-30832781D01*
X-26614743Y-30850432D01*
X-26629607Y-30861138D01*
X-26638662Y-30865543D01*
X-26642229Y-30865008D01*
X-26648886Y-30858063D01*
X-26662544Y-30843630D01*
X-26681522Y-30823492D01*
X-26704139Y-30799430D01*
X-26717434Y-30785261D01*
X-26815058Y-30677265D01*
X-26905918Y-30568862D01*
X-26989122Y-30461261D01*
X-27063775Y-30355675D01*
X-27128985Y-30253316D01*
X-27183858Y-30155394D01*
X-27188554Y-30146261D01*
X-27222271Y-30077602D01*
X-27249665Y-30015748D01*
X-27272061Y-29957363D01*
X-27290782Y-29899114D01*
X-27300275Y-29864850D01*
X-27307824Y-29835052D01*
X-27313137Y-29810251D01*
X-27316610Y-29786927D01*
X-27318635Y-29761557D01*
X-27319608Y-29730623D01*
X-27319923Y-29690602D01*
X-27319926Y-29689425D01*
X-27319861Y-29650057D01*
X-27319234Y-29620460D01*
X-27317723Y-29597703D01*
X-27315007Y-29578860D01*
X-27310763Y-29561002D01*
X-27304671Y-29541200D01*
X-27303128Y-29536527D01*
X-27274561Y-29470031D01*
X-27235528Y-29409913D01*
X-27187035Y-29357543D01*
X-27149748Y-29327469D01*
X-27083414Y-29286073D01*
X-27009929Y-29251659D01*
X-26928666Y-29224091D01*
X-26838992Y-29203232D01*
X-26740277Y-29188944D01*
X-26631893Y-29181090D01*
X-26513207Y-29179533D01*
X-26473537Y-29180327D01*
X-26359457Y-29185766D01*
X-26245495Y-29196047D01*
X-26128973Y-29211532D01*
X-26007213Y-29232586D01*
X-25877537Y-29259574D01*
X-25857200Y-29264165D01*
X-25822155Y-29272138D01*
X-25790288Y-29279365D01*
X-25764198Y-29285257D01*
X-25746484Y-29289227D01*
X-25741312Y-29290366D01*
X-25728662Y-29295260D01*
X-25723850Y-29301060D01*
X-25225140Y-29301060D01*
X-25333530Y-29263266D01*
X-25428529Y-29232268D01*
X-25464367Y-29220944D01*
X-25495761Y-29210924D01*
X-25520810Y-29202824D01*
X-25537613Y-29197259D01*
X-25544266Y-29194844D01*
X-25544293Y-29194823D01*
X-25543283Y-29188199D01*
X-25538824Y-29171356D01*
X-25531485Y-29146120D01*
X-25521834Y-29114319D01*
X-25510441Y-29077781D01*
X-25497874Y-29038333D01*
X-25484702Y-28997803D01*
X-25471495Y-28958019D01*
X-25460647Y-28926102D01*
X-25423917Y-28824756D01*
X-25385040Y-28728674D01*
X-25341854Y-28632763D01*
X-25297474Y-28542308D01*
X-25234470Y-28426184D01*
X-25169665Y-28322627D01*
X-25103058Y-28231637D01*
X-25034652Y-28153216D01*
X-24964447Y-28087364D01*
X-24892443Y-28034083D01*
X-24845919Y-28006845D01*
X-24803015Y-27985580D01*
X-24765730Y-27970561D01*
X-24729609Y-27960298D01*
X-24690199Y-27953300D01*
X-24682950Y-27952340D01*
X-24617084Y-27949632D01*
X-24551305Y-27958458D01*
X-24485042Y-27979023D01*
X-24417724Y-28011529D01*
X-24348780Y-28056179D01*
X-24312239Y-28084149D01*
X-24269053Y-28118869D01*
X-24242389Y-28091037D01*
X-24222477Y-28071383D01*
X-24201028Y-28051879D01*
X-24190325Y-28042900D01*
X-24164925Y-28022594D01*
X-24199850Y-27990680D01*
X-24226694Y-27968077D01*
X-24259987Y-27942918D01*
X-24296464Y-27917412D01*
X-24332863Y-27893765D01*
X-24365922Y-27874183D01*
X-24390605Y-27861646D01*
X-24413584Y-27852197D01*
X-24443045Y-27841055D01*
X-24473355Y-27830337D01*
X-24479284Y-27828343D01*
X-24500714Y-27821499D01*
X-24519125Y-27816655D01*
X-24537481Y-27813472D01*
X-24558751Y-27811609D01*
X-24585898Y-27810725D01*
X-24621891Y-27810479D01*
X-24634825Y-27810478D01*
X-24674576Y-27810688D01*
X-24674576Y-27810688D01*
G37*
X-24674576Y-27810688D02*
X-24704713Y-27811477D01*
X-24728319Y-27813186D01*
X-24748477Y-27816155D01*
X-24768271Y-27820725D01*
X-24790784Y-27827236D01*
X-24793183Y-27827970D01*
X-24876960Y-27860226D01*
X-24958681Y-27904848D01*
X-25038215Y-27961652D01*
X-25115431Y-28030452D01*
X-25190199Y-28111061D01*
X-25262388Y-28203294D01*
X-25331868Y-28306966D01*
X-25398507Y-28421889D01*
X-25462176Y-28547879D01*
X-25522743Y-28684749D01*
X-25580078Y-28832313D01*
X-25634050Y-28990386D01*
X-25653065Y-29051250D01*
X-25663767Y-29085363D01*
X-25673546Y-29114719D01*
X-25681707Y-29137375D01*
X-25687557Y-29151388D01*
X-25690148Y-29155065D01*
X-25697709Y-29153390D01*
X-25715577Y-29149327D01*
X-25741688Y-29143347D01*
X-25773975Y-29135923D01*
X-25807432Y-29128208D01*
X-25991866Y-29089631D01*
X-26171290Y-29060143D01*
X-26246131Y-29050383D01*
X-26296436Y-29045377D01*
X-26354115Y-29041351D01*
X-26416690Y-29038337D01*
X-26481685Y-29036368D01*
X-26546622Y-29035476D01*
X-26609025Y-29035693D01*
X-26666415Y-29037052D01*
X-26716315Y-29039585D01*
X-26756249Y-29043325D01*
X-26758900Y-29043672D01*
X-26871463Y-29062498D01*
X-26973284Y-29087387D01*
X-27064894Y-29118560D01*
X-27146828Y-29156241D01*
X-27219620Y-29200649D01*
X-27283802Y-29252009D01*
X-27302525Y-29269864D01*
X-27357608Y-29333139D01*
X-27401518Y-29402045D01*
X-27434333Y-29476322D01*
X-27456132Y-29555711D01*
X-27466991Y-29639952D01*
X-27466990Y-29728786D01*
X-27456207Y-29821953D01*
X-27434720Y-29919193D01*
X-27402606Y-30020247D01*
X-27359945Y-30124856D01*
X-27306815Y-30232760D01*
X-27243293Y-30343700D01*
X-27169458Y-30457415D01*
X-27085389Y-30573647D01*
X-26991162Y-30692136D01*
X-26886857Y-30812622D01*
X-26813883Y-30891683D01*
X-26789489Y-30917743D01*
X-26768480Y-30940677D01*
X-26752288Y-30958883D01*
X-26742345Y-30970756D01*
X-26739850Y-30974574D01*
X-26744071Y-30981248D01*
X-26754838Y-30993185D01*
X-26762769Y-31001041D01*
X-26775496Y-31013757D01*
X-26794482Y-31033434D01*
X-26817425Y-31057655D01*
X-26842021Y-31084000D01*
X-26848970Y-31091516D01*
X-26912252Y-31160107D01*
X-26875263Y-31184316D01*
X-26852964Y-31200080D01*
X-26832203Y-31216708D01*
X-26819491Y-31228576D01*
X-26800708Y-31248627D01*
X-26717283Y-31161202D01*
X-26633857Y-31073778D01*
X-26561441Y-31140895D01*
X-26401494Y-31283337D01*
X-26229675Y-31425153D01*
X-26045582Y-31566676D01*
X-26034852Y-31574636D01*
X-25990471Y-31607478D01*
X-25955210Y-31633621D01*
X-25928025Y-31653979D01*
X-25907873Y-31669468D01*
X-25893711Y-31681003D01*
X-25884494Y-31689501D01*
X-25879179Y-31695875D01*
X-25876722Y-31701042D01*
X-25876081Y-31705917D01*
X-25876211Y-31711415D01*
X-25876246Y-31713758D01*
X-25875241Y-31736846D01*
X-25872384Y-31770764D01*
X-25867905Y-31813813D01*
X-25862029Y-31864293D01*
X-25854987Y-31920506D01*
X-25847005Y-31980753D01*
X-25838311Y-32043334D01*
X-25829134Y-32106551D01*
X-25819701Y-32168705D01*
X-25810241Y-32228097D01*
X-25800980Y-32283028D01*
X-25796404Y-32308800D01*
X-25789014Y-32348450D01*
X-25780468Y-32392434D01*
X-25771217Y-32438606D01*
X-25761713Y-32484823D01*
X-25752407Y-32528937D01*
X-25743751Y-32568805D01*
X-25736197Y-32602280D01*
X-25730196Y-32627218D01*
X-25726700Y-32639953D01*
X-25727144Y-32644724D01*
X-25732849Y-32649279D01*
X-25745546Y-32654275D01*
X-25766968Y-32660372D01*
X-25798848Y-32668230D01*
X-25804585Y-32669589D01*
X-25938608Y-32699402D01*
X-26063641Y-32723310D01*
X-26181803Y-32741569D01*
X-26295209Y-32754434D01*
X-26405976Y-32762161D01*
X-26516222Y-32765007D01*
X-26588678Y-32764358D01*
X-26662532Y-32761923D01*
X-26726512Y-32757886D01*
X-26783381Y-32751886D01*
X-26835905Y-32743565D01*
X-26886847Y-32732562D01*
X-26937153Y-32719049D01*
X-27020102Y-32689885D01*
X-27094035Y-32653470D01*
X-27158483Y-32610221D01*
X-27212975Y-32560552D01*
X-27257041Y-32504878D01*
X-27290212Y-32443614D01*
X-27308454Y-32391350D01*
X-27319498Y-32331631D01*
X-27322832Y-32264056D01*
X-27318541Y-32190790D01*
X-27306714Y-32113999D01*
X-27295179Y-32063804D01*
X-27288518Y-32037704D01*
X-27283283Y-32016315D01*
X-27280176Y-32002548D01*
X-27279623Y-31999158D01*
X-27284974Y-31994222D01*
X-27298547Y-31986958D01*
X-27307657Y-31982957D01*
X-27329086Y-31973023D01*
X-27354374Y-31959737D01*
X-27370361Y-31950548D01*
X-27405054Y-31929657D01*
X-27424743Y-31993816D01*
X-27440929Y-32049631D01*
X-27452530Y-32098010D01*
X-27460189Y-32143089D01*
X-27464551Y-32189006D01*
X-27466259Y-32239898D01*
X-27466347Y-32261175D01*
X-27465444Y-32312151D01*
X-27462496Y-32354432D01*
X-27456811Y-32391948D01*
X-27447698Y-32428630D01*
X-27434465Y-32468410D01*
X-27425858Y-32491281D01*
X-27391798Y-32561953D01*
X-27346638Y-32627260D01*
X-27290984Y-32686765D01*
X-27225442Y-32740033D01*
X-27150615Y-32786628D01*
X-27067110Y-32826114D01*
X-26975531Y-32858056D01*
X-26885900Y-32880156D01*
X-26842463Y-32888597D01*
X-26803605Y-32895238D01*
X-26766822Y-32900282D01*
X-26729610Y-32903930D01*
X-26689465Y-32906386D01*
X-26643882Y-32907851D01*
X-26590359Y-32908528D01*
X-26533475Y-32908631D01*
X-26431495Y-32907003D01*
X-26333754Y-32902188D01*
X-26237556Y-32893854D01*
X-26140206Y-32881669D01*
X-26039010Y-32865303D01*
X-25931272Y-32844424D01*
X-25828625Y-32821989D01*
X-25791428Y-32813509D01*
X-25757846Y-32805875D01*
X-25730107Y-32799592D01*
X-25710444Y-32795166D01*
X-25701362Y-32793160D01*
X-25694668Y-32793199D01*
X-25689197Y-32798038D01*
X-25683725Y-32809878D01*
X-25677029Y-32830921D01*
X-25673481Y-32843300D01*
X-25632328Y-32979293D01*
X-25586523Y-33112622D01*
X-25536718Y-33241856D01*
X-25483561Y-33365562D01*
X-25427702Y-33482308D01*
X-25369791Y-33590663D01*
X-25310476Y-33689194D01*
X-25250408Y-33776469D01*
X-25249894Y-33777161D01*
X-25176364Y-33868400D01*
X-25100429Y-33947466D01*
X-25022190Y-34014279D01*
X-24941748Y-34068763D01*
X-24859203Y-34110839D01*
X-24784050Y-34137789D01*
X-24749574Y-34145265D01*
X-24707119Y-34150689D01*
X-24660549Y-34153916D01*
X-24613725Y-34154802D01*
X-24570512Y-34153204D01*
X-24534774Y-34148978D01*
X-24526875Y-34147360D01*
X-24442380Y-34121932D01*
X-24360735Y-34085197D01*
X-24281676Y-34036943D01*
X-24204936Y-33976955D01*
X-24130252Y-33905021D01*
X-24057358Y-33820928D01*
X-23985990Y-33724461D01*
X-23966945Y-33696262D01*
X-23909248Y-33602852D01*
X-23852467Y-33498450D01*
X-23797346Y-33384764D01*
X-23744626Y-33263499D01*
X-23695052Y-33136363D01*
X-23649365Y-33005063D01*
X-23609068Y-32873950D01*
X-23600516Y-32845035D01*
X-23592815Y-32820571D01*
X-23586819Y-32803171D01*
X-23583419Y-32795488D01*
X-23575932Y-32795005D01*
X-23558385Y-32797264D01*
X-23533022Y-32801878D01*
X-23502092Y-32808459D01*
X-23484483Y-32812548D01*
X-23393438Y-32833193D01*
X-23301548Y-32852006D01*
X-23213580Y-32868045D01*
X-23158450Y-32876885D01*
X-23128914Y-32881333D01*
X-23102491Y-32885357D01*
X-23082709Y-32888415D01*
X-23074871Y-32889665D01*
X-23057968Y-32892458D01*
X-23058996Y-32819734D01*
X-23059946Y-32752557D01*
X-23723600Y-32752557D01*
X-23725504Y-32761842D01*
X-23730801Y-32781204D01*
X-23738871Y-32808671D01*
X-23749090Y-32842272D01*
X-23760838Y-32880034D01*
X-23773493Y-32919987D01*
X-23786432Y-32960158D01*
X-23799034Y-32998577D01*
X-23810678Y-33033270D01*
X-23820741Y-33062267D01*
X-23824893Y-33073763D01*
X-23879839Y-33214352D01*
X-23937257Y-33344344D01*
X-23996986Y-33463523D01*
X-24058866Y-33571672D01*
X-24122737Y-33668573D01*
X-24188437Y-33754010D01*
X-24255805Y-33827765D01*
X-24324681Y-33889623D01*
X-24394905Y-33939365D01*
X-24466315Y-33976775D01*
X-24505018Y-33991674D01*
X-24572736Y-34008590D01*
X-24640524Y-34013384D01*
X-24710155Y-34006123D01*
X-24736425Y-34000471D01*
X-24803666Y-33977909D01*
X-24871211Y-33942998D01*
X-24938671Y-33896073D01*
X-25005662Y-33837468D01*
X-25071797Y-33767516D01*
X-25136688Y-33686550D01*
X-25191855Y-33607375D01*
X-25218336Y-33564537D01*
X-25247978Y-33512460D01*
X-25279454Y-33453782D01*
X-25311435Y-33391144D01*
X-25342593Y-33327186D01*
X-25371599Y-33264546D01*
X-25397126Y-33205866D01*
X-25410714Y-33172400D01*
X-25426118Y-33132066D01*
X-25442377Y-33087596D01*
X-25459000Y-33040520D01*
X-25475497Y-32992370D01*
X-25491376Y-32944676D01*
X-25506147Y-32898969D01*
X-25519319Y-32856780D01*
X-25530402Y-32819640D01*
X-25538904Y-32789079D01*
X-25544335Y-32766630D01*
X-25546204Y-32753822D01*
X-25545633Y-32751500D01*
X-25539154Y-32749094D01*
X-25522050Y-32743205D01*
X-25495762Y-32734317D01*
X-25461730Y-32722913D01*
X-25421394Y-32709477D01*
X-25376195Y-32694492D01*
X-25346025Y-32684525D01*
X-25220477Y-32641566D01*
X-25092172Y-32594770D01*
X-24965002Y-32545640D01*
X-24842861Y-32495676D01*
X-24737491Y-32449909D01*
X-24636958Y-32404813D01*
X-24543816Y-32446292D01*
X-24472866Y-32477220D01*
X-24396845Y-32509148D01*
X-24317400Y-32541462D01*
X-24236180Y-32573549D01*
X-24154835Y-32604793D01*
X-24075012Y-32634581D01*
X-23998359Y-32662299D01*
X-23926527Y-32687331D01*
X-23861162Y-32709065D01*
X-23803914Y-32726885D01*
X-23756432Y-32740178D01*
X-23752144Y-32741270D01*
X-23735273Y-32746316D01*
X-23725028Y-32750920D01*
X-23723600Y-32752557D01*
X-23059946Y-32752557D01*
X-23060025Y-32747009D01*
X-23079075Y-32743789D01*
X-23095178Y-32741208D01*
X-23118600Y-32737618D01*
X-23142575Y-32734045D01*
X-23194176Y-32725746D01*
X-23254024Y-32714919D01*
X-23318105Y-32702359D01*
X-23382408Y-32688854D01*
X-23442919Y-32675198D01*
X-23452793Y-32672857D01*
X-23547112Y-32650323D01*
X-23543586Y-32633549D01*
X-23541158Y-32622192D01*
X-23536525Y-32600696D01*
X-23530179Y-32571335D01*
X-23522611Y-32536379D01*
X-23514312Y-32498102D01*
X-23514274Y-32497924D01*
X-23492785Y-32393399D01*
X-23471843Y-32280978D01*
X-23452309Y-32165462D01*
X-23438218Y-32073670D01*
X-23434730Y-32048588D01*
X-23430418Y-32015692D01*
X-23425517Y-31976974D01*
X-23420265Y-31934428D01*
X-23414895Y-31890044D01*
X-23409646Y-31845818D01*
X-23404751Y-31803740D01*
X-23403691Y-31794388D01*
X-23547935Y-31794388D01*
X-23556345Y-31865856D01*
X-23573626Y-32000854D01*
X-23593695Y-32136773D01*
X-23615975Y-32270155D01*
X-23639893Y-32397543D01*
X-23663254Y-32508290D01*
X-23670778Y-32542025D01*
X-23677214Y-32571163D01*
X-23682094Y-32593561D01*
X-23684950Y-32607080D01*
X-23685500Y-32610082D01*
X-23691320Y-32609658D01*
X-23708064Y-32605409D01*
X-23734652Y-32597665D01*
X-23770005Y-32586755D01*
X-23813046Y-32573010D01*
X-23862695Y-32556759D01*
X-23894721Y-32546105D01*
X-24044843Y-32493556D01*
X-24197774Y-32435604D01*
X-24343384Y-32376226D01*
X-24458916Y-32327317D01*
X-24815423Y-32327317D01*
X-24816196Y-32327945D01*
X-24827097Y-32333136D01*
X-24847907Y-32342239D01*
X-24876733Y-32354479D01*
X-24911684Y-32369079D01*
X-24950865Y-32385260D01*
X-24992384Y-32402246D01*
X-25034348Y-32419261D01*
X-25074865Y-32435526D01*
X-25112042Y-32450265D01*
X-25143985Y-32462700D01*
X-25150418Y-32465162D01*
X-25184504Y-32477867D01*
X-25224417Y-32492267D01*
X-25268486Y-32507806D01*
X-25315038Y-32523924D01*
X-25362403Y-32540064D01*
X-25408907Y-32555667D01*
X-25452879Y-32570176D01*
X-25492647Y-32583032D01*
X-25526538Y-32593678D01*
X-25552881Y-32601554D01*
X-25570004Y-32606104D01*
X-25575371Y-32607012D01*
X-25584210Y-32604823D01*
X-25590155Y-32595903D01*
X-25595161Y-32577302D01*
X-25595207Y-32577087D01*
X-25615552Y-32479963D01*
X-25633224Y-32393049D01*
X-25648595Y-32314228D01*
X-25662038Y-32241380D01*
X-25673926Y-32172388D01*
X-25684631Y-32105132D01*
X-25694528Y-32037495D01*
X-25703989Y-31967359D01*
X-25707818Y-31937473D01*
X-25712706Y-31898416D01*
X-25716994Y-31863441D01*
X-25720437Y-31834588D01*
X-25722795Y-31813893D01*
X-25723824Y-31803395D01*
X-25723850Y-31802749D01*
X-25718879Y-31803273D01*
X-25705167Y-31809883D01*
X-25684516Y-31821585D01*
X-25658724Y-31837383D01*
X-25642887Y-31847530D01*
X-25515482Y-31928464D01*
X-25381910Y-32009731D01*
X-25245458Y-32089437D01*
X-25109413Y-32165691D01*
X-24977063Y-32236599D01*
X-24886025Y-32283221D01*
X-24852294Y-32300628D01*
X-24829683Y-32313524D01*
X-24817592Y-32322293D01*
X-24815423Y-32327317D01*
X-24458916Y-32327317D01*
X-24465327Y-32324603D01*
X-24337351Y-32257964D01*
X-24132943Y-32148413D01*
X-23936719Y-32036704D01*
X-23744174Y-31920197D01*
X-23564330Y-31805141D01*
X-23547935Y-31794388D01*
X-23403691Y-31794388D01*
X-23400449Y-31765804D01*
X-23396973Y-31734002D01*
X-23394562Y-31710327D01*
X-23393449Y-31696772D01*
X-23393402Y-31695224D01*
X-23388485Y-31689359D01*
X-23374848Y-31677519D01*
X-23354156Y-31661036D01*
X-23328074Y-31641244D01*
X-23302912Y-31622815D01*
X-23185518Y-31535962D01*
X-23067651Y-31444568D01*
X-22952596Y-31351277D01*
X-22843639Y-31258735D01*
X-22775374Y-31198186D01*
X-22746109Y-31171777D01*
X-22717792Y-31146330D01*
X-22692748Y-31123924D01*
X-22673299Y-31106641D01*
X-22664864Y-31099230D01*
X-22635804Y-31073936D01*
X-22579305Y-31134155D01*
X-22465086Y-31260286D01*
X-22361964Y-31383337D01*
X-22270045Y-31503138D01*
X-22189434Y-31619520D01*
X-22120237Y-31732314D01*
X-22062560Y-31841349D01*
X-22016508Y-31946457D01*
X-21982187Y-32047469D01*
X-21964189Y-32120536D01*
X-21954131Y-32187727D01*
X-21950769Y-32255409D01*
X-21953906Y-32321004D01*
X-21963342Y-32381935D01*
X-21978879Y-32435624D01*
X-21990527Y-32462273D01*
X-22027985Y-32522863D01*
X-22074806Y-32576624D01*
X-22128965Y-32621267D01*
X-22134223Y-32624821D01*
X-22151638Y-32637132D01*
X-22163789Y-32647151D01*
X-22167850Y-32652289D01*
X-22166354Y-32660788D01*
X-22162479Y-32677531D01*
X-22158325Y-32693999D01*
X-22152805Y-32721449D01*
X-22149367Y-32750590D01*
X-22148800Y-32764159D01*
X-22147970Y-32782868D01*
X-22145837Y-32795062D01*
X-22143936Y-32797750D01*
X-22134284Y-32794291D01*
X-22116897Y-32784991D01*
X-22094326Y-32771459D01*
X-22069118Y-32755307D01*
X-22043823Y-32738145D01*
X-22020990Y-32721586D01*
X-22010583Y-32713462D01*
X-21959508Y-32665294D01*
X-21912863Y-32607953D01*
X-21872956Y-32544788D01*
X-21842098Y-32479149D01*
X-21834463Y-32458025D01*
X-21818998Y-32398007D01*
X-21809383Y-32330194D01*
X-21805815Y-32258159D01*
X-21808489Y-32185479D01*
X-21816102Y-32124181D01*
X-21839900Y-32018326D01*
X-21875809Y-31908979D01*
X-21923836Y-31796127D01*
X-21983992Y-31679754D01*
X-22056283Y-31559847D01*
X-22140718Y-31436391D01*
X-22237307Y-31309373D01*
X-22346057Y-31178778D01*
X-22457238Y-31055046D01*
X-22533007Y-30973484D01*
X-22740007Y-30973484D01*
X-22820641Y-31046677D01*
X-22878624Y-31098866D01*
X-22932106Y-31145957D01*
X-22984687Y-31191033D01*
X-23039969Y-31237178D01*
X-23101553Y-31287475D01*
X-23107650Y-31292409D01*
X-23144376Y-31321854D01*
X-23182555Y-31352002D01*
X-23220817Y-31381816D01*
X-23257791Y-31410258D01*
X-23292107Y-31436293D01*
X-23322396Y-31458882D01*
X-23347288Y-31476989D01*
X-23365411Y-31489577D01*
X-23375397Y-31495610D01*
X-23376625Y-31495986D01*
X-23379564Y-31490836D01*
X-23378624Y-31481712D01*
X-23377537Y-31472000D01*
X-23376093Y-31451256D01*
X-23374378Y-31421141D01*
X-23372479Y-31383317D01*
X-23370481Y-31339444D01*
X-23368469Y-31291183D01*
X-23367542Y-31267400D01*
X-23365314Y-31193481D01*
X-23363890Y-31111784D01*
X-23363248Y-31024893D01*
X-23363280Y-30999737D01*
X-23510716Y-30999737D01*
X-23510857Y-31084134D01*
X-23511474Y-31166637D01*
X-23512566Y-31245963D01*
X-23514133Y-31320828D01*
X-23516175Y-31389947D01*
X-23518693Y-31452038D01*
X-23521686Y-31505815D01*
X-23525154Y-31549996D01*
X-23529097Y-31583296D01*
X-23530851Y-31593509D01*
X-23533346Y-31600066D01*
X-23539141Y-31607692D01*
X-23549419Y-31617298D01*
X-23565364Y-31629798D01*
X-23588159Y-31646104D01*
X-23618990Y-31667129D01*
X-23659038Y-31693787D01*
X-23671864Y-31702252D01*
X-23798611Y-31783862D01*
X-23932581Y-31866526D01*
X-24068943Y-31947310D01*
X-24174450Y-32007460D01*
X-24200795Y-32021968D01*
X-24233882Y-32039814D01*
X-24272275Y-32060256D01*
X-24314539Y-32082555D01*
X-24359241Y-32105969D01*
X-24404945Y-32129757D01*
X-24450217Y-32153178D01*
X-24493622Y-32175492D01*
X-24533726Y-32195956D01*
X-24569093Y-32213831D01*
X-24598291Y-32228374D01*
X-24619882Y-32238846D01*
X-24632435Y-32244505D01*
X-24634919Y-32245300D01*
X-24641280Y-32242552D01*
X-24657549Y-32234778D01*
X-24682301Y-32222679D01*
X-24714108Y-32206960D01*
X-24751544Y-32188322D01*
X-24793184Y-32167468D01*
X-24808113Y-32159964D01*
X-24975116Y-32073816D01*
X-25133430Y-31987601D01*
X-25286886Y-31899109D01*
X-25439313Y-31806131D01*
X-25594539Y-31706457D01*
X-25597633Y-31704423D01*
X-25741291Y-31609944D01*
X-25745238Y-31560909D01*
X-25750965Y-31482213D01*
X-25751401Y-31474550D01*
X-25896326Y-31474550D01*
X-25896408Y-31489916D01*
X-25897930Y-31495995D01*
X-25897994Y-31496000D01*
X-25904258Y-31492371D01*
X-25918772Y-31482369D01*
X-25939683Y-31467316D01*
X-25965140Y-31448535D01*
X-25979696Y-31437632D01*
X-26056710Y-31378632D01*
X-26135922Y-31316054D01*
X-26215121Y-31251735D01*
X-26292097Y-31187516D01*
X-26364639Y-31125233D01*
X-26430538Y-31066726D01*
X-26475687Y-31025099D01*
X-26532200Y-30971923D01*
X-26440762Y-30889170D01*
X-26357665Y-30814894D01*
X-26279589Y-30747201D01*
X-26203070Y-30683222D01*
X-26124645Y-30620090D01*
X-26040850Y-30554937D01*
X-25994379Y-30519590D01*
X-25964517Y-30497266D01*
X-25938232Y-30478080D01*
X-25917142Y-30463175D01*
X-25902862Y-30453693D01*
X-25897010Y-30450776D01*
X-25896990Y-30450792D01*
X-25896537Y-30457622D01*
X-25896699Y-30475399D01*
X-25897421Y-30502389D01*
X-25898650Y-30536856D01*
X-25900333Y-30577064D01*
X-25901982Y-30612434D01*
X-25903350Y-30648707D01*
X-25904451Y-30694589D01*
X-25905291Y-30748505D01*
X-25905880Y-30808883D01*
X-25906225Y-30874149D01*
X-25906333Y-30942730D01*
X-25906214Y-31013052D01*
X-25905875Y-31083541D01*
X-25905324Y-31152624D01*
X-25904569Y-31218729D01*
X-25903618Y-31280280D01*
X-25902479Y-31335706D01*
X-25901160Y-31383432D01*
X-25899670Y-31421885D01*
X-25898015Y-31449491D01*
X-25897705Y-31453137D01*
X-25896326Y-31474550D01*
X-25751401Y-31474550D01*
X-25755547Y-31401800D01*
X-25759051Y-31317621D01*
X-25761541Y-31227628D01*
X-25763084Y-31129772D01*
X-25763745Y-31022005D01*
X-25763780Y-30981650D01*
X-25763591Y-30896721D01*
X-25763026Y-30821647D01*
X-25761996Y-30753588D01*
X-25760409Y-30689702D01*
X-25758176Y-30627147D01*
X-25755206Y-30563083D01*
X-25751409Y-30494668D01*
X-25746696Y-30419060D01*
X-25745201Y-30396239D01*
X-25741136Y-30334703D01*
X-25616605Y-30252819D01*
X-25424774Y-30130133D01*
X-25234458Y-30015577D01*
X-25041426Y-29906712D01*
X-24841448Y-29801102D01*
X-24767070Y-29763475D01*
X-24638966Y-29699373D01*
X-24563870Y-29735026D01*
X-24453816Y-29789057D01*
X-24336282Y-29850064D01*
X-24213462Y-29916794D01*
X-24087551Y-29987993D01*
X-23960742Y-30062408D01*
X-23835229Y-30138788D01*
X-23713208Y-30215879D01*
X-23652955Y-30255113D01*
X-23534686Y-30332961D01*
X-23530833Y-30366793D01*
X-23526696Y-30410458D01*
X-23523035Y-30463784D01*
X-23519849Y-30525487D01*
X-23517138Y-30594284D01*
X-23514903Y-30668891D01*
X-23513143Y-30748023D01*
X-23511859Y-30830398D01*
X-23511049Y-30914730D01*
X-23510716Y-30999737D01*
X-23363280Y-30999737D01*
X-23363364Y-30935391D01*
X-23364213Y-30845861D01*
X-23365773Y-30758887D01*
X-23368019Y-30677053D01*
X-23370928Y-30602940D01*
X-23374173Y-30543741D01*
X-23376106Y-30510993D01*
X-23377398Y-30483016D01*
X-23377970Y-30462126D01*
X-23377744Y-30450639D01*
X-23377402Y-30449185D01*
X-23371172Y-30451569D01*
X-23356232Y-30461176D01*
X-23333681Y-30477158D01*
X-23304615Y-30498670D01*
X-23270133Y-30524864D01*
X-23231331Y-30554894D01*
X-23189308Y-30587914D01*
X-23145162Y-30623077D01*
X-23099989Y-30659535D01*
X-23054887Y-30696443D01*
X-23028275Y-30718487D01*
X-22979638Y-30759161D01*
X-22938109Y-30794383D01*
X-22900869Y-30826620D01*
X-22865098Y-30858344D01*
X-22827979Y-30892023D01*
X-22786693Y-30930127D01*
X-22785716Y-30931035D01*
X-22740007Y-30973484D01*
X-22533007Y-30973484D01*
X-22534295Y-30972098D01*
X-22471057Y-30905436D01*
X-22352721Y-30775763D01*
X-22245426Y-30647922D01*
X-22149322Y-30522152D01*
X-22064559Y-30398694D01*
X-21991287Y-30277786D01*
X-21929656Y-30159670D01*
X-21879817Y-30044585D01*
X-21841920Y-29932771D01*
X-21827160Y-29876750D01*
X-21817995Y-29828527D01*
X-21811343Y-29773898D01*
X-21807405Y-29716801D01*
X-21806465Y-29665668D01*
X-21951135Y-29665668D01*
X-21952053Y-29722020D01*
X-21956880Y-29778227D01*
X-21964219Y-29823839D01*
X-21988752Y-29918519D01*
X-22024546Y-30017768D01*
X-22071263Y-30120984D01*
X-22128563Y-30227568D01*
X-22196107Y-30336919D01*
X-22273556Y-30448438D01*
X-22360571Y-30561523D01*
X-22424808Y-30638750D01*
X-22454909Y-30673459D01*
X-22486240Y-30708853D01*
X-22517594Y-30743640D01*
X-22547765Y-30776530D01*
X-22575544Y-30806231D01*
X-22599727Y-30831453D01*
X-22619106Y-30850905D01*
X-22632474Y-30863295D01*
X-22638483Y-30867350D01*
X-22645261Y-30863230D01*
X-22659086Y-30852046D01*
X-22677872Y-30835559D01*
X-22697228Y-30817710D01*
X-22778290Y-30743475D01*
X-22868128Y-30665022D01*
X-22964401Y-30584266D01*
X-23064764Y-30503124D01*
X-23166874Y-30423513D01*
X-23268389Y-30347349D01*
X-23304035Y-30321362D01*
X-23337002Y-30297278D01*
X-23360961Y-30279030D01*
X-23377377Y-30265273D01*
X-23387716Y-30254660D01*
X-23393442Y-30245846D01*
X-23396023Y-30237484D01*
X-23396141Y-30236767D01*
X-23397934Y-30223321D01*
X-23400704Y-30200083D01*
X-23404126Y-30169894D01*
X-23407609Y-30138012D01*
X-23552150Y-30138012D01*
X-23554652Y-30140695D01*
X-23562884Y-30138465D01*
X-23577931Y-30130746D01*
X-23600877Y-30116966D01*
X-23632809Y-30096548D01*
X-23642637Y-30090134D01*
X-23677006Y-30067949D01*
X-23718829Y-30041447D01*
X-23764638Y-30012795D01*
X-23810968Y-29984161D01*
X-23854352Y-29957711D01*
X-23856922Y-29956158D01*
X-23943251Y-29904861D01*
X-24033464Y-29852764D01*
X-24124507Y-29801569D01*
X-24213329Y-29752975D01*
X-24296876Y-29708684D01*
X-24350639Y-29681124D01*
X-24384533Y-29663845D01*
X-24414164Y-29648366D01*
X-24437797Y-29635626D01*
X-24453695Y-29626560D01*
X-24460122Y-29622109D01*
X-24460176Y-29621957D01*
X-24459040Y-29621183D01*
X-24808404Y-29621183D01*
X-24927989Y-29683217D01*
X-25068591Y-29757812D01*
X-25208858Y-29835437D01*
X-25345998Y-29914477D01*
X-25477218Y-29993313D01*
X-25599726Y-30070330D01*
X-25625306Y-30086918D01*
X-25655865Y-30106740D01*
X-25682494Y-30123799D01*
X-25703486Y-30137017D01*
X-25717132Y-30145317D01*
X-25721727Y-30147688D01*
X-25721363Y-30141299D01*
X-25719592Y-30124242D01*
X-25716634Y-30098449D01*
X-25712714Y-30065847D01*
X-25708052Y-30028365D01*
X-25707333Y-30022686D01*
X-25689556Y-29891716D01*
X-25670125Y-29767311D01*
X-25648058Y-29643354D01*
X-25637544Y-29588821D01*
X-25628443Y-29543482D01*
X-25619121Y-29498606D01*
X-25609978Y-29455964D01*
X-25601409Y-29417324D01*
X-25593815Y-29384458D01*
X-25587593Y-29359135D01*
X-25583142Y-29343124D01*
X-25581161Y-29338244D01*
X-25574317Y-29339033D01*
X-25557329Y-29343293D01*
X-25532089Y-29350440D01*
X-25500488Y-29359890D01*
X-25464417Y-29371057D01*
X-25425768Y-29383358D01*
X-25386432Y-29396209D01*
X-25348300Y-29409024D01*
X-25317450Y-29419735D01*
X-25233883Y-29449863D01*
X-25149030Y-29481527D01*
X-25065464Y-29513715D01*
X-24985761Y-29545417D01*
X-24912495Y-29575621D01*
X-24848242Y-29603316D01*
X-24835914Y-29608818D01*
X-24808404Y-29621183D01*
X-24459040Y-29621183D01*
X-24454517Y-29618104D01*
X-24438524Y-29610283D01*
X-24413705Y-29599117D01*
X-24381567Y-29585230D01*
X-24343617Y-29569246D01*
X-24301362Y-29551790D01*
X-24256309Y-29533485D01*
X-24209966Y-29514955D01*
X-24163839Y-29496824D01*
X-24119435Y-29479717D01*
X-24088304Y-29467983D01*
X-24037041Y-29449185D01*
X-23984648Y-29430528D01*
X-23932529Y-29412464D01*
X-23882091Y-29395443D01*
X-23834737Y-29379916D01*
X-23791873Y-29366334D01*
X-23754904Y-29355149D01*
X-23725235Y-29346811D01*
X-23704271Y-29341771D01*
X-23693417Y-29340480D01*
X-23692342Y-29340892D01*
X-23689588Y-29348528D01*
X-23684725Y-29366692D01*
X-23678184Y-29393468D01*
X-23670393Y-29426941D01*
X-23661781Y-29465195D01*
X-23652778Y-29506314D01*
X-23643813Y-29548382D01*
X-23635316Y-29589484D01*
X-23627716Y-29627703D01*
X-23625617Y-29638625D01*
X-23618531Y-29677415D01*
X-23610746Y-29722712D01*
X-23602525Y-29772730D01*
X-23594131Y-29825684D01*
X-23585827Y-29879788D01*
X-23577876Y-29933257D01*
X-23570539Y-29984305D01*
X-23564080Y-30031149D01*
X-23558761Y-30072002D01*
X-23554845Y-30105078D01*
X-23552595Y-30128594D01*
X-23552150Y-30138012D01*
X-23407609Y-30138012D01*
X-23407874Y-30135595D01*
X-23409406Y-30121225D01*
X-23426426Y-29978378D01*
X-23447680Y-29829852D01*
X-23472374Y-29680534D01*
X-23499712Y-29535309D01*
X-23521423Y-29432250D01*
X-23529638Y-29394875D01*
X-23536870Y-29361444D01*
X-23542672Y-29334060D01*
X-23546598Y-29314827D01*
X-23548203Y-29305850D01*
X-23548208Y-29305802D01*
X-23544524Y-29300718D01*
X-23532249Y-29294668D01*
X-23510736Y-29287478D01*
X-23479341Y-29278977D01*
X-23437420Y-29268990D01*
X-23384328Y-29257345D01*
X-23319419Y-29243870D01*
X-23310850Y-29242130D01*
X-23157086Y-29214299D01*
X-23009797Y-29194339D01*
X-22869511Y-29182259D01*
X-22736755Y-29178068D01*
X-22612057Y-29181774D01*
X-22495946Y-29193385D01*
X-22388949Y-29212910D01*
X-22336125Y-29226468D01*
X-22254058Y-29254956D01*
X-22180640Y-29290924D01*
X-22116402Y-29333889D01*
X-22061875Y-29383365D01*
X-22017590Y-29438867D01*
X-21984077Y-29499911D01*
X-21961867Y-29566012D01*
X-21961217Y-29568775D01*
X-21954174Y-29613233D01*
X-21951135Y-29665668D01*
X-21806465Y-29665668D01*
X-21806382Y-29661175D01*
X-21808473Y-29610958D01*
X-21812074Y-29580020D01*
X-21824751Y-29523300D01*
X-21844133Y-29464022D01*
X-21868135Y-29408043D01*
X-21883734Y-29378737D01*
X-21916774Y-29330942D01*
X-21959663Y-29282631D01*
X-22009863Y-29236073D01*
X-22064833Y-29193535D01*
X-22122031Y-29157287D01*
X-22145959Y-29144559D01*
X-22193411Y-29123733D01*
X-22250721Y-29103384D01*
X-22315052Y-29084295D01*
X-22383566Y-29067248D01*
X-22453427Y-29053026D01*
X-22510750Y-29043881D01*
X-22540144Y-29040981D01*
X-22579795Y-29038728D01*
X-22627275Y-29037124D01*
X-22680159Y-29036168D01*
X-22736020Y-29035859D01*
X-22792430Y-29036197D01*
X-22846963Y-29037183D01*
X-22897193Y-29038815D01*
X-22940692Y-29041094D01*
X-22974300Y-29043937D01*
X-23038475Y-29051783D01*
X-23110216Y-29061834D01*
X-23184878Y-29073360D01*
X-23257820Y-29085634D01*
X-23324399Y-29097927D01*
X-23345734Y-29102180D01*
X-23386162Y-29110618D01*
X-23427841Y-29119643D01*
X-23468548Y-29128741D01*
X-23506061Y-29137398D01*
X-23538156Y-29145100D01*
X-23562610Y-29151331D01*
X-23577200Y-29155577D01*
X-23578445Y-29156029D01*
X-23584251Y-29155311D01*
X-23590005Y-29147203D01*
X-23596685Y-29129860D01*
X-23602717Y-29110278D01*
X-23611298Y-29081741D01*
X-23621885Y-29047725D01*
X-23633807Y-29010267D01*
X-23646387Y-28971409D01*
X-23658954Y-28933190D01*
X-23670832Y-28897648D01*
X-23681348Y-28866824D01*
X-23689828Y-28842757D01*
X-23695599Y-28827486D01*
X-23697535Y-28823306D01*
X-23702524Y-28819329D01*
X-23711623Y-28819547D01*
X-23727534Y-28824408D01*
X-23744986Y-28831137D01*
X-23770359Y-28840406D01*
X-23795071Y-28847984D01*
X-23811887Y-28851863D01*
X-23837076Y-28855891D01*
X-23809794Y-28932933D01*
X-23798866Y-28964634D01*
X-23787076Y-29000259D01*
X-23775021Y-29037835D01*
X-23763302Y-29075383D01*
X-23752517Y-29110930D01*
X-23743264Y-29142500D01*
X-23736141Y-29168116D01*
X-23731748Y-29185803D01*
X-23730683Y-29193586D01*
X-23730772Y-29193735D01*
X-23737142Y-29196197D01*
X-23754143Y-29202178D01*
X-23780351Y-29211191D01*
X-23814345Y-29222753D01*
X-23854702Y-29236378D01*
X-23899999Y-29251583D01*
X-23933150Y-29262662D01*
X-24098006Y-29320045D01*
X-24262436Y-29381902D01*
X-24421958Y-29446501D01*
X-24534129Y-29495014D01*
X-24636634Y-29540675D01*
X-24730979Y-29498404D01*
X-24845007Y-29448870D01*
X-24965940Y-29399191D01*
X-25090113Y-29350766D01*
X-25213864Y-29304992D01*
X-25225140Y-29301060D01*
X-25723850Y-29301060D01*
X-25725189Y-29309231D01*
X-25728909Y-29327664D01*
X-25734558Y-29354239D01*
X-25741688Y-29386836D01*
X-25748945Y-29419329D01*
X-25774408Y-29539635D01*
X-25798708Y-29668686D01*
X-25821205Y-29802536D01*
X-25841261Y-29937241D01*
X-25858237Y-30068856D01*
X-25867256Y-30150282D01*
X-25878082Y-30255539D01*
X-25983528Y-30332749D01*
X-26115651Y-30431483D01*
X-26238760Y-30527750D01*
X-26355629Y-30623801D01*
X-26469035Y-30721891D01*
X-26527125Y-30774056D01*
X-26564318Y-30807537D01*
X-26593252Y-30832781D01*
X-26614743Y-30850432D01*
X-26629607Y-30861138D01*
X-26638662Y-30865543D01*
X-26642229Y-30865008D01*
X-26648886Y-30858063D01*
X-26662544Y-30843630D01*
X-26681522Y-30823492D01*
X-26704139Y-30799430D01*
X-26717434Y-30785261D01*
X-26815058Y-30677265D01*
X-26905918Y-30568862D01*
X-26989122Y-30461261D01*
X-27063775Y-30355675D01*
X-27128985Y-30253316D01*
X-27183858Y-30155394D01*
X-27188554Y-30146261D01*
X-27222271Y-30077602D01*
X-27249665Y-30015748D01*
X-27272061Y-29957363D01*
X-27290782Y-29899114D01*
X-27300275Y-29864850D01*
X-27307824Y-29835052D01*
X-27313137Y-29810251D01*
X-27316610Y-29786927D01*
X-27318635Y-29761557D01*
X-27319608Y-29730623D01*
X-27319923Y-29690602D01*
X-27319926Y-29689425D01*
X-27319861Y-29650057D01*
X-27319234Y-29620460D01*
X-27317723Y-29597703D01*
X-27315007Y-29578860D01*
X-27310763Y-29561002D01*
X-27304671Y-29541200D01*
X-27303128Y-29536527D01*
X-27274561Y-29470031D01*
X-27235528Y-29409913D01*
X-27187035Y-29357543D01*
X-27149748Y-29327469D01*
X-27083414Y-29286073D01*
X-27009929Y-29251659D01*
X-26928666Y-29224091D01*
X-26838992Y-29203232D01*
X-26740277Y-29188944D01*
X-26631893Y-29181090D01*
X-26513207Y-29179533D01*
X-26473537Y-29180327D01*
X-26359457Y-29185766D01*
X-26245495Y-29196047D01*
X-26128973Y-29211532D01*
X-26007213Y-29232586D01*
X-25877537Y-29259574D01*
X-25857200Y-29264165D01*
X-25822155Y-29272138D01*
X-25790288Y-29279365D01*
X-25764198Y-29285257D01*
X-25746484Y-29289227D01*
X-25741312Y-29290366D01*
X-25728662Y-29295260D01*
X-25723850Y-29301060D01*
X-25225140Y-29301060D01*
X-25333530Y-29263266D01*
X-25428529Y-29232268D01*
X-25464367Y-29220944D01*
X-25495761Y-29210924D01*
X-25520810Y-29202824D01*
X-25537613Y-29197259D01*
X-25544266Y-29194844D01*
X-25544293Y-29194823D01*
X-25543283Y-29188199D01*
X-25538824Y-29171356D01*
X-25531485Y-29146120D01*
X-25521834Y-29114319D01*
X-25510441Y-29077781D01*
X-25497874Y-29038333D01*
X-25484702Y-28997803D01*
X-25471495Y-28958019D01*
X-25460647Y-28926102D01*
X-25423917Y-28824756D01*
X-25385040Y-28728674D01*
X-25341854Y-28632763D01*
X-25297474Y-28542308D01*
X-25234470Y-28426184D01*
X-25169665Y-28322627D01*
X-25103058Y-28231637D01*
X-25034652Y-28153216D01*
X-24964447Y-28087364D01*
X-24892443Y-28034083D01*
X-24845919Y-28006845D01*
X-24803015Y-27985580D01*
X-24765730Y-27970561D01*
X-24729609Y-27960298D01*
X-24690199Y-27953300D01*
X-24682950Y-27952340D01*
X-24617084Y-27949632D01*
X-24551305Y-27958458D01*
X-24485042Y-27979023D01*
X-24417724Y-28011529D01*
X-24348780Y-28056179D01*
X-24312239Y-28084149D01*
X-24269053Y-28118869D01*
X-24242389Y-28091037D01*
X-24222477Y-28071383D01*
X-24201028Y-28051879D01*
X-24190325Y-28042900D01*
X-24164925Y-28022594D01*
X-24199850Y-27990680D01*
X-24226694Y-27968077D01*
X-24259987Y-27942918D01*
X-24296464Y-27917412D01*
X-24332863Y-27893765D01*
X-24365922Y-27874183D01*
X-24390605Y-27861646D01*
X-24413584Y-27852197D01*
X-24443045Y-27841055D01*
X-24473355Y-27830337D01*
X-24479284Y-27828343D01*
X-24500714Y-27821499D01*
X-24519125Y-27816655D01*
X-24537481Y-27813472D01*
X-24558751Y-27811609D01*
X-24585898Y-27810725D01*
X-24621891Y-27810479D01*
X-24634825Y-27810478D01*
X-24674576Y-27810688D01*
M02*
