%TF.GenerationSoftware,KiCad,Pcbnew,4.0.7-e2-6376~58~ubuntu16.04.1*%
%TF.CreationDate,2018-01-20T15:39:55+01:00*%
%TF.ProjectId,OLEDModule,4F4C45444D6F64756C652E6B69636164,rev?*%
%TF.FileFunction,Profile,NP*%
%FSLAX46Y46*%
G04 Gerber Fmt 4.6, Leading zero omitted, Abs format (unit mm)*
G04 Created by KiCad (PCBNEW 4.0.7-e2-6376~58~ubuntu16.04.1) date Sat Jan 20 15:39:55 2018*
%MOMM*%
%LPD*%
G01*
G04 APERTURE LIST*
%ADD10C,0.100000*%
G04 APERTURE END LIST*
D10*
X23385451Y-1075267D02*
X22157272Y-1075267D01*
X24321979Y-1075267D02*
X23385451Y-1075267D01*
X25006390Y-1075267D02*
X24321979Y-1075267D01*
X25478219Y-1075267D02*
X25006390Y-1075267D01*
X25777001Y-1075267D02*
X25478219Y-1075267D01*
X25942272Y-1075267D02*
X25777001Y-1075267D01*
X26013567Y-1075267D02*
X25942272Y-1075267D01*
X26030419Y-1075267D02*
X26013567Y-1075267D01*
X26030869Y-1075267D02*
X26030419Y-1075267D01*
X26032473Y-1075267D02*
X26030869Y-1075267D01*
X26037950Y-1075267D02*
X26032473Y-1075267D01*
X26049686Y-1075267D02*
X26037950Y-1075267D01*
X26070067Y-1075267D02*
X26049686Y-1075267D01*
X26101480Y-1075267D02*
X26070067Y-1075267D01*
X26146311Y-1075267D02*
X26101480Y-1075267D01*
X26206947Y-1075267D02*
X26146311Y-1075267D01*
X26285760Y-1075271D02*
X26206947Y-1075267D01*
X26383492Y-1075890D02*
X26285760Y-1075271D01*
X26497678Y-1078919D02*
X26383492Y-1075890D01*
X26625480Y-1086293D02*
X26497678Y-1078919D01*
X26764060Y-1099945D02*
X26625480Y-1086293D01*
X26910580Y-1121812D02*
X26764060Y-1099945D01*
X27062201Y-1153826D02*
X26910580Y-1121812D01*
X27216086Y-1197923D02*
X27062201Y-1153826D01*
X27369396Y-1256037D02*
X27216086Y-1197923D01*
X27519442Y-1329728D02*
X27369396Y-1256037D01*
X27664415Y-1418336D02*
X27519442Y-1329728D01*
X27802833Y-1520378D02*
X27664415Y-1418336D01*
X27933211Y-1634371D02*
X27802833Y-1520378D01*
X28054069Y-1758834D02*
X27933211Y-1634371D01*
X28163923Y-1892283D02*
X28054069Y-1758834D01*
X28261291Y-2033235D02*
X28163923Y-1892283D01*
X28344689Y-2180209D02*
X28261291Y-2033235D01*
X28412704Y-2331694D02*
X28344689Y-2180209D01*
X28465540Y-2485539D02*
X28412704Y-2331694D01*
X28505056Y-2638935D02*
X28465540Y-2485539D01*
X28533187Y-2789043D02*
X28505056Y-2638935D01*
X28551868Y-2933027D02*
X28533187Y-2789043D01*
X28563033Y-3068047D02*
X28551868Y-2933027D01*
X28568617Y-3191266D02*
X28563033Y-3068047D01*
X28570553Y-3299845D02*
X28568617Y-3191266D01*
X28570777Y-3390956D02*
X28570553Y-3299845D01*
X28570777Y-3470686D02*
X28570777Y-3390956D01*
X28570777Y-3570498D02*
X28570777Y-3470686D01*
X28570777Y-3726337D02*
X28570777Y-3570498D01*
X28570777Y-3974151D02*
X28570777Y-3726337D01*
X28570777Y-4349885D02*
X28570777Y-3974151D01*
X28570777Y-4889485D02*
X28570777Y-4349885D01*
X28570777Y-5628900D02*
X28570777Y-4889485D01*
X28570777Y-6604074D02*
X28570777Y-5628900D01*
X28570777Y-7844058D02*
X28570777Y-6604074D01*
X28570777Y-9315352D02*
X28570777Y-7844058D01*
X28570777Y-10951145D02*
X28570777Y-9315352D01*
X28570777Y-12684318D02*
X28570777Y-10951145D01*
X28570777Y-14447750D02*
X28570777Y-12684318D01*
X28570777Y-16174321D02*
X28570777Y-14447750D01*
X28570777Y-17796911D02*
X28570777Y-16174321D01*
X28570777Y-19248399D02*
X28570777Y-17796911D01*
X28570777Y-20462452D02*
X28570777Y-19248399D01*
X28570777Y-21411859D02*
X28570777Y-20462452D01*
X28570777Y-22125796D02*
X28570777Y-21411859D01*
X28570777Y-22637821D02*
X28570777Y-22125796D01*
X28570777Y-22981496D02*
X28570777Y-22637821D01*
X28570777Y-23190380D02*
X28570777Y-22981496D01*
X28570777Y-23298034D02*
X28570777Y-23190380D01*
X28570777Y-23338017D02*
X28570777Y-23298034D01*
X28570777Y-23343890D02*
X28570777Y-23338017D01*
X28570777Y-23344975D02*
X28570777Y-23343890D01*
X28570777Y-23352786D02*
X28570777Y-23344975D01*
X28570777Y-23374164D02*
X28570777Y-23352786D01*
X28570777Y-23415946D02*
X28570777Y-23374164D01*
X28570777Y-23484972D02*
X28570777Y-23415946D01*
X28570777Y-23588081D02*
X28570777Y-23484972D01*
X28570777Y-23732112D02*
X28570777Y-23588081D01*
X28570777Y-23923904D02*
X28570777Y-23732112D01*
X28570777Y-24169532D02*
X28570777Y-23923904D01*
X28570777Y-24463946D02*
X28570777Y-24169532D01*
X28570777Y-24793676D02*
X28570777Y-24463946D01*
X28570777Y-25145045D02*
X28570777Y-24793676D01*
X28570777Y-25504373D02*
X28570777Y-25145045D01*
X28570777Y-25857984D02*
X28570777Y-25504373D01*
X28570777Y-26192198D02*
X28570777Y-25857984D01*
X28570777Y-26493339D02*
X28570777Y-26192198D01*
X28570777Y-26747770D02*
X28570777Y-26493339D01*
X28570777Y-26948044D02*
X28570777Y-26747770D01*
X28570777Y-27099436D02*
X28570777Y-26948044D01*
X28570777Y-27208784D02*
X28570777Y-27099436D01*
X28570777Y-27282929D02*
X28570777Y-27208784D01*
X28570777Y-27328709D02*
X28570777Y-27282929D01*
X28570777Y-27352963D02*
X28570777Y-27328709D01*
X28570777Y-27362530D02*
X28570777Y-27352963D01*
X28570777Y-27364248D02*
X28570777Y-27362530D01*
X28570777Y-27364770D02*
X28570777Y-27364248D01*
X28570777Y-27369565D02*
X28570777Y-27364770D01*
X28570777Y-27383650D02*
X28570777Y-27369565D01*
X28570777Y-27412039D02*
X28570777Y-27383650D01*
X28570777Y-27459746D02*
X28570777Y-27412039D01*
X28570777Y-27531788D02*
X28570777Y-27459746D01*
X28570777Y-27633177D02*
X28570777Y-27531788D01*
X28570777Y-27768929D02*
X28570777Y-27633177D01*
X28570777Y-27943790D02*
X28570777Y-27768929D01*
X28570777Y-28155529D02*
X28570777Y-27943790D01*
X28570777Y-28394478D02*
X28570777Y-28155529D01*
X28570777Y-28650609D02*
X28570777Y-28394478D01*
X28570777Y-28913892D02*
X28570777Y-28650609D01*
X28570777Y-29174298D02*
X28570777Y-28913892D01*
X28570777Y-29421797D02*
X28570777Y-29174298D01*
X28570777Y-29646360D02*
X28570777Y-29421797D01*
X28570777Y-29837961D02*
X28570777Y-29646360D01*
X28570777Y-29990332D02*
X28570777Y-29837961D01*
X28570777Y-30108432D02*
X28570777Y-29990332D01*
X28570777Y-30199305D02*
X28570777Y-30108432D01*
X28570777Y-30269995D02*
X28570777Y-30199305D01*
X28570777Y-30327548D02*
X28570777Y-30269995D01*
X28570777Y-30379006D02*
X28570777Y-30327548D01*
X28570777Y-30431414D02*
X28570777Y-30379006D01*
X28570777Y-30491817D02*
X28570777Y-30431414D01*
X28570674Y-30566667D02*
X28570777Y-30491817D01*
X28569378Y-30656744D02*
X28570674Y-30566667D01*
X28565251Y-30759667D02*
X28569378Y-30656744D01*
X28556646Y-30873024D02*
X28565251Y-30759667D01*
X28541918Y-30994399D02*
X28556646Y-30873024D01*
X28519422Y-31121380D02*
X28541918Y-30994399D01*
X28487513Y-31251553D02*
X28519422Y-31121380D01*
X28444546Y-31382503D02*
X28487513Y-31251553D01*
X28388894Y-31511825D02*
X28444546Y-31382503D01*
X28320030Y-31637547D02*
X28388894Y-31511825D01*
X28239079Y-31758355D02*
X28320030Y-31637547D01*
X28147301Y-31872988D02*
X28239079Y-31758355D01*
X28045957Y-31980185D02*
X28147301Y-31872988D01*
X27936309Y-32078684D02*
X28045957Y-31980185D01*
X27819618Y-32167225D02*
X27936309Y-32078684D01*
X27697144Y-32244547D02*
X27819618Y-32167225D01*
X27570148Y-32309388D02*
X27697144Y-32244547D01*
X27440066Y-32360926D02*
X27570148Y-32309388D01*
X27309099Y-32400273D02*
X27440066Y-32360926D01*
X27179662Y-32429073D02*
X27309099Y-32400273D01*
X27054168Y-32448973D02*
X27179662Y-32429073D01*
X26935031Y-32461617D02*
X27054168Y-32448973D01*
X26824665Y-32468651D02*
X26935031Y-32461617D01*
X26725484Y-32471720D02*
X26824665Y-32468651D01*
X26639902Y-32472470D02*
X26725484Y-32471720D01*
X26570165Y-32472489D02*
X26639902Y-32472470D01*
X26515909Y-32472489D02*
X26570165Y-32472489D01*
X26474710Y-32472489D02*
X26515909Y-32472489D01*
X26444085Y-32472489D02*
X26474710Y-32472489D01*
X26421555Y-32472489D02*
X26444085Y-32472489D01*
X26404637Y-32472489D02*
X26421555Y-32472489D01*
X26390850Y-32472489D02*
X26404637Y-32472489D01*
X26377714Y-32472489D02*
X26390850Y-32472489D01*
X26362752Y-32472489D02*
X26377714Y-32472489D01*
X26344474Y-32472489D02*
X26362752Y-32472489D01*
X26323508Y-32472489D02*
X26344474Y-32472489D01*
X26300758Y-32472489D02*
X26323508Y-32472489D01*
X26277126Y-32472489D02*
X26300758Y-32472489D01*
X26253517Y-32472489D02*
X26277126Y-32472489D01*
X26230833Y-32472489D02*
X26253517Y-32472489D01*
X26209978Y-32472489D02*
X26230833Y-32472489D01*
X26191856Y-32472489D02*
X26209978Y-32472489D01*
X26177039Y-32472489D02*
X26191856Y-32472489D01*
X26163928Y-32472489D02*
X26177039Y-32472489D01*
X26150046Y-32472489D02*
X26163928Y-32472489D01*
X26132910Y-32472489D02*
X26150046Y-32472489D01*
X26110040Y-32472489D02*
X26132910Y-32472489D01*
X26078954Y-32472489D02*
X26110040Y-32472489D01*
X26037170Y-32472489D02*
X26078954Y-32472489D01*
X25982209Y-32472489D02*
X26037170Y-32472489D01*
X25911667Y-32472462D02*
X25982209Y-32472489D01*
X25825361Y-32471637D02*
X25911667Y-32472462D01*
X25725574Y-32468412D02*
X25825361Y-32471637D01*
X25614722Y-32461140D02*
X25725574Y-32468412D01*
X25495217Y-32448178D02*
X25614722Y-32461140D01*
X25369474Y-32427879D02*
X25495217Y-32448178D01*
X25239906Y-32398598D02*
X25369474Y-32427879D01*
X25108928Y-32358691D02*
X25239906Y-32398598D01*
X24978953Y-32306512D02*
X25108928Y-32358691D01*
X24852151Y-32241028D02*
X24978953Y-32306512D01*
X24729933Y-32163126D02*
X24852151Y-32241028D01*
X24613560Y-32074066D02*
X24729933Y-32163126D01*
X24504292Y-31975111D02*
X24613560Y-32074066D01*
X24403390Y-31867520D02*
X24504292Y-31975111D01*
X24312116Y-31752555D02*
X24403390Y-31867520D01*
X24231730Y-31631477D02*
X24312116Y-31752555D01*
X24163494Y-31505547D02*
X24231730Y-31631477D01*
X24108499Y-31376092D02*
X24163494Y-31505547D01*
X24066114Y-31245125D02*
X24108499Y-31376092D01*
X24034707Y-31115055D02*
X24066114Y-31245125D01*
X24012632Y-30988294D02*
X24034707Y-31115055D01*
X23998244Y-30867258D02*
X24012632Y-30988294D01*
X23989898Y-30754359D02*
X23998244Y-30867258D01*
X23985948Y-30652012D02*
X23989898Y-30754359D01*
X23984749Y-30562630D02*
X23985948Y-30652012D01*
X23984666Y-30488582D02*
X23984749Y-30562630D01*
X23984666Y-30429391D02*
X23984666Y-30488582D01*
X23984666Y-30380108D02*
X23984666Y-30429391D01*
X23984666Y-30335387D02*
X23984666Y-30380108D01*
X23984666Y-30289887D02*
X23984666Y-30335387D01*
X23984666Y-30238264D02*
X23984666Y-30289887D01*
X23984666Y-30175175D02*
X23984666Y-30238264D01*
X23984666Y-30095276D02*
X23984666Y-30175175D01*
X23984666Y-29993225D02*
X23984666Y-30095276D01*
X23984666Y-29865394D02*
X23984666Y-29993225D01*
X23984666Y-29716105D02*
X23984666Y-29865394D01*
X23984666Y-29551987D02*
X23984666Y-29716105D01*
X23984666Y-29379666D02*
X23984666Y-29551987D01*
X23984666Y-29205770D02*
X23984666Y-29379666D01*
X23984666Y-29036926D02*
X23984666Y-29205770D01*
X23984666Y-28879761D02*
X23984666Y-29036926D01*
X23984666Y-28740902D02*
X23984666Y-28879761D01*
X23984666Y-28626635D02*
X23984666Y-28740902D01*
X23984666Y-28537545D02*
X23984666Y-28626635D01*
X23984666Y-28469520D02*
X23984666Y-28537545D01*
X23984666Y-28418307D02*
X23984666Y-28469520D01*
X23984666Y-28379653D02*
X23984666Y-28418307D01*
X23984666Y-28349305D02*
X23984666Y-28379653D01*
X23984666Y-28323009D02*
X23984666Y-28349305D01*
X23984666Y-28296512D02*
X23984666Y-28323009D01*
X23984665Y-28265569D02*
X23984666Y-28296512D01*
X23984448Y-28227439D02*
X23984665Y-28265569D01*
X23983320Y-28182777D02*
X23984448Y-28227439D01*
X23980519Y-28132698D02*
X23983320Y-28182777D01*
X23975284Y-28078322D02*
X23980519Y-28132698D01*
X23966852Y-28020765D02*
X23975284Y-28078322D01*
X23954462Y-27961144D02*
X23966852Y-28020765D01*
X23937353Y-27900577D02*
X23954462Y-27961144D01*
X23914762Y-27840182D02*
X23937353Y-27900577D01*
X23886053Y-27781026D02*
X23914762Y-27840182D01*
X23851443Y-27723838D02*
X23886053Y-27781026D01*
X23811516Y-27669203D02*
X23851443Y-27723838D01*
X23766855Y-27617703D02*
X23811516Y-27669203D01*
X23718043Y-27569923D02*
X23766855Y-27617703D01*
X23665664Y-27526447D02*
X23718043Y-27569923D01*
X23610303Y-27487858D02*
X23665664Y-27526447D01*
X23552542Y-27454740D02*
X23610303Y-27487858D01*
X23492974Y-27427657D02*
X23552542Y-27454740D01*
X23432425Y-27406578D02*
X23492974Y-27427657D01*
X23371998Y-27390781D02*
X23432425Y-27406578D01*
X23312811Y-27379503D02*
X23371998Y-27390781D01*
X23255980Y-27371983D02*
X23312811Y-27379503D01*
X23202623Y-27367459D02*
X23255980Y-27371983D01*
X23153857Y-27365171D02*
X23202623Y-27367459D01*
X23110800Y-27364356D02*
X23153857Y-27365171D01*
X23074567Y-27364252D02*
X23110800Y-27364356D01*
X23039984Y-27364252D02*
X23074567Y-27364252D01*
X22981185Y-27364252D02*
X23039984Y-27364252D01*
X22868059Y-27364252D02*
X22981185Y-27364252D01*
X22670496Y-27364252D02*
X22868059Y-27364252D01*
X22358384Y-27364252D02*
X22670496Y-27364252D01*
X21901612Y-27364252D02*
X22358384Y-27364252D01*
X21270070Y-27364252D02*
X21901612Y-27364252D01*
X20433645Y-27364252D02*
X21270070Y-27364252D01*
X19367039Y-27364252D02*
X20433645Y-27364252D01*
X18096678Y-27364252D02*
X19367039Y-27364252D01*
X16680459Y-27364252D02*
X18096678Y-27364252D01*
X15176725Y-27364252D02*
X16680459Y-27364252D01*
X13643819Y-27364252D02*
X15176725Y-27364252D01*
X12140085Y-27364252D02*
X13643819Y-27364252D01*
X10723865Y-27364252D02*
X12140085Y-27364252D01*
X9453504Y-27364252D02*
X10723865Y-27364252D01*
X8386898Y-27364252D02*
X9453504Y-27364252D01*
X7550474Y-27364252D02*
X8386898Y-27364252D01*
X6918931Y-27364252D02*
X7550474Y-27364252D01*
X6462160Y-27364252D02*
X6918931Y-27364252D01*
X6150048Y-27364252D02*
X6462160Y-27364252D01*
X5952484Y-27364252D02*
X6150048Y-27364252D01*
X5839359Y-27364252D02*
X5952484Y-27364252D01*
X5780560Y-27364252D02*
X5839359Y-27364252D01*
X5745976Y-27364252D02*
X5780560Y-27364252D01*
X5709744Y-27364356D02*
X5745976Y-27364252D01*
X5666687Y-27365171D02*
X5709744Y-27364356D01*
X5617921Y-27367459D02*
X5666687Y-27365171D01*
X5564564Y-27371983D02*
X5617921Y-27367459D01*
X5507733Y-27379503D02*
X5564564Y-27371983D01*
X5448545Y-27390781D02*
X5507733Y-27379503D01*
X5388118Y-27406578D02*
X5448545Y-27390781D01*
X5327570Y-27427657D02*
X5388118Y-27406578D01*
X5268001Y-27454740D02*
X5327570Y-27427657D01*
X5210241Y-27487858D02*
X5268001Y-27454740D01*
X5154879Y-27526447D02*
X5210241Y-27487858D01*
X5102501Y-27569923D02*
X5154879Y-27526447D01*
X5053689Y-27617703D02*
X5102501Y-27569923D01*
X5009028Y-27669203D02*
X5053689Y-27617703D01*
X4969100Y-27723838D02*
X5009028Y-27669203D01*
X4934490Y-27781026D02*
X4969100Y-27723838D01*
X4905781Y-27840182D02*
X4934490Y-27781026D01*
X4883191Y-27900577D02*
X4905781Y-27840182D01*
X4866082Y-27961144D02*
X4883191Y-27900577D01*
X4853692Y-28020765D02*
X4866082Y-27961144D01*
X4845260Y-28078322D02*
X4853692Y-28020765D01*
X4840024Y-28132698D02*
X4845260Y-28078322D01*
X4837223Y-28182777D02*
X4840024Y-28132698D01*
X4836095Y-28227439D02*
X4837223Y-28182777D01*
X4835879Y-28265569D02*
X4836095Y-28227439D01*
X4835878Y-28296512D02*
X4835879Y-28265569D01*
X4835878Y-28323009D02*
X4835878Y-28296512D01*
X4835878Y-28349305D02*
X4835878Y-28323009D01*
X4835878Y-28379653D02*
X4835878Y-28349305D01*
X4835878Y-28418307D02*
X4835878Y-28379653D01*
X4835878Y-28469520D02*
X4835878Y-28418307D01*
X4835878Y-28537545D02*
X4835878Y-28469520D01*
X4835878Y-28626635D02*
X4835878Y-28537545D01*
X4835878Y-28740902D02*
X4835878Y-28626635D01*
X4835878Y-28879761D02*
X4835878Y-28740902D01*
X4835878Y-29036926D02*
X4835878Y-28879761D01*
X4835878Y-29205770D02*
X4835878Y-29036926D01*
X4835878Y-29379666D02*
X4835878Y-29205770D01*
X4835878Y-29551987D02*
X4835878Y-29379666D01*
X4835878Y-29716105D02*
X4835878Y-29551987D01*
X4835878Y-29865394D02*
X4835878Y-29716105D01*
X4835878Y-29993225D02*
X4835878Y-29865394D01*
X4835878Y-30095276D02*
X4835878Y-29993225D01*
X4835878Y-30175175D02*
X4835878Y-30095276D01*
X4835878Y-30238264D02*
X4835878Y-30175175D01*
X4835878Y-30289887D02*
X4835878Y-30238264D01*
X4835878Y-30335387D02*
X4835878Y-30289887D01*
X4835878Y-30380108D02*
X4835878Y-30335387D01*
X4835878Y-30429391D02*
X4835878Y-30380108D01*
X4835878Y-30488582D02*
X4835878Y-30429391D01*
X4835794Y-30562630D02*
X4835878Y-30488582D01*
X4834596Y-30652012D02*
X4835794Y-30562630D01*
X4830646Y-30754359D02*
X4834596Y-30652012D01*
X4822299Y-30867258D02*
X4830646Y-30754359D01*
X4807911Y-30988294D02*
X4822299Y-30867258D01*
X4785836Y-31115055D02*
X4807911Y-30988294D01*
X4754429Y-31245125D02*
X4785836Y-31115055D01*
X4712044Y-31376092D02*
X4754429Y-31245125D01*
X4657049Y-31505547D02*
X4712044Y-31376092D01*
X4588813Y-31631477D02*
X4657049Y-31505547D01*
X4508428Y-31752555D02*
X4588813Y-31631477D01*
X4417154Y-31867520D02*
X4508428Y-31752555D01*
X4316252Y-31975111D02*
X4417154Y-31867520D01*
X4206984Y-32074066D02*
X4316252Y-31975111D01*
X4090610Y-32163126D02*
X4206984Y-32074066D01*
X3968392Y-32241028D02*
X4090610Y-32163126D01*
X3841591Y-32306512D02*
X3968392Y-32241028D01*
X3711615Y-32358691D02*
X3841591Y-32306512D01*
X3580637Y-32398598D02*
X3711615Y-32358691D01*
X3451070Y-32427879D02*
X3580637Y-32398598D01*
X3325326Y-32448178D02*
X3451070Y-32427879D01*
X3205822Y-32461140D02*
X3325326Y-32448178D01*
X3094969Y-32468412D02*
X3205822Y-32461140D01*
X2995183Y-32471637D02*
X3094969Y-32468412D01*
X2908877Y-32472462D02*
X2995183Y-32471637D01*
X2838335Y-32472489D02*
X2908877Y-32472462D01*
X2783373Y-32472489D02*
X2838335Y-32472489D01*
X2741590Y-32472489D02*
X2783373Y-32472489D01*
X2710504Y-32472489D02*
X2741590Y-32472489D01*
X2687633Y-32472489D02*
X2710504Y-32472489D01*
X2670497Y-32472489D02*
X2687633Y-32472489D01*
X2656613Y-32472489D02*
X2670497Y-32472489D01*
X2643502Y-32472489D02*
X2656613Y-32472489D01*
X2628684Y-32472489D02*
X2643502Y-32472489D01*
X2610560Y-32472489D02*
X2628684Y-32472489D01*
X2589703Y-32472489D02*
X2610560Y-32472489D01*
X2567018Y-32472489D02*
X2589703Y-32472489D01*
X2543407Y-32472489D02*
X2567018Y-32472489D01*
X2519773Y-32472489D02*
X2543407Y-32472489D01*
X2497021Y-32472489D02*
X2519773Y-32472489D01*
X2476054Y-32472489D02*
X2497021Y-32472489D01*
X2457774Y-32472489D02*
X2476054Y-32472489D01*
X2442811Y-32472489D02*
X2457774Y-32472489D01*
X2429673Y-32472489D02*
X2442811Y-32472489D01*
X2415886Y-32472489D02*
X2429673Y-32472489D01*
X2398968Y-32472489D02*
X2415886Y-32472489D01*
X2376437Y-32472489D02*
X2398968Y-32472489D01*
X2345813Y-32472489D02*
X2376437Y-32472489D01*
X2304614Y-32472489D02*
X2345813Y-32472489D01*
X2250359Y-32472489D02*
X2304614Y-32472489D01*
X2180622Y-32472470D02*
X2250359Y-32472489D01*
X2095041Y-32471720D02*
X2180622Y-32472470D01*
X1995861Y-32468651D02*
X2095041Y-32471720D01*
X1885496Y-32461617D02*
X1995861Y-32468651D01*
X1766361Y-32448973D02*
X1885496Y-32461617D01*
X1640868Y-32429074D02*
X1766361Y-32448973D01*
X1511432Y-32400273D02*
X1640868Y-32429074D01*
X1380467Y-32360927D02*
X1511432Y-32400273D01*
X1250386Y-32309390D02*
X1380467Y-32360927D01*
X1123391Y-32244549D02*
X1250386Y-32309390D01*
X1000918Y-32167228D02*
X1123391Y-32244549D01*
X884228Y-32078688D02*
X1000918Y-32167228D01*
X774581Y-31980190D02*
X884228Y-32078688D01*
X673238Y-31872994D02*
X774581Y-31980190D01*
X581461Y-31758362D02*
X673238Y-31872994D01*
X500511Y-31637555D02*
X581461Y-31758362D01*
X431648Y-31511834D02*
X500511Y-31637555D01*
X375997Y-31382514D02*
X431648Y-31511834D01*
X333030Y-31251565D02*
X375997Y-31382514D01*
X301121Y-31121394D02*
X333030Y-31251565D01*
X278625Y-30994414D02*
X301121Y-31121394D01*
X263898Y-30873040D02*
X278625Y-30994414D01*
X255293Y-30759684D02*
X263898Y-30873040D01*
X251165Y-30656762D02*
X255293Y-30759684D01*
X249870Y-30566686D02*
X251165Y-30656762D01*
X249767Y-30491837D02*
X249870Y-30566686D01*
X249767Y-30431434D02*
X249767Y-30491837D01*
X249767Y-30379026D02*
X249767Y-30431434D01*
X249767Y-30327568D02*
X249767Y-30379026D01*
X249767Y-30270016D02*
X249767Y-30327568D01*
X249767Y-30199325D02*
X249767Y-30270016D01*
X249767Y-30108452D02*
X249767Y-30199325D01*
X249767Y-29990351D02*
X249767Y-30108452D01*
X249767Y-29837979D02*
X249767Y-29990351D01*
X249767Y-29646377D02*
X249767Y-29837979D01*
X249767Y-29421812D02*
X249767Y-29646377D01*
X249767Y-29174311D02*
X249767Y-29421812D01*
X249767Y-28913904D02*
X249767Y-29174311D01*
X249767Y-28650619D02*
X249767Y-28913904D01*
X249767Y-28394486D02*
X249767Y-28650619D01*
X249767Y-28155535D02*
X249767Y-28394486D01*
X249767Y-27943794D02*
X249767Y-28155535D01*
X249767Y-27768932D02*
X249767Y-27943794D01*
X249767Y-27633179D02*
X249767Y-27768932D01*
X249767Y-27531789D02*
X249767Y-27633179D01*
X249767Y-27459747D02*
X249767Y-27531789D01*
X249767Y-27412039D02*
X249767Y-27459747D01*
X249767Y-27383650D02*
X249767Y-27412039D01*
X249767Y-27369565D02*
X249767Y-27383650D01*
X249767Y-27364770D02*
X249767Y-27369565D01*
X249767Y-27364248D02*
X249767Y-27364770D01*
X249767Y-27362530D02*
X249767Y-27364248D01*
X249767Y-27352963D02*
X249767Y-27362530D01*
X249767Y-27328709D02*
X249767Y-27352963D01*
X249767Y-27282929D02*
X249767Y-27328709D01*
X249767Y-27208784D02*
X249767Y-27282929D01*
X249767Y-27099436D02*
X249767Y-27208784D01*
X249767Y-26948044D02*
X249767Y-27099436D01*
X249767Y-26747770D02*
X249767Y-26948044D01*
X249767Y-26493339D02*
X249767Y-26747770D01*
X249767Y-26192198D02*
X249767Y-26493339D01*
X249767Y-25857984D02*
X249767Y-26192198D01*
X249767Y-25504373D02*
X249767Y-25857984D01*
X249767Y-25145045D02*
X249767Y-25504373D01*
X249767Y-24793676D02*
X249767Y-25145045D01*
X249767Y-24463946D02*
X249767Y-24793676D01*
X249767Y-24169532D02*
X249767Y-24463946D01*
X249767Y-23923904D02*
X249767Y-24169532D01*
X249767Y-23732112D02*
X249767Y-23923904D01*
X249767Y-23588081D02*
X249767Y-23732112D01*
X249767Y-23484972D02*
X249767Y-23588081D01*
X249767Y-23415946D02*
X249767Y-23484972D01*
X249767Y-23374164D02*
X249767Y-23415946D01*
X249767Y-23352786D02*
X249767Y-23374164D01*
X249767Y-23344975D02*
X249767Y-23352786D01*
X249767Y-23343890D02*
X249767Y-23344975D01*
X249767Y-23338017D02*
X249767Y-23343890D01*
X249767Y-23298034D02*
X249767Y-23338017D01*
X249767Y-23190380D02*
X249767Y-23298034D01*
X249767Y-22981496D02*
X249767Y-23190380D01*
X249767Y-22637821D02*
X249767Y-22981496D01*
X249767Y-22125796D02*
X249767Y-22637821D01*
X249767Y-21411859D02*
X249767Y-22125796D01*
X249767Y-20462452D02*
X249767Y-21411859D01*
X249767Y-19248399D02*
X249767Y-20462452D01*
X249767Y-17796911D02*
X249767Y-19248399D01*
X249767Y-16174321D02*
X249767Y-17796911D01*
X249767Y-14447750D02*
X249767Y-16174321D01*
X249767Y-12684318D02*
X249767Y-14447750D01*
X249767Y-10951145D02*
X249767Y-12684318D01*
X249767Y-9315352D02*
X249767Y-10951145D01*
X249767Y-7844058D02*
X249767Y-9315352D01*
X249767Y-6604074D02*
X249767Y-7844058D01*
X249767Y-5628900D02*
X249767Y-6604074D01*
X249767Y-4889485D02*
X249767Y-5628900D01*
X249767Y-4349885D02*
X249767Y-4889485D01*
X249767Y-3974151D02*
X249767Y-4349885D01*
X249767Y-3726337D02*
X249767Y-3974151D01*
X249767Y-3570498D02*
X249767Y-3726337D01*
X249767Y-3470686D02*
X249767Y-3570498D01*
X249767Y-3390956D02*
X249767Y-3470686D01*
X249990Y-3299845D02*
X249767Y-3390956D01*
X251927Y-3191266D02*
X249990Y-3299845D01*
X257511Y-3068047D02*
X251927Y-3191266D01*
X268676Y-2933027D02*
X257511Y-3068047D01*
X287357Y-2789043D02*
X268676Y-2933027D01*
X315488Y-2638935D02*
X287357Y-2789043D01*
X355004Y-2485539D02*
X315488Y-2638935D01*
X407840Y-2331694D02*
X355004Y-2485539D01*
X475854Y-2180209D02*
X407840Y-2331694D01*
X559253Y-2033235D02*
X475854Y-2180209D01*
X656620Y-1892283D02*
X559253Y-2033235D01*
X766474Y-1758834D02*
X656620Y-1892283D01*
X887332Y-1634371D02*
X766474Y-1758834D01*
X1017711Y-1520378D02*
X887332Y-1634371D01*
X1156128Y-1418336D02*
X1017711Y-1520378D01*
X1301101Y-1329728D02*
X1156128Y-1418336D01*
X1451147Y-1256037D02*
X1301101Y-1329728D01*
X1604457Y-1197923D02*
X1451147Y-1256037D01*
X1758342Y-1153826D02*
X1604457Y-1197923D01*
X1909964Y-1121812D02*
X1758342Y-1153826D01*
X2056483Y-1099945D02*
X1909964Y-1121812D01*
X2195063Y-1086293D02*
X2056483Y-1099945D01*
X2322865Y-1078919D02*
X2195063Y-1086293D01*
X2437052Y-1075890D02*
X2322865Y-1078919D01*
X2534784Y-1075271D02*
X2437052Y-1075890D01*
X2616422Y-1075267D02*
X2534784Y-1075271D01*
X2709795Y-1075267D02*
X2616422Y-1075267D01*
X2856711Y-1075267D02*
X2709795Y-1075267D01*
X3099093Y-1075267D02*
X2856711Y-1075267D01*
X3478861Y-1075267D02*
X3099093Y-1075267D01*
X4037936Y-1075267D02*
X3478861Y-1075267D01*
X4818241Y-1075267D02*
X4037936Y-1075267D01*
X5861697Y-1075267D02*
X4818241Y-1075267D01*
X7209143Y-1075267D02*
X5861697Y-1075267D01*
X8853087Y-1075267D02*
X7209143Y-1075267D01*
X10719335Y-1075267D02*
X8853087Y-1075267D01*
X12728816Y-1075267D02*
X10719335Y-1075267D01*
X14802461Y-1075267D02*
X12728816Y-1075267D01*
X16861199Y-1075267D02*
X14802461Y-1075267D01*
X18825960Y-1075267D02*
X16861199Y-1075267D01*
X20617674Y-1075267D02*
X18825960Y-1075267D01*
X22157272Y-1075267D02*
X20617674Y-1075267D01*
M02*
