%TF.GenerationSoftware,KiCad,Pcbnew,4.0.7*%
%TF.CreationDate,2018-05-06T16:09:47+02:00*%
%TF.ProjectId,OLEDModule,4F4C45444D6F64756C652E6B69636164,rev?*%
%TF.FileFunction,Copper,L1,Top,Signal*%
%FSLAX46Y46*%
G04 Gerber Fmt 4.6, Leading zero omitted, Abs format (unit mm)*
G04 Created by KiCad (PCBNEW 4.0.7) date 05/06/18 16:09:47*
%MOMM*%
%LPD*%
G01*
G04 APERTURE LIST*
%ADD10C,0.100000*%
%ADD11C,0.685800*%
%ADD12C,0.152400*%
%ADD13C,0.400000*%
G04 APERTURE END LIST*
D10*
D11*
X-24257000Y-12192000D03*
X-20955000Y-12192000D03*
X-18923000Y-23114000D03*
X-8509000Y-22860000D03*
X-9779000Y-12192000D03*
X-22479000Y-11684000D03*
X-21209000Y-19431000D03*
X-12319000Y-18923000D03*
X-10160000Y-22606000D03*
X-17145000Y-12192000D03*
X-10795000Y-17526000D03*
X-10668000Y-18542000D03*
X-18796000Y-24511000D03*
D12*
X-24257000Y-12065000D02*
X-24257000Y-12192000D01*
X-23114000Y-10922000D02*
X-24257000Y-12065000D01*
X-22225000Y-10922000D02*
X-23114000Y-10922000D01*
X-22098000Y-11049000D02*
X-22225000Y-10922000D01*
X-20955000Y-12192000D02*
X-22098000Y-11049000D01*
D13*
X-8509000Y-23876000D02*
X-8509000Y-22860000D01*
X-10160000Y-25527000D02*
X-8509000Y-23876000D01*
X-19177000Y-25527000D02*
X-10160000Y-25527000D01*
X-19939000Y-24765000D02*
X-19177000Y-25527000D01*
X-19939000Y-24130000D02*
X-19939000Y-24765000D01*
X-18923000Y-23114000D02*
X-19939000Y-24130000D01*
X-8509000Y-22860000D02*
X-9779000Y-21590000D01*
X-9779000Y-21590000D02*
X-9779000Y-12192000D01*
D12*
X-22352000Y-11811000D02*
X-22479000Y-11684000D01*
X-22352000Y-18669000D02*
X-22352000Y-11811000D01*
X-21590000Y-19431000D02*
X-22352000Y-18669000D01*
X-21209000Y-19431000D02*
X-21590000Y-19431000D01*
X-12192000Y-19050000D02*
X-12319000Y-18923000D01*
X-12192000Y-20574000D02*
X-12192000Y-19050000D01*
X-10160000Y-22606000D02*
X-12192000Y-20574000D01*
X-15748000Y-12192000D02*
X-17145000Y-12192000D01*
X-14224000Y-13716000D02*
X-15748000Y-12192000D01*
X-14224000Y-14097000D02*
X-14224000Y-13716000D01*
X-10795000Y-17526000D02*
X-14224000Y-14097000D01*
X-10668000Y-18542000D02*
X-11049000Y-18161000D01*
X-11049000Y-18161000D02*
X-15621000Y-18161000D01*
X-15621000Y-18161000D02*
X-16764000Y-19304000D01*
X-16764000Y-19304000D02*
X-16764000Y-23241000D01*
X-16764000Y-23241000D02*
X-18034000Y-24511000D01*
X-18034000Y-24511000D02*
X-18796000Y-24511000D01*
D10*
G36*
X-25913124Y-3895537D02*
X-25831635Y-3896316D01*
X-25740269Y-3899269D01*
X-25640722Y-3905800D01*
X-25535327Y-3917231D01*
X-25426497Y-3934800D01*
X-25316786Y-3959594D01*
X-25208714Y-3992522D01*
X-25103950Y-4034579D01*
X-25001911Y-4087274D01*
X-24902035Y-4150936D01*
X-24805744Y-4224627D01*
X-24714742Y-4307040D01*
X-24630663Y-4396693D01*
X-24554999Y-4491996D01*
X-24489097Y-4591259D01*
X-24434041Y-4692865D01*
X-24389824Y-4796948D01*
X-24355052Y-4904392D01*
X-24328599Y-5013947D01*
X-24309577Y-5123175D01*
X-24296935Y-5229523D01*
X-24289471Y-5330495D01*
X-24285870Y-5423793D01*
X-24284747Y-5507534D01*
X-24284666Y-5579418D01*
X-24284666Y-7771488D01*
X-24284665Y-7771493D01*
X-24284666Y-7771498D01*
X-24284665Y-7802441D01*
X-24284496Y-7803289D01*
X-24284660Y-7804138D01*
X-24284443Y-7842269D01*
X-24283844Y-7845194D01*
X-24284352Y-7848135D01*
X-24283224Y-7892797D01*
X-24282198Y-7897351D01*
X-24282852Y-7901976D01*
X-24280051Y-7952055D01*
X-24278526Y-7957973D01*
X-24279138Y-7964051D01*
X-24273903Y-8018427D01*
X-24271733Y-8025638D01*
X-24272116Y-8033163D01*
X-24263684Y-8090720D01*
X-24260654Y-8099236D01*
X-24260577Y-8108275D01*
X-24248187Y-8167896D01*
X-24244009Y-8177744D01*
X-24243165Y-8188409D01*
X-24226056Y-8248976D01*
X-24220357Y-8260150D01*
X-24218339Y-8272527D01*
X-24195748Y-8332922D01*
X-24188255Y-8345027D01*
X-24184657Y-8358801D01*
X-24155948Y-8417957D01*
X-24147488Y-8429127D01*
X-24142711Y-8442302D01*
X-24108101Y-8499490D01*
X-24099207Y-8509219D01*
X-24093657Y-8521171D01*
X-24053731Y-8575806D01*
X-24044422Y-8584363D01*
X-24038162Y-8595346D01*
X-23993501Y-8646846D01*
X-23983707Y-8654448D01*
X-23976709Y-8664683D01*
X-23927896Y-8712463D01*
X-23917485Y-8719260D01*
X-23909648Y-8728918D01*
X-23857269Y-8772394D01*
X-23846054Y-8778469D01*
X-23837214Y-8787664D01*
X-23781853Y-8826253D01*
X-23769604Y-8831612D01*
X-23759524Y-8840398D01*
X-23701763Y-8873516D01*
X-23688267Y-8878052D01*
X-23676708Y-8886358D01*
X-23617140Y-8913442D01*
X-23603596Y-8916619D01*
X-23591607Y-8923665D01*
X-23531059Y-8944744D01*
X-23519134Y-8946408D01*
X-23508302Y-8951668D01*
X-23447875Y-8967465D01*
X-23437649Y-8968073D01*
X-23428152Y-8971917D01*
X-23368965Y-8983195D01*
X-23360335Y-8983125D01*
X-23352165Y-8985905D01*
X-23295334Y-8993425D01*
X-23288194Y-8992962D01*
X-23281325Y-8994944D01*
X-23227969Y-8999468D01*
X-23222260Y-8998827D01*
X-23216683Y-9000211D01*
X-23167917Y-9002499D01*
X-23163701Y-9001864D01*
X-23159535Y-9002775D01*
X-23116477Y-9003590D01*
X-23114065Y-9003158D01*
X-23111661Y-9003643D01*
X-23075428Y-9003747D01*
X-23074997Y-9003663D01*
X-23074567Y-9003748D01*
X-5745976Y-9003748D01*
X-5745546Y-9003663D01*
X-5745115Y-9003747D01*
X-5708883Y-9003643D01*
X-5706478Y-9003157D01*
X-5704066Y-9003590D01*
X-5661009Y-9002775D01*
X-5656843Y-9001864D01*
X-5652627Y-9002499D01*
X-5603861Y-9000211D01*
X-5598285Y-8998827D01*
X-5592576Y-8999468D01*
X-5539219Y-8994944D01*
X-5532350Y-8992962D01*
X-5525210Y-8993425D01*
X-5468380Y-8985905D01*
X-5460209Y-8983125D01*
X-5451580Y-8983195D01*
X-5392392Y-8971917D01*
X-5382895Y-8968073D01*
X-5372668Y-8967465D01*
X-5312241Y-8951668D01*
X-5301410Y-8946408D01*
X-5289483Y-8944744D01*
X-5228935Y-8923665D01*
X-5216944Y-8916617D01*
X-5203406Y-8913442D01*
X-5143836Y-8886359D01*
X-5132274Y-8878051D01*
X-5118778Y-8873515D01*
X-5061018Y-8840397D01*
X-5050940Y-8831612D01*
X-5038693Y-8826254D01*
X-4983331Y-8787665D01*
X-4974489Y-8778469D01*
X-4963272Y-8772392D01*
X-4910894Y-8728916D01*
X-4903060Y-8719261D01*
X-4892647Y-8712463D01*
X-4843835Y-8664683D01*
X-4836837Y-8654448D01*
X-4827043Y-8646846D01*
X-4782381Y-8595346D01*
X-4776120Y-8584362D01*
X-4766816Y-8575809D01*
X-4726888Y-8521174D01*
X-4721336Y-8509219D01*
X-4712442Y-8499490D01*
X-4677833Y-8442303D01*
X-4673055Y-8429129D01*
X-4664595Y-8417957D01*
X-4635886Y-8358801D01*
X-4632288Y-8345027D01*
X-4624793Y-8332918D01*
X-4602203Y-8272522D01*
X-4600186Y-8260147D01*
X-4594488Y-8248976D01*
X-4577380Y-8188409D01*
X-4576536Y-8177747D01*
X-4572357Y-8167896D01*
X-4559967Y-8108274D01*
X-4559890Y-8099236D01*
X-4556860Y-8090720D01*
X-4548428Y-8033164D01*
X-4548811Y-8025643D01*
X-4546641Y-8018433D01*
X-4541405Y-7964056D01*
X-4542017Y-7957974D01*
X-4540492Y-7952055D01*
X-4537691Y-7901977D01*
X-4538345Y-7897351D01*
X-4537319Y-7892797D01*
X-4536191Y-7848136D01*
X-4536700Y-7845190D01*
X-4536100Y-7842260D01*
X-4535884Y-7804130D01*
X-4536047Y-7803286D01*
X-4535879Y-7802441D01*
X-4535878Y-7771498D01*
X-4535879Y-7771493D01*
X-4535878Y-7771488D01*
X-4535878Y-6473068D01*
X-4444330Y-6473068D01*
X-4155074Y-7173121D01*
X-3619938Y-7709192D01*
X-2920391Y-7999669D01*
X-2162932Y-8000330D01*
X-1462879Y-7711074D01*
X-926808Y-7175938D01*
X-636331Y-6476391D01*
X-635670Y-5718932D01*
X-924926Y-5018879D01*
X-1460062Y-4482808D01*
X-2159609Y-4192331D01*
X-2917068Y-4191670D01*
X-3617121Y-4480926D01*
X-4153192Y-5016062D01*
X-4443669Y-5715609D01*
X-4444330Y-6473068D01*
X-4535878Y-6473068D01*
X-4535878Y-5579418D01*
X-4535796Y-5507531D01*
X-4534674Y-5423794D01*
X-4531072Y-5330474D01*
X-4523610Y-5229542D01*
X-4510965Y-5123172D01*
X-4491944Y-5013947D01*
X-4465490Y-4904389D01*
X-4430719Y-4796948D01*
X-4386502Y-4692865D01*
X-4331447Y-4591261D01*
X-4265542Y-4491993D01*
X-4189881Y-4396693D01*
X-4105807Y-4307045D01*
X-4014808Y-4224634D01*
X-3918507Y-4150935D01*
X-3818624Y-4087270D01*
X-3716595Y-4034579D01*
X-3611830Y-3992522D01*
X-3503757Y-3959594D01*
X-3394045Y-3934799D01*
X-3285222Y-3917232D01*
X-3179820Y-3905799D01*
X-3080274Y-3899269D01*
X-2988909Y-3896316D01*
X-2907420Y-3895537D01*
X-2838220Y-3895511D01*
X-2250441Y-3895511D01*
X-2181919Y-3895530D01*
X-2100996Y-3896239D01*
X-2010072Y-3899052D01*
X-1910880Y-3905374D01*
X-1805697Y-3916538D01*
X-1696993Y-3933774D01*
X-1587279Y-3958187D01*
X-1479056Y-3990700D01*
X-1374124Y-4032274D01*
X-1271987Y-4084422D01*
X-1171976Y-4147562D01*
X-1075465Y-4220792D01*
X-984169Y-4302805D01*
X-899711Y-4392141D01*
X-823600Y-4487206D01*
X-757192Y-4586312D01*
X-701592Y-4687818D01*
X-656867Y-4791749D01*
X-621662Y-4899043D01*
X-594819Y-5008545D01*
X-575455Y-5117846D01*
X-562525Y-5224408D01*
X-554838Y-5325677D01*
X-551079Y-5419408D01*
X-549867Y-5503654D01*
X-549767Y-5576576D01*
X-549767Y-32676719D01*
X-549983Y-32765123D01*
X-551806Y-32867272D01*
X-556949Y-32980771D01*
X-567082Y-33103312D01*
X-583776Y-33231981D01*
X-608508Y-33363952D01*
X-642573Y-33496188D01*
X-687124Y-33625906D01*
X-743751Y-33752030D01*
X-813627Y-33875173D01*
X-896270Y-33994809D01*
X-990274Y-34109003D01*
X-1094017Y-34215842D01*
X-1205771Y-34313550D01*
X-1323677Y-34400472D01*
X-1445762Y-34475091D01*
X-1570710Y-34536455D01*
X-1699103Y-34585124D01*
X-1830747Y-34622848D01*
X-1963134Y-34650800D01*
X-2093354Y-34670235D01*
X-2218423Y-34682556D01*
X-2335475Y-34689309D01*
X-2442003Y-34692135D01*
X-2535744Y-34692729D01*
X-2616437Y-34692733D01*
X-26206932Y-34692733D01*
X-26284800Y-34692729D01*
X-26378540Y-34692135D01*
X-26485068Y-34689309D01*
X-26602121Y-34682556D01*
X-26727189Y-34670235D01*
X-26857410Y-34650800D01*
X-26989792Y-34622849D01*
X-27121437Y-34585125D01*
X-27249832Y-34536456D01*
X-27374789Y-34475086D01*
X-27496860Y-34400476D01*
X-27614763Y-34313559D01*
X-27726520Y-34215848D01*
X-27830270Y-34109002D01*
X-27924275Y-33994806D01*
X-28006916Y-33875174D01*
X-28076794Y-33752026D01*
X-28133419Y-33625910D01*
X-28177971Y-33496188D01*
X-28212035Y-33363952D01*
X-28236769Y-33231975D01*
X-28253462Y-33103312D01*
X-28263595Y-32980772D01*
X-28268738Y-32867272D01*
X-28270560Y-32765127D01*
X-28270777Y-32676713D01*
X-28270777Y-24130000D01*
X-20443000Y-24130000D01*
X-20443000Y-24765000D01*
X-20404635Y-24957873D01*
X-20295382Y-25121382D01*
X-19533382Y-25883382D01*
X-19369872Y-25992635D01*
X-19177000Y-26031000D01*
X-10160000Y-26031000D01*
X-9967127Y-25992635D01*
X-9803618Y-25883382D01*
X-8152618Y-24232382D01*
X-8043365Y-24068872D01*
X-8004999Y-23876000D01*
X-8005000Y-23875995D01*
X-8005000Y-23270937D01*
X-7960904Y-23226918D01*
X-7862212Y-22989241D01*
X-7861987Y-22731888D01*
X-7960265Y-22494039D01*
X-8142082Y-22311904D01*
X-8379759Y-22213212D01*
X-8443079Y-22213157D01*
X-9275000Y-21381236D01*
X-9275000Y-12602937D01*
X-9230904Y-12558918D01*
X-9132212Y-12321241D01*
X-9131987Y-12063888D01*
X-9230265Y-11826039D01*
X-9412082Y-11643904D01*
X-9649759Y-11545212D01*
X-9907112Y-11544987D01*
X-10144961Y-11643265D01*
X-10327096Y-11825082D01*
X-10425788Y-12062759D01*
X-10426013Y-12320112D01*
X-10327735Y-12557961D01*
X-10283000Y-12602774D01*
X-10283000Y-17123240D01*
X-10428082Y-16977904D01*
X-10665759Y-16879212D01*
X-10904313Y-16879003D01*
X-13843800Y-13939516D01*
X-13843800Y-13716000D01*
X-13872741Y-13570504D01*
X-13955158Y-13447158D01*
X-15479158Y-11923158D01*
X-15602504Y-11840741D01*
X-15748000Y-11811800D01*
X-16610479Y-11811800D01*
X-16778082Y-11643904D01*
X-17015759Y-11545212D01*
X-17273112Y-11544987D01*
X-17510961Y-11643265D01*
X-17693096Y-11825082D01*
X-17791788Y-12062759D01*
X-17792013Y-12320112D01*
X-17693735Y-12557961D01*
X-17511918Y-12740096D01*
X-17274241Y-12838788D01*
X-17016888Y-12839013D01*
X-16779039Y-12740735D01*
X-16610209Y-12572200D01*
X-15905484Y-12572200D01*
X-14604200Y-13873484D01*
X-14604200Y-14097000D01*
X-14575259Y-14242496D01*
X-14492842Y-14365842D01*
X-11441806Y-17416878D01*
X-11442013Y-17654112D01*
X-11389666Y-17780800D01*
X-15621000Y-17780800D01*
X-15766496Y-17809741D01*
X-15889842Y-17892158D01*
X-17032842Y-19035158D01*
X-17115259Y-19158504D01*
X-17144200Y-19304000D01*
X-17144200Y-23083516D01*
X-18191484Y-24130800D01*
X-18261479Y-24130800D01*
X-18429082Y-23962904D01*
X-18666759Y-23864212D01*
X-18924112Y-23863987D01*
X-18985650Y-23889414D01*
X-18857195Y-23760959D01*
X-18794888Y-23761013D01*
X-18557039Y-23662735D01*
X-18374904Y-23480918D01*
X-18276212Y-23243241D01*
X-18275987Y-22985888D01*
X-18374265Y-22748039D01*
X-18556082Y-22565904D01*
X-18793759Y-22467212D01*
X-19051112Y-22466987D01*
X-19288961Y-22565265D01*
X-19471096Y-22747082D01*
X-19569788Y-22984759D01*
X-19569843Y-23048079D01*
X-20295382Y-23773618D01*
X-20404635Y-23937127D01*
X-20404635Y-23937128D01*
X-20443000Y-24130000D01*
X-28270777Y-24130000D01*
X-28270777Y-11812112D01*
X-23126013Y-11812112D01*
X-23027735Y-12049961D01*
X-22845918Y-12232096D01*
X-22732200Y-12279316D01*
X-22732200Y-18669000D01*
X-22703259Y-18814496D01*
X-22620842Y-18937842D01*
X-21858842Y-19699842D01*
X-21774608Y-19756125D01*
X-21757735Y-19796961D01*
X-21575918Y-19979096D01*
X-21338241Y-20077788D01*
X-21080888Y-20078013D01*
X-20843039Y-19979735D01*
X-20660904Y-19797918D01*
X-20562212Y-19560241D01*
X-20561987Y-19302888D01*
X-20660265Y-19065039D01*
X-20842082Y-18882904D01*
X-21079759Y-18784212D01*
X-21337112Y-18783987D01*
X-21574961Y-18882265D01*
X-21588017Y-18895299D01*
X-21971800Y-18511516D01*
X-21971800Y-12091743D01*
X-21930904Y-12050918D01*
X-21832212Y-11813241D01*
X-21831987Y-11555888D01*
X-21930265Y-11318039D01*
X-22112082Y-11135904D01*
X-22349759Y-11037212D01*
X-22607112Y-11036987D01*
X-22844961Y-11135265D01*
X-23027096Y-11317082D01*
X-23125788Y-11554759D01*
X-23126013Y-11812112D01*
X-28270777Y-11812112D01*
X-28270777Y-6473068D01*
X-28193330Y-6473068D01*
X-27904074Y-7173121D01*
X-27368938Y-7709192D01*
X-26669391Y-7999669D01*
X-25911932Y-8000330D01*
X-25211879Y-7711074D01*
X-24675808Y-7175938D01*
X-24385331Y-6476391D01*
X-24384670Y-5718932D01*
X-24673926Y-5018879D01*
X-25209062Y-4482808D01*
X-25908609Y-4192331D01*
X-26666068Y-4191670D01*
X-27366121Y-4480926D01*
X-27902192Y-5016062D01*
X-28192669Y-5715609D01*
X-28193330Y-6473068D01*
X-28270777Y-6473068D01*
X-28270777Y-5576576D01*
X-28270677Y-5503679D01*
X-28269464Y-5419419D01*
X-28265706Y-5325697D01*
X-28258018Y-5224411D01*
X-28245090Y-5117875D01*
X-28225726Y-5008571D01*
X-28198877Y-4899042D01*
X-28163679Y-4791767D01*
X-28118950Y-4687828D01*
X-28063350Y-4586321D01*
X-27996936Y-4487208D01*
X-27920823Y-4392141D01*
X-27836369Y-4302810D01*
X-27745072Y-4220796D01*
X-27648554Y-4147562D01*
X-27548543Y-4084421D01*
X-27446409Y-4032274D01*
X-27341484Y-3990704D01*
X-27233268Y-3958191D01*
X-27123537Y-3933776D01*
X-27014823Y-3916536D01*
X-26909650Y-3905374D01*
X-26810454Y-3899052D01*
X-26719530Y-3896239D01*
X-26638605Y-3895530D01*
X-26570083Y-3895511D01*
X-25982324Y-3895511D01*
X-25913124Y-3895537D01*
X-25913124Y-3895537D01*
G37*
X-25913124Y-3895537D02*
X-25831635Y-3896316D01*
X-25740269Y-3899269D01*
X-25640722Y-3905800D01*
X-25535327Y-3917231D01*
X-25426497Y-3934800D01*
X-25316786Y-3959594D01*
X-25208714Y-3992522D01*
X-25103950Y-4034579D01*
X-25001911Y-4087274D01*
X-24902035Y-4150936D01*
X-24805744Y-4224627D01*
X-24714742Y-4307040D01*
X-24630663Y-4396693D01*
X-24554999Y-4491996D01*
X-24489097Y-4591259D01*
X-24434041Y-4692865D01*
X-24389824Y-4796948D01*
X-24355052Y-4904392D01*
X-24328599Y-5013947D01*
X-24309577Y-5123175D01*
X-24296935Y-5229523D01*
X-24289471Y-5330495D01*
X-24285870Y-5423793D01*
X-24284747Y-5507534D01*
X-24284666Y-5579418D01*
X-24284666Y-7771488D01*
X-24284665Y-7771493D01*
X-24284666Y-7771498D01*
X-24284665Y-7802441D01*
X-24284496Y-7803289D01*
X-24284660Y-7804138D01*
X-24284443Y-7842269D01*
X-24283844Y-7845194D01*
X-24284352Y-7848135D01*
X-24283224Y-7892797D01*
X-24282198Y-7897351D01*
X-24282852Y-7901976D01*
X-24280051Y-7952055D01*
X-24278526Y-7957973D01*
X-24279138Y-7964051D01*
X-24273903Y-8018427D01*
X-24271733Y-8025638D01*
X-24272116Y-8033163D01*
X-24263684Y-8090720D01*
X-24260654Y-8099236D01*
X-24260577Y-8108275D01*
X-24248187Y-8167896D01*
X-24244009Y-8177744D01*
X-24243165Y-8188409D01*
X-24226056Y-8248976D01*
X-24220357Y-8260150D01*
X-24218339Y-8272527D01*
X-24195748Y-8332922D01*
X-24188255Y-8345027D01*
X-24184657Y-8358801D01*
X-24155948Y-8417957D01*
X-24147488Y-8429127D01*
X-24142711Y-8442302D01*
X-24108101Y-8499490D01*
X-24099207Y-8509219D01*
X-24093657Y-8521171D01*
X-24053731Y-8575806D01*
X-24044422Y-8584363D01*
X-24038162Y-8595346D01*
X-23993501Y-8646846D01*
X-23983707Y-8654448D01*
X-23976709Y-8664683D01*
X-23927896Y-8712463D01*
X-23917485Y-8719260D01*
X-23909648Y-8728918D01*
X-23857269Y-8772394D01*
X-23846054Y-8778469D01*
X-23837214Y-8787664D01*
X-23781853Y-8826253D01*
X-23769604Y-8831612D01*
X-23759524Y-8840398D01*
X-23701763Y-8873516D01*
X-23688267Y-8878052D01*
X-23676708Y-8886358D01*
X-23617140Y-8913442D01*
X-23603596Y-8916619D01*
X-23591607Y-8923665D01*
X-23531059Y-8944744D01*
X-23519134Y-8946408D01*
X-23508302Y-8951668D01*
X-23447875Y-8967465D01*
X-23437649Y-8968073D01*
X-23428152Y-8971917D01*
X-23368965Y-8983195D01*
X-23360335Y-8983125D01*
X-23352165Y-8985905D01*
X-23295334Y-8993425D01*
X-23288194Y-8992962D01*
X-23281325Y-8994944D01*
X-23227969Y-8999468D01*
X-23222260Y-8998827D01*
X-23216683Y-9000211D01*
X-23167917Y-9002499D01*
X-23163701Y-9001864D01*
X-23159535Y-9002775D01*
X-23116477Y-9003590D01*
X-23114065Y-9003158D01*
X-23111661Y-9003643D01*
X-23075428Y-9003747D01*
X-23074997Y-9003663D01*
X-23074567Y-9003748D01*
X-5745976Y-9003748D01*
X-5745546Y-9003663D01*
X-5745115Y-9003747D01*
X-5708883Y-9003643D01*
X-5706478Y-9003157D01*
X-5704066Y-9003590D01*
X-5661009Y-9002775D01*
X-5656843Y-9001864D01*
X-5652627Y-9002499D01*
X-5603861Y-9000211D01*
X-5598285Y-8998827D01*
X-5592576Y-8999468D01*
X-5539219Y-8994944D01*
X-5532350Y-8992962D01*
X-5525210Y-8993425D01*
X-5468380Y-8985905D01*
X-5460209Y-8983125D01*
X-5451580Y-8983195D01*
X-5392392Y-8971917D01*
X-5382895Y-8968073D01*
X-5372668Y-8967465D01*
X-5312241Y-8951668D01*
X-5301410Y-8946408D01*
X-5289483Y-8944744D01*
X-5228935Y-8923665D01*
X-5216944Y-8916617D01*
X-5203406Y-8913442D01*
X-5143836Y-8886359D01*
X-5132274Y-8878051D01*
X-5118778Y-8873515D01*
X-5061018Y-8840397D01*
X-5050940Y-8831612D01*
X-5038693Y-8826254D01*
X-4983331Y-8787665D01*
X-4974489Y-8778469D01*
X-4963272Y-8772392D01*
X-4910894Y-8728916D01*
X-4903060Y-8719261D01*
X-4892647Y-8712463D01*
X-4843835Y-8664683D01*
X-4836837Y-8654448D01*
X-4827043Y-8646846D01*
X-4782381Y-8595346D01*
X-4776120Y-8584362D01*
X-4766816Y-8575809D01*
X-4726888Y-8521174D01*
X-4721336Y-8509219D01*
X-4712442Y-8499490D01*
X-4677833Y-8442303D01*
X-4673055Y-8429129D01*
X-4664595Y-8417957D01*
X-4635886Y-8358801D01*
X-4632288Y-8345027D01*
X-4624793Y-8332918D01*
X-4602203Y-8272522D01*
X-4600186Y-8260147D01*
X-4594488Y-8248976D01*
X-4577380Y-8188409D01*
X-4576536Y-8177747D01*
X-4572357Y-8167896D01*
X-4559967Y-8108274D01*
X-4559890Y-8099236D01*
X-4556860Y-8090720D01*
X-4548428Y-8033164D01*
X-4548811Y-8025643D01*
X-4546641Y-8018433D01*
X-4541405Y-7964056D01*
X-4542017Y-7957974D01*
X-4540492Y-7952055D01*
X-4537691Y-7901977D01*
X-4538345Y-7897351D01*
X-4537319Y-7892797D01*
X-4536191Y-7848136D01*
X-4536700Y-7845190D01*
X-4536100Y-7842260D01*
X-4535884Y-7804130D01*
X-4536047Y-7803286D01*
X-4535879Y-7802441D01*
X-4535878Y-7771498D01*
X-4535879Y-7771493D01*
X-4535878Y-7771488D01*
X-4535878Y-6473068D01*
X-4444330Y-6473068D01*
X-4155074Y-7173121D01*
X-3619938Y-7709192D01*
X-2920391Y-7999669D01*
X-2162932Y-8000330D01*
X-1462879Y-7711074D01*
X-926808Y-7175938D01*
X-636331Y-6476391D01*
X-635670Y-5718932D01*
X-924926Y-5018879D01*
X-1460062Y-4482808D01*
X-2159609Y-4192331D01*
X-2917068Y-4191670D01*
X-3617121Y-4480926D01*
X-4153192Y-5016062D01*
X-4443669Y-5715609D01*
X-4444330Y-6473068D01*
X-4535878Y-6473068D01*
X-4535878Y-5579418D01*
X-4535796Y-5507531D01*
X-4534674Y-5423794D01*
X-4531072Y-5330474D01*
X-4523610Y-5229542D01*
X-4510965Y-5123172D01*
X-4491944Y-5013947D01*
X-4465490Y-4904389D01*
X-4430719Y-4796948D01*
X-4386502Y-4692865D01*
X-4331447Y-4591261D01*
X-4265542Y-4491993D01*
X-4189881Y-4396693D01*
X-4105807Y-4307045D01*
X-4014808Y-4224634D01*
X-3918507Y-4150935D01*
X-3818624Y-4087270D01*
X-3716595Y-4034579D01*
X-3611830Y-3992522D01*
X-3503757Y-3959594D01*
X-3394045Y-3934799D01*
X-3285222Y-3917232D01*
X-3179820Y-3905799D01*
X-3080274Y-3899269D01*
X-2988909Y-3896316D01*
X-2907420Y-3895537D01*
X-2838220Y-3895511D01*
X-2250441Y-3895511D01*
X-2181919Y-3895530D01*
X-2100996Y-3896239D01*
X-2010072Y-3899052D01*
X-1910880Y-3905374D01*
X-1805697Y-3916538D01*
X-1696993Y-3933774D01*
X-1587279Y-3958187D01*
X-1479056Y-3990700D01*
X-1374124Y-4032274D01*
X-1271987Y-4084422D01*
X-1171976Y-4147562D01*
X-1075465Y-4220792D01*
X-984169Y-4302805D01*
X-899711Y-4392141D01*
X-823600Y-4487206D01*
X-757192Y-4586312D01*
X-701592Y-4687818D01*
X-656867Y-4791749D01*
X-621662Y-4899043D01*
X-594819Y-5008545D01*
X-575455Y-5117846D01*
X-562525Y-5224408D01*
X-554838Y-5325677D01*
X-551079Y-5419408D01*
X-549867Y-5503654D01*
X-549767Y-5576576D01*
X-549767Y-32676719D01*
X-549983Y-32765123D01*
X-551806Y-32867272D01*
X-556949Y-32980771D01*
X-567082Y-33103312D01*
X-583776Y-33231981D01*
X-608508Y-33363952D01*
X-642573Y-33496188D01*
X-687124Y-33625906D01*
X-743751Y-33752030D01*
X-813627Y-33875173D01*
X-896270Y-33994809D01*
X-990274Y-34109003D01*
X-1094017Y-34215842D01*
X-1205771Y-34313550D01*
X-1323677Y-34400472D01*
X-1445762Y-34475091D01*
X-1570710Y-34536455D01*
X-1699103Y-34585124D01*
X-1830747Y-34622848D01*
X-1963134Y-34650800D01*
X-2093354Y-34670235D01*
X-2218423Y-34682556D01*
X-2335475Y-34689309D01*
X-2442003Y-34692135D01*
X-2535744Y-34692729D01*
X-2616437Y-34692733D01*
X-26206932Y-34692733D01*
X-26284800Y-34692729D01*
X-26378540Y-34692135D01*
X-26485068Y-34689309D01*
X-26602121Y-34682556D01*
X-26727189Y-34670235D01*
X-26857410Y-34650800D01*
X-26989792Y-34622849D01*
X-27121437Y-34585125D01*
X-27249832Y-34536456D01*
X-27374789Y-34475086D01*
X-27496860Y-34400476D01*
X-27614763Y-34313559D01*
X-27726520Y-34215848D01*
X-27830270Y-34109002D01*
X-27924275Y-33994806D01*
X-28006916Y-33875174D01*
X-28076794Y-33752026D01*
X-28133419Y-33625910D01*
X-28177971Y-33496188D01*
X-28212035Y-33363952D01*
X-28236769Y-33231975D01*
X-28253462Y-33103312D01*
X-28263595Y-32980772D01*
X-28268738Y-32867272D01*
X-28270560Y-32765127D01*
X-28270777Y-32676713D01*
X-28270777Y-24130000D01*
X-20443000Y-24130000D01*
X-20443000Y-24765000D01*
X-20404635Y-24957873D01*
X-20295382Y-25121382D01*
X-19533382Y-25883382D01*
X-19369872Y-25992635D01*
X-19177000Y-26031000D01*
X-10160000Y-26031000D01*
X-9967127Y-25992635D01*
X-9803618Y-25883382D01*
X-8152618Y-24232382D01*
X-8043365Y-24068872D01*
X-8004999Y-23876000D01*
X-8005000Y-23875995D01*
X-8005000Y-23270937D01*
X-7960904Y-23226918D01*
X-7862212Y-22989241D01*
X-7861987Y-22731888D01*
X-7960265Y-22494039D01*
X-8142082Y-22311904D01*
X-8379759Y-22213212D01*
X-8443079Y-22213157D01*
X-9275000Y-21381236D01*
X-9275000Y-12602937D01*
X-9230904Y-12558918D01*
X-9132212Y-12321241D01*
X-9131987Y-12063888D01*
X-9230265Y-11826039D01*
X-9412082Y-11643904D01*
X-9649759Y-11545212D01*
X-9907112Y-11544987D01*
X-10144961Y-11643265D01*
X-10327096Y-11825082D01*
X-10425788Y-12062759D01*
X-10426013Y-12320112D01*
X-10327735Y-12557961D01*
X-10283000Y-12602774D01*
X-10283000Y-17123240D01*
X-10428082Y-16977904D01*
X-10665759Y-16879212D01*
X-10904313Y-16879003D01*
X-13843800Y-13939516D01*
X-13843800Y-13716000D01*
X-13872741Y-13570504D01*
X-13955158Y-13447158D01*
X-15479158Y-11923158D01*
X-15602504Y-11840741D01*
X-15748000Y-11811800D01*
X-16610479Y-11811800D01*
X-16778082Y-11643904D01*
X-17015759Y-11545212D01*
X-17273112Y-11544987D01*
X-17510961Y-11643265D01*
X-17693096Y-11825082D01*
X-17791788Y-12062759D01*
X-17792013Y-12320112D01*
X-17693735Y-12557961D01*
X-17511918Y-12740096D01*
X-17274241Y-12838788D01*
X-17016888Y-12839013D01*
X-16779039Y-12740735D01*
X-16610209Y-12572200D01*
X-15905484Y-12572200D01*
X-14604200Y-13873484D01*
X-14604200Y-14097000D01*
X-14575259Y-14242496D01*
X-14492842Y-14365842D01*
X-11441806Y-17416878D01*
X-11442013Y-17654112D01*
X-11389666Y-17780800D01*
X-15621000Y-17780800D01*
X-15766496Y-17809741D01*
X-15889842Y-17892158D01*
X-17032842Y-19035158D01*
X-17115259Y-19158504D01*
X-17144200Y-19304000D01*
X-17144200Y-23083516D01*
X-18191484Y-24130800D01*
X-18261479Y-24130800D01*
X-18429082Y-23962904D01*
X-18666759Y-23864212D01*
X-18924112Y-23863987D01*
X-18985650Y-23889414D01*
X-18857195Y-23760959D01*
X-18794888Y-23761013D01*
X-18557039Y-23662735D01*
X-18374904Y-23480918D01*
X-18276212Y-23243241D01*
X-18275987Y-22985888D01*
X-18374265Y-22748039D01*
X-18556082Y-22565904D01*
X-18793759Y-22467212D01*
X-19051112Y-22466987D01*
X-19288961Y-22565265D01*
X-19471096Y-22747082D01*
X-19569788Y-22984759D01*
X-19569843Y-23048079D01*
X-20295382Y-23773618D01*
X-20404635Y-23937127D01*
X-20404635Y-23937128D01*
X-20443000Y-24130000D01*
X-28270777Y-24130000D01*
X-28270777Y-11812112D01*
X-23126013Y-11812112D01*
X-23027735Y-12049961D01*
X-22845918Y-12232096D01*
X-22732200Y-12279316D01*
X-22732200Y-18669000D01*
X-22703259Y-18814496D01*
X-22620842Y-18937842D01*
X-21858842Y-19699842D01*
X-21774608Y-19756125D01*
X-21757735Y-19796961D01*
X-21575918Y-19979096D01*
X-21338241Y-20077788D01*
X-21080888Y-20078013D01*
X-20843039Y-19979735D01*
X-20660904Y-19797918D01*
X-20562212Y-19560241D01*
X-20561987Y-19302888D01*
X-20660265Y-19065039D01*
X-20842082Y-18882904D01*
X-21079759Y-18784212D01*
X-21337112Y-18783987D01*
X-21574961Y-18882265D01*
X-21588017Y-18895299D01*
X-21971800Y-18511516D01*
X-21971800Y-12091743D01*
X-21930904Y-12050918D01*
X-21832212Y-11813241D01*
X-21831987Y-11555888D01*
X-21930265Y-11318039D01*
X-22112082Y-11135904D01*
X-22349759Y-11037212D01*
X-22607112Y-11036987D01*
X-22844961Y-11135265D01*
X-23027096Y-11317082D01*
X-23125788Y-11554759D01*
X-23126013Y-11812112D01*
X-28270777Y-11812112D01*
X-28270777Y-6473068D01*
X-28193330Y-6473068D01*
X-27904074Y-7173121D01*
X-27368938Y-7709192D01*
X-26669391Y-7999669D01*
X-25911932Y-8000330D01*
X-25211879Y-7711074D01*
X-24675808Y-7175938D01*
X-24385331Y-6476391D01*
X-24384670Y-5718932D01*
X-24673926Y-5018879D01*
X-25209062Y-4482808D01*
X-25908609Y-4192331D01*
X-26666068Y-4191670D01*
X-27366121Y-4480926D01*
X-27902192Y-5016062D01*
X-28192669Y-5715609D01*
X-28193330Y-6473068D01*
X-28270777Y-6473068D01*
X-28270777Y-5576576D01*
X-28270677Y-5503679D01*
X-28269464Y-5419419D01*
X-28265706Y-5325697D01*
X-28258018Y-5224411D01*
X-28245090Y-5117875D01*
X-28225726Y-5008571D01*
X-28198877Y-4899042D01*
X-28163679Y-4791767D01*
X-28118950Y-4687828D01*
X-28063350Y-4586321D01*
X-27996936Y-4487208D01*
X-27920823Y-4392141D01*
X-27836369Y-4302810D01*
X-27745072Y-4220796D01*
X-27648554Y-4147562D01*
X-27548543Y-4084421D01*
X-27446409Y-4032274D01*
X-27341484Y-3990704D01*
X-27233268Y-3958191D01*
X-27123537Y-3933776D01*
X-27014823Y-3916536D01*
X-26909650Y-3905374D01*
X-26810454Y-3899052D01*
X-26719530Y-3896239D01*
X-26638605Y-3895530D01*
X-26570083Y-3895511D01*
X-25982324Y-3895511D01*
X-25913124Y-3895537D01*
M02*
